<?xml version="1.0" encoding="UTF-8"?>
<svg id="Layer_1" xmlns="http://www.w3.org/2000/svg" version="1.1" viewBox="0 0 46 46">
  <!-- Generator: Adobe Illustrator 30.0.0, SVG Export Plug-In . SVG Version: 2.1.1 Build 123)  -->
  <ellipse cx="23.00001" cy="23.006729" rx="22.26152" ry="22.255019"/>
  <g>
    <path d="M23.00001,45.865775C10.392309,45.865775.134284,35.610748.134284,23.006727S10.392309.134259,23.00001.134259s22.865722,10.255028,22.865722,22.859048-10.258023,22.872467-22.865724,22.872467h.000002ZM23.00001,1.342312C11.050218,1.342312,1.329264,11.060428,1.329264,23.006729s9.720954,21.664416,21.670746,21.664416,21.670748-9.718114,21.670748-21.664416S34.9498,1.342312,23.00001,1.342312Z"/>
    <path d="M23.000033,46C10.317802,46,0,35.685277,0,23.006751,0,10.320818,10.317802,0,23.000033,0s22.999967,10.314788,22.999967,22.993315c0,12.685933-10.317736,23.006685-22.999967,23.006685ZM23.000033.268456C10.465837.268456.268535,10.46881.268535,23.006751c0,12.530535,10.197302,22.724793,22.731498,22.724793s22.731433-10.200288,22.731433-22.738229C45.731465,10.46278,35.534229.268456,23.000033.268456ZM23.000033,44.805317c-12.023351,0-21.805067-9.778859-21.805067-21.798567C1.194966,10.986912,10.976682,1.208053,23.000033,1.208053c12.02322,0,21.804936,9.778859,21.804936,21.798698,0,12.019708-9.781716,21.798567-21.804936,21.798567ZM23.000033,1.476509C11.124717,1.476509,1.463501,11.134969,1.463501,23.006751c0,11.871716,9.661216,21.53011,21.536532,21.53011,11.875185,0,21.536401-9.658394,21.536401-21.53011,0-11.871782-9.661216-21.530242-21.536401-21.530242Z" fill="#fff"/>
  </g>
  <g>
    <circle cx="10.513148" cy="13.959755" r="3.54414" fill="red"/>
    <path d="M10.513171,17.637626c-2.028564,0-3.678977-1.649931-3.678977-3.677903s1.650413-3.677837,3.678977-3.677837,3.678912,1.649865,3.678912,3.677837-1.650347,3.677903-3.678912,3.677903ZM10.513171,10.550343c-1.880529,0-3.410443,1.529466-3.410443,3.409381,0,1.87998,1.529913,3.409446,3.410443,3.409446,1.880464,0,3.410377-1.529466,3.410377-3.409446,0-1.879915-1.529913-3.409381-3.410377-3.409381Z" fill="#fff"/>
  </g>
  <g>
    <circle cx="18.784017" cy="13.959755" r="3.544139" fill="lime"/>
    <path d="M18.783986,17.637626c-2.028564,0-3.678912-1.649931-3.678912-3.677903s1.650347-3.677837,3.678912-3.677837,3.678977,1.649865,3.678977,3.677837-1.650413,3.677903-3.678977,3.677903ZM18.783986,10.550343c-1.880464,0-3.410377,1.529466-3.410377,3.409381,0,1.87998,1.529913,3.409446,3.410377,3.409446,1.880529,0,3.410443-1.529466,3.410443-3.409446,0-1.879915-1.529913-3.409381-3.410443-3.409381Z" fill="#fff"/>
  </g>
  <g>
    <circle cx="27.054885" cy="13.959755" r="3.544139" fill="aqua"/>
    <path d="M27.054932,17.637626c-2.028564,0-3.678977-1.649931-3.678977-3.677903s1.650413-3.677837,3.678977-3.677837,3.678846,1.649865,3.678846,3.677837-1.650282,3.677903-3.678846,3.677903ZM27.054932,10.550343c-1.880529,0-3.410443,1.529466-3.410443,3.409381,0,1.87998,1.529913,3.409446,3.410443,3.409446,1.880398,0,3.410311-1.529466,3.410311-3.409446,0-1.879915-1.529913-3.409381-3.410311-3.409381Z" fill="#fff"/>
  </g>
  <g>
    <circle cx="35.325751" cy="13.959755" r="3.544139" fill="#ff0"/>
    <path d="M35.325747,17.637626c-2.028564,0-3.678977-1.649931-3.678977-3.677903s1.650413-3.677837,3.678977-3.677837,3.678977,1.649865,3.678977,3.677837-1.650413,3.677903-3.678977,3.677903ZM35.325747,10.550343c-1.880529,0-3.410443,1.529466-3.410443,3.409381,0,1.87998,1.529913,3.409446,3.410443,3.409446s3.410443-1.529466,3.410443-3.409446c0-1.879915-1.529913-3.409381-3.410443-3.409381Z" fill="#fff"/>
  </g>
  <g>
    <rect x="12.19149" y="27.557061" width="2.363106" height="4.161071" fill="#ff0"/>
    <path d="M14.688833,31.852305h-2.631587v-4.429528h2.631587v4.429528ZM12.32578,31.583848h2.094518v-3.892615h-2.094518v3.892615Z" fill="#fff"/>
  </g>
  <g>
    <rect x="12.19149" y="35.140949" width="2.363106" height="4.161071" fill="#ff0"/>
    <path d="M14.688833,39.436193h-2.631587v-4.429528h2.631587v4.429528ZM12.32578,39.167737h2.094518v-3.892615h-2.094518v3.892615Z" fill="#fff"/>
  </g>
  <g>
    <rect x="15.089567" y="32.250203" width="4.162287" height="2.362416" fill="#ff0"/>
    <path d="M19.386091,34.74686h-4.430822v-2.63095h4.430822v2.63095ZM15.223804,34.478404h3.893753v-2.094037h-3.893753v2.094037Z" fill="#fff"/>
  </g>
  <g>
    <rect x="7.498915" y="32.241314" width="4.162287" height="2.362416" fill="#ff0"/>
    <path d="M11.795464,34.737947h-4.430822v-2.630819h4.430822v2.630819ZM7.633176,34.469491h3.893753v-2.093906h-3.893753v2.093906Z" fill="#fff"/>
  </g>
  <g>
    <circle cx="36.1045" cy="31.583904" r="1.839195" fill="red"/>
    <path d="M36.104472,33.557028c-1.0883,0-1.973756-.885198-1.973756-1.973179s.885456-1.973048,1.973756-1.973048,1.973756.885067,1.973756,1.973048-.885456,1.973179-1.973756,1.973179ZM36.104472,29.879256c-.940265,0-1.705221.764733-1.705221,1.704592,0,.93999.764957,1.704723,1.705221,1.704723s1.705221-.764733,1.705221-1.704723c0-.939859-.764957-1.704592-1.705221-1.704592Z" fill="#fff"/>
  </g>
  <g>
    <path d="M23.557221,39.704705v-7.422813c0-.33557.268535-.604027.604203-.604027h7.505545c.335668,0,.604203.268456.604203.604027v7.422813c0,.33557-.268535.604027-.604203.604027h-7.505543c-.322243,0-.604205-.268456-.604205-.604027Z" fill="#fff"/>
    <path d="M31.666963,40.564286h-7.505531c-.474132,0-.859822-.385644-.859822-.859637v-7.422788c0-.473993.385691-.859637.859822-.859637h7.505531c.474132,0,.859888.385644.859888.859637v7.422788c0,.473993-.385756.859637-.859888.859637ZM24.161432,31.933444c-.195435,0-.348584.152973-.348584.348416v7.422788c0,.188889.159639.348416.348584.348416h7.505531c.195501,0,.348518-.152973.348518-.348416v-7.422788c0-.195443-.153018-.348416-.348518-.348416h-7.505531Z"/>
  </g>
  <circle cx="27.914165" cy="35.99495" r="2.094265"/>
  <g>
    <path d="M27.961189,38.532061c-.255107,0-.510214-.040267-.765325-.120804-.644482-.201342-1.181551-.644293-1.490368-1.24832-.308813-.604027-.375947-1.288591-.174546-1.932884s.644482-1.181206,1.248685-1.489933c1.248685-.644293,2.779335-.161075,3.437244,1.073825.308813.604027.375947,1.288591.174546,1.932884s-.644482,1.181206-1.248685,1.489933h0c-.375947.201338-.778749.295299-1.181551.295299ZM27.961189,34.344142c-.255107,0-.510214.05369-.751898.187919-.389374.201342-.671337.550336-.805604.966444s-.093989.859059.107412,1.24832.550497.671141.966726.805369.85931.093961,1.248685-.107381h0c.389374-.201342.671337-.550336.805604-.966444s.093989-.859059-.107412-1.24832c-.295386-.56376-.872738-.885906-1.463513-.885906Z"/>
    <path d="M27.961237,38.666348c-.267486,0-.538512-.042733-.805735-.12715-.688382-.214975-1.245972-.682151-1.569577-1.315147-.327736-.640992-.392837-1.363385-.183175-2.034002.215234-.688574.682547-1.245936,1.315728-1.569446,1.303862-.67232,2.926608-.165557,3.616957,1.130321.328719.642958.393755,1.365352.184093,2.035837-.215169.688574-.682482,1.246067-1.315662,1.569578-.383265.205275-.802195.310009-1.242628.310009ZM27.945633,33.591502c-.373693,0-.751976.086121-1.104427.267932-.568932.290609-.988583.791605-1.182116,1.410575-.188551.60324-.129613,1.253801.165998,1.831873.290497.568241.791509.987835,1.41079,1.181312.639474.201866,1.287472.133179,1.843422-.16477.570767-.291658.990484-.792523,1.184018-1.411624.18842-.603109.129547-1.25367-.165998-1.831742-.434402-.8152-1.280522-1.283556-2.151686-1.283556ZM27.973169,37.764633c-.180291,0-.360843-.028052-.536545-.084679-.459839-.148385-.830779-.45787-1.044899-.871565-.219102-.423526-.260274-.903418-.11591-1.351064.148297-.459574.457873-.830536.871689-1.044462.24113-.134097.51609-.202915.813733-.202915.666485,0,1.272786.36703,1.582361.957817.219496.424313.260667.904205.116304,1.351719-.148297.459574-.457873.830536-.87182,1.044594-.257389.133048-.535758.200556-.814914.200556ZM27.961237,34.478404c-.251489,0-.482523.057545-.686809.170931-.354025.183122-.616528.498636-.742928.89031-.122335.37909-.087195.785969.098865,1.145396.181208.350383.496815.61294.888603.739303.379331.122431.786198.087301,1.14573-.098836.350616-.181156.61325-.49667.739519-.888344.122335-.37909.087195-.785837-.098865-1.145527-.262634-.501389-.777806-.813234-1.344116-.813234Z" fill="#fff"/>
  </g>
  <path d="M4.954481,25.892633c-.537069,0-.966724-.42953-.966724-.966442s.429655-.966442.966724-.966442.966724.42953.966724.966442-.443082.966442-.966724.966442Z"/>
  <path d="M4.954481,24.093977c.456509,0,.832457.375839.832457.832214s-.375949.832214-.832457.832214-.832457-.375839-.832457-.832214c-.013427-.456377.362521-.832214.832457-.832214M4.954481,23.825521c-.604203,0-1.100992.496644-1.100992,1.10067s.496789,1.10067,1.100992,1.10067,1.100992-.496644,1.100992-1.10067-.496789-1.10067-1.100992-1.10067h0Z" fill="#fff"/>
  <path d="M4.954481,22.442971c-.537069,0-.966724-.42953-.966724-.966442s.429655-.966442.966724-.966442.966724.42953.966724.966442-.443082.966442-.966724.966442Z"/>
  <path d="M4.954481,20.644313c.456509,0,.832457.375839.832457.832214s-.375949.832214-.832457.832214-.832457-.375839-.832457-.832214.362521-.832214.832457-.832214M4.954481,20.375857c-.604203,0-1.100992.496644-1.100992,1.10067s.496789,1.10067,1.100992,1.10067,1.100992-.496644,1.100992-1.10067c.000001-.617448-.496789-1.10067-1.100992-1.10067h0Z" fill="#fff"/>
  <g>
    <rect x="4.001183" y="21.543643" width="1.879743" height="3.275165" fill="#ff0"/>
    <path d="M6.034949,24.972786h-2.187745v-3.58313h2.187745v3.58313ZM4.155207,24.664874h1.571741v-2.967306h-1.571741v2.967306Z" fill="#fff"/>
  </g>
  <circle cx="8.230604" cy="24.926191" r=".966583"/>
  <path d="M8.230604,24.093977c.456508,0,.832457.375839.832457.832214s-.375949.832214-.832457.832214-.832457-.375839-.832457-.832214.375949-.832214.832457-.832214M8.230604,23.825521c-.604203,0-1.100992.496644-1.100992,1.10067s.496789,1.10067,1.100992,1.10067,1.100992-.496644,1.100992-1.10067-.496789-1.10067-1.100992-1.10067h0Z" fill="#fff"/>
  <path d="M8.230604,22.442971c-.537069,0-.966724-.42953-.966724-.966442s.429655-.966442.966724-.966442.966724.42953.966724.966442-.429655.966442-.966724.966442Z"/>
  <path d="M8.230604,20.644313c.456508,0,.832457.375839.832457.832214s-.375949.832214-.832457.832214-.832457-.375839-.832457-.832214.375949-.832214.832457-.832214M8.230604,20.375857c-.604203,0-1.100992.496644-1.100992,1.10067s.496789,1.10067,1.100992,1.10067,1.100992-.496644,1.100992-1.10067c0-.617448-.496789-1.10067-1.100992-1.10067h0Z" fill="#fff"/>
  <g>
    <rect x="7.290733" y="21.543643" width="1.879743" height="3.275165" fill="#ff0"/>
    <path d="M9.324499,24.972786h-2.187745v-3.58313h2.187745v3.58313ZM7.444756,24.664874h1.571741v-2.967306h-1.571741v2.967306Z" fill="#fff"/>
  </g>
  <path d="M11.506726,25.892633c-.537069,0-.966724-.42953-.966724-.966442s.429655-.966442.966724-.966442.966724.42953.966724.966442-.429655.966442-.966724.966442Z"/>
  <path d="M11.506726,24.093977c.456508,0,.832457.375839.832457.832214s-.375949.832214-.832457.832214-.832457-.375839-.832457-.832214.375949-.832214.832457-.832214M11.506726,23.825521c-.604203,0-1.100992.496644-1.100992,1.10067s.496789,1.10067,1.100992,1.10067,1.100992-.496644,1.100992-1.10067-.483361-1.10067-1.100992-1.10067h0Z" fill="#fff"/>
  <path d="M11.506726,22.442971c-.537069,0-.966724-.42953-.966724-.966442s.429655-.966442.966724-.966442.966724.42953.966724.966442-.429655.966442-.966724.966442Z"/>
  <path d="M11.506726,20.644313c.456508,0,.832457.375839.832457.832214s-.375949.832214-.832457.832214-.832457-.375839-.832457-.832214.375949-.832214.832457-.832214M11.506726,20.375857c-.604203,0-1.100992.496644-1.100992,1.10067s.496789,1.10067,1.100992,1.10067,1.100992-.496644,1.100992-1.10067c.013428-.617448-.483361-1.10067-1.100992-1.10067h0Z" fill="#fff"/>
  <g>
    <rect x="10.566855" y="21.543643" width="1.879743" height="3.275165" fill="#ff0"/>
    <path d="M12.600609,24.972786h-2.187745v-3.58313h2.187745v3.58313ZM10.720866,24.664874h1.571741v-2.967306h-1.571741v2.967306Z" fill="#fff"/>
  </g>
  <path d="M14.796275,25.892633c-.537069,0-.966724-.42953-.966724-.966442s.429655-.966442.966724-.966442.966724.42953.966724.966442-.429655.966442-.966724.966442Z"/>
  <path d="M14.796275,24.093977c.456508,0,.832457.375839.832457.832214s-.375949.832214-.832457.832214-.832457-.375839-.832457-.832214.375949-.832214.832457-.832214M14.796275,23.825521c-.604203,0-1.100992.496644-1.100992,1.10067s.496789,1.10067,1.100992,1.10067,1.100992-.496644,1.100992-1.10067-.496789-1.10067-1.100992-1.10067h0Z" fill="#fff"/>
  <path d="M14.796275,22.442971c-.537069,0-.966724-.42953-.966724-.966442s.429655-.966442.966724-.966442.966724.42953.966724.966442-.429655.966442-.966724.966442Z"/>
  <path d="M14.796275,20.644313c.456508,0,.832457.375839.832457.832214s-.375949.832214-.832457.832214-.832457-.375839-.832457-.832214.375949-.832214.832457-.832214M14.796275,20.375857c-.604203,0-1.100992.496644-1.100992,1.10067s.496789,1.10067,1.100992,1.10067,1.100992-.496644,1.100992-1.10067c.000002-.617448-.496789-1.10067-1.100992-1.10067h0Z" fill="#fff"/>
  <g>
    <rect x="13.856404" y="21.543643" width="1.879743" height="3.275165" fill="#ff0"/>
    <path d="M15.890158,24.972786h-2.187745v-3.58313h2.187745v3.58313ZM14.010416,24.664874h1.571741v-2.967306h-1.571741v2.967306Z" fill="#fff"/>
  </g>
  <path d="M18.072399,25.892633c-.537069,0-.966724-.42953-.966724-.966442s.429655-.966442.966724-.966442.966724.42953.966724.966442-.429655.966442-.966724.966442Z"/>
  <path d="M18.072399,24.093977c.456508,0,.832457.375839.832457.832214s-.375949.832214-.832457.832214-.832457-.375839-.832457-.832214.375947-.832214.832457-.832214M18.072399,23.825521c-.604203,0-1.100992.496644-1.100992,1.10067s.496789,1.10067,1.100992,1.10067,1.100992-.496644,1.100992-1.10067-.483363-1.10067-1.100992-1.10067h0Z" fill="#fff"/>
  <path d="M18.072399,22.442971c-.537069,0-.966724-.42953-.966724-.966442s.429655-.966442.966724-.966442.966724.42953.966724.966442-.429655.966442-.966724.966442Z"/>
  <path d="M18.072399,20.644313c.456508,0,.832457.375839.832457.832214s-.375949.832214-.832457.832214-.832457-.375839-.832457-.832214.375947-.832214.832457-.832214M18.072399,20.375857c-.604203,0-1.100992.496644-1.100992,1.10067s.496789,1.10067,1.100992,1.10067,1.100992-.496644,1.100992-1.10067c0-.617448-.483363-1.10067-1.100992-1.10067h0Z" fill="#fff"/>
  <g>
    <rect x="17.132528" y="21.543643" width="1.879743" height="3.275165" fill="#ff0"/>
    <path d="M19.166268,24.972786h-2.187745v-3.58313h2.187745v3.58313ZM17.286525,24.664874h1.571741v-2.967306h-1.571741v2.967306Z" fill="#fff"/>
  </g>
  <path d="M21.361949,25.892633c-.537069,0-.966724-.42953-.966724-.966442s.429655-.966442.966724-.966442.966724.42953.966724.966442-.429655.966442-.966724.966442Z"/>
  <path d="M21.361949,24.093977c.456508,0,.832457.375839.832457.832214s-.375949.832214-.832457.832214-.832457-.375839-.832457-.832214.375947-.832214.832457-.832214M21.361949,23.825521c-.604203,0-1.100992.496644-1.100992,1.10067s.496789,1.10067,1.100992,1.10067,1.100992-.496644,1.100992-1.10067-.496789-1.10067-1.100992-1.10067h0Z" fill="#fff"/>
  <path d="M21.361949,22.442971c-.537069,0-.966724-.42953-.966724-.966442s.429655-.966442.966724-.966442.966724.42953.966724.966442-.429655.966442-.966724.966442Z"/>
  <path d="M21.361949,20.644313c.456508,0,.832457.375839.832457.832214s-.375949.832214-.832457.832214-.832457-.375839-.832457-.832214.375947-.832214.832457-.832214M21.361949,20.375857c-.604203,0-1.100992.496644-1.100992,1.10067s.496789,1.10067,1.100992,1.10067,1.100992-.496644,1.100992-1.10067c0-.617448-.496789-1.10067-1.100992-1.10067h0Z" fill="#fff"/>
  <g>
    <rect x="20.40865" y="21.543643" width="1.879743" height="3.275165" fill="#ff0"/>
    <path d="M22.442378,24.972786h-2.187745v-3.58313h2.187745v3.58313ZM20.562635,24.664874h1.571741v-2.967306h-1.571741v2.967306Z" fill="#fff"/>
  </g>
  <circle cx="24.638071" cy="24.926191" r=".966583"/>
  <path d="M24.638071,24.093977c.45651,0,.832457.375839.832457.832214s-.375947.832214-.832457.832214-.832457-.375839-.832457-.832214.375949-.832214.832457-.832214M24.638071,23.825521c-.604203,0-1.100992.496644-1.100992,1.10067s.496789,1.10067,1.100992,1.10067,1.100992-.496644,1.100992-1.10067-.483363-1.10067-1.100992-1.10067h0Z" fill="#fff"/>
  <path d="M24.638071,22.442971c-.537069,0-.966724-.42953-.966724-.966442s.429655-.966442.966724-.966442.966724.42953.966724.966442-.429653.966442-.966724.966442Z"/>
  <path d="M24.638071,20.644313c.45651,0,.832457.375839.832457.832214s-.375947.832214-.832457.832214-.832457-.375839-.832457-.832214.375949-.832214.832457-.832214M24.638071,20.375857c-.604203,0-1.100992.496644-1.100992,1.10067s.496789,1.10067,1.100992,1.10067,1.100992-.496644,1.100992-1.10067c0-.617448-.483363-1.10067-1.100992-1.10067h0Z" fill="#fff"/>
  <g>
    <rect x="23.6982" y="21.543643" width="1.879745" height="3.275165" fill="#ff0"/>
    <path d="M25.731927,24.972786h-2.187745v-3.58313h2.187745v3.58313ZM23.852185,24.664874h1.571741v-2.967306h-1.571741v2.967306Z" fill="#fff"/>
  </g>
  <circle cx="27.927623" cy="24.926191" r=".966585"/>
  <path d="M27.927623,24.093977c.456508,0,.832459.375839.832459.832214s-.375947.832214-.832459.832214-.832459-.375839-.832459-.832214.362523-.832214.832459-.832214M27.927623,23.825521c-.604203,0-1.100994.496644-1.100994,1.10067s.496791,1.10067,1.100994,1.10067,1.100994-.496644,1.100994-1.10067-.496791-1.10067-1.100994-1.10067h0Z" fill="#fff"/>
  <path d="M27.927623,22.442971c-.537069,0-.966726-.42953-.966726-.966442s.429657-.966442.966726-.966442.966726.42953.966726.966442-.443085.966442-.966726.966442Z"/>
  <path d="M27.927623,20.644313c.456508,0,.832459.375839.832459.832214s-.375947.832214-.832459.832214-.832459-.375839-.832459-.832214.362523-.832214.832459-.832214M27.927623,20.375857c-.604203,0-1.100994.496644-1.100994,1.10067s.496791,1.10067,1.100994,1.10067,1.100994-.496644,1.100994-1.10067c-.000004-.617448-.496791-1.10067-1.100994-1.10067h0Z" fill="#fff"/>
  <g>
    <rect x="26.974324" y="21.543643" width="1.879743" height="3.275165" fill="#ff0"/>
    <path d="M29.007971,24.972786h-2.187613v-3.58313h2.187613v3.58313ZM27.128229,24.664874h1.571872v-2.967306h-1.571872v2.967306Z" fill="#fff"/>
  </g>
  <path d="M31.203745,25.892633c-.537069,0-.966726-.42953-.966726-.966442s.429657-.966442.966726-.966442.966726.42953.966726.966442-.429657.966442-.966726.966442Z"/>
  <path d="M31.203745,24.093977c.456508,0,.832459.375839.832459.832214s-.375947.832214-.832459.832214-.832459-.375839-.832459-.832214.375951-.832214.832459-.832214M31.203745,23.825521c-.604203,0-1.100994.496644-1.100994,1.10067s.496791,1.10067,1.100994,1.10067,1.100994-.496644,1.100994-1.10067-.496791-1.10067-1.100994-1.10067h0Z" fill="#fff"/>
  <path d="M31.203745,22.442971c-.537069,0-.966726-.42953-.966726-.966442s.429657-.966442.966726-.966442.966726.42953.966726.966442-.429657.966442-.966726.966442Z"/>
  <path d="M31.203745,20.644313c.456508,0,.832459.375839.832459.832214s-.375947.832214-.832459.832214-.832459-.375839-.832459-.832214.375951-.832214.832459-.832214M31.203745,20.375857c-.604203,0-1.100994.496644-1.100994,1.10067s.496791,1.10067,1.100994,1.10067,1.100994-.496644,1.100994-1.10067c-.000004-.617448-.496791-1.10067-1.100994-1.10067h0Z" fill="#fff"/>
  <g>
    <rect x="30.263873" y="21.543643" width="1.879743" height="3.275165" fill="#ff0"/>
    <path d="M32.297521,24.972786h-2.187613v-3.58313h2.187613v3.58313ZM30.417778,24.664874h1.571872v-2.967306h-1.571872v2.967306Z" fill="#fff"/>
  </g>
  <path d="M34.493292,25.892633c-.537069,0-.966726-.42953-.966726-.966442s.429657-.966442.966726-.966442.966726.42953.966726.966442-.443085.966442-.966726.966442Z"/>
  <path d="M34.493292,24.093977c.456508,0,.832459.375839.832459.832214s-.375947.832214-.832459.832214-.832459-.375839-.832459-.832214c-.013428-.456377.362523-.832214.832459-.832214M34.493292,23.825521c-.604203,0-1.100994.496644-1.100994,1.10067s.496791,1.10067,1.100994,1.10067,1.100994-.496644,1.100994-1.10067-.496791-1.10067-1.100994-1.10067h0Z" fill="#fff"/>
  <path d="M34.493292,22.442971c-.537069,0-.966726-.42953-.966726-.966442s.429657-.966442.966726-.966442.966726.42953.966726.966442-.443085.966442-.966726.966442Z"/>
  <path d="M34.493292,20.644313c.456508,0,.832459.375839.832459.832214s-.375947.832214-.832459.832214-.832459-.375839-.832459-.832214.362523-.832214.832459-.832214M34.493292,20.375857c-.604203,0-1.100994.496644-1.100994,1.10067s.496791,1.10067,1.100994,1.10067,1.100994-.496644,1.100994-1.10067c-.000004-.617448-.496791-1.10067-1.100994-1.10067h0Z" fill="#fff"/>
  <g>
    <rect x="33.539995" y="21.543643" width="1.879741" height="3.275165" fill="#ff0"/>
    <path d="M35.573696,24.972786h-2.187613v-3.58313h2.187613v3.58313ZM33.693953,24.664874h1.571872v-2.967306h-1.571872v2.967306Z" fill="#fff"/>
  </g>
  <path d="M37.769414,25.892633c-.537069,0-.966726-.42953-.966726-.966442s.429657-.966442.966726-.966442.966726.42953.966726.966442-.429657.966442-.966726.966442Z"/>
  <path d="M37.769414,24.093977c.456508,0,.832459.375839.832459.832214s-.375947.832214-.832459.832214-.832459-.375839-.832459-.832214.375951-.832214.832459-.832214M37.769414,23.825521c-.604203,0-1.100994.496644-1.100994,1.10067s.496791,1.10067,1.100994,1.10067,1.100994-.496644,1.100994-1.10067-.496791-1.10067-1.100994-1.10067h0Z" fill="#fff"/>
  <path d="M37.769414,22.442971c-.537069,0-.966726-.42953-.966726-.966442s.429657-.966442.966726-.966442.966726.42953.966726.966442-.429657.966442-.966726.966442Z"/>
  <path d="M37.769414,20.644313c.456508,0,.832459.375839.832459.832214s-.375947.832214-.832459.832214-.832459-.375839-.832459-.832214.375951-.832214.832459-.832214M37.769414,20.375857c-.604203,0-1.100994.496644-1.100994,1.10067s.496791,1.10067,1.100994,1.10067,1.100994-.496644,1.100994-1.10067c0-.617448-.496791-1.10067-1.100994-1.10067h0Z" fill="#fff"/>
  <g>
    <rect x="36.829543" y="21.543643" width="1.879743" height="3.275165" fill="#ff0"/>
    <path d="M38.863246,24.972786h-2.187613v-3.58313h2.187613v3.58313ZM36.983503,24.664874h1.571872v-2.967306h-1.571872v2.967306Z" fill="#fff"/>
  </g>
  <path d="M41.04554,25.892633c-.537069,0-.966726-.42953-.966726-.966442s.429657-.966442.966726-.966442.966726.42953.966726.966442-.429657.966442-.966726.966442Z"/>
  <path d="M41.04554,24.093977c.456508,0,.832459.375839.832459.832214s-.375947.832214-.832459.832214-.832459-.375839-.832459-.832214c.000004-.456377.375951-.832214.832459-.832214M41.04554,23.825521c-.604203,0-1.100994.496644-1.100994,1.10067s.496791,1.10067,1.100994,1.10067,1.100994-.496644,1.100994-1.10067-.483363-1.10067-1.100994-1.10067h0Z" fill="#fff"/>
  <path d="M41.04554,22.442971c-.537069,0-.966726-.42953-.966726-.966442s.429657-.966442.966726-.966442.966726.42953.966726.966442-.429657.966442-.966726.966442Z"/>
  <path d="M41.04554,20.644313c.456508,0,.832459.375839.832459.832214s-.375947.832214-.832459.832214-.832459-.375839-.832459-.832214.375951-.832214.832459-.832214M41.04554,20.375857c-.604203,0-1.100994.496644-1.100994,1.10067s.496791,1.10067,1.100994,1.10067,1.100994-.496644,1.100994-1.10067c.013428-.617448-.483363-1.10067-1.100994-1.10067h0Z" fill="#fff"/>
  <g>
    <rect x="40.105669" y="21.543643" width="1.879743" height="3.275165" fill="#ff0"/>
    <path d="M42.13929,24.972786h-2.187613v-3.58313h2.187613v3.58313ZM40.259547,24.664874h1.571872v-2.967306h-1.571872v2.967306Z" fill="#fff"/>
  </g>
</svg>