%TF.GenerationSoftware,KiCad,Pcbnew,9.0.5*%
%TF.CreationDate,2025-10-12T13:48:01+02:00*%
%TF.ProjectId,sw63_mk4_displaytestboard,73773633-5f6d-46b3-945f-646973706c61,rev?*%
%TF.SameCoordinates,Original*%
%TF.FileFunction,Legend,Top*%
%TF.FilePolarity,Positive*%
%FSLAX46Y46*%
G04 Gerber Fmt 4.6, Leading zero omitted, Abs format (unit mm)*
G04 Created by KiCad (PCBNEW 9.0.5) date 2025-10-12 13:48:01*
%MOMM*%
%LPD*%
G01*
G04 APERTURE LIST*
G04 Aperture macros list*
%AMRoundRect*
0 Rectangle with rounded corners*
0 $1 Rounding radius*
0 $2 $3 $4 $5 $6 $7 $8 $9 X,Y pos of 4 corners*
0 Add a 4 corners polygon primitive as box body*
4,1,4,$2,$3,$4,$5,$6,$7,$8,$9,$2,$3,0*
0 Add four circle primitives for the rounded corners*
1,1,$1+$1,$2,$3*
1,1,$1+$1,$4,$5*
1,1,$1+$1,$6,$7*
1,1,$1+$1,$8,$9*
0 Add four rect primitives between the rounded corners*
20,1,$1+$1,$2,$3,$4,$5,0*
20,1,$1+$1,$4,$5,$6,$7,0*
20,1,$1+$1,$6,$7,$8,$9,0*
20,1,$1+$1,$8,$9,$2,$3,0*%
%AMFreePoly0*
4,1,6,1.000000,0.000000,0.500000,-0.750000,-0.500000,-0.750000,-0.500000,0.750000,0.500000,0.750000,1.000000,0.000000,1.000000,0.000000,$1*%
G04 Aperture macros list end*
%ADD10C,0.240000*%
%ADD11C,0.150000*%
%ADD12C,0.120000*%
%ADD13C,2.000000*%
%ADD14R,1.700000X1.700000*%
%ADD15C,1.700000*%
%ADD16C,3.200000*%
%ADD17RoundRect,0.237500X0.237500X-0.250000X0.237500X0.250000X-0.237500X0.250000X-0.237500X-0.250000X0*%
%ADD18FreePoly0,270.000000*%
%ADD19FreePoly0,90.000000*%
%ADD20RoundRect,0.250001X0.624999X-0.462499X0.624999X0.462499X-0.624999X0.462499X-0.624999X-0.462499X0*%
%ADD21R,1.800000X1.800000*%
%ADD22C,1.800000*%
%ADD23RoundRect,0.237500X0.237500X-0.300000X0.237500X0.300000X-0.237500X0.300000X-0.237500X-0.300000X0*%
%ADD24RoundRect,0.237500X-0.237500X0.300000X-0.237500X-0.300000X0.237500X-0.300000X0.237500X0.300000X0*%
%ADD25RoundRect,0.237500X-0.237500X0.250000X-0.237500X-0.250000X0.237500X-0.250000X0.237500X0.250000X0*%
%ADD26RoundRect,0.150000X0.150000X-0.587500X0.150000X0.587500X-0.150000X0.587500X-0.150000X-0.587500X0*%
%ADD27RoundRect,0.100000X0.100000X-0.637500X0.100000X0.637500X-0.100000X0.637500X-0.100000X-0.637500X0*%
%ADD28RoundRect,0.237500X0.300000X0.237500X-0.300000X0.237500X-0.300000X-0.237500X0.300000X-0.237500X0*%
%ADD29RoundRect,0.150000X-0.150000X0.825000X-0.150000X-0.825000X0.150000X-0.825000X0.150000X0.825000X0*%
G04 APERTURE END LIST*
D10*
G36*
X157520333Y-80805995D02*
G01*
X152670809Y-80805995D01*
X152670809Y-79352662D01*
X152804142Y-79352662D01*
X152804142Y-80324091D01*
X152806448Y-80347502D01*
X152808098Y-80351486D01*
X152808404Y-80355786D01*
X152816811Y-80377757D01*
X152873954Y-80492043D01*
X152880297Y-80502119D01*
X152881509Y-80505045D01*
X152884212Y-80508339D01*
X152886486Y-80511951D01*
X152888880Y-80514027D01*
X152896432Y-80523230D01*
X152953575Y-80580373D01*
X152962780Y-80587927D01*
X152964855Y-80590319D01*
X152968462Y-80592589D01*
X152971760Y-80595296D01*
X152974687Y-80596508D01*
X152984763Y-80602851D01*
X153099047Y-80659993D01*
X153121018Y-80668400D01*
X153125317Y-80668705D01*
X153129302Y-80670356D01*
X153152713Y-80672662D01*
X153381285Y-80672662D01*
X153404696Y-80670356D01*
X153408677Y-80668706D01*
X153412980Y-80668401D01*
X153434950Y-80659993D01*
X153549235Y-80602852D01*
X153559312Y-80596507D01*
X153562238Y-80595296D01*
X153565535Y-80592590D01*
X153569143Y-80590319D01*
X153571217Y-80587927D01*
X153580423Y-80580373D01*
X153637566Y-80523230D01*
X153645117Y-80514027D01*
X153647512Y-80511951D01*
X153649785Y-80508339D01*
X153652489Y-80505045D01*
X153653700Y-80502120D01*
X153660044Y-80492043D01*
X153717187Y-80377756D01*
X153725595Y-80355786D01*
X153725900Y-80351483D01*
X153727550Y-80347502D01*
X153729856Y-80324091D01*
X153729856Y-79352662D01*
X153727550Y-79329251D01*
X153892162Y-79329251D01*
X153892162Y-79376073D01*
X153910080Y-79419330D01*
X153943188Y-79452438D01*
X153986445Y-79470356D01*
X154009856Y-79472662D01*
X154232713Y-79472662D01*
X154232713Y-80552662D01*
X154235019Y-80576073D01*
X154252937Y-80619330D01*
X154286045Y-80652438D01*
X154329302Y-80670356D01*
X154376124Y-80670356D01*
X154419381Y-80652438D01*
X154452489Y-80619330D01*
X154470407Y-80576073D01*
X154472713Y-80552662D01*
X154472713Y-79472662D01*
X154695571Y-79472662D01*
X154718982Y-79470356D01*
X154762239Y-79452438D01*
X154795347Y-79419330D01*
X154813265Y-79376073D01*
X154813265Y-79352662D01*
X154975571Y-79352662D01*
X154975571Y-80552662D01*
X154977877Y-80576073D01*
X154995795Y-80619330D01*
X155028903Y-80652438D01*
X155072160Y-80670356D01*
X155118982Y-80670356D01*
X155162239Y-80652438D01*
X155195347Y-80619330D01*
X155213265Y-80576073D01*
X155215571Y-80552662D01*
X155215571Y-79352662D01*
X155547000Y-79352662D01*
X155547000Y-80552662D01*
X155549306Y-80576073D01*
X155567224Y-80619330D01*
X155600332Y-80652438D01*
X155643589Y-80670356D01*
X155667000Y-80672662D01*
X156238428Y-80672662D01*
X156261839Y-80670356D01*
X156305096Y-80652438D01*
X156338204Y-80619330D01*
X156356122Y-80576073D01*
X156356122Y-80529251D01*
X156338204Y-80485994D01*
X156305096Y-80452886D01*
X156261839Y-80434968D01*
X156238428Y-80432662D01*
X155787000Y-80432662D01*
X155787000Y-79581234D01*
X156461286Y-79581234D01*
X156461286Y-79695520D01*
X156463592Y-79718931D01*
X156465242Y-79722915D01*
X156465548Y-79727215D01*
X156473955Y-79749186D01*
X156531098Y-79863471D01*
X156537441Y-79873547D01*
X156538653Y-79876473D01*
X156541356Y-79879767D01*
X156543630Y-79883379D01*
X156546024Y-79885455D01*
X156553576Y-79894658D01*
X156610719Y-79951801D01*
X156619921Y-79959352D01*
X156621998Y-79961747D01*
X156625609Y-79964020D01*
X156628904Y-79966724D01*
X156631828Y-79967935D01*
X156641906Y-79974279D01*
X156756191Y-80031422D01*
X156757904Y-80032077D01*
X156758600Y-80032593D01*
X156768430Y-80036105D01*
X156778162Y-80039829D01*
X156779024Y-80039890D01*
X156780753Y-80040508D01*
X156996545Y-80094456D01*
X157081630Y-80136998D01*
X157111234Y-80166602D01*
X157147000Y-80238133D01*
X157147000Y-80295763D01*
X157111234Y-80367295D01*
X157081632Y-80396896D01*
X157010100Y-80432662D01*
X156772188Y-80432662D01*
X156619233Y-80381678D01*
X156596294Y-80376462D01*
X156549591Y-80379782D01*
X156507712Y-80400722D01*
X156477035Y-80436093D01*
X156462228Y-80480512D01*
X156465548Y-80527215D01*
X156486488Y-80569094D01*
X156521859Y-80599771D01*
X156543339Y-80609362D01*
X156714769Y-80666504D01*
X156726377Y-80669143D01*
X156729304Y-80670356D01*
X156733546Y-80670773D01*
X156737707Y-80671720D01*
X156740869Y-80671495D01*
X156752715Y-80672662D01*
X157038429Y-80672662D01*
X157061840Y-80670356D01*
X157065822Y-80668706D01*
X157070123Y-80668401D01*
X157092094Y-80659994D01*
X157206380Y-80602852D01*
X157216457Y-80596507D01*
X157219384Y-80595296D01*
X157222679Y-80592591D01*
X157226288Y-80590320D01*
X157228363Y-80587926D01*
X157237569Y-80580372D01*
X157294711Y-80523229D01*
X157302262Y-80514026D01*
X157304656Y-80511951D01*
X157306928Y-80508340D01*
X157309634Y-80505044D01*
X157310846Y-80502117D01*
X157317188Y-80492043D01*
X157374331Y-80377756D01*
X157382739Y-80355786D01*
X157383044Y-80351483D01*
X157384694Y-80347502D01*
X157387000Y-80324091D01*
X157387000Y-80209805D01*
X157384694Y-80186394D01*
X157383043Y-80182409D01*
X157382738Y-80178110D01*
X157374331Y-80156139D01*
X157317188Y-80041854D01*
X157310846Y-80031779D01*
X157309634Y-80028853D01*
X157306928Y-80025556D01*
X157304656Y-80021946D01*
X157302262Y-80019870D01*
X157294711Y-80010668D01*
X157237569Y-79953525D01*
X157228364Y-79945970D01*
X157226289Y-79943578D01*
X157222681Y-79941306D01*
X157219384Y-79938601D01*
X157216456Y-79937388D01*
X157206381Y-79931046D01*
X157092095Y-79873903D01*
X157090381Y-79873247D01*
X157089686Y-79872732D01*
X157079849Y-79869217D01*
X157070124Y-79865496D01*
X157069263Y-79865434D01*
X157067534Y-79864817D01*
X156851741Y-79810869D01*
X156766656Y-79768326D01*
X156737050Y-79738720D01*
X156701286Y-79667191D01*
X156701286Y-79609561D01*
X156737050Y-79538032D01*
X156766656Y-79508426D01*
X156838185Y-79472662D01*
X157076098Y-79472662D01*
X157229052Y-79523647D01*
X157251991Y-79528862D01*
X157298695Y-79525543D01*
X157340573Y-79504604D01*
X157371251Y-79469233D01*
X157386057Y-79424814D01*
X157382738Y-79378110D01*
X157361799Y-79336232D01*
X157326428Y-79305554D01*
X157304947Y-79295963D01*
X157133520Y-79238820D01*
X157121907Y-79236179D01*
X157118983Y-79234968D01*
X157114742Y-79234550D01*
X157110581Y-79233604D01*
X157107418Y-79233828D01*
X157095572Y-79232662D01*
X156809857Y-79232662D01*
X156786446Y-79234968D01*
X156782461Y-79236618D01*
X156778162Y-79236924D01*
X156756191Y-79245331D01*
X156641906Y-79302474D01*
X156631828Y-79308817D01*
X156628904Y-79310029D01*
X156625609Y-79312732D01*
X156621998Y-79315006D01*
X156619921Y-79317400D01*
X156610719Y-79324952D01*
X156553576Y-79382095D01*
X156546024Y-79391297D01*
X156543630Y-79393374D01*
X156541356Y-79396985D01*
X156538653Y-79400280D01*
X156537441Y-79403205D01*
X156531098Y-79413282D01*
X156473955Y-79527568D01*
X156465548Y-79549539D01*
X156465242Y-79553838D01*
X156463592Y-79557823D01*
X156461286Y-79581234D01*
X155787000Y-79581234D01*
X155787000Y-79352662D01*
X155784694Y-79329251D01*
X155766776Y-79285994D01*
X155733668Y-79252886D01*
X155690411Y-79234968D01*
X155643589Y-79234968D01*
X155600332Y-79252886D01*
X155567224Y-79285994D01*
X155549306Y-79329251D01*
X155547000Y-79352662D01*
X155215571Y-79352662D01*
X155213265Y-79329251D01*
X155195347Y-79285994D01*
X155162239Y-79252886D01*
X155118982Y-79234968D01*
X155072160Y-79234968D01*
X155028903Y-79252886D01*
X154995795Y-79285994D01*
X154977877Y-79329251D01*
X154975571Y-79352662D01*
X154813265Y-79352662D01*
X154813265Y-79329251D01*
X154795347Y-79285994D01*
X154762239Y-79252886D01*
X154718982Y-79234968D01*
X154695571Y-79232662D01*
X154009856Y-79232662D01*
X153986445Y-79234968D01*
X153943188Y-79252886D01*
X153910080Y-79285994D01*
X153892162Y-79329251D01*
X153727550Y-79329251D01*
X153709632Y-79285994D01*
X153676524Y-79252886D01*
X153633267Y-79234968D01*
X153586445Y-79234968D01*
X153543188Y-79252886D01*
X153510080Y-79285994D01*
X153492162Y-79329251D01*
X153489856Y-79352662D01*
X153489856Y-80295763D01*
X153454091Y-80367293D01*
X153424486Y-80396898D01*
X153352958Y-80432662D01*
X153181041Y-80432662D01*
X153109512Y-80396898D01*
X153079906Y-80367292D01*
X153044142Y-80295763D01*
X153044142Y-79352662D01*
X153041836Y-79329251D01*
X153023918Y-79285994D01*
X152990810Y-79252886D01*
X152947553Y-79234968D01*
X152900731Y-79234968D01*
X152857474Y-79252886D01*
X152824366Y-79285994D01*
X152806448Y-79329251D01*
X152804142Y-79352662D01*
X152670809Y-79352662D01*
X152670809Y-79099329D01*
X157520333Y-79099329D01*
X157520333Y-80805995D01*
G37*
G36*
X109152319Y-104343117D02*
G01*
X109175663Y-104366461D01*
X109211428Y-104437990D01*
X109211428Y-104552763D01*
X109175663Y-104624293D01*
X109146058Y-104653898D01*
X109074530Y-104689662D01*
X108765714Y-104689662D01*
X108765714Y-104301091D01*
X109026240Y-104301091D01*
X109152319Y-104343117D01*
G37*
G36*
X109088915Y-103765426D02*
G01*
X109118519Y-103795030D01*
X109154285Y-103866562D01*
X109154285Y-103924191D01*
X109118519Y-103995722D01*
X109088915Y-104025326D01*
X109017386Y-104061091D01*
X108765714Y-104061091D01*
X108765714Y-103729662D01*
X109017386Y-103729662D01*
X109088915Y-103765426D01*
G37*
G36*
X113431772Y-103765426D02*
G01*
X113508787Y-103842441D01*
X113554286Y-104024435D01*
X113554286Y-104394889D01*
X113508787Y-104576883D01*
X113431773Y-104653898D01*
X113360245Y-104689662D01*
X113188328Y-104689662D01*
X113116799Y-104653898D01*
X113039784Y-104576883D01*
X112994286Y-104394890D01*
X112994286Y-104024434D01*
X113039784Y-103842441D01*
X113116799Y-103765426D01*
X113188328Y-103729662D01*
X113360244Y-103729662D01*
X113431772Y-103765426D01*
G37*
G36*
X115127619Y-105062995D02*
G01*
X108392381Y-105062995D01*
X108392381Y-103609662D01*
X108525714Y-103609662D01*
X108525714Y-104809662D01*
X108528020Y-104833073D01*
X108545938Y-104876330D01*
X108579046Y-104909438D01*
X108622303Y-104927356D01*
X108645714Y-104929662D01*
X109102857Y-104929662D01*
X109126268Y-104927356D01*
X109130249Y-104925706D01*
X109134552Y-104925401D01*
X109156522Y-104916993D01*
X109270807Y-104859852D01*
X109280884Y-104853507D01*
X109283810Y-104852296D01*
X109287107Y-104849590D01*
X109290715Y-104847319D01*
X109292789Y-104844927D01*
X109301995Y-104837373D01*
X109359138Y-104780230D01*
X109366689Y-104771027D01*
X109369084Y-104768951D01*
X109371357Y-104765339D01*
X109374061Y-104762045D01*
X109375272Y-104759120D01*
X109381616Y-104749043D01*
X109438759Y-104634756D01*
X109447167Y-104612786D01*
X109447472Y-104608483D01*
X109449122Y-104604502D01*
X109451428Y-104581091D01*
X109451428Y-104409662D01*
X109449122Y-104386251D01*
X109447471Y-104382266D01*
X109447166Y-104377967D01*
X109438759Y-104355996D01*
X109381616Y-104241711D01*
X109375272Y-104231633D01*
X109374061Y-104228709D01*
X109371357Y-104225414D01*
X109369084Y-104221803D01*
X109366689Y-104219726D01*
X109359138Y-104210524D01*
X109301995Y-104153381D01*
X109301048Y-104152604D01*
X109301996Y-104151657D01*
X109309547Y-104142454D01*
X109311941Y-104140379D01*
X109314213Y-104136768D01*
X109316919Y-104133472D01*
X109318131Y-104130545D01*
X109324473Y-104120471D01*
X109381616Y-104006186D01*
X109390023Y-103984215D01*
X109390328Y-103979915D01*
X109391979Y-103975931D01*
X109394285Y-103952520D01*
X109394285Y-103838234D01*
X109391979Y-103814823D01*
X109390329Y-103810841D01*
X109390024Y-103806539D01*
X109381616Y-103784569D01*
X109324473Y-103670282D01*
X109318131Y-103660207D01*
X109316919Y-103657281D01*
X109314213Y-103653984D01*
X109311941Y-103650374D01*
X109309547Y-103648298D01*
X109301996Y-103639096D01*
X109272563Y-103609662D01*
X109725714Y-103609662D01*
X109725714Y-104581091D01*
X109728020Y-104604502D01*
X109729670Y-104608486D01*
X109729976Y-104612786D01*
X109738383Y-104634757D01*
X109795526Y-104749043D01*
X109801869Y-104759119D01*
X109803081Y-104762045D01*
X109805784Y-104765339D01*
X109808058Y-104768951D01*
X109810452Y-104771027D01*
X109818004Y-104780230D01*
X109875147Y-104837373D01*
X109884352Y-104844927D01*
X109886427Y-104847319D01*
X109890034Y-104849589D01*
X109893332Y-104852296D01*
X109896259Y-104853508D01*
X109906335Y-104859851D01*
X110020619Y-104916993D01*
X110042590Y-104925400D01*
X110046889Y-104925705D01*
X110050874Y-104927356D01*
X110074285Y-104929662D01*
X110302857Y-104929662D01*
X110326268Y-104927356D01*
X110330249Y-104925706D01*
X110334552Y-104925401D01*
X110356522Y-104916993D01*
X110470807Y-104859852D01*
X110480884Y-104853507D01*
X110483810Y-104852296D01*
X110487107Y-104849590D01*
X110490715Y-104847319D01*
X110492789Y-104844927D01*
X110501995Y-104837373D01*
X110559138Y-104780230D01*
X110566689Y-104771027D01*
X110569084Y-104768951D01*
X110571357Y-104765339D01*
X110574061Y-104762045D01*
X110575272Y-104759120D01*
X110581616Y-104749043D01*
X110638759Y-104634756D01*
X110647167Y-104612786D01*
X110647472Y-104608483D01*
X110649122Y-104604502D01*
X110651428Y-104581091D01*
X110651428Y-103609662D01*
X110649122Y-103586251D01*
X110813734Y-103586251D01*
X110813734Y-103633073D01*
X110831652Y-103676330D01*
X110864760Y-103709438D01*
X110908017Y-103727356D01*
X110931428Y-103729662D01*
X111154285Y-103729662D01*
X111154285Y-104809662D01*
X111156591Y-104833073D01*
X111174509Y-104876330D01*
X111207617Y-104909438D01*
X111250874Y-104927356D01*
X111297696Y-104927356D01*
X111340953Y-104909438D01*
X111374061Y-104876330D01*
X111391979Y-104833073D01*
X111394285Y-104809662D01*
X111394285Y-103729662D01*
X111617143Y-103729662D01*
X111640554Y-103727356D01*
X111683811Y-103709438D01*
X111716919Y-103676330D01*
X111731428Y-103641301D01*
X111745938Y-103676330D01*
X111779046Y-103709438D01*
X111822303Y-103727356D01*
X111845714Y-103729662D01*
X112068571Y-103729662D01*
X112068571Y-104809662D01*
X112070877Y-104833073D01*
X112088795Y-104876330D01*
X112121903Y-104909438D01*
X112165160Y-104927356D01*
X112211982Y-104927356D01*
X112255239Y-104909438D01*
X112288347Y-104876330D01*
X112306265Y-104833073D01*
X112308571Y-104809662D01*
X112308571Y-104009662D01*
X112754286Y-104009662D01*
X112754286Y-104409662D01*
X112754688Y-104413746D01*
X112754428Y-104415495D01*
X112755723Y-104424257D01*
X112756592Y-104433073D01*
X112757268Y-104434706D01*
X112757869Y-104438766D01*
X112815012Y-104667339D01*
X112822927Y-104689491D01*
X112828239Y-104696660D01*
X112831653Y-104704902D01*
X112846576Y-104723087D01*
X112960862Y-104837373D01*
X112970067Y-104844927D01*
X112972142Y-104847319D01*
X112975749Y-104849589D01*
X112979047Y-104852296D01*
X112981975Y-104853508D01*
X112992050Y-104859851D01*
X113106334Y-104916993D01*
X113128305Y-104925400D01*
X113132604Y-104925705D01*
X113136589Y-104927356D01*
X113160000Y-104929662D01*
X113388572Y-104929662D01*
X113411983Y-104927356D01*
X113415964Y-104925706D01*
X113420267Y-104925401D01*
X113442237Y-104916993D01*
X113556522Y-104859852D01*
X113566599Y-104853507D01*
X113569525Y-104852296D01*
X113572822Y-104849590D01*
X113576430Y-104847319D01*
X113578504Y-104844927D01*
X113587710Y-104837373D01*
X113701996Y-104723087D01*
X113716919Y-104704902D01*
X113720332Y-104696660D01*
X113725645Y-104689491D01*
X113733560Y-104667338D01*
X113790703Y-104438766D01*
X113791303Y-104434706D01*
X113791980Y-104433073D01*
X113792848Y-104424257D01*
X113794144Y-104415495D01*
X113793883Y-104413746D01*
X113794286Y-104409662D01*
X113794286Y-104009662D01*
X113793883Y-104005577D01*
X113794144Y-104003829D01*
X113792848Y-103995066D01*
X113791980Y-103986251D01*
X113791303Y-103984617D01*
X113790703Y-103980558D01*
X113733560Y-103751987D01*
X113725645Y-103729834D01*
X113720332Y-103722664D01*
X113716919Y-103714423D01*
X113701996Y-103696238D01*
X113615420Y-103609662D01*
X114068572Y-103609662D01*
X114068572Y-104809662D01*
X114070878Y-104833073D01*
X114088796Y-104876330D01*
X114121904Y-104909438D01*
X114165161Y-104927356D01*
X114211983Y-104927356D01*
X114255240Y-104909438D01*
X114288348Y-104876330D01*
X114306266Y-104833073D01*
X114308572Y-104809662D01*
X114308572Y-104061529D01*
X114770097Y-104869198D01*
X114773599Y-104874132D01*
X114774510Y-104876330D01*
X114776748Y-104878568D01*
X114783714Y-104888381D01*
X114796334Y-104898154D01*
X114807618Y-104909438D01*
X114814684Y-104912365D01*
X114820733Y-104917049D01*
X114836127Y-104921247D01*
X114850875Y-104927356D01*
X114858527Y-104927356D01*
X114865905Y-104929368D01*
X114881733Y-104927356D01*
X114897697Y-104927356D01*
X114904764Y-104924428D01*
X114912352Y-104923464D01*
X114926209Y-104915545D01*
X114940954Y-104909438D01*
X114946362Y-104904029D01*
X114953005Y-104900234D01*
X114962778Y-104887613D01*
X114974062Y-104876330D01*
X114976989Y-104869263D01*
X114981673Y-104863215D01*
X114985871Y-104847820D01*
X114991980Y-104833073D01*
X114993159Y-104821094D01*
X114993992Y-104818043D01*
X114993692Y-104815687D01*
X114994286Y-104809662D01*
X114994286Y-103609662D01*
X114991980Y-103586251D01*
X114974062Y-103542994D01*
X114940954Y-103509886D01*
X114897697Y-103491968D01*
X114850875Y-103491968D01*
X114807618Y-103509886D01*
X114774510Y-103542994D01*
X114756592Y-103586251D01*
X114754286Y-103609662D01*
X114754286Y-104357794D01*
X114292761Y-103550125D01*
X114289257Y-103545189D01*
X114288348Y-103542994D01*
X114286110Y-103540756D01*
X114279144Y-103530943D01*
X114266523Y-103521169D01*
X114255240Y-103509886D01*
X114248173Y-103506958D01*
X114242125Y-103502275D01*
X114226730Y-103498076D01*
X114211983Y-103491968D01*
X114204331Y-103491968D01*
X114196953Y-103489956D01*
X114181125Y-103491968D01*
X114165161Y-103491968D01*
X114158093Y-103494895D01*
X114150506Y-103495860D01*
X114136648Y-103503778D01*
X114121904Y-103509886D01*
X114116495Y-103515294D01*
X114109853Y-103519090D01*
X114100079Y-103531710D01*
X114088796Y-103542994D01*
X114085868Y-103550060D01*
X114081185Y-103556109D01*
X114076986Y-103571503D01*
X114070878Y-103586251D01*
X114069698Y-103598229D01*
X114068866Y-103601281D01*
X114069165Y-103603636D01*
X114068572Y-103609662D01*
X113615420Y-103609662D01*
X113587710Y-103581952D01*
X113578507Y-103574400D01*
X113576431Y-103572006D01*
X113572819Y-103569732D01*
X113569525Y-103567029D01*
X113566599Y-103565817D01*
X113556523Y-103559474D01*
X113442238Y-103502331D01*
X113420267Y-103493924D01*
X113415967Y-103493618D01*
X113411983Y-103491968D01*
X113388572Y-103489662D01*
X113160000Y-103489662D01*
X113136589Y-103491968D01*
X113132604Y-103493618D01*
X113128305Y-103493924D01*
X113106334Y-103502331D01*
X112992049Y-103559474D01*
X112981972Y-103565817D01*
X112979047Y-103567029D01*
X112975752Y-103569732D01*
X112972141Y-103572006D01*
X112970064Y-103574400D01*
X112960862Y-103581952D01*
X112846576Y-103696238D01*
X112831653Y-103714423D01*
X112828239Y-103722664D01*
X112822927Y-103729834D01*
X112815012Y-103751986D01*
X112757869Y-103980558D01*
X112757268Y-103984617D01*
X112756592Y-103986251D01*
X112755723Y-103995066D01*
X112754428Y-104003829D01*
X112754688Y-104005577D01*
X112754286Y-104009662D01*
X112308571Y-104009662D01*
X112308571Y-103729662D01*
X112531429Y-103729662D01*
X112554840Y-103727356D01*
X112598097Y-103709438D01*
X112631205Y-103676330D01*
X112649123Y-103633073D01*
X112649123Y-103586251D01*
X112631205Y-103542994D01*
X112598097Y-103509886D01*
X112554840Y-103491968D01*
X112531429Y-103489662D01*
X111845714Y-103489662D01*
X111822303Y-103491968D01*
X111779046Y-103509886D01*
X111745938Y-103542994D01*
X111731428Y-103578022D01*
X111716919Y-103542994D01*
X111683811Y-103509886D01*
X111640554Y-103491968D01*
X111617143Y-103489662D01*
X110931428Y-103489662D01*
X110908017Y-103491968D01*
X110864760Y-103509886D01*
X110831652Y-103542994D01*
X110813734Y-103586251D01*
X110649122Y-103586251D01*
X110631204Y-103542994D01*
X110598096Y-103509886D01*
X110554839Y-103491968D01*
X110508017Y-103491968D01*
X110464760Y-103509886D01*
X110431652Y-103542994D01*
X110413734Y-103586251D01*
X110411428Y-103609662D01*
X110411428Y-104552763D01*
X110375663Y-104624293D01*
X110346058Y-104653898D01*
X110274530Y-104689662D01*
X110102613Y-104689662D01*
X110031084Y-104653898D01*
X110001478Y-104624292D01*
X109965714Y-104552763D01*
X109965714Y-103609662D01*
X109963408Y-103586251D01*
X109945490Y-103542994D01*
X109912382Y-103509886D01*
X109869125Y-103491968D01*
X109822303Y-103491968D01*
X109779046Y-103509886D01*
X109745938Y-103542994D01*
X109728020Y-103586251D01*
X109725714Y-103609662D01*
X109272563Y-103609662D01*
X109244854Y-103581953D01*
X109235649Y-103574398D01*
X109233574Y-103572006D01*
X109229966Y-103569734D01*
X109226669Y-103567029D01*
X109223741Y-103565816D01*
X109213666Y-103559474D01*
X109099380Y-103502331D01*
X109077409Y-103493924D01*
X109073109Y-103493618D01*
X109069125Y-103491968D01*
X109045714Y-103489662D01*
X108645714Y-103489662D01*
X108622303Y-103491968D01*
X108579046Y-103509886D01*
X108545938Y-103542994D01*
X108528020Y-103586251D01*
X108525714Y-103609662D01*
X108392381Y-103609662D01*
X108392381Y-103356329D01*
X115127619Y-103356329D01*
X115127619Y-105062995D01*
G37*
X104054091Y-108884391D02*
X104111234Y-108712963D01*
X104111234Y-108712963D02*
X104168377Y-108655820D01*
X104168377Y-108655820D02*
X104282662Y-108598677D01*
X104282662Y-108598677D02*
X104454091Y-108598677D01*
X104454091Y-108598677D02*
X104568377Y-108655820D01*
X104568377Y-108655820D02*
X104625520Y-108712963D01*
X104625520Y-108712963D02*
X104682662Y-108827248D01*
X104682662Y-108827248D02*
X104682662Y-109284391D01*
X104682662Y-109284391D02*
X103482662Y-109284391D01*
X103482662Y-109284391D02*
X103482662Y-108884391D01*
X103482662Y-108884391D02*
X103539805Y-108770106D01*
X103539805Y-108770106D02*
X103596948Y-108712963D01*
X103596948Y-108712963D02*
X103711234Y-108655820D01*
X103711234Y-108655820D02*
X103825520Y-108655820D01*
X103825520Y-108655820D02*
X103939805Y-108712963D01*
X103939805Y-108712963D02*
X103996948Y-108770106D01*
X103996948Y-108770106D02*
X104054091Y-108884391D01*
X104054091Y-108884391D02*
X104054091Y-109284391D01*
X103482662Y-108255820D02*
X103482662Y-107570106D01*
X104682662Y-107912963D02*
X103482662Y-107912963D01*
X104682662Y-107170105D02*
X103482662Y-107170105D01*
X103482662Y-107170105D02*
X104682662Y-106484391D01*
X104682662Y-106484391D02*
X103482662Y-106484391D01*
X104796948Y-106198677D02*
X104796948Y-105284391D01*
X104054091Y-104598676D02*
X104111234Y-104427248D01*
X104111234Y-104427248D02*
X104168377Y-104370105D01*
X104168377Y-104370105D02*
X104282662Y-104312962D01*
X104282662Y-104312962D02*
X104454091Y-104312962D01*
X104454091Y-104312962D02*
X104568377Y-104370105D01*
X104568377Y-104370105D02*
X104625520Y-104427248D01*
X104625520Y-104427248D02*
X104682662Y-104541533D01*
X104682662Y-104541533D02*
X104682662Y-104998676D01*
X104682662Y-104998676D02*
X103482662Y-104998676D01*
X103482662Y-104998676D02*
X103482662Y-104598676D01*
X103482662Y-104598676D02*
X103539805Y-104484391D01*
X103539805Y-104484391D02*
X103596948Y-104427248D01*
X103596948Y-104427248D02*
X103711234Y-104370105D01*
X103711234Y-104370105D02*
X103825520Y-104370105D01*
X103825520Y-104370105D02*
X103939805Y-104427248D01*
X103939805Y-104427248D02*
X103996948Y-104484391D01*
X103996948Y-104484391D02*
X104054091Y-104598676D01*
X104054091Y-104598676D02*
X104054091Y-104998676D01*
X101514091Y-108884391D02*
X101571234Y-108712963D01*
X101571234Y-108712963D02*
X101628377Y-108655820D01*
X101628377Y-108655820D02*
X101742662Y-108598677D01*
X101742662Y-108598677D02*
X101914091Y-108598677D01*
X101914091Y-108598677D02*
X102028377Y-108655820D01*
X102028377Y-108655820D02*
X102085520Y-108712963D01*
X102085520Y-108712963D02*
X102142662Y-108827248D01*
X102142662Y-108827248D02*
X102142662Y-109284391D01*
X102142662Y-109284391D02*
X100942662Y-109284391D01*
X100942662Y-109284391D02*
X100942662Y-108884391D01*
X100942662Y-108884391D02*
X100999805Y-108770106D01*
X100999805Y-108770106D02*
X101056948Y-108712963D01*
X101056948Y-108712963D02*
X101171234Y-108655820D01*
X101171234Y-108655820D02*
X101285520Y-108655820D01*
X101285520Y-108655820D02*
X101399805Y-108712963D01*
X101399805Y-108712963D02*
X101456948Y-108770106D01*
X101456948Y-108770106D02*
X101514091Y-108884391D01*
X101514091Y-108884391D02*
X101514091Y-109284391D01*
X100942662Y-108255820D02*
X100942662Y-107570106D01*
X102142662Y-107912963D02*
X100942662Y-107912963D01*
X102142662Y-107170105D02*
X100942662Y-107170105D01*
X100942662Y-107170105D02*
X102142662Y-106484391D01*
X102142662Y-106484391D02*
X100942662Y-106484391D01*
X102256948Y-106198677D02*
X102256948Y-105284391D01*
X101799805Y-105055819D02*
X101799805Y-104484391D01*
X102142662Y-105170105D02*
X100942662Y-104770105D01*
X100942662Y-104770105D02*
X102142662Y-104370105D01*
G36*
X121556914Y-111258426D02*
G01*
X121586520Y-111288032D01*
X121622285Y-111359562D01*
X121622285Y-111474334D01*
X121586520Y-111545864D01*
X121556914Y-111575469D01*
X121485386Y-111611234D01*
X121176571Y-111611234D01*
X121176571Y-111222662D01*
X121485386Y-111222662D01*
X121556914Y-111258426D01*
G37*
G36*
X124107597Y-112555995D02*
G01*
X120803238Y-112555995D01*
X120803238Y-111102662D01*
X120936571Y-111102662D01*
X120936571Y-112302662D01*
X120938877Y-112326073D01*
X120956795Y-112369330D01*
X120989903Y-112402438D01*
X121033160Y-112420356D01*
X121079982Y-112420356D01*
X121123239Y-112402438D01*
X121156347Y-112369330D01*
X121174265Y-112326073D01*
X121176571Y-112302662D01*
X121176571Y-111851234D01*
X121279806Y-111851234D01*
X121643977Y-112371478D01*
X121659292Y-112389334D01*
X121698777Y-112414496D01*
X121744886Y-112422633D01*
X121790599Y-112412506D01*
X121828957Y-112385655D01*
X121854119Y-112346170D01*
X121862256Y-112300061D01*
X121852129Y-112254348D01*
X121840593Y-112233846D01*
X121564632Y-111839616D01*
X121567380Y-111838565D01*
X121681665Y-111781422D01*
X121691741Y-111775078D01*
X121694667Y-111773867D01*
X121697961Y-111771163D01*
X121701573Y-111768890D01*
X121703649Y-111766495D01*
X121712852Y-111758944D01*
X121769995Y-111701801D01*
X121777546Y-111692598D01*
X121779941Y-111690522D01*
X121782214Y-111686910D01*
X121784918Y-111683616D01*
X121786129Y-111680691D01*
X121792473Y-111670614D01*
X121849616Y-111556327D01*
X121858024Y-111534357D01*
X121858329Y-111530054D01*
X121859979Y-111526073D01*
X121862285Y-111502662D01*
X121862285Y-111331234D01*
X121859979Y-111307823D01*
X121858329Y-111303841D01*
X121858024Y-111299539D01*
X121849616Y-111277569D01*
X121792473Y-111163282D01*
X121786129Y-111153204D01*
X121784918Y-111150280D01*
X121782214Y-111146985D01*
X121779941Y-111143374D01*
X121777546Y-111141297D01*
X121769995Y-111132095D01*
X121717151Y-111079251D01*
X121967448Y-111079251D01*
X121967448Y-111126073D01*
X121985366Y-111169330D01*
X122018474Y-111202438D01*
X122061731Y-111220356D01*
X122085142Y-111222662D01*
X122307999Y-111222662D01*
X122307999Y-112302662D01*
X122310305Y-112326073D01*
X122328223Y-112369330D01*
X122361331Y-112402438D01*
X122404588Y-112420356D01*
X122451410Y-112420356D01*
X122494667Y-112402438D01*
X122527775Y-112369330D01*
X122545693Y-112326073D01*
X122547999Y-112302662D01*
X122547999Y-111616948D01*
X122993714Y-111616948D01*
X122993714Y-111788377D01*
X122994116Y-111792461D01*
X122993856Y-111794210D01*
X122995151Y-111802972D01*
X122996020Y-111811788D01*
X122996696Y-111813421D01*
X122997297Y-111817481D01*
X123054440Y-112046053D01*
X123055057Y-112047782D01*
X123055119Y-112048643D01*
X123058840Y-112058368D01*
X123062355Y-112068205D01*
X123062870Y-112068900D01*
X123063526Y-112070614D01*
X123120669Y-112184900D01*
X123127009Y-112194972D01*
X123128223Y-112197902D01*
X123130929Y-112201200D01*
X123133201Y-112204808D01*
X123135594Y-112206883D01*
X123143147Y-112216086D01*
X123257432Y-112330372D01*
X123275616Y-112345296D01*
X123279601Y-112346947D01*
X123282858Y-112349771D01*
X123304338Y-112359362D01*
X123475768Y-112416504D01*
X123487376Y-112419143D01*
X123490303Y-112420356D01*
X123494545Y-112420773D01*
X123498706Y-112421720D01*
X123501868Y-112421495D01*
X123513714Y-112422662D01*
X123628000Y-112422662D01*
X123639845Y-112421495D01*
X123643008Y-112421720D01*
X123647169Y-112420773D01*
X123651411Y-112420356D01*
X123654337Y-112419143D01*
X123665947Y-112416504D01*
X123837375Y-112359362D01*
X123858856Y-112349771D01*
X123862113Y-112346945D01*
X123866096Y-112345296D01*
X123884281Y-112330373D01*
X123941424Y-112273230D01*
X123956347Y-112255045D01*
X123974264Y-112211788D01*
X123974264Y-112164966D01*
X123956347Y-112121709D01*
X123923239Y-112088601D01*
X123879982Y-112070684D01*
X123833160Y-112070684D01*
X123789903Y-112088601D01*
X123771718Y-112103524D01*
X123734605Y-112140636D01*
X123608527Y-112182662D01*
X123533187Y-112182662D01*
X123407107Y-112140636D01*
X123326622Y-112060151D01*
X123284079Y-111975064D01*
X123233714Y-111773604D01*
X123233714Y-111631720D01*
X123284079Y-111430260D01*
X123326622Y-111345173D01*
X123407107Y-111264688D01*
X123533187Y-111222662D01*
X123608526Y-111222662D01*
X123734605Y-111264688D01*
X123771718Y-111301801D01*
X123789903Y-111316724D01*
X123833160Y-111334641D01*
X123879982Y-111334641D01*
X123923239Y-111316724D01*
X123956347Y-111283616D01*
X123974264Y-111240359D01*
X123974264Y-111193537D01*
X123956347Y-111150280D01*
X123941424Y-111132095D01*
X123884281Y-111074952D01*
X123866096Y-111060029D01*
X123862113Y-111058379D01*
X123858856Y-111055554D01*
X123837375Y-111045963D01*
X123665948Y-110988820D01*
X123654335Y-110986179D01*
X123651411Y-110984968D01*
X123647170Y-110984550D01*
X123643009Y-110983604D01*
X123639846Y-110983828D01*
X123628000Y-110982662D01*
X123513714Y-110982662D01*
X123501867Y-110983828D01*
X123498705Y-110983604D01*
X123494543Y-110984550D01*
X123490303Y-110984968D01*
X123487377Y-110986179D01*
X123475767Y-110988820D01*
X123304338Y-111045963D01*
X123282857Y-111055554D01*
X123279599Y-111058378D01*
X123275616Y-111060029D01*
X123257432Y-111074953D01*
X123143147Y-111189239D01*
X123135594Y-111198441D01*
X123133201Y-111200517D01*
X123130929Y-111204124D01*
X123128223Y-111207423D01*
X123127009Y-111210352D01*
X123120669Y-111220425D01*
X123063526Y-111334711D01*
X123062870Y-111336424D01*
X123062355Y-111337120D01*
X123058840Y-111346956D01*
X123055119Y-111356682D01*
X123055057Y-111357542D01*
X123054440Y-111359272D01*
X122997297Y-111587844D01*
X122996696Y-111591903D01*
X122996020Y-111593537D01*
X122995151Y-111602352D01*
X122993856Y-111611115D01*
X122994116Y-111612863D01*
X122993714Y-111616948D01*
X122547999Y-111616948D01*
X122547999Y-111222662D01*
X122770857Y-111222662D01*
X122794268Y-111220356D01*
X122837525Y-111202438D01*
X122870633Y-111169330D01*
X122888551Y-111126073D01*
X122888551Y-111079251D01*
X122870633Y-111035994D01*
X122837525Y-111002886D01*
X122794268Y-110984968D01*
X122770857Y-110982662D01*
X122085142Y-110982662D01*
X122061731Y-110984968D01*
X122018474Y-111002886D01*
X121985366Y-111035994D01*
X121967448Y-111079251D01*
X121717151Y-111079251D01*
X121712852Y-111074952D01*
X121703649Y-111067400D01*
X121701573Y-111065006D01*
X121697961Y-111062732D01*
X121694667Y-111060029D01*
X121691741Y-111058817D01*
X121681665Y-111052474D01*
X121567380Y-110995331D01*
X121545409Y-110986924D01*
X121541109Y-110986618D01*
X121537125Y-110984968D01*
X121513714Y-110982662D01*
X121056571Y-110982662D01*
X121033160Y-110984968D01*
X120989903Y-111002886D01*
X120956795Y-111035994D01*
X120938877Y-111079251D01*
X120936571Y-111102662D01*
X120803238Y-111102662D01*
X120803238Y-110849329D01*
X124107597Y-110849329D01*
X124107597Y-112555995D01*
G37*
G36*
X85371607Y-67576688D02*
G01*
X85452090Y-67657172D01*
X85494635Y-67742261D01*
X85545000Y-67943721D01*
X85545000Y-68085604D01*
X85494635Y-68287064D01*
X85452090Y-68372152D01*
X85371607Y-68452636D01*
X85245527Y-68494662D01*
X85099286Y-68494662D01*
X85099286Y-67534662D01*
X85245527Y-67534662D01*
X85371607Y-67576688D01*
G37*
G36*
X90412795Y-68151805D02*
G01*
X90174349Y-68151805D01*
X90293572Y-67794135D01*
X90412795Y-68151805D01*
G37*
G36*
X88393915Y-67570426D02*
G01*
X88423521Y-67600032D01*
X88459286Y-67671562D01*
X88459286Y-67786334D01*
X88423521Y-67857864D01*
X88393915Y-67887469D01*
X88322387Y-67923234D01*
X88013572Y-67923234D01*
X88013572Y-67534662D01*
X88322387Y-67534662D01*
X88393915Y-67570426D01*
G37*
G36*
X91975445Y-68867995D02*
G01*
X84725953Y-68867995D01*
X84725953Y-67414662D01*
X84859286Y-67414662D01*
X84859286Y-68614662D01*
X84861592Y-68638073D01*
X84879510Y-68681330D01*
X84912618Y-68714438D01*
X84955875Y-68732356D01*
X84979286Y-68734662D01*
X85265000Y-68734662D01*
X85276845Y-68733495D01*
X85280008Y-68733720D01*
X85284169Y-68732773D01*
X85288411Y-68732356D01*
X85291337Y-68731143D01*
X85302947Y-68728504D01*
X85474376Y-68671362D01*
X85495856Y-68661771D01*
X85499112Y-68658946D01*
X85503098Y-68657296D01*
X85521282Y-68642372D01*
X85635567Y-68528087D01*
X85643120Y-68518882D01*
X85645513Y-68516808D01*
X85647783Y-68513200D01*
X85650491Y-68509902D01*
X85651704Y-68506972D01*
X85658045Y-68496900D01*
X85715188Y-68382613D01*
X85715843Y-68380901D01*
X85716359Y-68380205D01*
X85719865Y-68370390D01*
X85723596Y-68360643D01*
X85723657Y-68359777D01*
X85724274Y-68358052D01*
X85781417Y-68129481D01*
X85782017Y-68125421D01*
X85782694Y-68123788D01*
X85783562Y-68114972D01*
X85784858Y-68106210D01*
X85784597Y-68104461D01*
X85785000Y-68100377D01*
X85785000Y-67928948D01*
X85784597Y-67924863D01*
X85784858Y-67923115D01*
X85783562Y-67914352D01*
X85782694Y-67905537D01*
X85782017Y-67903903D01*
X85781417Y-67899844D01*
X85724274Y-67671273D01*
X85723657Y-67669547D01*
X85723596Y-67668682D01*
X85719865Y-67658934D01*
X85716359Y-67649120D01*
X85715843Y-67648423D01*
X85715188Y-67646712D01*
X85658045Y-67532425D01*
X85651704Y-67522352D01*
X85650491Y-67519423D01*
X85647783Y-67516124D01*
X85645513Y-67512517D01*
X85643120Y-67510442D01*
X85635567Y-67501238D01*
X85548991Y-67414662D01*
X86059286Y-67414662D01*
X86059286Y-68614662D01*
X86061592Y-68638073D01*
X86079510Y-68681330D01*
X86112618Y-68714438D01*
X86155875Y-68732356D01*
X86202697Y-68732356D01*
X86245954Y-68714438D01*
X86279062Y-68681330D01*
X86296980Y-68638073D01*
X86299286Y-68614662D01*
X86299286Y-67643234D01*
X86573572Y-67643234D01*
X86573572Y-67757520D01*
X86575878Y-67780931D01*
X86577528Y-67784915D01*
X86577834Y-67789215D01*
X86586241Y-67811186D01*
X86643384Y-67925471D01*
X86649727Y-67935547D01*
X86650939Y-67938473D01*
X86653642Y-67941767D01*
X86655916Y-67945379D01*
X86658310Y-67947455D01*
X86665862Y-67956658D01*
X86723005Y-68013801D01*
X86732207Y-68021352D01*
X86734284Y-68023747D01*
X86737895Y-68026020D01*
X86741190Y-68028724D01*
X86744114Y-68029935D01*
X86754192Y-68036279D01*
X86868477Y-68093422D01*
X86870190Y-68094077D01*
X86870886Y-68094593D01*
X86880716Y-68098105D01*
X86890448Y-68101829D01*
X86891310Y-68101890D01*
X86893039Y-68102508D01*
X87108831Y-68156456D01*
X87193916Y-68198998D01*
X87223520Y-68228602D01*
X87259286Y-68300133D01*
X87259286Y-68357763D01*
X87223520Y-68429295D01*
X87193918Y-68458896D01*
X87122386Y-68494662D01*
X86884474Y-68494662D01*
X86731519Y-68443678D01*
X86708580Y-68438462D01*
X86661877Y-68441782D01*
X86619998Y-68462722D01*
X86589321Y-68498093D01*
X86574514Y-68542512D01*
X86577834Y-68589215D01*
X86598774Y-68631094D01*
X86634145Y-68661771D01*
X86655625Y-68671362D01*
X86827055Y-68728504D01*
X86838663Y-68731143D01*
X86841590Y-68732356D01*
X86845832Y-68732773D01*
X86849993Y-68733720D01*
X86853155Y-68733495D01*
X86865001Y-68734662D01*
X87150715Y-68734662D01*
X87174126Y-68732356D01*
X87178108Y-68730706D01*
X87182409Y-68730401D01*
X87204380Y-68721994D01*
X87318666Y-68664852D01*
X87328743Y-68658507D01*
X87331670Y-68657296D01*
X87334965Y-68654591D01*
X87338574Y-68652320D01*
X87340649Y-68649926D01*
X87349855Y-68642372D01*
X87406997Y-68585229D01*
X87414548Y-68576026D01*
X87416942Y-68573951D01*
X87419214Y-68570340D01*
X87421920Y-68567044D01*
X87423132Y-68564117D01*
X87429474Y-68554043D01*
X87486617Y-68439756D01*
X87495025Y-68417786D01*
X87495330Y-68413483D01*
X87496980Y-68409502D01*
X87499286Y-68386091D01*
X87499286Y-68271805D01*
X87496980Y-68248394D01*
X87495329Y-68244409D01*
X87495024Y-68240110D01*
X87486617Y-68218139D01*
X87429474Y-68103854D01*
X87423132Y-68093779D01*
X87421920Y-68090853D01*
X87419214Y-68087556D01*
X87416942Y-68083946D01*
X87414548Y-68081870D01*
X87406997Y-68072668D01*
X87349855Y-68015525D01*
X87340650Y-68007970D01*
X87338575Y-68005578D01*
X87334967Y-68003306D01*
X87331670Y-68000601D01*
X87328742Y-67999388D01*
X87318667Y-67993046D01*
X87204381Y-67935903D01*
X87202667Y-67935247D01*
X87201972Y-67934732D01*
X87192135Y-67931217D01*
X87182410Y-67927496D01*
X87181549Y-67927434D01*
X87179820Y-67926817D01*
X86964027Y-67872869D01*
X86878942Y-67830326D01*
X86849336Y-67800720D01*
X86813572Y-67729191D01*
X86813572Y-67671561D01*
X86849336Y-67600032D01*
X86878942Y-67570426D01*
X86950471Y-67534662D01*
X87188384Y-67534662D01*
X87341338Y-67585647D01*
X87364277Y-67590862D01*
X87410981Y-67587543D01*
X87452859Y-67566604D01*
X87483537Y-67531233D01*
X87498343Y-67486814D01*
X87495024Y-67440110D01*
X87482300Y-67414662D01*
X87773572Y-67414662D01*
X87773572Y-68614662D01*
X87775878Y-68638073D01*
X87793796Y-68681330D01*
X87826904Y-68714438D01*
X87870161Y-68732356D01*
X87916983Y-68732356D01*
X87960240Y-68714438D01*
X87993348Y-68681330D01*
X88011266Y-68638073D01*
X88013572Y-68614662D01*
X88013572Y-68163234D01*
X88350715Y-68163234D01*
X88374126Y-68160928D01*
X88378110Y-68159277D01*
X88382410Y-68158972D01*
X88404381Y-68150565D01*
X88518666Y-68093422D01*
X88528742Y-68087078D01*
X88531668Y-68085867D01*
X88534962Y-68083163D01*
X88538574Y-68080890D01*
X88540650Y-68078495D01*
X88549853Y-68070944D01*
X88606996Y-68013801D01*
X88614547Y-68004598D01*
X88616942Y-68002522D01*
X88619215Y-67998910D01*
X88621919Y-67995616D01*
X88623130Y-67992691D01*
X88629474Y-67982614D01*
X88686617Y-67868327D01*
X88695025Y-67846357D01*
X88695330Y-67842054D01*
X88696980Y-67838073D01*
X88699286Y-67814662D01*
X88699286Y-67643234D01*
X88696980Y-67619823D01*
X88695330Y-67615841D01*
X88695025Y-67611539D01*
X88686617Y-67589569D01*
X88629474Y-67475282D01*
X88623130Y-67465204D01*
X88621919Y-67462280D01*
X88619215Y-67458985D01*
X88616942Y-67455374D01*
X88614547Y-67453297D01*
X88606996Y-67444095D01*
X88577563Y-67414662D01*
X88973572Y-67414662D01*
X88973572Y-68614662D01*
X88975878Y-68638073D01*
X88993796Y-68681330D01*
X89026904Y-68714438D01*
X89070161Y-68732356D01*
X89093572Y-68734662D01*
X89665000Y-68734662D01*
X89688411Y-68732356D01*
X89731668Y-68714438D01*
X89764776Y-68681330D01*
X89778615Y-68647919D01*
X89798773Y-68688236D01*
X89834144Y-68718913D01*
X89878564Y-68733720D01*
X89925267Y-68730400D01*
X89967146Y-68709461D01*
X89997823Y-68674090D01*
X90007414Y-68652609D01*
X90094349Y-68391805D01*
X90492795Y-68391805D01*
X90579730Y-68652609D01*
X90589321Y-68674090D01*
X90619998Y-68709461D01*
X90661877Y-68730400D01*
X90708580Y-68733719D01*
X90753000Y-68718913D01*
X90788371Y-68688235D01*
X90809310Y-68646357D01*
X90812630Y-68599653D01*
X90807414Y-68576715D01*
X90419170Y-67411984D01*
X90802173Y-67411984D01*
X90810280Y-67458098D01*
X90820904Y-67479087D01*
X91202143Y-68078178D01*
X91202143Y-68614662D01*
X91204449Y-68638073D01*
X91222367Y-68681330D01*
X91255475Y-68714438D01*
X91298732Y-68732356D01*
X91345554Y-68732356D01*
X91388811Y-68714438D01*
X91421919Y-68681330D01*
X91439837Y-68638073D01*
X91442143Y-68614662D01*
X91442143Y-68078177D01*
X91823382Y-67479087D01*
X91834006Y-67458098D01*
X91842112Y-67411984D01*
X91831955Y-67366277D01*
X91805081Y-67327937D01*
X91765579Y-67302799D01*
X91719465Y-67294693D01*
X91673758Y-67304850D01*
X91635418Y-67331724D01*
X91620903Y-67350237D01*
X91322142Y-67819718D01*
X91023382Y-67350237D01*
X91008868Y-67331724D01*
X90970528Y-67304850D01*
X90924821Y-67294692D01*
X90878707Y-67302799D01*
X90839205Y-67327937D01*
X90812331Y-67366277D01*
X90802173Y-67411984D01*
X90419170Y-67411984D01*
X90407414Y-67376715D01*
X90397823Y-67355234D01*
X90392204Y-67348755D01*
X90388371Y-67341089D01*
X90377006Y-67331232D01*
X90367146Y-67319863D01*
X90359476Y-67316028D01*
X90353000Y-67310411D01*
X90338725Y-67305652D01*
X90325267Y-67298924D01*
X90316713Y-67298315D01*
X90308580Y-67295605D01*
X90293576Y-67296671D01*
X90278564Y-67295604D01*
X90270427Y-67298316D01*
X90261877Y-67298924D01*
X90248420Y-67305651D01*
X90234144Y-67310411D01*
X90227666Y-67316028D01*
X90219998Y-67319863D01*
X90210139Y-67331229D01*
X90198773Y-67341088D01*
X90194938Y-67348756D01*
X90189321Y-67355234D01*
X90179730Y-67376715D01*
X89779730Y-68576715D01*
X89778646Y-68581479D01*
X89764776Y-68547994D01*
X89731668Y-68514886D01*
X89688411Y-68496968D01*
X89665000Y-68494662D01*
X89213572Y-68494662D01*
X89213572Y-67414662D01*
X89211266Y-67391251D01*
X89193348Y-67347994D01*
X89160240Y-67314886D01*
X89116983Y-67296968D01*
X89070161Y-67296968D01*
X89026904Y-67314886D01*
X88993796Y-67347994D01*
X88975878Y-67391251D01*
X88973572Y-67414662D01*
X88577563Y-67414662D01*
X88549853Y-67386952D01*
X88540650Y-67379400D01*
X88538574Y-67377006D01*
X88534962Y-67374732D01*
X88531668Y-67372029D01*
X88528742Y-67370817D01*
X88518666Y-67364474D01*
X88404381Y-67307331D01*
X88382410Y-67298924D01*
X88378110Y-67298618D01*
X88374126Y-67296968D01*
X88350715Y-67294662D01*
X87893572Y-67294662D01*
X87870161Y-67296968D01*
X87826904Y-67314886D01*
X87793796Y-67347994D01*
X87775878Y-67391251D01*
X87773572Y-67414662D01*
X87482300Y-67414662D01*
X87474085Y-67398232D01*
X87438714Y-67367554D01*
X87417233Y-67357963D01*
X87245806Y-67300820D01*
X87234193Y-67298179D01*
X87231269Y-67296968D01*
X87227028Y-67296550D01*
X87222867Y-67295604D01*
X87219704Y-67295828D01*
X87207858Y-67294662D01*
X86922143Y-67294662D01*
X86898732Y-67296968D01*
X86894747Y-67298618D01*
X86890448Y-67298924D01*
X86868477Y-67307331D01*
X86754192Y-67364474D01*
X86744114Y-67370817D01*
X86741190Y-67372029D01*
X86737895Y-67374732D01*
X86734284Y-67377006D01*
X86732207Y-67379400D01*
X86723005Y-67386952D01*
X86665862Y-67444095D01*
X86658310Y-67453297D01*
X86655916Y-67455374D01*
X86653642Y-67458985D01*
X86650939Y-67462280D01*
X86649727Y-67465205D01*
X86643384Y-67475282D01*
X86586241Y-67589568D01*
X86577834Y-67611539D01*
X86577528Y-67615838D01*
X86575878Y-67619823D01*
X86573572Y-67643234D01*
X86299286Y-67643234D01*
X86299286Y-67414662D01*
X86296980Y-67391251D01*
X86279062Y-67347994D01*
X86245954Y-67314886D01*
X86202697Y-67296968D01*
X86155875Y-67296968D01*
X86112618Y-67314886D01*
X86079510Y-67347994D01*
X86061592Y-67391251D01*
X86059286Y-67414662D01*
X85548991Y-67414662D01*
X85521282Y-67386953D01*
X85503098Y-67372029D01*
X85499114Y-67370378D01*
X85495857Y-67367554D01*
X85474376Y-67357963D01*
X85302947Y-67300820D01*
X85291337Y-67298180D01*
X85288411Y-67296968D01*
X85284169Y-67296550D01*
X85280008Y-67295604D01*
X85276845Y-67295828D01*
X85265000Y-67294662D01*
X84979286Y-67294662D01*
X84955875Y-67296968D01*
X84912618Y-67314886D01*
X84879510Y-67347994D01*
X84861592Y-67391251D01*
X84859286Y-67414662D01*
X84725953Y-67414662D01*
X84725953Y-67161329D01*
X91975445Y-67161329D01*
X91975445Y-68867995D01*
G37*
X108894143Y-68811520D02*
X109065572Y-68868662D01*
X109065572Y-68868662D02*
X109351286Y-68868662D01*
X109351286Y-68868662D02*
X109465572Y-68811520D01*
X109465572Y-68811520D02*
X109522714Y-68754377D01*
X109522714Y-68754377D02*
X109579857Y-68640091D01*
X109579857Y-68640091D02*
X109579857Y-68525805D01*
X109579857Y-68525805D02*
X109522714Y-68411520D01*
X109522714Y-68411520D02*
X109465572Y-68354377D01*
X109465572Y-68354377D02*
X109351286Y-68297234D01*
X109351286Y-68297234D02*
X109122714Y-68240091D01*
X109122714Y-68240091D02*
X109008429Y-68182948D01*
X109008429Y-68182948D02*
X108951286Y-68125805D01*
X108951286Y-68125805D02*
X108894143Y-68011520D01*
X108894143Y-68011520D02*
X108894143Y-67897234D01*
X108894143Y-67897234D02*
X108951286Y-67782948D01*
X108951286Y-67782948D02*
X109008429Y-67725805D01*
X109008429Y-67725805D02*
X109122714Y-67668662D01*
X109122714Y-67668662D02*
X109408429Y-67668662D01*
X109408429Y-67668662D02*
X109579857Y-67725805D01*
X109979857Y-67668662D02*
X110265571Y-68868662D01*
X110265571Y-68868662D02*
X110494143Y-68011520D01*
X110494143Y-68011520D02*
X110722714Y-68868662D01*
X110722714Y-68868662D02*
X111008429Y-67668662D01*
X111979858Y-67668662D02*
X111751286Y-67668662D01*
X111751286Y-67668662D02*
X111637000Y-67725805D01*
X111637000Y-67725805D02*
X111579858Y-67782948D01*
X111579858Y-67782948D02*
X111465572Y-67954377D01*
X111465572Y-67954377D02*
X111408429Y-68182948D01*
X111408429Y-68182948D02*
X111408429Y-68640091D01*
X111408429Y-68640091D02*
X111465572Y-68754377D01*
X111465572Y-68754377D02*
X111522715Y-68811520D01*
X111522715Y-68811520D02*
X111637000Y-68868662D01*
X111637000Y-68868662D02*
X111865572Y-68868662D01*
X111865572Y-68868662D02*
X111979858Y-68811520D01*
X111979858Y-68811520D02*
X112037000Y-68754377D01*
X112037000Y-68754377D02*
X112094143Y-68640091D01*
X112094143Y-68640091D02*
X112094143Y-68354377D01*
X112094143Y-68354377D02*
X112037000Y-68240091D01*
X112037000Y-68240091D02*
X111979858Y-68182948D01*
X111979858Y-68182948D02*
X111865572Y-68125805D01*
X111865572Y-68125805D02*
X111637000Y-68125805D01*
X111637000Y-68125805D02*
X111522715Y-68182948D01*
X111522715Y-68182948D02*
X111465572Y-68240091D01*
X111465572Y-68240091D02*
X111408429Y-68354377D01*
X112494143Y-67668662D02*
X113237000Y-67668662D01*
X113237000Y-67668662D02*
X112837000Y-68125805D01*
X112837000Y-68125805D02*
X113008429Y-68125805D01*
X113008429Y-68125805D02*
X113122715Y-68182948D01*
X113122715Y-68182948D02*
X113179857Y-68240091D01*
X113179857Y-68240091D02*
X113237000Y-68354377D01*
X113237000Y-68354377D02*
X113237000Y-68640091D01*
X113237000Y-68640091D02*
X113179857Y-68754377D01*
X113179857Y-68754377D02*
X113122715Y-68811520D01*
X113122715Y-68811520D02*
X113008429Y-68868662D01*
X113008429Y-68868662D02*
X112665572Y-68868662D01*
X112665572Y-68868662D02*
X112551286Y-68811520D01*
X112551286Y-68811520D02*
X112494143Y-68754377D01*
X114665572Y-68868662D02*
X114665572Y-67668662D01*
X114665572Y-67668662D02*
X115065572Y-68525805D01*
X115065572Y-68525805D02*
X115465572Y-67668662D01*
X115465572Y-67668662D02*
X115465572Y-68868662D01*
X116037001Y-68868662D02*
X116037001Y-67668662D01*
X116151287Y-68411520D02*
X116494144Y-68868662D01*
X116494144Y-68068662D02*
X116037001Y-68525805D01*
X117522716Y-68068662D02*
X117522716Y-68868662D01*
X117237001Y-67611520D02*
X116951287Y-68468662D01*
X116951287Y-68468662D02*
X117694144Y-68468662D01*
X119579859Y-68868662D02*
X119579859Y-67668662D01*
X119579859Y-68811520D02*
X119465573Y-68868662D01*
X119465573Y-68868662D02*
X119237001Y-68868662D01*
X119237001Y-68868662D02*
X119122716Y-68811520D01*
X119122716Y-68811520D02*
X119065573Y-68754377D01*
X119065573Y-68754377D02*
X119008430Y-68640091D01*
X119008430Y-68640091D02*
X119008430Y-68297234D01*
X119008430Y-68297234D02*
X119065573Y-68182948D01*
X119065573Y-68182948D02*
X119122716Y-68125805D01*
X119122716Y-68125805D02*
X119237001Y-68068662D01*
X119237001Y-68068662D02*
X119465573Y-68068662D01*
X119465573Y-68068662D02*
X119579859Y-68125805D01*
X120608430Y-68811520D02*
X120494144Y-68868662D01*
X120494144Y-68868662D02*
X120265573Y-68868662D01*
X120265573Y-68868662D02*
X120151287Y-68811520D01*
X120151287Y-68811520D02*
X120094144Y-68697234D01*
X120094144Y-68697234D02*
X120094144Y-68240091D01*
X120094144Y-68240091D02*
X120151287Y-68125805D01*
X120151287Y-68125805D02*
X120265573Y-68068662D01*
X120265573Y-68068662D02*
X120494144Y-68068662D01*
X120494144Y-68068662D02*
X120608430Y-68125805D01*
X120608430Y-68125805D02*
X120665573Y-68240091D01*
X120665573Y-68240091D02*
X120665573Y-68354377D01*
X120665573Y-68354377D02*
X120094144Y-68468662D01*
X121065572Y-68068662D02*
X121351286Y-68868662D01*
X121351286Y-68868662D02*
X121637001Y-68068662D01*
X123008430Y-68868662D02*
X123008430Y-67668662D01*
X123008430Y-68125805D02*
X123122716Y-68068662D01*
X123122716Y-68068662D02*
X123351287Y-68068662D01*
X123351287Y-68068662D02*
X123465573Y-68125805D01*
X123465573Y-68125805D02*
X123522716Y-68182948D01*
X123522716Y-68182948D02*
X123579858Y-68297234D01*
X123579858Y-68297234D02*
X123579858Y-68640091D01*
X123579858Y-68640091D02*
X123522716Y-68754377D01*
X123522716Y-68754377D02*
X123465573Y-68811520D01*
X123465573Y-68811520D02*
X123351287Y-68868662D01*
X123351287Y-68868662D02*
X123122716Y-68868662D01*
X123122716Y-68868662D02*
X123008430Y-68811520D01*
X124265572Y-68868662D02*
X124151287Y-68811520D01*
X124151287Y-68811520D02*
X124094144Y-68754377D01*
X124094144Y-68754377D02*
X124037001Y-68640091D01*
X124037001Y-68640091D02*
X124037001Y-68297234D01*
X124037001Y-68297234D02*
X124094144Y-68182948D01*
X124094144Y-68182948D02*
X124151287Y-68125805D01*
X124151287Y-68125805D02*
X124265572Y-68068662D01*
X124265572Y-68068662D02*
X124437001Y-68068662D01*
X124437001Y-68068662D02*
X124551287Y-68125805D01*
X124551287Y-68125805D02*
X124608430Y-68182948D01*
X124608430Y-68182948D02*
X124665572Y-68297234D01*
X124665572Y-68297234D02*
X124665572Y-68640091D01*
X124665572Y-68640091D02*
X124608430Y-68754377D01*
X124608430Y-68754377D02*
X124551287Y-68811520D01*
X124551287Y-68811520D02*
X124437001Y-68868662D01*
X124437001Y-68868662D02*
X124265572Y-68868662D01*
X125694144Y-68868662D02*
X125694144Y-68240091D01*
X125694144Y-68240091D02*
X125637001Y-68125805D01*
X125637001Y-68125805D02*
X125522715Y-68068662D01*
X125522715Y-68068662D02*
X125294144Y-68068662D01*
X125294144Y-68068662D02*
X125179858Y-68125805D01*
X125694144Y-68811520D02*
X125579858Y-68868662D01*
X125579858Y-68868662D02*
X125294144Y-68868662D01*
X125294144Y-68868662D02*
X125179858Y-68811520D01*
X125179858Y-68811520D02*
X125122715Y-68697234D01*
X125122715Y-68697234D02*
X125122715Y-68582948D01*
X125122715Y-68582948D02*
X125179858Y-68468662D01*
X125179858Y-68468662D02*
X125294144Y-68411520D01*
X125294144Y-68411520D02*
X125579858Y-68411520D01*
X125579858Y-68411520D02*
X125694144Y-68354377D01*
X126265572Y-68868662D02*
X126265572Y-68068662D01*
X126265572Y-68297234D02*
X126322715Y-68182948D01*
X126322715Y-68182948D02*
X126379858Y-68125805D01*
X126379858Y-68125805D02*
X126494143Y-68068662D01*
X126494143Y-68068662D02*
X126608429Y-68068662D01*
X127522715Y-68868662D02*
X127522715Y-67668662D01*
X127522715Y-68811520D02*
X127408429Y-68868662D01*
X127408429Y-68868662D02*
X127179857Y-68868662D01*
X127179857Y-68868662D02*
X127065572Y-68811520D01*
X127065572Y-68811520D02*
X127008429Y-68754377D01*
X127008429Y-68754377D02*
X126951286Y-68640091D01*
X126951286Y-68640091D02*
X126951286Y-68297234D01*
X126951286Y-68297234D02*
X127008429Y-68182948D01*
X127008429Y-68182948D02*
X127065572Y-68125805D01*
X127065572Y-68125805D02*
X127179857Y-68068662D01*
X127179857Y-68068662D02*
X127408429Y-68068662D01*
X127408429Y-68068662D02*
X127522715Y-68125805D01*
X85759805Y-108782820D02*
X85702662Y-108897106D01*
X85702662Y-108897106D02*
X85702662Y-109068534D01*
X85702662Y-109068534D02*
X85759805Y-109239963D01*
X85759805Y-109239963D02*
X85874091Y-109354248D01*
X85874091Y-109354248D02*
X85988377Y-109411391D01*
X85988377Y-109411391D02*
X86216948Y-109468534D01*
X86216948Y-109468534D02*
X86388377Y-109468534D01*
X86388377Y-109468534D02*
X86616948Y-109411391D01*
X86616948Y-109411391D02*
X86731234Y-109354248D01*
X86731234Y-109354248D02*
X86845520Y-109239963D01*
X86845520Y-109239963D02*
X86902662Y-109068534D01*
X86902662Y-109068534D02*
X86902662Y-108954248D01*
X86902662Y-108954248D02*
X86845520Y-108782820D01*
X86845520Y-108782820D02*
X86788377Y-108725677D01*
X86788377Y-108725677D02*
X86388377Y-108725677D01*
X86388377Y-108725677D02*
X86388377Y-108954248D01*
X86902662Y-108211391D02*
X85702662Y-108211391D01*
X85702662Y-108211391D02*
X86902662Y-107525677D01*
X86902662Y-107525677D02*
X85702662Y-107525677D01*
X86902662Y-106954248D02*
X85702662Y-106954248D01*
X85702662Y-106954248D02*
X85702662Y-106668534D01*
X85702662Y-106668534D02*
X85759805Y-106497105D01*
X85759805Y-106497105D02*
X85874091Y-106382820D01*
X85874091Y-106382820D02*
X85988377Y-106325677D01*
X85988377Y-106325677D02*
X86216948Y-106268534D01*
X86216948Y-106268534D02*
X86388377Y-106268534D01*
X86388377Y-106268534D02*
X86616948Y-106325677D01*
X86616948Y-106325677D02*
X86731234Y-106382820D01*
X86731234Y-106382820D02*
X86845520Y-106497105D01*
X86845520Y-106497105D02*
X86902662Y-106668534D01*
X86902662Y-106668534D02*
X86902662Y-106954248D01*
X94408377Y-108725677D02*
X94465520Y-108782820D01*
X94465520Y-108782820D02*
X94522662Y-108954248D01*
X94522662Y-108954248D02*
X94522662Y-109068534D01*
X94522662Y-109068534D02*
X94465520Y-109239963D01*
X94465520Y-109239963D02*
X94351234Y-109354248D01*
X94351234Y-109354248D02*
X94236948Y-109411391D01*
X94236948Y-109411391D02*
X94008377Y-109468534D01*
X94008377Y-109468534D02*
X93836948Y-109468534D01*
X93836948Y-109468534D02*
X93608377Y-109411391D01*
X93608377Y-109411391D02*
X93494091Y-109354248D01*
X93494091Y-109354248D02*
X93379805Y-109239963D01*
X93379805Y-109239963D02*
X93322662Y-109068534D01*
X93322662Y-109068534D02*
X93322662Y-108954248D01*
X93322662Y-108954248D02*
X93379805Y-108782820D01*
X93379805Y-108782820D02*
X93436948Y-108725677D01*
X94522662Y-107639963D02*
X94522662Y-108211391D01*
X94522662Y-108211391D02*
X93322662Y-108211391D01*
X93322662Y-107011391D02*
X93322662Y-106782819D01*
X93322662Y-106782819D02*
X93379805Y-106668534D01*
X93379805Y-106668534D02*
X93494091Y-106554248D01*
X93494091Y-106554248D02*
X93722662Y-106497105D01*
X93722662Y-106497105D02*
X94122662Y-106497105D01*
X94122662Y-106497105D02*
X94351234Y-106554248D01*
X94351234Y-106554248D02*
X94465520Y-106668534D01*
X94465520Y-106668534D02*
X94522662Y-106782819D01*
X94522662Y-106782819D02*
X94522662Y-107011391D01*
X94522662Y-107011391D02*
X94465520Y-107125677D01*
X94465520Y-107125677D02*
X94351234Y-107239962D01*
X94351234Y-107239962D02*
X94122662Y-107297105D01*
X94122662Y-107297105D02*
X93722662Y-107297105D01*
X93722662Y-107297105D02*
X93494091Y-107239962D01*
X93494091Y-107239962D02*
X93379805Y-107125677D01*
X93379805Y-107125677D02*
X93322662Y-107011391D01*
X94408377Y-105297105D02*
X94465520Y-105354248D01*
X94465520Y-105354248D02*
X94522662Y-105525676D01*
X94522662Y-105525676D02*
X94522662Y-105639962D01*
X94522662Y-105639962D02*
X94465520Y-105811391D01*
X94465520Y-105811391D02*
X94351234Y-105925676D01*
X94351234Y-105925676D02*
X94236948Y-105982819D01*
X94236948Y-105982819D02*
X94008377Y-106039962D01*
X94008377Y-106039962D02*
X93836948Y-106039962D01*
X93836948Y-106039962D02*
X93608377Y-105982819D01*
X93608377Y-105982819D02*
X93494091Y-105925676D01*
X93494091Y-105925676D02*
X93379805Y-105811391D01*
X93379805Y-105811391D02*
X93322662Y-105639962D01*
X93322662Y-105639962D02*
X93322662Y-105525676D01*
X93322662Y-105525676D02*
X93379805Y-105354248D01*
X93379805Y-105354248D02*
X93436948Y-105297105D01*
X94522662Y-104782819D02*
X93322662Y-104782819D01*
X94522662Y-104097105D02*
X93836948Y-104611391D01*
X93322662Y-104097105D02*
X94008377Y-104782819D01*
X150132179Y-98402662D02*
X150532179Y-99602662D01*
X150532179Y-99602662D02*
X150932179Y-98402662D01*
X151732179Y-98974091D02*
X151903607Y-99031234D01*
X151903607Y-99031234D02*
X151960750Y-99088377D01*
X151960750Y-99088377D02*
X152017893Y-99202662D01*
X152017893Y-99202662D02*
X152017893Y-99374091D01*
X152017893Y-99374091D02*
X151960750Y-99488377D01*
X151960750Y-99488377D02*
X151903607Y-99545520D01*
X151903607Y-99545520D02*
X151789322Y-99602662D01*
X151789322Y-99602662D02*
X151332179Y-99602662D01*
X151332179Y-99602662D02*
X151332179Y-98402662D01*
X151332179Y-98402662D02*
X151732179Y-98402662D01*
X151732179Y-98402662D02*
X151846465Y-98459805D01*
X151846465Y-98459805D02*
X151903607Y-98516948D01*
X151903607Y-98516948D02*
X151960750Y-98631234D01*
X151960750Y-98631234D02*
X151960750Y-98745520D01*
X151960750Y-98745520D02*
X151903607Y-98859805D01*
X151903607Y-98859805D02*
X151846465Y-98916948D01*
X151846465Y-98916948D02*
X151732179Y-98974091D01*
X151732179Y-98974091D02*
X151332179Y-98974091D01*
X152475036Y-99259805D02*
X153046465Y-99259805D01*
X152360750Y-99602662D02*
X152760750Y-98402662D01*
X152760750Y-98402662D02*
X153160750Y-99602662D01*
X153389321Y-98402662D02*
X154075036Y-98402662D01*
X153732178Y-99602662D02*
X153732178Y-98402662D01*
X140242662Y-108725677D02*
X139671234Y-109125677D01*
X140242662Y-109411391D02*
X139042662Y-109411391D01*
X139042662Y-109411391D02*
X139042662Y-108954248D01*
X139042662Y-108954248D02*
X139099805Y-108839963D01*
X139099805Y-108839963D02*
X139156948Y-108782820D01*
X139156948Y-108782820D02*
X139271234Y-108725677D01*
X139271234Y-108725677D02*
X139442662Y-108725677D01*
X139442662Y-108725677D02*
X139556948Y-108782820D01*
X139556948Y-108782820D02*
X139614091Y-108839963D01*
X139614091Y-108839963D02*
X139671234Y-108954248D01*
X139671234Y-108954248D02*
X139671234Y-109411391D01*
X140185520Y-108268534D02*
X140242662Y-108097106D01*
X140242662Y-108097106D02*
X140242662Y-107811391D01*
X140242662Y-107811391D02*
X140185520Y-107697106D01*
X140185520Y-107697106D02*
X140128377Y-107639963D01*
X140128377Y-107639963D02*
X140014091Y-107582820D01*
X140014091Y-107582820D02*
X139899805Y-107582820D01*
X139899805Y-107582820D02*
X139785520Y-107639963D01*
X139785520Y-107639963D02*
X139728377Y-107697106D01*
X139728377Y-107697106D02*
X139671234Y-107811391D01*
X139671234Y-107811391D02*
X139614091Y-108039963D01*
X139614091Y-108039963D02*
X139556948Y-108154248D01*
X139556948Y-108154248D02*
X139499805Y-108211391D01*
X139499805Y-108211391D02*
X139385520Y-108268534D01*
X139385520Y-108268534D02*
X139271234Y-108268534D01*
X139271234Y-108268534D02*
X139156948Y-108211391D01*
X139156948Y-108211391D02*
X139099805Y-108154248D01*
X139099805Y-108154248D02*
X139042662Y-108039963D01*
X139042662Y-108039963D02*
X139042662Y-107754248D01*
X139042662Y-107754248D02*
X139099805Y-107582820D01*
X139042662Y-107239963D02*
X139042662Y-106554249D01*
X140242662Y-106897106D02*
X139042662Y-106897106D01*
X138709520Y-109577106D02*
X138709520Y-106559963D01*
X131422662Y-109582820D02*
X132622662Y-109182820D01*
X132622662Y-109182820D02*
X131422662Y-108782820D01*
X131994091Y-107982820D02*
X132051234Y-107811392D01*
X132051234Y-107811392D02*
X132108377Y-107754249D01*
X132108377Y-107754249D02*
X132222662Y-107697106D01*
X132222662Y-107697106D02*
X132394091Y-107697106D01*
X132394091Y-107697106D02*
X132508377Y-107754249D01*
X132508377Y-107754249D02*
X132565520Y-107811392D01*
X132565520Y-107811392D02*
X132622662Y-107925677D01*
X132622662Y-107925677D02*
X132622662Y-108382820D01*
X132622662Y-108382820D02*
X131422662Y-108382820D01*
X131422662Y-108382820D02*
X131422662Y-107982820D01*
X131422662Y-107982820D02*
X131479805Y-107868535D01*
X131479805Y-107868535D02*
X131536948Y-107811392D01*
X131536948Y-107811392D02*
X131651234Y-107754249D01*
X131651234Y-107754249D02*
X131765520Y-107754249D01*
X131765520Y-107754249D02*
X131879805Y-107811392D01*
X131879805Y-107811392D02*
X131936948Y-107868535D01*
X131936948Y-107868535D02*
X131994091Y-107982820D01*
X131994091Y-107982820D02*
X131994091Y-108382820D01*
X132279805Y-107239963D02*
X132279805Y-106668535D01*
X132622662Y-107354249D02*
X131422662Y-106954249D01*
X131422662Y-106954249D02*
X132622662Y-106554249D01*
X131422662Y-106325678D02*
X131422662Y-105639964D01*
X132622662Y-105982821D02*
X131422662Y-105982821D01*
X88242662Y-109582820D02*
X89442662Y-109182820D01*
X89442662Y-109182820D02*
X88242662Y-108782820D01*
X89442662Y-108382820D02*
X88242662Y-108382820D01*
X88242662Y-108382820D02*
X88242662Y-108097106D01*
X88242662Y-108097106D02*
X88299805Y-107925677D01*
X88299805Y-107925677D02*
X88414091Y-107811392D01*
X88414091Y-107811392D02*
X88528377Y-107754249D01*
X88528377Y-107754249D02*
X88756948Y-107697106D01*
X88756948Y-107697106D02*
X88928377Y-107697106D01*
X88928377Y-107697106D02*
X89156948Y-107754249D01*
X89156948Y-107754249D02*
X89271234Y-107811392D01*
X89271234Y-107811392D02*
X89385520Y-107925677D01*
X89385520Y-107925677D02*
X89442662Y-108097106D01*
X89442662Y-108097106D02*
X89442662Y-108382820D01*
X89442662Y-107182820D02*
X88242662Y-107182820D01*
X88242662Y-107182820D02*
X88242662Y-106897106D01*
X88242662Y-106897106D02*
X88299805Y-106725677D01*
X88299805Y-106725677D02*
X88414091Y-106611392D01*
X88414091Y-106611392D02*
X88528377Y-106554249D01*
X88528377Y-106554249D02*
X88756948Y-106497106D01*
X88756948Y-106497106D02*
X88928377Y-106497106D01*
X88928377Y-106497106D02*
X89156948Y-106554249D01*
X89156948Y-106554249D02*
X89271234Y-106611392D01*
X89271234Y-106611392D02*
X89385520Y-106725677D01*
X89385520Y-106725677D02*
X89442662Y-106897106D01*
X89442662Y-106897106D02*
X89442662Y-107182820D01*
X145094285Y-82651805D02*
X144980000Y-82594662D01*
X144980000Y-82594662D02*
X144808571Y-82594662D01*
X144808571Y-82594662D02*
X144637142Y-82651805D01*
X144637142Y-82651805D02*
X144522857Y-82766091D01*
X144522857Y-82766091D02*
X144465714Y-82880377D01*
X144465714Y-82880377D02*
X144408571Y-83108948D01*
X144408571Y-83108948D02*
X144408571Y-83280377D01*
X144408571Y-83280377D02*
X144465714Y-83508948D01*
X144465714Y-83508948D02*
X144522857Y-83623234D01*
X144522857Y-83623234D02*
X144637142Y-83737520D01*
X144637142Y-83737520D02*
X144808571Y-83794662D01*
X144808571Y-83794662D02*
X144922857Y-83794662D01*
X144922857Y-83794662D02*
X145094285Y-83737520D01*
X145094285Y-83737520D02*
X145151428Y-83680377D01*
X145151428Y-83680377D02*
X145151428Y-83280377D01*
X145151428Y-83280377D02*
X144922857Y-83280377D01*
X91982662Y-109411391D02*
X90782662Y-109411391D01*
X90782662Y-109411391D02*
X90782662Y-109125677D01*
X90782662Y-109125677D02*
X90839805Y-108954248D01*
X90839805Y-108954248D02*
X90954091Y-108839963D01*
X90954091Y-108839963D02*
X91068377Y-108782820D01*
X91068377Y-108782820D02*
X91296948Y-108725677D01*
X91296948Y-108725677D02*
X91468377Y-108725677D01*
X91468377Y-108725677D02*
X91696948Y-108782820D01*
X91696948Y-108782820D02*
X91811234Y-108839963D01*
X91811234Y-108839963D02*
X91925520Y-108954248D01*
X91925520Y-108954248D02*
X91982662Y-109125677D01*
X91982662Y-109125677D02*
X91982662Y-109411391D01*
X91639805Y-108268534D02*
X91639805Y-107697106D01*
X91982662Y-108382820D02*
X90782662Y-107982820D01*
X90782662Y-107982820D02*
X91982662Y-107582820D01*
X90782662Y-107354249D02*
X90782662Y-106668535D01*
X91982662Y-107011392D02*
X90782662Y-107011392D01*
X91639805Y-106325677D02*
X91639805Y-105754249D01*
X91982662Y-106439963D02*
X90782662Y-106039963D01*
X90782662Y-106039963D02*
X91982662Y-105639963D01*
X128882662Y-109582820D02*
X130082662Y-109182820D01*
X130082662Y-109182820D02*
X128882662Y-108782820D01*
X129968377Y-107697106D02*
X130025520Y-107754249D01*
X130025520Y-107754249D02*
X130082662Y-107925677D01*
X130082662Y-107925677D02*
X130082662Y-108039963D01*
X130082662Y-108039963D02*
X130025520Y-108211392D01*
X130025520Y-108211392D02*
X129911234Y-108325677D01*
X129911234Y-108325677D02*
X129796948Y-108382820D01*
X129796948Y-108382820D02*
X129568377Y-108439963D01*
X129568377Y-108439963D02*
X129396948Y-108439963D01*
X129396948Y-108439963D02*
X129168377Y-108382820D01*
X129168377Y-108382820D02*
X129054091Y-108325677D01*
X129054091Y-108325677D02*
X128939805Y-108211392D01*
X128939805Y-108211392D02*
X128882662Y-108039963D01*
X128882662Y-108039963D02*
X128882662Y-107925677D01*
X128882662Y-107925677D02*
X128939805Y-107754249D01*
X128939805Y-107754249D02*
X128996948Y-107697106D01*
X129968377Y-106497106D02*
X130025520Y-106554249D01*
X130025520Y-106554249D02*
X130082662Y-106725677D01*
X130082662Y-106725677D02*
X130082662Y-106839963D01*
X130082662Y-106839963D02*
X130025520Y-107011392D01*
X130025520Y-107011392D02*
X129911234Y-107125677D01*
X129911234Y-107125677D02*
X129796948Y-107182820D01*
X129796948Y-107182820D02*
X129568377Y-107239963D01*
X129568377Y-107239963D02*
X129396948Y-107239963D01*
X129396948Y-107239963D02*
X129168377Y-107182820D01*
X129168377Y-107182820D02*
X129054091Y-107125677D01*
X129054091Y-107125677D02*
X128939805Y-107011392D01*
X128939805Y-107011392D02*
X128882662Y-106839963D01*
X128882662Y-106839963D02*
X128882662Y-106725677D01*
X128882662Y-106725677D02*
X128939805Y-106554249D01*
X128939805Y-106554249D02*
X128996948Y-106497106D01*
X135105520Y-109468534D02*
X135162662Y-109297106D01*
X135162662Y-109297106D02*
X135162662Y-109011391D01*
X135162662Y-109011391D02*
X135105520Y-108897106D01*
X135105520Y-108897106D02*
X135048377Y-108839963D01*
X135048377Y-108839963D02*
X134934091Y-108782820D01*
X134934091Y-108782820D02*
X134819805Y-108782820D01*
X134819805Y-108782820D02*
X134705520Y-108839963D01*
X134705520Y-108839963D02*
X134648377Y-108897106D01*
X134648377Y-108897106D02*
X134591234Y-109011391D01*
X134591234Y-109011391D02*
X134534091Y-109239963D01*
X134534091Y-109239963D02*
X134476948Y-109354248D01*
X134476948Y-109354248D02*
X134419805Y-109411391D01*
X134419805Y-109411391D02*
X134305520Y-109468534D01*
X134305520Y-109468534D02*
X134191234Y-109468534D01*
X134191234Y-109468534D02*
X134076948Y-109411391D01*
X134076948Y-109411391D02*
X134019805Y-109354248D01*
X134019805Y-109354248D02*
X133962662Y-109239963D01*
X133962662Y-109239963D02*
X133962662Y-108954248D01*
X133962662Y-108954248D02*
X134019805Y-108782820D01*
X135162662Y-108268534D02*
X133962662Y-108268534D01*
X133962662Y-108268534D02*
X133962662Y-107982820D01*
X133962662Y-107982820D02*
X134019805Y-107811391D01*
X134019805Y-107811391D02*
X134134091Y-107697106D01*
X134134091Y-107697106D02*
X134248377Y-107639963D01*
X134248377Y-107639963D02*
X134476948Y-107582820D01*
X134476948Y-107582820D02*
X134648377Y-107582820D01*
X134648377Y-107582820D02*
X134876948Y-107639963D01*
X134876948Y-107639963D02*
X134991234Y-107697106D01*
X134991234Y-107697106D02*
X135105520Y-107811391D01*
X135105520Y-107811391D02*
X135162662Y-107982820D01*
X135162662Y-107982820D02*
X135162662Y-108268534D01*
X134819805Y-107125677D02*
X134819805Y-106554249D01*
X135162662Y-107239963D02*
X133962662Y-106839963D01*
X133962662Y-106839963D02*
X135162662Y-106439963D01*
X97062662Y-108839963D02*
X97062662Y-109411391D01*
X97062662Y-109411391D02*
X95862662Y-109411391D01*
X96719805Y-108497105D02*
X96719805Y-107925677D01*
X97062662Y-108611391D02*
X95862662Y-108211391D01*
X95862662Y-108211391D02*
X97062662Y-107811391D01*
X95862662Y-107582820D02*
X95862662Y-106897106D01*
X97062662Y-107239963D02*
X95862662Y-107239963D01*
X96948377Y-105811391D02*
X97005520Y-105868534D01*
X97005520Y-105868534D02*
X97062662Y-106039962D01*
X97062662Y-106039962D02*
X97062662Y-106154248D01*
X97062662Y-106154248D02*
X97005520Y-106325677D01*
X97005520Y-106325677D02*
X96891234Y-106439962D01*
X96891234Y-106439962D02*
X96776948Y-106497105D01*
X96776948Y-106497105D02*
X96548377Y-106554248D01*
X96548377Y-106554248D02*
X96376948Y-106554248D01*
X96376948Y-106554248D02*
X96148377Y-106497105D01*
X96148377Y-106497105D02*
X96034091Y-106439962D01*
X96034091Y-106439962D02*
X95919805Y-106325677D01*
X95919805Y-106325677D02*
X95862662Y-106154248D01*
X95862662Y-106154248D02*
X95862662Y-106039962D01*
X95862662Y-106039962D02*
X95919805Y-105868534D01*
X95919805Y-105868534D02*
X95976948Y-105811391D01*
X97062662Y-105297105D02*
X95862662Y-105297105D01*
X96434091Y-105297105D02*
X96434091Y-104611391D01*
X97062662Y-104611391D02*
X95862662Y-104611391D01*
X149545714Y-83794662D02*
X149545714Y-82594662D01*
X149545714Y-82594662D02*
X149831428Y-82594662D01*
X149831428Y-82594662D02*
X150002857Y-82651805D01*
X150002857Y-82651805D02*
X150117142Y-82766091D01*
X150117142Y-82766091D02*
X150174285Y-82880377D01*
X150174285Y-82880377D02*
X150231428Y-83108948D01*
X150231428Y-83108948D02*
X150231428Y-83280377D01*
X150231428Y-83280377D02*
X150174285Y-83508948D01*
X150174285Y-83508948D02*
X150117142Y-83623234D01*
X150117142Y-83623234D02*
X150002857Y-83737520D01*
X150002857Y-83737520D02*
X149831428Y-83794662D01*
X149831428Y-83794662D02*
X149545714Y-83794662D01*
X137645520Y-109468534D02*
X137702662Y-109297106D01*
X137702662Y-109297106D02*
X137702662Y-109011391D01*
X137702662Y-109011391D02*
X137645520Y-108897106D01*
X137645520Y-108897106D02*
X137588377Y-108839963D01*
X137588377Y-108839963D02*
X137474091Y-108782820D01*
X137474091Y-108782820D02*
X137359805Y-108782820D01*
X137359805Y-108782820D02*
X137245520Y-108839963D01*
X137245520Y-108839963D02*
X137188377Y-108897106D01*
X137188377Y-108897106D02*
X137131234Y-109011391D01*
X137131234Y-109011391D02*
X137074091Y-109239963D01*
X137074091Y-109239963D02*
X137016948Y-109354248D01*
X137016948Y-109354248D02*
X136959805Y-109411391D01*
X136959805Y-109411391D02*
X136845520Y-109468534D01*
X136845520Y-109468534D02*
X136731234Y-109468534D01*
X136731234Y-109468534D02*
X136616948Y-109411391D01*
X136616948Y-109411391D02*
X136559805Y-109354248D01*
X136559805Y-109354248D02*
X136502662Y-109239963D01*
X136502662Y-109239963D02*
X136502662Y-108954248D01*
X136502662Y-108954248D02*
X136559805Y-108782820D01*
X137588377Y-107582820D02*
X137645520Y-107639963D01*
X137645520Y-107639963D02*
X137702662Y-107811391D01*
X137702662Y-107811391D02*
X137702662Y-107925677D01*
X137702662Y-107925677D02*
X137645520Y-108097106D01*
X137645520Y-108097106D02*
X137531234Y-108211391D01*
X137531234Y-108211391D02*
X137416948Y-108268534D01*
X137416948Y-108268534D02*
X137188377Y-108325677D01*
X137188377Y-108325677D02*
X137016948Y-108325677D01*
X137016948Y-108325677D02*
X136788377Y-108268534D01*
X136788377Y-108268534D02*
X136674091Y-108211391D01*
X136674091Y-108211391D02*
X136559805Y-108097106D01*
X136559805Y-108097106D02*
X136502662Y-107925677D01*
X136502662Y-107925677D02*
X136502662Y-107811391D01*
X136502662Y-107811391D02*
X136559805Y-107639963D01*
X136559805Y-107639963D02*
X136616948Y-107582820D01*
X137702662Y-106497106D02*
X137702662Y-107068534D01*
X137702662Y-107068534D02*
X136502662Y-107068534D01*
X146977143Y-83737520D02*
X147148572Y-83794662D01*
X147148572Y-83794662D02*
X147434286Y-83794662D01*
X147434286Y-83794662D02*
X147548572Y-83737520D01*
X147548572Y-83737520D02*
X147605714Y-83680377D01*
X147605714Y-83680377D02*
X147662857Y-83566091D01*
X147662857Y-83566091D02*
X147662857Y-83451805D01*
X147662857Y-83451805D02*
X147605714Y-83337520D01*
X147605714Y-83337520D02*
X147548572Y-83280377D01*
X147548572Y-83280377D02*
X147434286Y-83223234D01*
X147434286Y-83223234D02*
X147205714Y-83166091D01*
X147205714Y-83166091D02*
X147091429Y-83108948D01*
X147091429Y-83108948D02*
X147034286Y-83051805D01*
X147034286Y-83051805D02*
X146977143Y-82937520D01*
X146977143Y-82937520D02*
X146977143Y-82823234D01*
X146977143Y-82823234D02*
X147034286Y-82708948D01*
X147034286Y-82708948D02*
X147091429Y-82651805D01*
X147091429Y-82651805D02*
X147205714Y-82594662D01*
X147205714Y-82594662D02*
X147491429Y-82594662D01*
X147491429Y-82594662D02*
X147662857Y-82651805D01*
X126399805Y-108782820D02*
X126342662Y-108897106D01*
X126342662Y-108897106D02*
X126342662Y-109068534D01*
X126342662Y-109068534D02*
X126399805Y-109239963D01*
X126399805Y-109239963D02*
X126514091Y-109354248D01*
X126514091Y-109354248D02*
X126628377Y-109411391D01*
X126628377Y-109411391D02*
X126856948Y-109468534D01*
X126856948Y-109468534D02*
X127028377Y-109468534D01*
X127028377Y-109468534D02*
X127256948Y-109411391D01*
X127256948Y-109411391D02*
X127371234Y-109354248D01*
X127371234Y-109354248D02*
X127485520Y-109239963D01*
X127485520Y-109239963D02*
X127542662Y-109068534D01*
X127542662Y-109068534D02*
X127542662Y-108954248D01*
X127542662Y-108954248D02*
X127485520Y-108782820D01*
X127485520Y-108782820D02*
X127428377Y-108725677D01*
X127428377Y-108725677D02*
X127028377Y-108725677D01*
X127028377Y-108725677D02*
X127028377Y-108954248D01*
X127542662Y-108211391D02*
X126342662Y-108211391D01*
X126342662Y-108211391D02*
X127542662Y-107525677D01*
X127542662Y-107525677D02*
X126342662Y-107525677D01*
X127542662Y-106954248D02*
X126342662Y-106954248D01*
X126342662Y-106954248D02*
X126342662Y-106668534D01*
X126342662Y-106668534D02*
X126399805Y-106497105D01*
X126399805Y-106497105D02*
X126514091Y-106382820D01*
X126514091Y-106382820D02*
X126628377Y-106325677D01*
X126628377Y-106325677D02*
X126856948Y-106268534D01*
X126856948Y-106268534D02*
X127028377Y-106268534D01*
X127028377Y-106268534D02*
X127256948Y-106325677D01*
X127256948Y-106325677D02*
X127371234Y-106382820D01*
X127371234Y-106382820D02*
X127485520Y-106497105D01*
X127485520Y-106497105D02*
X127542662Y-106668534D01*
X127542662Y-106668534D02*
X127542662Y-106954248D01*
X144122662Y-109525677D02*
X144122662Y-108782820D01*
X144122662Y-108782820D02*
X144579805Y-109182820D01*
X144579805Y-109182820D02*
X144579805Y-109011391D01*
X144579805Y-109011391D02*
X144636948Y-108897106D01*
X144636948Y-108897106D02*
X144694091Y-108839963D01*
X144694091Y-108839963D02*
X144808377Y-108782820D01*
X144808377Y-108782820D02*
X145094091Y-108782820D01*
X145094091Y-108782820D02*
X145208377Y-108839963D01*
X145208377Y-108839963D02*
X145265520Y-108897106D01*
X145265520Y-108897106D02*
X145322662Y-109011391D01*
X145322662Y-109011391D02*
X145322662Y-109354248D01*
X145322662Y-109354248D02*
X145265520Y-109468534D01*
X145265520Y-109468534D02*
X145208377Y-109525677D01*
X144236948Y-108325677D02*
X144179805Y-108268534D01*
X144179805Y-108268534D02*
X144122662Y-108154249D01*
X144122662Y-108154249D02*
X144122662Y-107868534D01*
X144122662Y-107868534D02*
X144179805Y-107754249D01*
X144179805Y-107754249D02*
X144236948Y-107697106D01*
X144236948Y-107697106D02*
X144351234Y-107639963D01*
X144351234Y-107639963D02*
X144465520Y-107639963D01*
X144465520Y-107639963D02*
X144636948Y-107697106D01*
X144636948Y-107697106D02*
X145322662Y-108382820D01*
X145322662Y-108382820D02*
X145322662Y-107639963D01*
X145322662Y-107125677D02*
X144122662Y-107125677D01*
X144865520Y-107011392D02*
X145322662Y-106668534D01*
X144522662Y-106668534D02*
X144979805Y-107125677D01*
X145322662Y-106154248D02*
X144122662Y-106154248D01*
X144694091Y-106154248D02*
X144694091Y-105468534D01*
X145322662Y-105468534D02*
X144122662Y-105468534D01*
X144522662Y-105011391D02*
X144522662Y-104382820D01*
X144522662Y-104382820D02*
X145322662Y-105011391D01*
X145322662Y-105011391D02*
X145322662Y-104382820D01*
X142782662Y-109411391D02*
X141582662Y-109411391D01*
X142782662Y-108839962D02*
X141582662Y-108839962D01*
X141582662Y-108839962D02*
X142782662Y-108154248D01*
X142782662Y-108154248D02*
X141582662Y-108154248D01*
X141582662Y-107754248D02*
X141582662Y-107068534D01*
X142782662Y-107411391D02*
X141582662Y-107411391D01*
X141249520Y-109577106D02*
X141249520Y-107074248D01*
X98402662Y-109182820D02*
X98402662Y-108954248D01*
X98402662Y-108954248D02*
X98459805Y-108839963D01*
X98459805Y-108839963D02*
X98574091Y-108725677D01*
X98574091Y-108725677D02*
X98802662Y-108668534D01*
X98802662Y-108668534D02*
X99202662Y-108668534D01*
X99202662Y-108668534D02*
X99431234Y-108725677D01*
X99431234Y-108725677D02*
X99545520Y-108839963D01*
X99545520Y-108839963D02*
X99602662Y-108954248D01*
X99602662Y-108954248D02*
X99602662Y-109182820D01*
X99602662Y-109182820D02*
X99545520Y-109297106D01*
X99545520Y-109297106D02*
X99431234Y-109411391D01*
X99431234Y-109411391D02*
X99202662Y-109468534D01*
X99202662Y-109468534D02*
X98802662Y-109468534D01*
X98802662Y-109468534D02*
X98574091Y-109411391D01*
X98574091Y-109411391D02*
X98459805Y-109297106D01*
X98459805Y-109297106D02*
X98402662Y-109182820D01*
X98974091Y-108154248D02*
X98974091Y-107754248D01*
X99602662Y-107582820D02*
X99602662Y-108154248D01*
X99602662Y-108154248D02*
X98402662Y-108154248D01*
X98402662Y-108154248D02*
X98402662Y-107582820D01*
X98069520Y-109577106D02*
X98069520Y-107474249D01*
X150132179Y-102847662D02*
X150532179Y-104047662D01*
X150532179Y-104047662D02*
X150932179Y-102847662D01*
X152017893Y-103933377D02*
X151960750Y-103990520D01*
X151960750Y-103990520D02*
X151789322Y-104047662D01*
X151789322Y-104047662D02*
X151675036Y-104047662D01*
X151675036Y-104047662D02*
X151503607Y-103990520D01*
X151503607Y-103990520D02*
X151389322Y-103876234D01*
X151389322Y-103876234D02*
X151332179Y-103761948D01*
X151332179Y-103761948D02*
X151275036Y-103533377D01*
X151275036Y-103533377D02*
X151275036Y-103361948D01*
X151275036Y-103361948D02*
X151332179Y-103133377D01*
X151332179Y-103133377D02*
X151389322Y-103019091D01*
X151389322Y-103019091D02*
X151503607Y-102904805D01*
X151503607Y-102904805D02*
X151675036Y-102847662D01*
X151675036Y-102847662D02*
X151789322Y-102847662D01*
X151789322Y-102847662D02*
X151960750Y-102904805D01*
X151960750Y-102904805D02*
X152017893Y-102961948D01*
X153217893Y-103933377D02*
X153160750Y-103990520D01*
X153160750Y-103990520D02*
X152989322Y-104047662D01*
X152989322Y-104047662D02*
X152875036Y-104047662D01*
X152875036Y-104047662D02*
X152703607Y-103990520D01*
X152703607Y-103990520D02*
X152589322Y-103876234D01*
X152589322Y-103876234D02*
X152532179Y-103761948D01*
X152532179Y-103761948D02*
X152475036Y-103533377D01*
X152475036Y-103533377D02*
X152475036Y-103361948D01*
X152475036Y-103361948D02*
X152532179Y-103133377D01*
X152532179Y-103133377D02*
X152589322Y-103019091D01*
X152589322Y-103019091D02*
X152703607Y-102904805D01*
X152703607Y-102904805D02*
X152875036Y-102847662D01*
X152875036Y-102847662D02*
X152989322Y-102847662D01*
X152989322Y-102847662D02*
X153160750Y-102904805D01*
X153160750Y-102904805D02*
X153217893Y-102961948D01*
X146783571Y-94826696D02*
X146783571Y-93626696D01*
X147297857Y-93740982D02*
X147355000Y-93683839D01*
X147355000Y-93683839D02*
X147469286Y-93626696D01*
X147469286Y-93626696D02*
X147755000Y-93626696D01*
X147755000Y-93626696D02*
X147869286Y-93683839D01*
X147869286Y-93683839D02*
X147926428Y-93740982D01*
X147926428Y-93740982D02*
X147983571Y-93855268D01*
X147983571Y-93855268D02*
X147983571Y-93969554D01*
X147983571Y-93969554D02*
X147926428Y-94140982D01*
X147926428Y-94140982D02*
X147240714Y-94826696D01*
X147240714Y-94826696D02*
X147983571Y-94826696D01*
X149183571Y-94712411D02*
X149126428Y-94769554D01*
X149126428Y-94769554D02*
X148955000Y-94826696D01*
X148955000Y-94826696D02*
X148840714Y-94826696D01*
X148840714Y-94826696D02*
X148669285Y-94769554D01*
X148669285Y-94769554D02*
X148555000Y-94655268D01*
X148555000Y-94655268D02*
X148497857Y-94540982D01*
X148497857Y-94540982D02*
X148440714Y-94312411D01*
X148440714Y-94312411D02*
X148440714Y-94140982D01*
X148440714Y-94140982D02*
X148497857Y-93912411D01*
X148497857Y-93912411D02*
X148555000Y-93798125D01*
X148555000Y-93798125D02*
X148669285Y-93683839D01*
X148669285Y-93683839D02*
X148840714Y-93626696D01*
X148840714Y-93626696D02*
X148955000Y-93626696D01*
X148955000Y-93626696D02*
X149126428Y-93683839D01*
X149126428Y-93683839D02*
X149183571Y-93740982D01*
X144212144Y-95958629D02*
X144212144Y-97158629D01*
X144212144Y-96015772D02*
X144326430Y-95958629D01*
X144326430Y-95958629D02*
X144555001Y-95958629D01*
X144555001Y-95958629D02*
X144669287Y-96015772D01*
X144669287Y-96015772D02*
X144726430Y-96072915D01*
X144726430Y-96072915D02*
X144783572Y-96187201D01*
X144783572Y-96187201D02*
X144783572Y-96530058D01*
X144783572Y-96530058D02*
X144726430Y-96644344D01*
X144726430Y-96644344D02*
X144669287Y-96701487D01*
X144669287Y-96701487D02*
X144555001Y-96758629D01*
X144555001Y-96758629D02*
X144326430Y-96758629D01*
X144326430Y-96758629D02*
X144212144Y-96701487D01*
X145812144Y-95958629D02*
X145812144Y-96758629D01*
X145297858Y-95958629D02*
X145297858Y-96587201D01*
X145297858Y-96587201D02*
X145355001Y-96701487D01*
X145355001Y-96701487D02*
X145469286Y-96758629D01*
X145469286Y-96758629D02*
X145640715Y-96758629D01*
X145640715Y-96758629D02*
X145755001Y-96701487D01*
X145755001Y-96701487D02*
X145812144Y-96644344D01*
X146555000Y-96758629D02*
X146440715Y-96701487D01*
X146440715Y-96701487D02*
X146383572Y-96587201D01*
X146383572Y-96587201D02*
X146383572Y-95558629D01*
X147183571Y-96758629D02*
X147069286Y-96701487D01*
X147069286Y-96701487D02*
X147012143Y-96587201D01*
X147012143Y-96587201D02*
X147012143Y-95558629D01*
X147640714Y-96301487D02*
X148555000Y-96301487D01*
X149640714Y-95958629D02*
X149640714Y-96758629D01*
X149126428Y-95958629D02*
X149126428Y-96587201D01*
X149126428Y-96587201D02*
X149183571Y-96701487D01*
X149183571Y-96701487D02*
X149297856Y-96758629D01*
X149297856Y-96758629D02*
X149469285Y-96758629D01*
X149469285Y-96758629D02*
X149583571Y-96701487D01*
X149583571Y-96701487D02*
X149640714Y-96644344D01*
X150212142Y-95958629D02*
X150212142Y-97158629D01*
X150212142Y-96015772D02*
X150326428Y-95958629D01*
X150326428Y-95958629D02*
X150554999Y-95958629D01*
X150554999Y-95958629D02*
X150669285Y-96015772D01*
X150669285Y-96015772D02*
X150726428Y-96072915D01*
X150726428Y-96072915D02*
X150783570Y-96187201D01*
X150783570Y-96187201D02*
X150783570Y-96530058D01*
X150783570Y-96530058D02*
X150726428Y-96644344D01*
X150726428Y-96644344D02*
X150669285Y-96701487D01*
X150669285Y-96701487D02*
X150554999Y-96758629D01*
X150554999Y-96758629D02*
X150326428Y-96758629D01*
X150326428Y-96758629D02*
X150212142Y-96701487D01*
X151240713Y-96701487D02*
X151354999Y-96758629D01*
X151354999Y-96758629D02*
X151583570Y-96758629D01*
X151583570Y-96758629D02*
X151697856Y-96701487D01*
X151697856Y-96701487D02*
X151754999Y-96587201D01*
X151754999Y-96587201D02*
X151754999Y-96530058D01*
X151754999Y-96530058D02*
X151697856Y-96415772D01*
X151697856Y-96415772D02*
X151583570Y-96358629D01*
X151583570Y-96358629D02*
X151412142Y-96358629D01*
X151412142Y-96358629D02*
X151297856Y-96301487D01*
X151297856Y-96301487D02*
X151240713Y-96187201D01*
X151240713Y-96187201D02*
X151240713Y-96130058D01*
X151240713Y-96130058D02*
X151297856Y-96015772D01*
X151297856Y-96015772D02*
X151412142Y-95958629D01*
X151412142Y-95958629D02*
X151583570Y-95958629D01*
X151583570Y-95958629D02*
X151697856Y-96015772D01*
D11*
X109059163Y-92035518D02*
X108582972Y-92368851D01*
X109059163Y-92606946D02*
X108059163Y-92606946D01*
X108059163Y-92606946D02*
X108059163Y-92225994D01*
X108059163Y-92225994D02*
X108106782Y-92130756D01*
X108106782Y-92130756D02*
X108154401Y-92083137D01*
X108154401Y-92083137D02*
X108249639Y-92035518D01*
X108249639Y-92035518D02*
X108392496Y-92035518D01*
X108392496Y-92035518D02*
X108487734Y-92083137D01*
X108487734Y-92083137D02*
X108535353Y-92130756D01*
X108535353Y-92130756D02*
X108582972Y-92225994D01*
X108582972Y-92225994D02*
X108582972Y-92606946D01*
X108059163Y-91702184D02*
X108059163Y-91083137D01*
X108059163Y-91083137D02*
X108440115Y-91416470D01*
X108440115Y-91416470D02*
X108440115Y-91273613D01*
X108440115Y-91273613D02*
X108487734Y-91178375D01*
X108487734Y-91178375D02*
X108535353Y-91130756D01*
X108535353Y-91130756D02*
X108630591Y-91083137D01*
X108630591Y-91083137D02*
X108868686Y-91083137D01*
X108868686Y-91083137D02*
X108963924Y-91130756D01*
X108963924Y-91130756D02*
X109011544Y-91178375D01*
X109011544Y-91178375D02*
X109059163Y-91273613D01*
X109059163Y-91273613D02*
X109059163Y-91559327D01*
X109059163Y-91559327D02*
X109011544Y-91654565D01*
X109011544Y-91654565D02*
X108963924Y-91702184D01*
X108404819Y-89633350D02*
X107404819Y-89633350D01*
X107404819Y-89633350D02*
X107404819Y-89395255D01*
X107404819Y-89395255D02*
X107452438Y-89252398D01*
X107452438Y-89252398D02*
X107547676Y-89157160D01*
X107547676Y-89157160D02*
X107642914Y-89109541D01*
X107642914Y-89109541D02*
X107833390Y-89061922D01*
X107833390Y-89061922D02*
X107976247Y-89061922D01*
X107976247Y-89061922D02*
X108166723Y-89109541D01*
X108166723Y-89109541D02*
X108261961Y-89157160D01*
X108261961Y-89157160D02*
X108357200Y-89252398D01*
X108357200Y-89252398D02*
X108404819Y-89395255D01*
X108404819Y-89395255D02*
X108404819Y-89633350D01*
X108404819Y-88109541D02*
X108404819Y-88680969D01*
X108404819Y-88395255D02*
X107404819Y-88395255D01*
X107404819Y-88395255D02*
X107547676Y-88490493D01*
X107547676Y-88490493D02*
X107642914Y-88585731D01*
X107642914Y-88585731D02*
X107690533Y-88680969D01*
X107404819Y-87490493D02*
X107404819Y-87395255D01*
X107404819Y-87395255D02*
X107452438Y-87300017D01*
X107452438Y-87300017D02*
X107500057Y-87252398D01*
X107500057Y-87252398D02*
X107595295Y-87204779D01*
X107595295Y-87204779D02*
X107785771Y-87157160D01*
X107785771Y-87157160D02*
X108023866Y-87157160D01*
X108023866Y-87157160D02*
X108214342Y-87204779D01*
X108214342Y-87204779D02*
X108309580Y-87252398D01*
X108309580Y-87252398D02*
X108357200Y-87300017D01*
X108357200Y-87300017D02*
X108404819Y-87395255D01*
X108404819Y-87395255D02*
X108404819Y-87490493D01*
X108404819Y-87490493D02*
X108357200Y-87585731D01*
X108357200Y-87585731D02*
X108309580Y-87633350D01*
X108309580Y-87633350D02*
X108214342Y-87680969D01*
X108214342Y-87680969D02*
X108023866Y-87728588D01*
X108023866Y-87728588D02*
X107785771Y-87728588D01*
X107785771Y-87728588D02*
X107595295Y-87680969D01*
X107595295Y-87680969D02*
X107500057Y-87633350D01*
X107500057Y-87633350D02*
X107452438Y-87585731D01*
X107452438Y-87585731D02*
X107404819Y-87490493D01*
X94035714Y-71574819D02*
X94035714Y-70574819D01*
X94035714Y-70574819D02*
X94273809Y-70574819D01*
X94273809Y-70574819D02*
X94416666Y-70622438D01*
X94416666Y-70622438D02*
X94511904Y-70717676D01*
X94511904Y-70717676D02*
X94559523Y-70812914D01*
X94559523Y-70812914D02*
X94607142Y-71003390D01*
X94607142Y-71003390D02*
X94607142Y-71146247D01*
X94607142Y-71146247D02*
X94559523Y-71336723D01*
X94559523Y-71336723D02*
X94511904Y-71431961D01*
X94511904Y-71431961D02*
X94416666Y-71527200D01*
X94416666Y-71527200D02*
X94273809Y-71574819D01*
X94273809Y-71574819D02*
X94035714Y-71574819D01*
X95559523Y-71574819D02*
X94988095Y-71574819D01*
X95273809Y-71574819D02*
X95273809Y-70574819D01*
X95273809Y-70574819D02*
X95178571Y-70717676D01*
X95178571Y-70717676D02*
X95083333Y-70812914D01*
X95083333Y-70812914D02*
X94988095Y-70860533D01*
X96416666Y-70908152D02*
X96416666Y-71574819D01*
X96178571Y-70527200D02*
X95940476Y-71241485D01*
X95940476Y-71241485D02*
X96559523Y-71241485D01*
X109275714Y-71574819D02*
X109275714Y-70574819D01*
X109275714Y-70574819D02*
X109513809Y-70574819D01*
X109513809Y-70574819D02*
X109656666Y-70622438D01*
X109656666Y-70622438D02*
X109751904Y-70717676D01*
X109751904Y-70717676D02*
X109799523Y-70812914D01*
X109799523Y-70812914D02*
X109847142Y-71003390D01*
X109847142Y-71003390D02*
X109847142Y-71146247D01*
X109847142Y-71146247D02*
X109799523Y-71336723D01*
X109799523Y-71336723D02*
X109751904Y-71431961D01*
X109751904Y-71431961D02*
X109656666Y-71527200D01*
X109656666Y-71527200D02*
X109513809Y-71574819D01*
X109513809Y-71574819D02*
X109275714Y-71574819D01*
X110799523Y-71574819D02*
X110228095Y-71574819D01*
X110513809Y-71574819D02*
X110513809Y-70574819D01*
X110513809Y-70574819D02*
X110418571Y-70717676D01*
X110418571Y-70717676D02*
X110323333Y-70812914D01*
X110323333Y-70812914D02*
X110228095Y-70860533D01*
X111656666Y-70574819D02*
X111466190Y-70574819D01*
X111466190Y-70574819D02*
X111370952Y-70622438D01*
X111370952Y-70622438D02*
X111323333Y-70670057D01*
X111323333Y-70670057D02*
X111228095Y-70812914D01*
X111228095Y-70812914D02*
X111180476Y-71003390D01*
X111180476Y-71003390D02*
X111180476Y-71384342D01*
X111180476Y-71384342D02*
X111228095Y-71479580D01*
X111228095Y-71479580D02*
X111275714Y-71527200D01*
X111275714Y-71527200D02*
X111370952Y-71574819D01*
X111370952Y-71574819D02*
X111561428Y-71574819D01*
X111561428Y-71574819D02*
X111656666Y-71527200D01*
X111656666Y-71527200D02*
X111704285Y-71479580D01*
X111704285Y-71479580D02*
X111751904Y-71384342D01*
X111751904Y-71384342D02*
X111751904Y-71146247D01*
X111751904Y-71146247D02*
X111704285Y-71051009D01*
X111704285Y-71051009D02*
X111656666Y-71003390D01*
X111656666Y-71003390D02*
X111561428Y-70955771D01*
X111561428Y-70955771D02*
X111370952Y-70955771D01*
X111370952Y-70955771D02*
X111275714Y-71003390D01*
X111275714Y-71003390D02*
X111228095Y-71051009D01*
X111228095Y-71051009D02*
X111180476Y-71146247D01*
X122077314Y-95208619D02*
X122077314Y-94208619D01*
X122077314Y-94208619D02*
X122315409Y-94208619D01*
X122315409Y-94208619D02*
X122458266Y-94256238D01*
X122458266Y-94256238D02*
X122553504Y-94351476D01*
X122553504Y-94351476D02*
X122601123Y-94446714D01*
X122601123Y-94446714D02*
X122648742Y-94637190D01*
X122648742Y-94637190D02*
X122648742Y-94780047D01*
X122648742Y-94780047D02*
X122601123Y-94970523D01*
X122601123Y-94970523D02*
X122553504Y-95065761D01*
X122553504Y-95065761D02*
X122458266Y-95161000D01*
X122458266Y-95161000D02*
X122315409Y-95208619D01*
X122315409Y-95208619D02*
X122077314Y-95208619D01*
X123029695Y-94303857D02*
X123077314Y-94256238D01*
X123077314Y-94256238D02*
X123172552Y-94208619D01*
X123172552Y-94208619D02*
X123410647Y-94208619D01*
X123410647Y-94208619D02*
X123505885Y-94256238D01*
X123505885Y-94256238D02*
X123553504Y-94303857D01*
X123553504Y-94303857D02*
X123601123Y-94399095D01*
X123601123Y-94399095D02*
X123601123Y-94494333D01*
X123601123Y-94494333D02*
X123553504Y-94637190D01*
X123553504Y-94637190D02*
X122982076Y-95208619D01*
X122982076Y-95208619D02*
X123601123Y-95208619D01*
X124553504Y-95208619D02*
X123982076Y-95208619D01*
X124267790Y-95208619D02*
X124267790Y-94208619D01*
X124267790Y-94208619D02*
X124172552Y-94351476D01*
X124172552Y-94351476D02*
X124077314Y-94446714D01*
X124077314Y-94446714D02*
X123982076Y-94494333D01*
X103324819Y-88680969D02*
X102324819Y-88680969D01*
X102324819Y-88680969D02*
X102324819Y-88442874D01*
X102324819Y-88442874D02*
X102372438Y-88300017D01*
X102372438Y-88300017D02*
X102467676Y-88204779D01*
X102467676Y-88204779D02*
X102562914Y-88157160D01*
X102562914Y-88157160D02*
X102753390Y-88109541D01*
X102753390Y-88109541D02*
X102896247Y-88109541D01*
X102896247Y-88109541D02*
X103086723Y-88157160D01*
X103086723Y-88157160D02*
X103181961Y-88204779D01*
X103181961Y-88204779D02*
X103277200Y-88300017D01*
X103277200Y-88300017D02*
X103324819Y-88442874D01*
X103324819Y-88442874D02*
X103324819Y-88680969D01*
X102753390Y-87538112D02*
X102705771Y-87633350D01*
X102705771Y-87633350D02*
X102658152Y-87680969D01*
X102658152Y-87680969D02*
X102562914Y-87728588D01*
X102562914Y-87728588D02*
X102515295Y-87728588D01*
X102515295Y-87728588D02*
X102420057Y-87680969D01*
X102420057Y-87680969D02*
X102372438Y-87633350D01*
X102372438Y-87633350D02*
X102324819Y-87538112D01*
X102324819Y-87538112D02*
X102324819Y-87347636D01*
X102324819Y-87347636D02*
X102372438Y-87252398D01*
X102372438Y-87252398D02*
X102420057Y-87204779D01*
X102420057Y-87204779D02*
X102515295Y-87157160D01*
X102515295Y-87157160D02*
X102562914Y-87157160D01*
X102562914Y-87157160D02*
X102658152Y-87204779D01*
X102658152Y-87204779D02*
X102705771Y-87252398D01*
X102705771Y-87252398D02*
X102753390Y-87347636D01*
X102753390Y-87347636D02*
X102753390Y-87538112D01*
X102753390Y-87538112D02*
X102801009Y-87633350D01*
X102801009Y-87633350D02*
X102848628Y-87680969D01*
X102848628Y-87680969D02*
X102943866Y-87728588D01*
X102943866Y-87728588D02*
X103134342Y-87728588D01*
X103134342Y-87728588D02*
X103229580Y-87680969D01*
X103229580Y-87680969D02*
X103277200Y-87633350D01*
X103277200Y-87633350D02*
X103324819Y-87538112D01*
X103324819Y-87538112D02*
X103324819Y-87347636D01*
X103324819Y-87347636D02*
X103277200Y-87252398D01*
X103277200Y-87252398D02*
X103229580Y-87204779D01*
X103229580Y-87204779D02*
X103134342Y-87157160D01*
X103134342Y-87157160D02*
X102943866Y-87157160D01*
X102943866Y-87157160D02*
X102848628Y-87204779D01*
X102848628Y-87204779D02*
X102801009Y-87252398D01*
X102801009Y-87252398D02*
X102753390Y-87347636D01*
X137359580Y-85891666D02*
X137407200Y-85939285D01*
X137407200Y-85939285D02*
X137454819Y-86082142D01*
X137454819Y-86082142D02*
X137454819Y-86177380D01*
X137454819Y-86177380D02*
X137407200Y-86320237D01*
X137407200Y-86320237D02*
X137311961Y-86415475D01*
X137311961Y-86415475D02*
X137216723Y-86463094D01*
X137216723Y-86463094D02*
X137026247Y-86510713D01*
X137026247Y-86510713D02*
X136883390Y-86510713D01*
X136883390Y-86510713D02*
X136692914Y-86463094D01*
X136692914Y-86463094D02*
X136597676Y-86415475D01*
X136597676Y-86415475D02*
X136502438Y-86320237D01*
X136502438Y-86320237D02*
X136454819Y-86177380D01*
X136454819Y-86177380D02*
X136454819Y-86082142D01*
X136454819Y-86082142D02*
X136502438Y-85939285D01*
X136502438Y-85939285D02*
X136550057Y-85891666D01*
X136454819Y-84986904D02*
X136454819Y-85463094D01*
X136454819Y-85463094D02*
X136931009Y-85510713D01*
X136931009Y-85510713D02*
X136883390Y-85463094D01*
X136883390Y-85463094D02*
X136835771Y-85367856D01*
X136835771Y-85367856D02*
X136835771Y-85129761D01*
X136835771Y-85129761D02*
X136883390Y-85034523D01*
X136883390Y-85034523D02*
X136931009Y-84986904D01*
X136931009Y-84986904D02*
X137026247Y-84939285D01*
X137026247Y-84939285D02*
X137264342Y-84939285D01*
X137264342Y-84939285D02*
X137359580Y-84986904D01*
X137359580Y-84986904D02*
X137407200Y-85034523D01*
X137407200Y-85034523D02*
X137454819Y-85129761D01*
X137454819Y-85129761D02*
X137454819Y-85367856D01*
X137454819Y-85367856D02*
X137407200Y-85463094D01*
X137407200Y-85463094D02*
X137359580Y-85510713D01*
X107039580Y-97956666D02*
X107087200Y-98004285D01*
X107087200Y-98004285D02*
X107134819Y-98147142D01*
X107134819Y-98147142D02*
X107134819Y-98242380D01*
X107134819Y-98242380D02*
X107087200Y-98385237D01*
X107087200Y-98385237D02*
X106991961Y-98480475D01*
X106991961Y-98480475D02*
X106896723Y-98528094D01*
X106896723Y-98528094D02*
X106706247Y-98575713D01*
X106706247Y-98575713D02*
X106563390Y-98575713D01*
X106563390Y-98575713D02*
X106372914Y-98528094D01*
X106372914Y-98528094D02*
X106277676Y-98480475D01*
X106277676Y-98480475D02*
X106182438Y-98385237D01*
X106182438Y-98385237D02*
X106134819Y-98242380D01*
X106134819Y-98242380D02*
X106134819Y-98147142D01*
X106134819Y-98147142D02*
X106182438Y-98004285D01*
X106182438Y-98004285D02*
X106230057Y-97956666D01*
X106134819Y-97623332D02*
X106134819Y-97004285D01*
X106134819Y-97004285D02*
X106515771Y-97337618D01*
X106515771Y-97337618D02*
X106515771Y-97194761D01*
X106515771Y-97194761D02*
X106563390Y-97099523D01*
X106563390Y-97099523D02*
X106611009Y-97051904D01*
X106611009Y-97051904D02*
X106706247Y-97004285D01*
X106706247Y-97004285D02*
X106944342Y-97004285D01*
X106944342Y-97004285D02*
X107039580Y-97051904D01*
X107039580Y-97051904D02*
X107087200Y-97099523D01*
X107087200Y-97099523D02*
X107134819Y-97194761D01*
X107134819Y-97194761D02*
X107134819Y-97480475D01*
X107134819Y-97480475D02*
X107087200Y-97575713D01*
X107087200Y-97575713D02*
X107039580Y-97623332D01*
X139044819Y-102274666D02*
X138568628Y-102607999D01*
X139044819Y-102846094D02*
X138044819Y-102846094D01*
X138044819Y-102846094D02*
X138044819Y-102465142D01*
X138044819Y-102465142D02*
X138092438Y-102369904D01*
X138092438Y-102369904D02*
X138140057Y-102322285D01*
X138140057Y-102322285D02*
X138235295Y-102274666D01*
X138235295Y-102274666D02*
X138378152Y-102274666D01*
X138378152Y-102274666D02*
X138473390Y-102322285D01*
X138473390Y-102322285D02*
X138521009Y-102369904D01*
X138521009Y-102369904D02*
X138568628Y-102465142D01*
X138568628Y-102465142D02*
X138568628Y-102846094D01*
X138044819Y-101369904D02*
X138044819Y-101846094D01*
X138044819Y-101846094D02*
X138521009Y-101893713D01*
X138521009Y-101893713D02*
X138473390Y-101846094D01*
X138473390Y-101846094D02*
X138425771Y-101750856D01*
X138425771Y-101750856D02*
X138425771Y-101512761D01*
X138425771Y-101512761D02*
X138473390Y-101417523D01*
X138473390Y-101417523D02*
X138521009Y-101369904D01*
X138521009Y-101369904D02*
X138616247Y-101322285D01*
X138616247Y-101322285D02*
X138854342Y-101322285D01*
X138854342Y-101322285D02*
X138949580Y-101369904D01*
X138949580Y-101369904D02*
X138997200Y-101417523D01*
X138997200Y-101417523D02*
X139044819Y-101512761D01*
X139044819Y-101512761D02*
X139044819Y-101750856D01*
X139044819Y-101750856D02*
X138997200Y-101846094D01*
X138997200Y-101846094D02*
X138949580Y-101893713D01*
X113484819Y-89633350D02*
X112484819Y-89633350D01*
X112484819Y-89633350D02*
X112484819Y-89395255D01*
X112484819Y-89395255D02*
X112532438Y-89252398D01*
X112532438Y-89252398D02*
X112627676Y-89157160D01*
X112627676Y-89157160D02*
X112722914Y-89109541D01*
X112722914Y-89109541D02*
X112913390Y-89061922D01*
X112913390Y-89061922D02*
X113056247Y-89061922D01*
X113056247Y-89061922D02*
X113246723Y-89109541D01*
X113246723Y-89109541D02*
X113341961Y-89157160D01*
X113341961Y-89157160D02*
X113437200Y-89252398D01*
X113437200Y-89252398D02*
X113484819Y-89395255D01*
X113484819Y-89395255D02*
X113484819Y-89633350D01*
X113484819Y-88109541D02*
X113484819Y-88680969D01*
X113484819Y-88395255D02*
X112484819Y-88395255D01*
X112484819Y-88395255D02*
X112627676Y-88490493D01*
X112627676Y-88490493D02*
X112722914Y-88585731D01*
X112722914Y-88585731D02*
X112770533Y-88680969D01*
X112580057Y-87728588D02*
X112532438Y-87680969D01*
X112532438Y-87680969D02*
X112484819Y-87585731D01*
X112484819Y-87585731D02*
X112484819Y-87347636D01*
X112484819Y-87347636D02*
X112532438Y-87252398D01*
X112532438Y-87252398D02*
X112580057Y-87204779D01*
X112580057Y-87204779D02*
X112675295Y-87157160D01*
X112675295Y-87157160D02*
X112770533Y-87157160D01*
X112770533Y-87157160D02*
X112913390Y-87204779D01*
X112913390Y-87204779D02*
X113484819Y-87776207D01*
X113484819Y-87776207D02*
X113484819Y-87157160D01*
X115024819Y-98551904D02*
X115834342Y-98551904D01*
X115834342Y-98551904D02*
X115929580Y-98504285D01*
X115929580Y-98504285D02*
X115977200Y-98456666D01*
X115977200Y-98456666D02*
X116024819Y-98361428D01*
X116024819Y-98361428D02*
X116024819Y-98170952D01*
X116024819Y-98170952D02*
X115977200Y-98075714D01*
X115977200Y-98075714D02*
X115929580Y-98028095D01*
X115929580Y-98028095D02*
X115834342Y-97980476D01*
X115834342Y-97980476D02*
X115024819Y-97980476D01*
X115024819Y-97599523D02*
X115024819Y-96980476D01*
X115024819Y-96980476D02*
X115405771Y-97313809D01*
X115405771Y-97313809D02*
X115405771Y-97170952D01*
X115405771Y-97170952D02*
X115453390Y-97075714D01*
X115453390Y-97075714D02*
X115501009Y-97028095D01*
X115501009Y-97028095D02*
X115596247Y-96980476D01*
X115596247Y-96980476D02*
X115834342Y-96980476D01*
X115834342Y-96980476D02*
X115929580Y-97028095D01*
X115929580Y-97028095D02*
X115977200Y-97075714D01*
X115977200Y-97075714D02*
X116024819Y-97170952D01*
X116024819Y-97170952D02*
X116024819Y-97456666D01*
X116024819Y-97456666D02*
X115977200Y-97551904D01*
X115977200Y-97551904D02*
X115929580Y-97599523D01*
X105864819Y-88680969D02*
X104864819Y-88680969D01*
X104864819Y-88680969D02*
X104864819Y-88442874D01*
X104864819Y-88442874D02*
X104912438Y-88300017D01*
X104912438Y-88300017D02*
X105007676Y-88204779D01*
X105007676Y-88204779D02*
X105102914Y-88157160D01*
X105102914Y-88157160D02*
X105293390Y-88109541D01*
X105293390Y-88109541D02*
X105436247Y-88109541D01*
X105436247Y-88109541D02*
X105626723Y-88157160D01*
X105626723Y-88157160D02*
X105721961Y-88204779D01*
X105721961Y-88204779D02*
X105817200Y-88300017D01*
X105817200Y-88300017D02*
X105864819Y-88442874D01*
X105864819Y-88442874D02*
X105864819Y-88680969D01*
X105864819Y-87633350D02*
X105864819Y-87442874D01*
X105864819Y-87442874D02*
X105817200Y-87347636D01*
X105817200Y-87347636D02*
X105769580Y-87300017D01*
X105769580Y-87300017D02*
X105626723Y-87204779D01*
X105626723Y-87204779D02*
X105436247Y-87157160D01*
X105436247Y-87157160D02*
X105055295Y-87157160D01*
X105055295Y-87157160D02*
X104960057Y-87204779D01*
X104960057Y-87204779D02*
X104912438Y-87252398D01*
X104912438Y-87252398D02*
X104864819Y-87347636D01*
X104864819Y-87347636D02*
X104864819Y-87538112D01*
X104864819Y-87538112D02*
X104912438Y-87633350D01*
X104912438Y-87633350D02*
X104960057Y-87680969D01*
X104960057Y-87680969D02*
X105055295Y-87728588D01*
X105055295Y-87728588D02*
X105293390Y-87728588D01*
X105293390Y-87728588D02*
X105388628Y-87680969D01*
X105388628Y-87680969D02*
X105436247Y-87633350D01*
X105436247Y-87633350D02*
X105483866Y-87538112D01*
X105483866Y-87538112D02*
X105483866Y-87347636D01*
X105483866Y-87347636D02*
X105436247Y-87252398D01*
X105436247Y-87252398D02*
X105388628Y-87204779D01*
X105388628Y-87204779D02*
X105293390Y-87157160D01*
X116895714Y-78004819D02*
X116895714Y-77004819D01*
X116895714Y-77004819D02*
X117133809Y-77004819D01*
X117133809Y-77004819D02*
X117276666Y-77052438D01*
X117276666Y-77052438D02*
X117371904Y-77147676D01*
X117371904Y-77147676D02*
X117419523Y-77242914D01*
X117419523Y-77242914D02*
X117467142Y-77433390D01*
X117467142Y-77433390D02*
X117467142Y-77576247D01*
X117467142Y-77576247D02*
X117419523Y-77766723D01*
X117419523Y-77766723D02*
X117371904Y-77861961D01*
X117371904Y-77861961D02*
X117276666Y-77957200D01*
X117276666Y-77957200D02*
X117133809Y-78004819D01*
X117133809Y-78004819D02*
X116895714Y-78004819D01*
X117848095Y-77100057D02*
X117895714Y-77052438D01*
X117895714Y-77052438D02*
X117990952Y-77004819D01*
X117990952Y-77004819D02*
X118229047Y-77004819D01*
X118229047Y-77004819D02*
X118324285Y-77052438D01*
X118324285Y-77052438D02*
X118371904Y-77100057D01*
X118371904Y-77100057D02*
X118419523Y-77195295D01*
X118419523Y-77195295D02*
X118419523Y-77290533D01*
X118419523Y-77290533D02*
X118371904Y-77433390D01*
X118371904Y-77433390D02*
X117800476Y-78004819D01*
X117800476Y-78004819D02*
X118419523Y-78004819D01*
X119038571Y-77004819D02*
X119133809Y-77004819D01*
X119133809Y-77004819D02*
X119229047Y-77052438D01*
X119229047Y-77052438D02*
X119276666Y-77100057D01*
X119276666Y-77100057D02*
X119324285Y-77195295D01*
X119324285Y-77195295D02*
X119371904Y-77385771D01*
X119371904Y-77385771D02*
X119371904Y-77623866D01*
X119371904Y-77623866D02*
X119324285Y-77814342D01*
X119324285Y-77814342D02*
X119276666Y-77909580D01*
X119276666Y-77909580D02*
X119229047Y-77957200D01*
X119229047Y-77957200D02*
X119133809Y-78004819D01*
X119133809Y-78004819D02*
X119038571Y-78004819D01*
X119038571Y-78004819D02*
X118943333Y-77957200D01*
X118943333Y-77957200D02*
X118895714Y-77909580D01*
X118895714Y-77909580D02*
X118848095Y-77814342D01*
X118848095Y-77814342D02*
X118800476Y-77623866D01*
X118800476Y-77623866D02*
X118800476Y-77385771D01*
X118800476Y-77385771D02*
X118848095Y-77195295D01*
X118848095Y-77195295D02*
X118895714Y-77100057D01*
X118895714Y-77100057D02*
X118943333Y-77052438D01*
X118943333Y-77052438D02*
X119038571Y-77004819D01*
X81639580Y-97956666D02*
X81687200Y-98004285D01*
X81687200Y-98004285D02*
X81734819Y-98147142D01*
X81734819Y-98147142D02*
X81734819Y-98242380D01*
X81734819Y-98242380D02*
X81687200Y-98385237D01*
X81687200Y-98385237D02*
X81591961Y-98480475D01*
X81591961Y-98480475D02*
X81496723Y-98528094D01*
X81496723Y-98528094D02*
X81306247Y-98575713D01*
X81306247Y-98575713D02*
X81163390Y-98575713D01*
X81163390Y-98575713D02*
X80972914Y-98528094D01*
X80972914Y-98528094D02*
X80877676Y-98480475D01*
X80877676Y-98480475D02*
X80782438Y-98385237D01*
X80782438Y-98385237D02*
X80734819Y-98242380D01*
X80734819Y-98242380D02*
X80734819Y-98147142D01*
X80734819Y-98147142D02*
X80782438Y-98004285D01*
X80782438Y-98004285D02*
X80830057Y-97956666D01*
X81734819Y-97004285D02*
X81734819Y-97575713D01*
X81734819Y-97289999D02*
X80734819Y-97289999D01*
X80734819Y-97289999D02*
X80877676Y-97385237D01*
X80877676Y-97385237D02*
X80972914Y-97480475D01*
X80972914Y-97480475D02*
X81020533Y-97575713D01*
X110944819Y-89633350D02*
X109944819Y-89633350D01*
X109944819Y-89633350D02*
X109944819Y-89395255D01*
X109944819Y-89395255D02*
X109992438Y-89252398D01*
X109992438Y-89252398D02*
X110087676Y-89157160D01*
X110087676Y-89157160D02*
X110182914Y-89109541D01*
X110182914Y-89109541D02*
X110373390Y-89061922D01*
X110373390Y-89061922D02*
X110516247Y-89061922D01*
X110516247Y-89061922D02*
X110706723Y-89109541D01*
X110706723Y-89109541D02*
X110801961Y-89157160D01*
X110801961Y-89157160D02*
X110897200Y-89252398D01*
X110897200Y-89252398D02*
X110944819Y-89395255D01*
X110944819Y-89395255D02*
X110944819Y-89633350D01*
X110944819Y-88109541D02*
X110944819Y-88680969D01*
X110944819Y-88395255D02*
X109944819Y-88395255D01*
X109944819Y-88395255D02*
X110087676Y-88490493D01*
X110087676Y-88490493D02*
X110182914Y-88585731D01*
X110182914Y-88585731D02*
X110230533Y-88680969D01*
X110944819Y-87157160D02*
X110944819Y-87728588D01*
X110944819Y-87442874D02*
X109944819Y-87442874D01*
X109944819Y-87442874D02*
X110087676Y-87538112D01*
X110087676Y-87538112D02*
X110182914Y-87633350D01*
X110182914Y-87633350D02*
X110230533Y-87728588D01*
X127055714Y-82924819D02*
X127055714Y-81924819D01*
X127055714Y-81924819D02*
X127293809Y-81924819D01*
X127293809Y-81924819D02*
X127436666Y-81972438D01*
X127436666Y-81972438D02*
X127531904Y-82067676D01*
X127531904Y-82067676D02*
X127579523Y-82162914D01*
X127579523Y-82162914D02*
X127627142Y-82353390D01*
X127627142Y-82353390D02*
X127627142Y-82496247D01*
X127627142Y-82496247D02*
X127579523Y-82686723D01*
X127579523Y-82686723D02*
X127531904Y-82781961D01*
X127531904Y-82781961D02*
X127436666Y-82877200D01*
X127436666Y-82877200D02*
X127293809Y-82924819D01*
X127293809Y-82924819D02*
X127055714Y-82924819D01*
X128579523Y-82924819D02*
X128008095Y-82924819D01*
X128293809Y-82924819D02*
X128293809Y-81924819D01*
X128293809Y-81924819D02*
X128198571Y-82067676D01*
X128198571Y-82067676D02*
X128103333Y-82162914D01*
X128103333Y-82162914D02*
X128008095Y-82210533D01*
X129150952Y-82353390D02*
X129055714Y-82305771D01*
X129055714Y-82305771D02*
X129008095Y-82258152D01*
X129008095Y-82258152D02*
X128960476Y-82162914D01*
X128960476Y-82162914D02*
X128960476Y-82115295D01*
X128960476Y-82115295D02*
X129008095Y-82020057D01*
X129008095Y-82020057D02*
X129055714Y-81972438D01*
X129055714Y-81972438D02*
X129150952Y-81924819D01*
X129150952Y-81924819D02*
X129341428Y-81924819D01*
X129341428Y-81924819D02*
X129436666Y-81972438D01*
X129436666Y-81972438D02*
X129484285Y-82020057D01*
X129484285Y-82020057D02*
X129531904Y-82115295D01*
X129531904Y-82115295D02*
X129531904Y-82162914D01*
X129531904Y-82162914D02*
X129484285Y-82258152D01*
X129484285Y-82258152D02*
X129436666Y-82305771D01*
X129436666Y-82305771D02*
X129341428Y-82353390D01*
X129341428Y-82353390D02*
X129150952Y-82353390D01*
X129150952Y-82353390D02*
X129055714Y-82401009D01*
X129055714Y-82401009D02*
X129008095Y-82448628D01*
X129008095Y-82448628D02*
X128960476Y-82543866D01*
X128960476Y-82543866D02*
X128960476Y-82734342D01*
X128960476Y-82734342D02*
X129008095Y-82829580D01*
X129008095Y-82829580D02*
X129055714Y-82877200D01*
X129055714Y-82877200D02*
X129150952Y-82924819D01*
X129150952Y-82924819D02*
X129341428Y-82924819D01*
X129341428Y-82924819D02*
X129436666Y-82877200D01*
X129436666Y-82877200D02*
X129484285Y-82829580D01*
X129484285Y-82829580D02*
X129531904Y-82734342D01*
X129531904Y-82734342D02*
X129531904Y-82543866D01*
X129531904Y-82543866D02*
X129484285Y-82448628D01*
X129484285Y-82448628D02*
X129436666Y-82401009D01*
X129436666Y-82401009D02*
X129341428Y-82353390D01*
X98244819Y-88680969D02*
X97244819Y-88680969D01*
X97244819Y-88680969D02*
X97244819Y-88442874D01*
X97244819Y-88442874D02*
X97292438Y-88300017D01*
X97292438Y-88300017D02*
X97387676Y-88204779D01*
X97387676Y-88204779D02*
X97482914Y-88157160D01*
X97482914Y-88157160D02*
X97673390Y-88109541D01*
X97673390Y-88109541D02*
X97816247Y-88109541D01*
X97816247Y-88109541D02*
X98006723Y-88157160D01*
X98006723Y-88157160D02*
X98101961Y-88204779D01*
X98101961Y-88204779D02*
X98197200Y-88300017D01*
X98197200Y-88300017D02*
X98244819Y-88442874D01*
X98244819Y-88442874D02*
X98244819Y-88680969D01*
X97244819Y-87252398D02*
X97244819Y-87442874D01*
X97244819Y-87442874D02*
X97292438Y-87538112D01*
X97292438Y-87538112D02*
X97340057Y-87585731D01*
X97340057Y-87585731D02*
X97482914Y-87680969D01*
X97482914Y-87680969D02*
X97673390Y-87728588D01*
X97673390Y-87728588D02*
X98054342Y-87728588D01*
X98054342Y-87728588D02*
X98149580Y-87680969D01*
X98149580Y-87680969D02*
X98197200Y-87633350D01*
X98197200Y-87633350D02*
X98244819Y-87538112D01*
X98244819Y-87538112D02*
X98244819Y-87347636D01*
X98244819Y-87347636D02*
X98197200Y-87252398D01*
X98197200Y-87252398D02*
X98149580Y-87204779D01*
X98149580Y-87204779D02*
X98054342Y-87157160D01*
X98054342Y-87157160D02*
X97816247Y-87157160D01*
X97816247Y-87157160D02*
X97721009Y-87204779D01*
X97721009Y-87204779D02*
X97673390Y-87252398D01*
X97673390Y-87252398D02*
X97625771Y-87347636D01*
X97625771Y-87347636D02*
X97625771Y-87538112D01*
X97625771Y-87538112D02*
X97673390Y-87633350D01*
X97673390Y-87633350D02*
X97721009Y-87680969D01*
X97721009Y-87680969D02*
X97816247Y-87728588D01*
X93164819Y-88680969D02*
X92164819Y-88680969D01*
X92164819Y-88680969D02*
X92164819Y-88442874D01*
X92164819Y-88442874D02*
X92212438Y-88300017D01*
X92212438Y-88300017D02*
X92307676Y-88204779D01*
X92307676Y-88204779D02*
X92402914Y-88157160D01*
X92402914Y-88157160D02*
X92593390Y-88109541D01*
X92593390Y-88109541D02*
X92736247Y-88109541D01*
X92736247Y-88109541D02*
X92926723Y-88157160D01*
X92926723Y-88157160D02*
X93021961Y-88204779D01*
X93021961Y-88204779D02*
X93117200Y-88300017D01*
X93117200Y-88300017D02*
X93164819Y-88442874D01*
X93164819Y-88442874D02*
X93164819Y-88680969D01*
X92498152Y-87252398D02*
X93164819Y-87252398D01*
X92117200Y-87490493D02*
X92831485Y-87728588D01*
X92831485Y-87728588D02*
X92831485Y-87109541D01*
X88084819Y-88680969D02*
X87084819Y-88680969D01*
X87084819Y-88680969D02*
X87084819Y-88442874D01*
X87084819Y-88442874D02*
X87132438Y-88300017D01*
X87132438Y-88300017D02*
X87227676Y-88204779D01*
X87227676Y-88204779D02*
X87322914Y-88157160D01*
X87322914Y-88157160D02*
X87513390Y-88109541D01*
X87513390Y-88109541D02*
X87656247Y-88109541D01*
X87656247Y-88109541D02*
X87846723Y-88157160D01*
X87846723Y-88157160D02*
X87941961Y-88204779D01*
X87941961Y-88204779D02*
X88037200Y-88300017D01*
X88037200Y-88300017D02*
X88084819Y-88442874D01*
X88084819Y-88442874D02*
X88084819Y-88680969D01*
X87180057Y-87728588D02*
X87132438Y-87680969D01*
X87132438Y-87680969D02*
X87084819Y-87585731D01*
X87084819Y-87585731D02*
X87084819Y-87347636D01*
X87084819Y-87347636D02*
X87132438Y-87252398D01*
X87132438Y-87252398D02*
X87180057Y-87204779D01*
X87180057Y-87204779D02*
X87275295Y-87157160D01*
X87275295Y-87157160D02*
X87370533Y-87157160D01*
X87370533Y-87157160D02*
X87513390Y-87204779D01*
X87513390Y-87204779D02*
X88084819Y-87776207D01*
X88084819Y-87776207D02*
X88084819Y-87157160D01*
X100784819Y-88680969D02*
X99784819Y-88680969D01*
X99784819Y-88680969D02*
X99784819Y-88442874D01*
X99784819Y-88442874D02*
X99832438Y-88300017D01*
X99832438Y-88300017D02*
X99927676Y-88204779D01*
X99927676Y-88204779D02*
X100022914Y-88157160D01*
X100022914Y-88157160D02*
X100213390Y-88109541D01*
X100213390Y-88109541D02*
X100356247Y-88109541D01*
X100356247Y-88109541D02*
X100546723Y-88157160D01*
X100546723Y-88157160D02*
X100641961Y-88204779D01*
X100641961Y-88204779D02*
X100737200Y-88300017D01*
X100737200Y-88300017D02*
X100784819Y-88442874D01*
X100784819Y-88442874D02*
X100784819Y-88680969D01*
X99784819Y-87776207D02*
X99784819Y-87109541D01*
X99784819Y-87109541D02*
X100784819Y-87538112D01*
X86415714Y-71574819D02*
X86415714Y-70574819D01*
X86415714Y-70574819D02*
X86653809Y-70574819D01*
X86653809Y-70574819D02*
X86796666Y-70622438D01*
X86796666Y-70622438D02*
X86891904Y-70717676D01*
X86891904Y-70717676D02*
X86939523Y-70812914D01*
X86939523Y-70812914D02*
X86987142Y-71003390D01*
X86987142Y-71003390D02*
X86987142Y-71146247D01*
X86987142Y-71146247D02*
X86939523Y-71336723D01*
X86939523Y-71336723D02*
X86891904Y-71431961D01*
X86891904Y-71431961D02*
X86796666Y-71527200D01*
X86796666Y-71527200D02*
X86653809Y-71574819D01*
X86653809Y-71574819D02*
X86415714Y-71574819D01*
X87939523Y-71574819D02*
X87368095Y-71574819D01*
X87653809Y-71574819D02*
X87653809Y-70574819D01*
X87653809Y-70574819D02*
X87558571Y-70717676D01*
X87558571Y-70717676D02*
X87463333Y-70812914D01*
X87463333Y-70812914D02*
X87368095Y-70860533D01*
X88272857Y-70574819D02*
X88891904Y-70574819D01*
X88891904Y-70574819D02*
X88558571Y-70955771D01*
X88558571Y-70955771D02*
X88701428Y-70955771D01*
X88701428Y-70955771D02*
X88796666Y-71003390D01*
X88796666Y-71003390D02*
X88844285Y-71051009D01*
X88844285Y-71051009D02*
X88891904Y-71146247D01*
X88891904Y-71146247D02*
X88891904Y-71384342D01*
X88891904Y-71384342D02*
X88844285Y-71479580D01*
X88844285Y-71479580D02*
X88796666Y-71527200D01*
X88796666Y-71527200D02*
X88701428Y-71574819D01*
X88701428Y-71574819D02*
X88415714Y-71574819D01*
X88415714Y-71574819D02*
X88320476Y-71527200D01*
X88320476Y-71527200D02*
X88272857Y-71479580D01*
X101655714Y-71574819D02*
X101655714Y-70574819D01*
X101655714Y-70574819D02*
X101893809Y-70574819D01*
X101893809Y-70574819D02*
X102036666Y-70622438D01*
X102036666Y-70622438D02*
X102131904Y-70717676D01*
X102131904Y-70717676D02*
X102179523Y-70812914D01*
X102179523Y-70812914D02*
X102227142Y-71003390D01*
X102227142Y-71003390D02*
X102227142Y-71146247D01*
X102227142Y-71146247D02*
X102179523Y-71336723D01*
X102179523Y-71336723D02*
X102131904Y-71431961D01*
X102131904Y-71431961D02*
X102036666Y-71527200D01*
X102036666Y-71527200D02*
X101893809Y-71574819D01*
X101893809Y-71574819D02*
X101655714Y-71574819D01*
X103179523Y-71574819D02*
X102608095Y-71574819D01*
X102893809Y-71574819D02*
X102893809Y-70574819D01*
X102893809Y-70574819D02*
X102798571Y-70717676D01*
X102798571Y-70717676D02*
X102703333Y-70812914D01*
X102703333Y-70812914D02*
X102608095Y-70860533D01*
X104084285Y-70574819D02*
X103608095Y-70574819D01*
X103608095Y-70574819D02*
X103560476Y-71051009D01*
X103560476Y-71051009D02*
X103608095Y-71003390D01*
X103608095Y-71003390D02*
X103703333Y-70955771D01*
X103703333Y-70955771D02*
X103941428Y-70955771D01*
X103941428Y-70955771D02*
X104036666Y-71003390D01*
X104036666Y-71003390D02*
X104084285Y-71051009D01*
X104084285Y-71051009D02*
X104131904Y-71146247D01*
X104131904Y-71146247D02*
X104131904Y-71384342D01*
X104131904Y-71384342D02*
X104084285Y-71479580D01*
X104084285Y-71479580D02*
X104036666Y-71527200D01*
X104036666Y-71527200D02*
X103941428Y-71574819D01*
X103941428Y-71574819D02*
X103703333Y-71574819D01*
X103703333Y-71574819D02*
X103608095Y-71527200D01*
X103608095Y-71527200D02*
X103560476Y-71479580D01*
X121184819Y-86304285D02*
X120184819Y-86304285D01*
X120184819Y-86304285D02*
X120184819Y-86066190D01*
X120184819Y-86066190D02*
X120232438Y-85923333D01*
X120232438Y-85923333D02*
X120327676Y-85828095D01*
X120327676Y-85828095D02*
X120422914Y-85780476D01*
X120422914Y-85780476D02*
X120613390Y-85732857D01*
X120613390Y-85732857D02*
X120756247Y-85732857D01*
X120756247Y-85732857D02*
X120946723Y-85780476D01*
X120946723Y-85780476D02*
X121041961Y-85828095D01*
X121041961Y-85828095D02*
X121137200Y-85923333D01*
X121137200Y-85923333D02*
X121184819Y-86066190D01*
X121184819Y-86066190D02*
X121184819Y-86304285D01*
X121184819Y-84780476D02*
X121184819Y-85351904D01*
X121184819Y-85066190D02*
X120184819Y-85066190D01*
X120184819Y-85066190D02*
X120327676Y-85161428D01*
X120327676Y-85161428D02*
X120422914Y-85256666D01*
X120422914Y-85256666D02*
X120470533Y-85351904D01*
X121184819Y-84304285D02*
X121184819Y-84113809D01*
X121184819Y-84113809D02*
X121137200Y-84018571D01*
X121137200Y-84018571D02*
X121089580Y-83970952D01*
X121089580Y-83970952D02*
X120946723Y-83875714D01*
X120946723Y-83875714D02*
X120756247Y-83828095D01*
X120756247Y-83828095D02*
X120375295Y-83828095D01*
X120375295Y-83828095D02*
X120280057Y-83875714D01*
X120280057Y-83875714D02*
X120232438Y-83923333D01*
X120232438Y-83923333D02*
X120184819Y-84018571D01*
X120184819Y-84018571D02*
X120184819Y-84209047D01*
X120184819Y-84209047D02*
X120232438Y-84304285D01*
X120232438Y-84304285D02*
X120280057Y-84351904D01*
X120280057Y-84351904D02*
X120375295Y-84399523D01*
X120375295Y-84399523D02*
X120613390Y-84399523D01*
X120613390Y-84399523D02*
X120708628Y-84351904D01*
X120708628Y-84351904D02*
X120756247Y-84304285D01*
X120756247Y-84304285D02*
X120803866Y-84209047D01*
X120803866Y-84209047D02*
X120803866Y-84018571D01*
X120803866Y-84018571D02*
X120756247Y-83923333D01*
X120756247Y-83923333D02*
X120708628Y-83875714D01*
X120708628Y-83875714D02*
X120613390Y-83828095D01*
X133550819Y-102274666D02*
X133074628Y-102607999D01*
X133550819Y-102846094D02*
X132550819Y-102846094D01*
X132550819Y-102846094D02*
X132550819Y-102465142D01*
X132550819Y-102465142D02*
X132598438Y-102369904D01*
X132598438Y-102369904D02*
X132646057Y-102322285D01*
X132646057Y-102322285D02*
X132741295Y-102274666D01*
X132741295Y-102274666D02*
X132884152Y-102274666D01*
X132884152Y-102274666D02*
X132979390Y-102322285D01*
X132979390Y-102322285D02*
X133027009Y-102369904D01*
X133027009Y-102369904D02*
X133074628Y-102465142D01*
X133074628Y-102465142D02*
X133074628Y-102846094D01*
X132884152Y-101417523D02*
X133550819Y-101417523D01*
X132503200Y-101655618D02*
X133217485Y-101893713D01*
X133217485Y-101893713D02*
X133217485Y-101274666D01*
X136231333Y-98563580D02*
X136183714Y-98611200D01*
X136183714Y-98611200D02*
X136040857Y-98658819D01*
X136040857Y-98658819D02*
X135945619Y-98658819D01*
X135945619Y-98658819D02*
X135802762Y-98611200D01*
X135802762Y-98611200D02*
X135707524Y-98515961D01*
X135707524Y-98515961D02*
X135659905Y-98420723D01*
X135659905Y-98420723D02*
X135612286Y-98230247D01*
X135612286Y-98230247D02*
X135612286Y-98087390D01*
X135612286Y-98087390D02*
X135659905Y-97896914D01*
X135659905Y-97896914D02*
X135707524Y-97801676D01*
X135707524Y-97801676D02*
X135802762Y-97706438D01*
X135802762Y-97706438D02*
X135945619Y-97658819D01*
X135945619Y-97658819D02*
X136040857Y-97658819D01*
X136040857Y-97658819D02*
X136183714Y-97706438D01*
X136183714Y-97706438D02*
X136231333Y-97754057D01*
X137088476Y-97992152D02*
X137088476Y-98658819D01*
X136850381Y-97611200D02*
X136612286Y-98325485D01*
X136612286Y-98325485D02*
X137231333Y-98325485D01*
X90624819Y-88680969D02*
X89624819Y-88680969D01*
X89624819Y-88680969D02*
X89624819Y-88442874D01*
X89624819Y-88442874D02*
X89672438Y-88300017D01*
X89672438Y-88300017D02*
X89767676Y-88204779D01*
X89767676Y-88204779D02*
X89862914Y-88157160D01*
X89862914Y-88157160D02*
X90053390Y-88109541D01*
X90053390Y-88109541D02*
X90196247Y-88109541D01*
X90196247Y-88109541D02*
X90386723Y-88157160D01*
X90386723Y-88157160D02*
X90481961Y-88204779D01*
X90481961Y-88204779D02*
X90577200Y-88300017D01*
X90577200Y-88300017D02*
X90624819Y-88442874D01*
X90624819Y-88442874D02*
X90624819Y-88680969D01*
X89624819Y-87776207D02*
X89624819Y-87157160D01*
X89624819Y-87157160D02*
X90005771Y-87490493D01*
X90005771Y-87490493D02*
X90005771Y-87347636D01*
X90005771Y-87347636D02*
X90053390Y-87252398D01*
X90053390Y-87252398D02*
X90101009Y-87204779D01*
X90101009Y-87204779D02*
X90196247Y-87157160D01*
X90196247Y-87157160D02*
X90434342Y-87157160D01*
X90434342Y-87157160D02*
X90529580Y-87204779D01*
X90529580Y-87204779D02*
X90577200Y-87252398D01*
X90577200Y-87252398D02*
X90624819Y-87347636D01*
X90624819Y-87347636D02*
X90624819Y-87633350D01*
X90624819Y-87633350D02*
X90577200Y-87728588D01*
X90577200Y-87728588D02*
X90529580Y-87776207D01*
X102324819Y-98551904D02*
X103134342Y-98551904D01*
X103134342Y-98551904D02*
X103229580Y-98504285D01*
X103229580Y-98504285D02*
X103277200Y-98456666D01*
X103277200Y-98456666D02*
X103324819Y-98361428D01*
X103324819Y-98361428D02*
X103324819Y-98170952D01*
X103324819Y-98170952D02*
X103277200Y-98075714D01*
X103277200Y-98075714D02*
X103229580Y-98028095D01*
X103229580Y-98028095D02*
X103134342Y-97980476D01*
X103134342Y-97980476D02*
X102324819Y-97980476D01*
X102420057Y-97551904D02*
X102372438Y-97504285D01*
X102372438Y-97504285D02*
X102324819Y-97409047D01*
X102324819Y-97409047D02*
X102324819Y-97170952D01*
X102324819Y-97170952D02*
X102372438Y-97075714D01*
X102372438Y-97075714D02*
X102420057Y-97028095D01*
X102420057Y-97028095D02*
X102515295Y-96980476D01*
X102515295Y-96980476D02*
X102610533Y-96980476D01*
X102610533Y-96980476D02*
X102753390Y-97028095D01*
X102753390Y-97028095D02*
X103324819Y-97599523D01*
X103324819Y-97599523D02*
X103324819Y-96980476D01*
X94339580Y-97956666D02*
X94387200Y-98004285D01*
X94387200Y-98004285D02*
X94434819Y-98147142D01*
X94434819Y-98147142D02*
X94434819Y-98242380D01*
X94434819Y-98242380D02*
X94387200Y-98385237D01*
X94387200Y-98385237D02*
X94291961Y-98480475D01*
X94291961Y-98480475D02*
X94196723Y-98528094D01*
X94196723Y-98528094D02*
X94006247Y-98575713D01*
X94006247Y-98575713D02*
X93863390Y-98575713D01*
X93863390Y-98575713D02*
X93672914Y-98528094D01*
X93672914Y-98528094D02*
X93577676Y-98480475D01*
X93577676Y-98480475D02*
X93482438Y-98385237D01*
X93482438Y-98385237D02*
X93434819Y-98242380D01*
X93434819Y-98242380D02*
X93434819Y-98147142D01*
X93434819Y-98147142D02*
X93482438Y-98004285D01*
X93482438Y-98004285D02*
X93530057Y-97956666D01*
X93530057Y-97575713D02*
X93482438Y-97528094D01*
X93482438Y-97528094D02*
X93434819Y-97432856D01*
X93434819Y-97432856D02*
X93434819Y-97194761D01*
X93434819Y-97194761D02*
X93482438Y-97099523D01*
X93482438Y-97099523D02*
X93530057Y-97051904D01*
X93530057Y-97051904D02*
X93625295Y-97004285D01*
X93625295Y-97004285D02*
X93720533Y-97004285D01*
X93720533Y-97004285D02*
X93863390Y-97051904D01*
X93863390Y-97051904D02*
X94434819Y-97623332D01*
X94434819Y-97623332D02*
X94434819Y-97004285D01*
X85544819Y-88680969D02*
X84544819Y-88680969D01*
X84544819Y-88680969D02*
X84544819Y-88442874D01*
X84544819Y-88442874D02*
X84592438Y-88300017D01*
X84592438Y-88300017D02*
X84687676Y-88204779D01*
X84687676Y-88204779D02*
X84782914Y-88157160D01*
X84782914Y-88157160D02*
X84973390Y-88109541D01*
X84973390Y-88109541D02*
X85116247Y-88109541D01*
X85116247Y-88109541D02*
X85306723Y-88157160D01*
X85306723Y-88157160D02*
X85401961Y-88204779D01*
X85401961Y-88204779D02*
X85497200Y-88300017D01*
X85497200Y-88300017D02*
X85544819Y-88442874D01*
X85544819Y-88442874D02*
X85544819Y-88680969D01*
X85544819Y-87157160D02*
X85544819Y-87728588D01*
X85544819Y-87442874D02*
X84544819Y-87442874D01*
X84544819Y-87442874D02*
X84687676Y-87538112D01*
X84687676Y-87538112D02*
X84782914Y-87633350D01*
X84782914Y-87633350D02*
X84830533Y-87728588D01*
X83781579Y-92017259D02*
X83305388Y-92350592D01*
X83781579Y-92588687D02*
X82781579Y-92588687D01*
X82781579Y-92588687D02*
X82781579Y-92207735D01*
X82781579Y-92207735D02*
X82829198Y-92112497D01*
X82829198Y-92112497D02*
X82876817Y-92064878D01*
X82876817Y-92064878D02*
X82972055Y-92017259D01*
X82972055Y-92017259D02*
X83114912Y-92017259D01*
X83114912Y-92017259D02*
X83210150Y-92064878D01*
X83210150Y-92064878D02*
X83257769Y-92112497D01*
X83257769Y-92112497D02*
X83305388Y-92207735D01*
X83305388Y-92207735D02*
X83305388Y-92588687D01*
X83781579Y-91064878D02*
X83781579Y-91636306D01*
X83781579Y-91350592D02*
X82781579Y-91350592D01*
X82781579Y-91350592D02*
X82924436Y-91445830D01*
X82924436Y-91445830D02*
X83019674Y-91541068D01*
X83019674Y-91541068D02*
X83067293Y-91636306D01*
X95704819Y-88680969D02*
X94704819Y-88680969D01*
X94704819Y-88680969D02*
X94704819Y-88442874D01*
X94704819Y-88442874D02*
X94752438Y-88300017D01*
X94752438Y-88300017D02*
X94847676Y-88204779D01*
X94847676Y-88204779D02*
X94942914Y-88157160D01*
X94942914Y-88157160D02*
X95133390Y-88109541D01*
X95133390Y-88109541D02*
X95276247Y-88109541D01*
X95276247Y-88109541D02*
X95466723Y-88157160D01*
X95466723Y-88157160D02*
X95561961Y-88204779D01*
X95561961Y-88204779D02*
X95657200Y-88300017D01*
X95657200Y-88300017D02*
X95704819Y-88442874D01*
X95704819Y-88442874D02*
X95704819Y-88680969D01*
X94704819Y-87204779D02*
X94704819Y-87680969D01*
X94704819Y-87680969D02*
X95181009Y-87728588D01*
X95181009Y-87728588D02*
X95133390Y-87680969D01*
X95133390Y-87680969D02*
X95085771Y-87585731D01*
X95085771Y-87585731D02*
X95085771Y-87347636D01*
X95085771Y-87347636D02*
X95133390Y-87252398D01*
X95133390Y-87252398D02*
X95181009Y-87204779D01*
X95181009Y-87204779D02*
X95276247Y-87157160D01*
X95276247Y-87157160D02*
X95514342Y-87157160D01*
X95514342Y-87157160D02*
X95609580Y-87204779D01*
X95609580Y-87204779D02*
X95657200Y-87252398D01*
X95657200Y-87252398D02*
X95704819Y-87347636D01*
X95704819Y-87347636D02*
X95704819Y-87585731D01*
X95704819Y-87585731D02*
X95657200Y-87680969D01*
X95657200Y-87680969D02*
X95609580Y-87728588D01*
X126104819Y-76144285D02*
X125104819Y-76144285D01*
X125104819Y-76144285D02*
X125104819Y-75906190D01*
X125104819Y-75906190D02*
X125152438Y-75763333D01*
X125152438Y-75763333D02*
X125247676Y-75668095D01*
X125247676Y-75668095D02*
X125342914Y-75620476D01*
X125342914Y-75620476D02*
X125533390Y-75572857D01*
X125533390Y-75572857D02*
X125676247Y-75572857D01*
X125676247Y-75572857D02*
X125866723Y-75620476D01*
X125866723Y-75620476D02*
X125961961Y-75668095D01*
X125961961Y-75668095D02*
X126057200Y-75763333D01*
X126057200Y-75763333D02*
X126104819Y-75906190D01*
X126104819Y-75906190D02*
X126104819Y-76144285D01*
X126104819Y-74620476D02*
X126104819Y-75191904D01*
X126104819Y-74906190D02*
X125104819Y-74906190D01*
X125104819Y-74906190D02*
X125247676Y-75001428D01*
X125247676Y-75001428D02*
X125342914Y-75096666D01*
X125342914Y-75096666D02*
X125390533Y-75191904D01*
X125104819Y-74287142D02*
X125104819Y-73620476D01*
X125104819Y-73620476D02*
X126104819Y-74049047D01*
X89624819Y-98551904D02*
X90434342Y-98551904D01*
X90434342Y-98551904D02*
X90529580Y-98504285D01*
X90529580Y-98504285D02*
X90577200Y-98456666D01*
X90577200Y-98456666D02*
X90624819Y-98361428D01*
X90624819Y-98361428D02*
X90624819Y-98170952D01*
X90624819Y-98170952D02*
X90577200Y-98075714D01*
X90577200Y-98075714D02*
X90529580Y-98028095D01*
X90529580Y-98028095D02*
X90434342Y-97980476D01*
X90434342Y-97980476D02*
X89624819Y-97980476D01*
X90624819Y-96980476D02*
X90624819Y-97551904D01*
X90624819Y-97266190D02*
X89624819Y-97266190D01*
X89624819Y-97266190D02*
X89767676Y-97361428D01*
X89767676Y-97361428D02*
X89862914Y-97456666D01*
X89862914Y-97456666D02*
X89910533Y-97551904D01*
X140649819Y-92201904D02*
X141459342Y-92201904D01*
X141459342Y-92201904D02*
X141554580Y-92154285D01*
X141554580Y-92154285D02*
X141602200Y-92106666D01*
X141602200Y-92106666D02*
X141649819Y-92011428D01*
X141649819Y-92011428D02*
X141649819Y-91820952D01*
X141649819Y-91820952D02*
X141602200Y-91725714D01*
X141602200Y-91725714D02*
X141554580Y-91678095D01*
X141554580Y-91678095D02*
X141459342Y-91630476D01*
X141459342Y-91630476D02*
X140649819Y-91630476D01*
X140983152Y-90725714D02*
X141649819Y-90725714D01*
X140602200Y-90963809D02*
X141316485Y-91201904D01*
X141316485Y-91201904D02*
X141316485Y-90582857D01*
X96454852Y-92061682D02*
X95978661Y-92395015D01*
X96454852Y-92633110D02*
X95454852Y-92633110D01*
X95454852Y-92633110D02*
X95454852Y-92252158D01*
X95454852Y-92252158D02*
X95502471Y-92156920D01*
X95502471Y-92156920D02*
X95550090Y-92109301D01*
X95550090Y-92109301D02*
X95645328Y-92061682D01*
X95645328Y-92061682D02*
X95788185Y-92061682D01*
X95788185Y-92061682D02*
X95883423Y-92109301D01*
X95883423Y-92109301D02*
X95931042Y-92156920D01*
X95931042Y-92156920D02*
X95978661Y-92252158D01*
X95978661Y-92252158D02*
X95978661Y-92633110D01*
X95550090Y-91680729D02*
X95502471Y-91633110D01*
X95502471Y-91633110D02*
X95454852Y-91537872D01*
X95454852Y-91537872D02*
X95454852Y-91299777D01*
X95454852Y-91299777D02*
X95502471Y-91204539D01*
X95502471Y-91204539D02*
X95550090Y-91156920D01*
X95550090Y-91156920D02*
X95645328Y-91109301D01*
X95645328Y-91109301D02*
X95740566Y-91109301D01*
X95740566Y-91109301D02*
X95883423Y-91156920D01*
X95883423Y-91156920D02*
X96454852Y-91728348D01*
X96454852Y-91728348D02*
X96454852Y-91109301D01*
D12*
%TO.C,SW1*%
X108439000Y-108506000D02*
X108439000Y-110006000D01*
X109689000Y-112506000D02*
X114189000Y-112506000D01*
X114189000Y-106006000D02*
X109689000Y-106006000D01*
X115439000Y-110006000D02*
X115439000Y-108506000D01*
%TO.C,R3*%
X109511844Y-92123576D02*
X109511844Y-91614128D01*
X110556844Y-92123576D02*
X110556844Y-91614128D01*
%TO.C,JP1*%
X146582000Y-99392000D02*
X146582000Y-99992000D01*
X146582000Y-99992000D02*
X146882000Y-99692000D01*
X146882000Y-99692000D02*
X146582000Y-99392000D01*
X147132000Y-98342000D02*
X149082000Y-98342000D01*
X147132000Y-103842000D02*
X147132000Y-98342000D01*
X149082000Y-98342000D02*
X149082000Y-103842000D01*
X149082000Y-103842000D02*
X147132000Y-103842000D01*
%TO.C,D10*%
X106815000Y-82220000D02*
X106815000Y-86280000D01*
X106815000Y-86280000D02*
X109085000Y-86280000D01*
X109085000Y-86280000D02*
X109085000Y-82220000D01*
%TO.C,D14*%
X93705000Y-78760000D02*
X96795000Y-78760000D01*
X93705170Y-78760000D02*
G75*
G02*
X95250000Y-73210000I1544830J2560000D01*
G01*
X95250000Y-73210000D02*
G75*
G02*
X96794830Y-78760000I0J-2990000D01*
G01*
X97750000Y-76200000D02*
G75*
G02*
X92750000Y-76200000I-2500000J0D01*
G01*
X92750000Y-76200000D02*
G75*
G02*
X97750000Y-76200000I2500000J0D01*
G01*
%TO.C,D16*%
X108945000Y-78760000D02*
X112035000Y-78760000D01*
X108945170Y-78760000D02*
G75*
G02*
X110490000Y-73210000I1544830J2560000D01*
G01*
X110490000Y-73210000D02*
G75*
G02*
X112034830Y-78760000I0J-2990000D01*
G01*
X112990000Y-76200000D02*
G75*
G02*
X107990000Y-76200000I-2500000J0D01*
G01*
X107990000Y-76200000D02*
G75*
G02*
X112990000Y-76200000I2500000J0D01*
G01*
%TO.C,D21*%
X121731600Y-96477800D02*
X121731600Y-96633800D01*
X121731600Y-98793800D02*
X121731600Y-98949800D01*
X121731600Y-96478284D02*
G75*
G02*
X124963037Y-96633800I1560000J-1235516D01*
G01*
X122250639Y-96633800D02*
G75*
G02*
X124332561Y-96633800I1040961J-1080000D01*
G01*
X124332561Y-98793800D02*
G75*
G02*
X122250639Y-98793800I-1040961J1080000D01*
G01*
X124963037Y-98793800D02*
G75*
G02*
X121731600Y-98949316I-1671437J1080000D01*
G01*
%TO.C,D8*%
X101735000Y-82220000D02*
X101735000Y-86280000D01*
X101735000Y-86280000D02*
X104005000Y-86280000D01*
X104005000Y-86280000D02*
X104005000Y-82220000D01*
%TO.C,C5*%
X137920000Y-85871267D02*
X137920000Y-85578733D01*
X138940000Y-85871267D02*
X138940000Y-85578733D01*
%TO.C,C3*%
X107440000Y-97643733D02*
X107440000Y-97936267D01*
X108460000Y-97643733D02*
X108460000Y-97936267D01*
%TO.C,R5*%
X136637500Y-101853276D02*
X136637500Y-102362724D01*
X137682500Y-101853276D02*
X137682500Y-102362724D01*
%TO.C,Q2*%
X135600000Y-67820000D02*
X136600000Y-67820000D01*
X135600000Y-69340000D02*
X135600000Y-67820000D01*
X135650000Y-69340000D02*
X135600000Y-69340000D01*
X137550000Y-69340000D02*
X136770000Y-69340000D01*
X137720000Y-67820000D02*
X138720000Y-67820000D01*
X138720000Y-67820000D02*
X138720000Y-69340000D01*
X138720000Y-69340000D02*
X138670000Y-69340000D01*
X137110000Y-70120000D02*
X136780000Y-69880000D01*
X137110000Y-69640000D01*
X137110000Y-70120000D01*
G36*
X137110000Y-70120000D02*
G01*
X136780000Y-69880000D01*
X137110000Y-69640000D01*
X137110000Y-70120000D01*
G37*
%TO.C,D12*%
X111895000Y-82220000D02*
X111895000Y-86280000D01*
X111895000Y-86280000D02*
X114165000Y-86280000D01*
X114165000Y-86280000D02*
X114165000Y-82220000D01*
%TO.C,U3*%
X109025000Y-100100000D02*
X109025000Y-95480000D01*
X114495000Y-95480000D02*
X114495000Y-100100000D01*
X109720000Y-101980000D02*
X109240000Y-101980000D01*
X109480000Y-101650000D01*
X109720000Y-101980000D01*
G36*
X109720000Y-101980000D02*
G01*
X109240000Y-101980000D01*
X109480000Y-101650000D01*
X109720000Y-101980000D01*
G37*
%TO.C,D9*%
X104275000Y-82220000D02*
X104275000Y-86280000D01*
X104275000Y-86280000D02*
X106545000Y-86280000D01*
X106545000Y-86280000D02*
X106545000Y-82220000D01*
%TO.C,D20*%
X116050000Y-78550000D02*
X120170000Y-78550000D01*
X116050000Y-78930000D02*
X116050000Y-78550000D01*
X116050000Y-81470000D02*
X116050000Y-81090000D01*
X116170000Y-78550000D02*
X116170000Y-78930000D01*
X116170000Y-81090000D02*
X116170000Y-81470000D01*
X116290000Y-78550000D02*
X116290000Y-78930000D01*
X116290000Y-81090000D02*
X116290000Y-81470000D01*
X120170000Y-78550000D02*
X120170000Y-79274000D01*
X120170000Y-80746000D02*
X120170000Y-81470000D01*
X120170000Y-81470000D02*
X116050000Y-81470000D01*
%TO.C,C1*%
X82040000Y-97643733D02*
X82040000Y-97936267D01*
X83060000Y-97643733D02*
X83060000Y-97936267D01*
%TO.C,D11*%
X109355000Y-82220000D02*
X109355000Y-86280000D01*
X109355000Y-86280000D02*
X111625000Y-86280000D01*
X111625000Y-86280000D02*
X111625000Y-82220000D01*
%TO.C,D18*%
X126210000Y-78550000D02*
X130330000Y-78550000D01*
X126210000Y-79274000D02*
X126210000Y-78550000D01*
X126210000Y-81470000D02*
X126210000Y-80746000D01*
X130090000Y-78930000D02*
X130090000Y-78550000D01*
X130090000Y-81470000D02*
X130090000Y-81090000D01*
X130210000Y-78930000D02*
X130210000Y-78550000D01*
X130210000Y-81470000D02*
X130210000Y-81090000D01*
X130330000Y-78550000D02*
X130330000Y-78930000D01*
X130330000Y-81090000D02*
X130330000Y-81470000D01*
X130330000Y-81470000D02*
X126210000Y-81470000D01*
%TO.C,Q1*%
X135600000Y-75440000D02*
X136600000Y-75440000D01*
X135600000Y-76960000D02*
X135600000Y-75440000D01*
X135650000Y-76960000D02*
X135600000Y-76960000D01*
X137550000Y-76960000D02*
X136770000Y-76960000D01*
X137720000Y-75440000D02*
X138720000Y-75440000D01*
X138720000Y-75440000D02*
X138720000Y-76960000D01*
X138720000Y-76960000D02*
X138670000Y-76960000D01*
X137110000Y-77740000D02*
X136780000Y-77500000D01*
X137110000Y-77260000D01*
X137110000Y-77740000D01*
G36*
X137110000Y-77740000D02*
G01*
X136780000Y-77500000D01*
X137110000Y-77260000D01*
X137110000Y-77740000D01*
G37*
%TO.C,D6*%
X96655000Y-82220000D02*
X96655000Y-86280000D01*
X96655000Y-86280000D02*
X98925000Y-86280000D01*
X98925000Y-86280000D02*
X98925000Y-82220000D01*
%TO.C,D4*%
X91575000Y-82220000D02*
X91575000Y-86280000D01*
X91575000Y-86280000D02*
X93845000Y-86280000D01*
X93845000Y-86280000D02*
X93845000Y-82220000D01*
%TO.C,D2*%
X86495000Y-82220000D02*
X86495000Y-86280000D01*
X86495000Y-86280000D02*
X88765000Y-86280000D01*
X88765000Y-86280000D02*
X88765000Y-82220000D01*
%TO.C,Q4*%
X145760000Y-75440000D02*
X146760000Y-75440000D01*
X145760000Y-76960000D02*
X145760000Y-75440000D01*
X145810000Y-76960000D02*
X145760000Y-76960000D01*
X147710000Y-76960000D02*
X146930000Y-76960000D01*
X147880000Y-75440000D02*
X148880000Y-75440000D01*
X148880000Y-75440000D02*
X148880000Y-76960000D01*
X148880000Y-76960000D02*
X148830000Y-76960000D01*
X147270000Y-77740000D02*
X146940000Y-77500000D01*
X147270000Y-77260000D01*
X147270000Y-77740000D01*
G36*
X147270000Y-77740000D02*
G01*
X146940000Y-77500000D01*
X147270000Y-77260000D01*
X147270000Y-77740000D01*
G37*
%TO.C,D7*%
X99195000Y-82220000D02*
X99195000Y-86280000D01*
X99195000Y-86280000D02*
X101465000Y-86280000D01*
X101465000Y-86280000D02*
X101465000Y-82220000D01*
%TO.C,J4*%
X133240000Y-73770000D02*
X133240000Y-72390000D01*
X134620000Y-73770000D02*
X133240000Y-73770000D01*
X135890000Y-71010000D02*
X141080000Y-71010000D01*
X135890000Y-73770000D02*
X135890000Y-71010000D01*
X135890000Y-73770000D02*
X141080000Y-73770000D01*
X141080000Y-73770000D02*
X141080000Y-71010000D01*
%TO.C,D13*%
X86085000Y-78760000D02*
X89175000Y-78760000D01*
X86085170Y-78760000D02*
G75*
G02*
X87630000Y-73210000I1544830J2560000D01*
G01*
X87630000Y-73210000D02*
G75*
G02*
X89174830Y-78760000I0J-2990000D01*
G01*
X90130000Y-76200000D02*
G75*
G02*
X85130000Y-76200000I-2500000J0D01*
G01*
X85130000Y-76200000D02*
G75*
G02*
X90130000Y-76200000I2500000J0D01*
G01*
%TO.C,D15*%
X101325000Y-78760000D02*
X104415000Y-78760000D01*
X101325170Y-78760000D02*
G75*
G02*
X102870000Y-73210000I1544830J2560000D01*
G01*
X102870000Y-73210000D02*
G75*
G02*
X104414830Y-78760000I0J-2990000D01*
G01*
X105370000Y-76200000D02*
G75*
G02*
X100370000Y-76200000I-2500000J0D01*
G01*
X100370000Y-76200000D02*
G75*
G02*
X105370000Y-76200000I2500000J0D01*
G01*
%TO.C,D19*%
X121730000Y-83030000D02*
X122454000Y-83030000D01*
X121730000Y-86910000D02*
X122110000Y-86910000D01*
X121730000Y-87030000D02*
X122110000Y-87030000D01*
X121730000Y-87150000D02*
X121730000Y-83030000D01*
X122110000Y-87150000D02*
X121730000Y-87150000D01*
X123926000Y-83030000D02*
X124650000Y-83030000D01*
X124270000Y-86910000D02*
X124650000Y-86910000D01*
X124270000Y-87030000D02*
X124650000Y-87030000D01*
X124650000Y-83030000D02*
X124650000Y-87150000D01*
X124650000Y-87150000D02*
X124270000Y-87150000D01*
%TO.C,R4*%
X134097500Y-101853276D02*
X134097500Y-102362724D01*
X135142500Y-101853276D02*
X135142500Y-102362724D01*
%TO.C,C4*%
X136544267Y-96264000D02*
X136251733Y-96264000D01*
X136544267Y-97284000D02*
X136251733Y-97284000D01*
%TO.C,J6*%
X143400000Y-81390000D02*
X143400000Y-80010000D01*
X144780000Y-81390000D02*
X143400000Y-81390000D01*
X146050000Y-78630000D02*
X151240000Y-78630000D01*
X146050000Y-81390000D02*
X146050000Y-78630000D01*
X146050000Y-81390000D02*
X151240000Y-81390000D01*
X151240000Y-81390000D02*
X151240000Y-78630000D01*
%TO.C,D3*%
X89035000Y-82220000D02*
X89035000Y-86280000D01*
X89035000Y-86280000D02*
X91305000Y-86280000D01*
X91305000Y-86280000D02*
X91305000Y-82220000D01*
%TO.C,U2*%
X96325000Y-100100000D02*
X96325000Y-95480000D01*
X101795000Y-95480000D02*
X101795000Y-100100000D01*
X97020000Y-101980000D02*
X96540000Y-101980000D01*
X96780000Y-101650000D01*
X97020000Y-101980000D01*
G36*
X97020000Y-101980000D02*
G01*
X96540000Y-101980000D01*
X96780000Y-101650000D01*
X97020000Y-101980000D01*
G37*
%TO.C,Q3*%
X145760000Y-67820000D02*
X146760000Y-67820000D01*
X145760000Y-69340000D02*
X145760000Y-67820000D01*
X145810000Y-69340000D02*
X145760000Y-69340000D01*
X147710000Y-69340000D02*
X146930000Y-69340000D01*
X147880000Y-67820000D02*
X148880000Y-67820000D01*
X148880000Y-67820000D02*
X148880000Y-69340000D01*
X148880000Y-69340000D02*
X148830000Y-69340000D01*
X147270000Y-70120000D02*
X146940000Y-69880000D01*
X147270000Y-69640000D01*
X147270000Y-70120000D01*
G36*
X147270000Y-70120000D02*
G01*
X146940000Y-69880000D01*
X147270000Y-69640000D01*
X147270000Y-70120000D01*
G37*
%TO.C,J3*%
X133240000Y-81390000D02*
X133240000Y-80010000D01*
X134620000Y-81390000D02*
X133240000Y-81390000D01*
X135890000Y-78630000D02*
X141080000Y-78630000D01*
X135890000Y-81390000D02*
X135890000Y-78630000D01*
X135890000Y-81390000D02*
X141080000Y-81390000D01*
X141080000Y-81390000D02*
X141080000Y-78630000D01*
%TO.C,C2*%
X94740000Y-97643733D02*
X94740000Y-97936267D01*
X95760000Y-97643733D02*
X95760000Y-97936267D01*
%TO.C,D1*%
X83955000Y-82220000D02*
X83955000Y-86280000D01*
X83955000Y-86280000D02*
X86225000Y-86280000D01*
X86225000Y-86280000D02*
X86225000Y-82220000D01*
%TO.C,R1*%
X84234260Y-92105317D02*
X84234260Y-91595869D01*
X85279260Y-92105317D02*
X85279260Y-91595869D01*
%TO.C,D5*%
X94115000Y-82220000D02*
X94115000Y-86280000D01*
X94115000Y-86280000D02*
X96385000Y-86280000D01*
X96385000Y-86280000D02*
X96385000Y-82220000D01*
%TO.C,J5*%
X143400000Y-73770000D02*
X143400000Y-72390000D01*
X144780000Y-73770000D02*
X143400000Y-73770000D01*
X146050000Y-71010000D02*
X151240000Y-71010000D01*
X146050000Y-73770000D02*
X146050000Y-71010000D01*
X146050000Y-73770000D02*
X151240000Y-73770000D01*
X151240000Y-73770000D02*
X151240000Y-71010000D01*
%TO.C,D17*%
X121730000Y-72870000D02*
X122110000Y-72870000D01*
X121730000Y-76990000D02*
X121730000Y-72870000D01*
X122110000Y-72990000D02*
X121730000Y-72990000D01*
X122110000Y-73110000D02*
X121730000Y-73110000D01*
X122454000Y-76990000D02*
X121730000Y-76990000D01*
X124270000Y-72870000D02*
X124650000Y-72870000D01*
X124650000Y-72870000D02*
X124650000Y-76990000D01*
X124650000Y-72990000D02*
X124270000Y-72990000D01*
X124650000Y-73110000D02*
X124270000Y-73110000D01*
X124650000Y-76990000D02*
X123926000Y-76990000D01*
%TO.C,U1*%
X83625000Y-100100000D02*
X83625000Y-95480000D01*
X89095000Y-95480000D02*
X89095000Y-100100000D01*
X84320000Y-101980000D02*
X83840000Y-101980000D01*
X84080000Y-101650000D01*
X84320000Y-101980000D01*
G36*
X84320000Y-101980000D02*
G01*
X83840000Y-101980000D01*
X84080000Y-101650000D01*
X84320000Y-101980000D01*
G37*
%TO.C,U4*%
X135235000Y-89380000D02*
X135330000Y-89380000D01*
X135235000Y-93500000D02*
X135235000Y-89380000D01*
X135330000Y-93500000D02*
X135235000Y-93500000D01*
X140260000Y-89380000D02*
X140355000Y-89380000D01*
X140355000Y-89380000D02*
X140355000Y-93500000D01*
X140355000Y-93500000D02*
X140260000Y-93500000D01*
X140595000Y-89080000D02*
X140265000Y-88840000D01*
X140595000Y-88600000D01*
X140595000Y-89080000D01*
G36*
X140595000Y-89080000D02*
G01*
X140265000Y-88840000D01*
X140595000Y-88600000D01*
X140595000Y-89080000D01*
G37*
%TO.C,R2*%
X96907533Y-92149740D02*
X96907533Y-91640292D01*
X97952533Y-92149740D02*
X97952533Y-91640292D01*
%TD*%
%LPC*%
%TO.C,JP1*%
G36*
X148832000Y-98592000D02*
G01*
X147332000Y-98592000D01*
X147332000Y-103592000D01*
X148832000Y-103592000D01*
X148832000Y-98592000D01*
G37*
%TD*%
D13*
%TO.C,SW1*%
X108689000Y-107006000D03*
X115189000Y-107006000D03*
X108689000Y-111506000D03*
X115189000Y-111506000D03*
%TD*%
D14*
%TO.C,J1*%
X86360000Y-111760000D03*
D15*
X88900000Y-111760000D03*
X91440000Y-111760000D03*
X93980000Y-111760000D03*
X96520000Y-111760000D03*
X99060000Y-111760000D03*
X101600000Y-111760000D03*
X104140000Y-111760000D03*
%TD*%
D16*
%TO.C,H4*%
X80645000Y-111125000D03*
%TD*%
%TO.C,H3*%
X155575000Y-69215000D03*
%TD*%
%TO.C,H2*%
X155575000Y-111125000D03*
%TD*%
%TO.C,H1*%
X80645000Y-69215000D03*
%TD*%
D17*
%TO.C,R3*%
X110034344Y-92781352D03*
X110034344Y-90956352D03*
%TD*%
D18*
%TO.C,JP1*%
X148082000Y-99092000D03*
D19*
X148082000Y-103092000D03*
%TD*%
D20*
%TO.C,D10*%
X107950000Y-85307500D03*
X107950000Y-82332500D03*
%TD*%
D21*
%TO.C,D14*%
X95250000Y-77470000D03*
D22*
X95250000Y-74930000D03*
%TD*%
D21*
%TO.C,D16*%
X110490000Y-77470000D03*
D22*
X110490000Y-74930000D03*
%TD*%
D21*
%TO.C,D21*%
X122021600Y-97713800D03*
D22*
X124561600Y-97713800D03*
%TD*%
D20*
%TO.C,D8*%
X102870000Y-85307500D03*
X102870000Y-82332500D03*
%TD*%
D23*
%TO.C,C5*%
X138430000Y-86587500D03*
X138430000Y-84862500D03*
%TD*%
D24*
%TO.C,C3*%
X107950000Y-96927500D03*
X107950000Y-98652500D03*
%TD*%
D25*
%TO.C,R5*%
X137160000Y-101195500D03*
X137160000Y-103020500D03*
%TD*%
D26*
%TO.C,Q2*%
X136210000Y-69517500D03*
X138110000Y-69517500D03*
X137160000Y-67642500D03*
%TD*%
D20*
%TO.C,D12*%
X113030000Y-85307500D03*
X113030000Y-82332500D03*
%TD*%
D27*
%TO.C,U3*%
X109485000Y-100652500D03*
X110135000Y-100652500D03*
X110785000Y-100652500D03*
X111435000Y-100652500D03*
X112085000Y-100652500D03*
X112735000Y-100652500D03*
X113385000Y-100652500D03*
X114035000Y-100652500D03*
X114035000Y-94927500D03*
X113385000Y-94927500D03*
X112735000Y-94927500D03*
X112085000Y-94927500D03*
X111435000Y-94927500D03*
X110785000Y-94927500D03*
X110135000Y-94927500D03*
X109485000Y-94927500D03*
%TD*%
D20*
%TO.C,D9*%
X105410000Y-85307500D03*
X105410000Y-82332500D03*
%TD*%
D21*
%TO.C,D20*%
X116840000Y-80010000D03*
D22*
X119380000Y-80010000D03*
%TD*%
D24*
%TO.C,C1*%
X82550000Y-96927500D03*
X82550000Y-98652500D03*
%TD*%
D20*
%TO.C,D11*%
X110490000Y-85307500D03*
X110490000Y-82332500D03*
%TD*%
D21*
%TO.C,D18*%
X129540000Y-80010000D03*
D22*
X127000000Y-80010000D03*
%TD*%
D26*
%TO.C,Q1*%
X136210000Y-77137500D03*
X138110000Y-77137500D03*
X137160000Y-75262500D03*
%TD*%
D20*
%TO.C,D6*%
X97790000Y-85307500D03*
X97790000Y-82332500D03*
%TD*%
%TO.C,D4*%
X92710000Y-85307500D03*
X92710000Y-82332500D03*
%TD*%
%TO.C,D2*%
X87630000Y-85307500D03*
X87630000Y-82332500D03*
%TD*%
D26*
%TO.C,Q4*%
X146370000Y-77137500D03*
X148270000Y-77137500D03*
X147320000Y-75262500D03*
%TD*%
D20*
%TO.C,D7*%
X100330000Y-85307500D03*
X100330000Y-82332500D03*
%TD*%
D14*
%TO.C,J4*%
X134620000Y-72390000D03*
D15*
X137160000Y-72390000D03*
X139700000Y-72390000D03*
%TD*%
D21*
%TO.C,D13*%
X87630000Y-77470000D03*
D22*
X87630000Y-74930000D03*
%TD*%
D21*
%TO.C,D15*%
X102870000Y-77470000D03*
D22*
X102870000Y-74930000D03*
%TD*%
D21*
%TO.C,D19*%
X123190000Y-86360000D03*
D22*
X123190000Y-83820000D03*
%TD*%
D25*
%TO.C,R4*%
X134620000Y-101195500D03*
X134620000Y-103020500D03*
%TD*%
D28*
%TO.C,C4*%
X137260500Y-96774000D03*
X135535500Y-96774000D03*
%TD*%
D14*
%TO.C,J6*%
X144780000Y-80010000D03*
D15*
X147320000Y-80010000D03*
X149860000Y-80010000D03*
%TD*%
D20*
%TO.C,D3*%
X90170000Y-85307500D03*
X90170000Y-82332500D03*
%TD*%
D27*
%TO.C,U2*%
X96785000Y-100652500D03*
X97435000Y-100652500D03*
X98085000Y-100652500D03*
X98735000Y-100652500D03*
X99385000Y-100652500D03*
X100035000Y-100652500D03*
X100685000Y-100652500D03*
X101335000Y-100652500D03*
X101335000Y-94927500D03*
X100685000Y-94927500D03*
X100035000Y-94927500D03*
X99385000Y-94927500D03*
X98735000Y-94927500D03*
X98085000Y-94927500D03*
X97435000Y-94927500D03*
X96785000Y-94927500D03*
%TD*%
D26*
%TO.C,Q3*%
X146370000Y-69517500D03*
X148270000Y-69517500D03*
X147320000Y-67642500D03*
%TD*%
D14*
%TO.C,J3*%
X134620000Y-80010000D03*
D15*
X137160000Y-80010000D03*
X139700000Y-80010000D03*
%TD*%
D24*
%TO.C,C2*%
X95250000Y-96927500D03*
X95250000Y-98652500D03*
%TD*%
D20*
%TO.C,D1*%
X85090000Y-85307500D03*
X85090000Y-82332500D03*
%TD*%
D17*
%TO.C,R1*%
X84756760Y-92763093D03*
X84756760Y-90938093D03*
%TD*%
D20*
%TO.C,D5*%
X95250000Y-85307500D03*
X95250000Y-82332500D03*
%TD*%
D14*
%TO.C,J5*%
X144780000Y-72390000D03*
D15*
X147320000Y-72390000D03*
X149860000Y-72390000D03*
%TD*%
D21*
%TO.C,D17*%
X123190000Y-73660000D03*
D22*
X123190000Y-76200000D03*
%TD*%
D27*
%TO.C,U1*%
X84085000Y-100652500D03*
X84735000Y-100652500D03*
X85385000Y-100652500D03*
X86035000Y-100652500D03*
X86685000Y-100652500D03*
X87335000Y-100652500D03*
X87985000Y-100652500D03*
X88635000Y-100652500D03*
X88635000Y-94927500D03*
X87985000Y-94927500D03*
X87335000Y-94927500D03*
X86685000Y-94927500D03*
X86035000Y-94927500D03*
X85385000Y-94927500D03*
X84735000Y-94927500D03*
X84085000Y-94927500D03*
%TD*%
D29*
%TO.C,U4*%
X139700000Y-88965000D03*
X138430000Y-88965000D03*
X137160000Y-88965000D03*
X135890000Y-88965000D03*
X135890000Y-93915000D03*
X137160000Y-93915000D03*
X138430000Y-93915000D03*
X139700000Y-93915000D03*
%TD*%
D17*
%TO.C,R2*%
X97430033Y-92807516D03*
X97430033Y-90982516D03*
%TD*%
D14*
%TO.C,J2*%
X127000000Y-111760000D03*
D15*
X129540000Y-111760000D03*
X132080000Y-111760000D03*
X134620000Y-111760000D03*
X137160000Y-111760000D03*
X139700000Y-111760000D03*
X142240000Y-111760000D03*
X144780000Y-111760000D03*
%TD*%
%LPD*%
M02*
