M48
; DRILL file {KiCad 9.0.5} date 2025-10-12T13:48:01+0200
; FORMAT={-:-/ absolute / inch / decimal}
; #@! TF.CreationDate,2025-10-12T13:48:01+02:00
; #@! TF.GenerationSoftware,Kicad,Pcbnew,9.0.5
; #@! TF.FileFunction,Plated,1,2,PTH
FMAT,2
INCH
; #@! TA.AperFunction,Plated,PTH,ViaDrill
T1C0.0118
; #@! TA.AperFunction,Plated,PTH,ViaDrill
T2C0.0138
; #@! TA.AperFunction,Plated,PTH,ComponentDrill
T3C0.0354
; #@! TA.AperFunction,Plated,PTH,ComponentDrill
T4C0.0394
; #@! TA.AperFunction,Plated,PTH,ComponentDrill
T5C0.0433
%
G90
G05
T1
X3.1492Y-3.4537
X3.15Y-3.3
X3.15Y-3.35
X3.15Y-3.4
X3.275Y-4.1
X3.3Y-3.425
X3.3Y-3.475
X3.3Y-3.525
X3.325Y-3.825
X3.35Y-4.1
X3.3563Y-3.878
X3.39Y-3.83
X3.4Y-3.45
X3.4311Y-3.7953
X3.5Y-3.425
X3.525Y-3.6
X3.525Y-3.65
X3.525Y-4.025
X3.5364Y-4.1171
X3.562Y-3.9596
X3.5986Y-3.0456
X3.6Y-2.8
X3.6Y-3.125
X3.6033Y-3.8474
X3.625Y-3.9
X3.6969Y-3.7598
X3.7Y-3.625
X3.725Y-3.975
X3.75Y-3.625
X3.75Y-4.175
X3.85Y-3.875
X3.85Y-4.175
X3.865Y-3.825
X3.8671Y-4.1033
X3.8898Y-4.0246
X3.8907Y-3.5886
X3.9Y-2.8
X3.9Y-3.05
X3.9Y-3.125
X3.9Y-3.45
X3.9097Y-3.786
X3.91Y-4.125
X3.92Y-3.535
X3.925Y-4.165
X4.0Y-3.6
X4.0049Y-3.5305
X4.05Y-3.975
X4.065Y-4.165
X4.075Y-3.625
X4.0906Y-3.565
X4.1Y-3.45
X4.175Y-3.925
X4.185Y-4.335
X4.1919Y-4.0207
X4.2Y-2.8
X4.2Y-3.05
X4.2Y-3.125
X4.2Y-4.095
X4.225Y-3.525
X4.25Y-3.75
X4.252Y-4.125
X4.315Y-4.11
X4.3711Y-4.0974
X4.375Y-3.5
X4.3878Y-3.8002
X4.4Y-3.475
X4.415Y-4.32
X4.43Y-4.25
X4.45Y-3.05
X4.45Y-3.8
X4.45Y-3.85
X4.46Y-4.05
X4.525Y-4.05
X4.525Y-4.15
X4.55Y-3.225
X4.55Y-3.275
X4.55Y-3.65
X4.6Y-3.6
X4.6Y-3.95
X4.6Y-4.05
X4.6Y-4.15
X4.62Y-4.315
X4.625Y-2.825
X4.625Y-2.975
X4.65Y-3.5
X4.675Y-3.275
X4.675Y-3.325
X4.7Y-3.725
X4.725Y-3.5
X4.75Y-3.6
X4.775Y-3.725
X4.8Y-3.5
X4.85Y-3.125
X4.85Y-3.175
X4.9Y-4.1
X4.9Y-4.2
X5.0Y-3.0
X5.0Y-3.05
X5.0Y-4.1
X5.0Y-4.2
X5.05Y-3.35
X5.075Y-2.825
X5.075Y-3.3
X5.075Y-3.425
X5.1Y-3.575
X5.1Y-3.8
X5.125Y-3.275
X5.125Y-3.35
X5.15Y-3.975
X5.15Y-4.1
X5.15Y-4.2
X5.25Y-4.1
X5.25Y-4.2
X5.275Y-3.825
X5.3Y-3.3
X5.35Y-4.1
X5.35Y-4.2
X5.4Y-3.3
X5.45Y-4.1
X5.45Y-4.2
X5.475Y-3.95
X5.5Y-3.3
X5.55Y-4.1
X5.55Y-4.2
X5.65Y-3.675
X5.65Y-3.75
X5.65Y-3.875
X5.65Y-4.0
X5.65Y-4.1
X5.65Y-4.2
X5.7Y-3.5
X5.757Y-3.98
X5.8Y-3.6
X5.8Y-3.65
X5.8Y-4.2
X5.9Y-3.4
X5.9Y-3.5
X5.9Y-4.2
X6.0Y-3.4
X6.0Y-3.5
X6.0Y-4.1
T2
X3.25Y-3.686
X3.6831Y-3.8179
X4.1841Y-3.814
X5.354Y-3.883
X5.819Y-3.819
T3
X3.45Y-2.95
X3.45Y-3.05
X3.75Y-2.95
X3.75Y-3.05
X4.05Y-2.95
X4.05Y-3.05
X4.35Y-2.95
X4.35Y-3.05
X4.6Y-3.15
X4.7Y-3.15
X4.804Y-3.847
X4.85Y-2.9
X4.85Y-3.0
X4.85Y-3.3
X4.85Y-3.4
X4.904Y-3.847
X5.0Y-3.15
X5.1Y-3.15
T4
X3.4Y-4.4
X3.5Y-4.4
X3.6Y-4.4
X3.7Y-4.4
X3.8Y-4.4
X3.9Y-4.4
X4.0Y-4.4
X4.1Y-4.4
X5.0Y-4.4
X5.1Y-4.4
X5.2Y-4.4
X5.3Y-2.85
X5.3Y-3.15
X5.3Y-4.4
X5.4Y-2.85
X5.4Y-3.15
X5.4Y-4.4
X5.5Y-2.85
X5.5Y-3.15
X5.5Y-4.4
X5.6Y-4.4
X5.7Y-2.85
X5.7Y-3.15
X5.7Y-4.4
X5.8Y-2.85
X5.8Y-3.15
X5.9Y-2.85
X5.9Y-3.15
T5
X4.2791Y-4.2128
X4.2791Y-4.39
X4.535Y-4.2128
X4.535Y-4.39
M30
