%TF.GenerationSoftware,KiCad,Pcbnew,9.0.5*%
%TF.CreationDate,2025-10-12T13:48:01+02:00*%
%TF.ProjectId,sw63_mk4_displaytestboard,73773633-5f6d-46b3-945f-646973706c61,rev?*%
%TF.SameCoordinates,Original*%
%TF.FileFunction,Copper,L2,Bot*%
%TF.FilePolarity,Positive*%
%FSLAX46Y46*%
G04 Gerber Fmt 4.6, Leading zero omitted, Abs format (unit mm)*
G04 Created by KiCad (PCBNEW 9.0.5) date 2025-10-12 13:48:01*
%MOMM*%
%LPD*%
G01*
G04 APERTURE LIST*
%TA.AperFunction,ComponentPad*%
%ADD10C,2.000000*%
%TD*%
%TA.AperFunction,ComponentPad*%
%ADD11R,1.700000X1.700000*%
%TD*%
%TA.AperFunction,ComponentPad*%
%ADD12C,1.700000*%
%TD*%
%TA.AperFunction,ComponentPad*%
%ADD13R,1.800000X1.800000*%
%TD*%
%TA.AperFunction,ComponentPad*%
%ADD14C,1.800000*%
%TD*%
%TA.AperFunction,ViaPad*%
%ADD15C,0.600000*%
%TD*%
%TA.AperFunction,ViaPad*%
%ADD16C,0.800000*%
%TD*%
%TA.AperFunction,Conductor*%
%ADD17C,0.400000*%
%TD*%
%TA.AperFunction,Conductor*%
%ADD18C,0.200000*%
%TD*%
G04 APERTURE END LIST*
D10*
%TO.P,SW1,2,2*%
%TO.N,/BTN_A*%
X108689000Y-107006000D03*
X115189000Y-107006000D03*
%TO.P,SW1,1,1*%
%TO.N,/BTN_B*%
X108689000Y-111506000D03*
X115189000Y-111506000D03*
%TD*%
D11*
%TO.P,J1,1,Pin_1*%
%TO.N,GND*%
X86360000Y-111760000D03*
D12*
%TO.P,J1,2,Pin_2*%
%TO.N,VDD*%
X88900000Y-111760000D03*
%TO.P,J1,3,Pin_3*%
%TO.N,/DATA*%
X91440000Y-111760000D03*
%TO.P,J1,4,Pin_4*%
%TO.N,/CLOCK*%
X93980000Y-111760000D03*
%TO.P,J1,5,Pin_5*%
%TO.N,/LATCH*%
X96520000Y-111760000D03*
%TO.P,J1,6,Pin_6*%
%TO.N,/!OE*%
X99060000Y-111760000D03*
%TO.P,J1,7,Pin_7*%
%TO.N,/BTN_A*%
X101600000Y-111760000D03*
%TO.P,J1,8,Pin_8*%
%TO.N,/BTN_B*%
X104140000Y-111760000D03*
%TD*%
D13*
%TO.P,D14,1,K*%
%TO.N,Net-(D14-K)*%
X95250000Y-77470000D03*
D14*
%TO.P,D14,2,A*%
%TO.N,VDD*%
X95250000Y-74930000D03*
%TD*%
D13*
%TO.P,D16,1,K*%
%TO.N,Net-(D16-K)*%
X110490000Y-77470000D03*
D14*
%TO.P,D16,2,A*%
%TO.N,VDD*%
X110490000Y-74930000D03*
%TD*%
D13*
%TO.P,D21,1,K*%
%TO.N,Net-(D21-K)*%
X122021600Y-97713800D03*
D14*
%TO.P,D21,2,A*%
%TO.N,VDD*%
X124561600Y-97713800D03*
%TD*%
D13*
%TO.P,D20,1,K*%
%TO.N,Net-(D20-K)*%
X116840000Y-80010000D03*
D14*
%TO.P,D20,2,A*%
%TO.N,VDD*%
X119380000Y-80010000D03*
%TD*%
D13*
%TO.P,D18,1,K*%
%TO.N,Net-(D18-K)*%
X129540000Y-80010000D03*
D14*
%TO.P,D18,2,A*%
%TO.N,VDD*%
X127000000Y-80010000D03*
%TD*%
D11*
%TO.P,J4,1,Pin_1*%
%TO.N,Net-(J4-Pin_1)*%
X134620000Y-72390000D03*
D12*
%TO.P,J4,2,Pin_2*%
%TO.N,Net-(J4-Pin_2)*%
X137160000Y-72390000D03*
%TO.P,J4,3,Pin_3*%
%TO.N,Net-(J4-Pin_3)*%
X139700000Y-72390000D03*
%TD*%
D13*
%TO.P,D13,1,K*%
%TO.N,Net-(D13-K)*%
X87630000Y-77470000D03*
D14*
%TO.P,D13,2,A*%
%TO.N,VDD*%
X87630000Y-74930000D03*
%TD*%
D13*
%TO.P,D15,1,K*%
%TO.N,Net-(D15-K)*%
X102870000Y-77470000D03*
D14*
%TO.P,D15,2,A*%
%TO.N,VDD*%
X102870000Y-74930000D03*
%TD*%
D13*
%TO.P,D19,1,K*%
%TO.N,Net-(D19-K)*%
X123190000Y-86360000D03*
D14*
%TO.P,D19,2,A*%
%TO.N,VDD*%
X123190000Y-83820000D03*
%TD*%
D11*
%TO.P,J6,1,Pin_1*%
%TO.N,Net-(J6-Pin_1)*%
X144780000Y-80010000D03*
D12*
%TO.P,J6,2,Pin_2*%
%TO.N,Net-(J6-Pin_2)*%
X147320000Y-80010000D03*
%TO.P,J6,3,Pin_3*%
%TO.N,Net-(J6-Pin_3)*%
X149860000Y-80010000D03*
%TD*%
D11*
%TO.P,J3,1,Pin_1*%
%TO.N,Net-(J3-Pin_1)*%
X134620000Y-80010000D03*
D12*
%TO.P,J3,2,Pin_2*%
%TO.N,Net-(J3-Pin_2)*%
X137160000Y-80010000D03*
%TO.P,J3,3,Pin_3*%
%TO.N,Net-(J3-Pin_3)*%
X139700000Y-80010000D03*
%TD*%
D11*
%TO.P,J5,1,Pin_1*%
%TO.N,Net-(J5-Pin_1)*%
X144780000Y-72390000D03*
D12*
%TO.P,J5,2,Pin_2*%
%TO.N,Net-(J5-Pin_2)*%
X147320000Y-72390000D03*
%TO.P,J5,3,Pin_3*%
%TO.N,Net-(J5-Pin_3)*%
X149860000Y-72390000D03*
%TD*%
D13*
%TO.P,D17,1,K*%
%TO.N,Net-(D17-K)*%
X123190000Y-73660000D03*
D14*
%TO.P,D17,2,A*%
%TO.N,VDD*%
X123190000Y-76200000D03*
%TD*%
D11*
%TO.P,J2,1,Pin_1*%
%TO.N,/RTC_GND*%
X127000000Y-111760000D03*
D12*
%TO.P,J2,2,Pin_2*%
%TO.N,/RTC_VCC*%
X129540000Y-111760000D03*
%TO.P,J2,3,Pin_3*%
%TO.N,/RTC_VBAT*%
X132080000Y-111760000D03*
%TO.P,J2,4,Pin_4*%
%TO.N,/SDA*%
X134620000Y-111760000D03*
%TO.P,J2,5,Pin_5*%
%TO.N,/SCL*%
X137160000Y-111760000D03*
%TO.P,J2,6,Pin_6*%
%TO.N,/!RST*%
X139700000Y-111760000D03*
%TO.P,J2,7,Pin_7*%
%TO.N,/!INT*%
X142240000Y-111760000D03*
%TO.P,J2,8,Pin_8*%
%TO.N,/32KHZ*%
X144780000Y-111760000D03*
%TD*%
D15*
%TO.N,GND*%
X106299000Y-110109000D03*
X117348000Y-109601000D03*
X112141000Y-109728000D03*
X113284000Y-102870000D03*
X109601000Y-104394000D03*
X106680000Y-104013000D03*
X107315000Y-89535000D03*
X111125000Y-88900000D03*
X111760000Y-88265000D03*
X113030000Y-77470000D03*
X117475000Y-75565000D03*
X128905000Y-71755000D03*
X117475000Y-71755000D03*
X91440000Y-71120000D03*
X99060000Y-71120000D03*
X106680000Y-71120000D03*
X106680000Y-79375000D03*
X106680000Y-77470000D03*
X99060000Y-79375000D03*
X99060000Y-77470000D03*
X91403924Y-77357157D03*
X91440000Y-79375000D03*
X79989654Y-87725118D03*
X80010000Y-86360000D03*
X83820000Y-86995000D03*
X88900000Y-86995000D03*
X86360000Y-87630000D03*
X99060000Y-87630000D03*
X104140000Y-87630000D03*
X103505000Y-92075000D03*
X101600000Y-91440000D03*
X95250000Y-92075000D03*
X103251000Y-105791000D03*
X112522000Y-107950000D03*
X114935000Y-102870000D03*
X114935000Y-105410000D03*
X116840000Y-105410000D03*
X116840000Y-100330000D03*
X116840000Y-102870000D03*
X129540000Y-90805000D03*
X128905000Y-86995000D03*
X128270000Y-85090000D03*
X128905000Y-83820000D03*
X130175000Y-85090000D03*
X130175000Y-83185000D03*
X127000000Y-77470000D03*
X127000000Y-76200000D03*
X123190000Y-80645000D03*
X123190000Y-79375000D03*
X115570000Y-81915000D03*
X115570000Y-83185000D03*
X118745000Y-83185000D03*
X118745000Y-84455000D03*
X121285000Y-94615000D03*
X119380000Y-94615000D03*
X120650000Y-91440000D03*
X121920000Y-88900000D03*
X120015000Y-88900000D03*
X118110000Y-88900000D03*
X116840000Y-91440000D03*
X115570000Y-92710000D03*
X113030000Y-96520000D03*
X113030000Y-97790000D03*
X107950000Y-95250000D03*
X106045000Y-99695000D03*
X102870000Y-100965000D03*
X99314000Y-104775000D03*
X99695000Y-105791000D03*
X97790000Y-106045000D03*
X95250000Y-106045000D03*
X83185000Y-104140000D03*
X85090000Y-104140000D03*
X89535000Y-102235000D03*
X84455000Y-97155000D03*
X80010000Y-85090000D03*
X80010000Y-83820000D03*
X83820000Y-89535000D03*
X83820000Y-88265000D03*
X93980000Y-92075000D03*
X89535000Y-92710000D03*
X89535000Y-91440000D03*
X92075000Y-99060000D03*
X97790000Y-98425000D03*
X94615000Y-100965000D03*
D16*
%TO.N,VDD*%
X106275000Y-96875000D03*
X82550000Y-93625000D03*
X93550000Y-96975000D03*
D15*
%TO.N,Net-(D13-K)*%
X98825000Y-91150000D03*
%TO.N,Net-(D14-K)*%
X99568000Y-89789000D03*
%TO.N,Net-(D15-K)*%
X101725000Y-89675000D03*
%TO.N,Net-(D16-K)*%
X103900000Y-90550000D03*
%TO.N,/LATCH*%
X85250000Y-98500000D03*
X89825000Y-104575000D03*
X98800000Y-102225000D03*
X98225000Y-104225000D03*
X111025000Y-104075000D03*
%TO.N,/!OE*%
X91525000Y-97725000D03*
X111450000Y-96525000D03*
X93900000Y-95500000D03*
X99305399Y-96165000D03*
X87150000Y-96400000D03*
X108000000Y-104775000D03*
%TO.N,Net-(U1-SDO)*%
X86106000Y-97282000D03*
X90475000Y-100575000D03*
%TO.N,Net-(U2-SDO)*%
X98171000Y-97155000D03*
X106475000Y-102125000D03*
%TO.N,/RTC_GND*%
X130810000Y-106680000D03*
X152400000Y-104140000D03*
X147320000Y-92710000D03*
X147320000Y-91440000D03*
X140970000Y-106680000D03*
X152400000Y-86360000D03*
X135890000Y-104140000D03*
X147320000Y-106680000D03*
X134620000Y-83820000D03*
X127000000Y-106680000D03*
X133350000Y-106680000D03*
X138430000Y-104140000D03*
X135890000Y-106680000D03*
X129540000Y-96520000D03*
X143510000Y-93345000D03*
X124460000Y-104140000D03*
X133985000Y-97155000D03*
X130810000Y-100965000D03*
X149860000Y-88900000D03*
X152400000Y-88900000D03*
X127000000Y-104140000D03*
X143510000Y-98425000D03*
X140970000Y-104140000D03*
X124460000Y-106680000D03*
X144780000Y-88900000D03*
X143510000Y-101600000D03*
X149860000Y-86360000D03*
X138430000Y-106680000D03*
X143510000Y-106680000D03*
X143510000Y-95250000D03*
X139700000Y-83820000D03*
X137160000Y-83820000D03*
X130810000Y-104140000D03*
X149860000Y-106680000D03*
X143510000Y-104140000D03*
X133350000Y-104140000D03*
D16*
%TO.N,/RTC_VBAT*%
X147802600Y-97002600D03*
X135991600Y-98628200D03*
D15*
%TO.N,Net-(JP1-C)*%
X139065000Y-100330000D03*
X146228308Y-101092568D03*
%TD*%
D17*
%TO.N,VDD*%
X88900000Y-111760000D02*
X88900000Y-106680000D01*
X93550000Y-99575000D02*
X93550000Y-96975000D01*
X88900000Y-106680000D02*
X91440000Y-104140000D01*
X91440000Y-101685000D02*
X93550000Y-99575000D01*
X91440000Y-104140000D02*
X91440000Y-101685000D01*
D18*
%TO.N,/BTN*%
X101600000Y-111760000D02*
X104267000Y-111760000D01*
X104267000Y-111760000D02*
X104557000Y-111470000D01*
X104557000Y-111470000D02*
X108637000Y-111470000D01*
X108637000Y-111470000D02*
X115137000Y-111470000D01*
%TO.N,/LATCH*%
X111025000Y-104075000D02*
X111025000Y-108431000D01*
X103575000Y-102225000D02*
X98800000Y-102225000D01*
X111025000Y-108431000D02*
X110490000Y-108966000D01*
X110490000Y-108966000D02*
X106553000Y-108966000D01*
X106553000Y-108966000D02*
X105767500Y-108180500D01*
X105767500Y-108180500D02*
X105767500Y-104417500D01*
X105767500Y-104417500D02*
X103575000Y-102225000D01*
%TO.N,Net-(D13-K)*%
X98825000Y-91150000D02*
X95341000Y-91150000D01*
X95341000Y-91150000D02*
X87630000Y-83439000D01*
X87630000Y-83439000D02*
X87630000Y-77470000D01*
%TO.N,Net-(D14-K)*%
X95250000Y-85471000D02*
X99568000Y-89789000D01*
X95250000Y-77470000D02*
X95250000Y-85471000D01*
%TO.N,Net-(U2-SDO)*%
X106475000Y-102125000D02*
X102140000Y-97790000D01*
X102140000Y-97790000D02*
X98806000Y-97790000D01*
X98806000Y-97790000D02*
X98171000Y-97155000D01*
%TO.N,Net-(U1-SDO)*%
X90475000Y-100575000D02*
X89653000Y-100575000D01*
X86360000Y-97282000D02*
X86106000Y-97282000D01*
X89653000Y-100575000D02*
X86360000Y-97282000D01*
%TO.N,/!OE*%
X106250000Y-98300000D02*
X108000000Y-100050000D01*
X108000000Y-100050000D02*
X108000000Y-104775000D01*
D17*
%TO.N,VDD*%
X90200000Y-93625000D02*
X103025000Y-93625000D01*
X127101600Y-91033600D02*
X127101600Y-79933800D01*
X124561600Y-97713800D02*
X124561600Y-93573600D01*
X93550000Y-96975000D02*
X90200000Y-93625000D01*
X103025000Y-93625000D02*
X106275000Y-96875000D01*
X90200000Y-93625000D02*
X82550000Y-93625000D01*
X124561600Y-93573600D02*
X127101600Y-91033600D01*
D18*
%TO.N,Net-(D15-K)*%
X102870000Y-88530000D02*
X102870000Y-77470000D01*
X101725000Y-89675000D02*
X102870000Y-88530000D01*
%TO.N,Net-(D16-K)*%
X103900000Y-90550000D02*
X110490000Y-83960000D01*
X110490000Y-83960000D02*
X110490000Y-77470000D01*
%TO.N,/LATCH*%
X98225000Y-102800000D02*
X98800000Y-102225000D01*
X85250000Y-98500000D02*
X85250000Y-100000000D01*
X85250000Y-100000000D02*
X89825000Y-104575000D01*
X98225000Y-104225000D02*
X98225000Y-102800000D01*
%TO.N,/!OE*%
X99305399Y-96165000D02*
X98640399Y-95500000D01*
X109675000Y-98300000D02*
X111450000Y-96525000D01*
X105350000Y-98300000D02*
X106250000Y-98300000D01*
X90200000Y-96400000D02*
X91525000Y-97725000D01*
X106250000Y-98300000D02*
X109675000Y-98300000D01*
X99305399Y-96165000D02*
X103215000Y-96165000D01*
X103215000Y-96165000D02*
X105350000Y-98300000D01*
X98640399Y-95500000D02*
X93900000Y-95500000D01*
X87150000Y-96400000D02*
X90200000Y-96400000D01*
D17*
%TO.N,/RTC_VBAT*%
X135991600Y-98628200D02*
X137617200Y-97002600D01*
X137617200Y-97002600D02*
X147802600Y-97002600D01*
D18*
%TO.N,Net-(JP1-C)*%
X146228308Y-101092568D02*
X145465740Y-100330000D01*
X145465740Y-100330000D02*
X139065000Y-100330000D01*
%TD*%
%TA.AperFunction,Conductor*%
%TO.N,GND*%
G36*
X132023039Y-66560185D02*
G01*
X132068794Y-66612989D01*
X132080000Y-66664500D01*
X132080000Y-81966204D01*
X132060315Y-82033243D01*
X132007511Y-82078998D01*
X131995159Y-82083858D01*
X131942502Y-82101383D01*
X131942496Y-82101386D01*
X131821462Y-82179171D01*
X131821451Y-82179179D01*
X131768659Y-82224923D01*
X131674433Y-82333664D01*
X131674430Y-82333668D01*
X131614664Y-82464534D01*
X131594976Y-82531582D01*
X131574500Y-82674001D01*
X131574500Y-93350500D01*
X131554815Y-93417539D01*
X131502011Y-93463294D01*
X131450500Y-93474500D01*
X127124000Y-93474500D01*
X127123991Y-93474500D01*
X127123990Y-93474501D01*
X127016549Y-93486052D01*
X127016537Y-93486054D01*
X126965027Y-93497260D01*
X126862502Y-93531383D01*
X126862496Y-93531386D01*
X126741462Y-93609171D01*
X126741451Y-93609179D01*
X126688659Y-93654923D01*
X126594433Y-93763664D01*
X126594430Y-93763668D01*
X126534664Y-93894534D01*
X126514976Y-93961582D01*
X126494500Y-94104001D01*
X126494500Y-100970500D01*
X126474815Y-101037539D01*
X126422011Y-101083294D01*
X126370500Y-101094500D01*
X119504000Y-101094500D01*
X119503991Y-101094500D01*
X119503990Y-101094501D01*
X119396549Y-101106052D01*
X119396537Y-101106054D01*
X119345027Y-101117260D01*
X119242502Y-101151383D01*
X119242496Y-101151386D01*
X119121462Y-101229171D01*
X119121451Y-101229179D01*
X119068659Y-101274923D01*
X118974433Y-101383664D01*
X118974430Y-101383668D01*
X118914664Y-101514534D01*
X118894976Y-101581582D01*
X118874500Y-101724001D01*
X118874500Y-113675500D01*
X118854815Y-113742539D01*
X118802011Y-113788294D01*
X118750500Y-113799500D01*
X80473751Y-113799500D01*
X80466264Y-113799274D01*
X80176205Y-113781728D01*
X80161340Y-113779923D01*
X79879201Y-113728219D01*
X79864663Y-113724635D01*
X79590832Y-113639306D01*
X79576831Y-113633997D01*
X79315263Y-113516275D01*
X79302004Y-113509316D01*
X79056540Y-113360928D01*
X79044217Y-113352422D01*
X78974752Y-113298000D01*
X78818426Y-113175526D01*
X78807218Y-113165596D01*
X78604403Y-112962781D01*
X78594473Y-112951573D01*
X78539225Y-112881054D01*
X78417573Y-112725776D01*
X78409075Y-112713465D01*
X78260680Y-112467989D01*
X78253727Y-112454743D01*
X78136000Y-112193163D01*
X78130693Y-112179167D01*
X78128730Y-112172868D01*
X78045363Y-111905335D01*
X78041780Y-111890798D01*
X77998850Y-111656535D01*
X77990075Y-111608657D01*
X77988271Y-111593794D01*
X77987707Y-111584477D01*
X77970726Y-111303736D01*
X77970500Y-111296249D01*
X77970500Y-111003711D01*
X78794500Y-111003711D01*
X78794500Y-111246288D01*
X78826161Y-111486785D01*
X78888947Y-111721104D01*
X78968425Y-111912979D01*
X78981776Y-111945212D01*
X79103064Y-112155289D01*
X79103066Y-112155292D01*
X79103067Y-112155293D01*
X79250733Y-112347736D01*
X79250739Y-112347743D01*
X79422256Y-112519260D01*
X79422263Y-112519266D01*
X79496168Y-112575975D01*
X79614711Y-112666936D01*
X79824788Y-112788224D01*
X80048900Y-112881054D01*
X80283211Y-112943838D01*
X80463586Y-112967584D01*
X80523711Y-112975500D01*
X80523712Y-112975500D01*
X80766289Y-112975500D01*
X80814388Y-112969167D01*
X81006789Y-112943838D01*
X81241100Y-112881054D01*
X81465212Y-112788224D01*
X81675289Y-112666936D01*
X81867738Y-112519265D01*
X82039265Y-112347738D01*
X82186936Y-112155289D01*
X82308224Y-111945212D01*
X82308227Y-111945205D01*
X82322319Y-111911185D01*
X82322319Y-111911183D01*
X82342085Y-111863465D01*
X82401054Y-111721100D01*
X82463838Y-111486789D01*
X82495500Y-111246288D01*
X82495500Y-111003712D01*
X82480569Y-110890297D01*
X85310000Y-110890297D01*
X85310000Y-111510000D01*
X85926988Y-111510000D01*
X85894075Y-111567007D01*
X85860000Y-111694174D01*
X85860000Y-111825826D01*
X85894075Y-111952993D01*
X85926988Y-112010000D01*
X85310000Y-112010000D01*
X85310000Y-112629702D01*
X85321602Y-112688033D01*
X85321603Y-112688034D01*
X85365808Y-112754191D01*
X85431965Y-112798396D01*
X85431966Y-112798397D01*
X85490297Y-112809999D01*
X85490301Y-112810000D01*
X86110000Y-112810000D01*
X86110000Y-112193012D01*
X86167007Y-112225925D01*
X86294174Y-112260000D01*
X86425826Y-112260000D01*
X86552993Y-112225925D01*
X86610000Y-112193012D01*
X86610000Y-112810000D01*
X87229699Y-112810000D01*
X87229702Y-112809999D01*
X87288033Y-112798397D01*
X87288034Y-112798396D01*
X87354191Y-112754191D01*
X87398396Y-112688034D01*
X87398397Y-112688033D01*
X87409999Y-112629702D01*
X87410000Y-112629699D01*
X87410000Y-112010000D01*
X86793012Y-112010000D01*
X86825925Y-111952993D01*
X86860000Y-111825826D01*
X86860000Y-111694174D01*
X86825925Y-111567007D01*
X86793012Y-111510000D01*
X87410000Y-111510000D01*
X87410000Y-110890301D01*
X87409999Y-110890297D01*
X87398397Y-110831966D01*
X87398396Y-110831965D01*
X87354191Y-110765808D01*
X87288034Y-110721603D01*
X87288033Y-110721602D01*
X87229702Y-110710000D01*
X86610000Y-110710000D01*
X86610000Y-111326988D01*
X86552993Y-111294075D01*
X86425826Y-111260000D01*
X86294174Y-111260000D01*
X86167007Y-111294075D01*
X86110000Y-111326988D01*
X86110000Y-110710000D01*
X85490297Y-110710000D01*
X85431966Y-110721602D01*
X85431965Y-110721603D01*
X85365808Y-110765808D01*
X85321603Y-110831965D01*
X85321602Y-110831966D01*
X85310000Y-110890297D01*
X82480569Y-110890297D01*
X82463838Y-110763211D01*
X82401054Y-110528900D01*
X82308224Y-110304788D01*
X82186936Y-110094711D01*
X82039265Y-109902262D01*
X82039260Y-109902256D01*
X81867743Y-109730739D01*
X81867736Y-109730733D01*
X81675293Y-109583067D01*
X81675292Y-109583066D01*
X81675289Y-109583064D01*
X81465212Y-109461776D01*
X81465205Y-109461773D01*
X81241104Y-109368947D01*
X81006785Y-109306161D01*
X80766289Y-109274500D01*
X80766288Y-109274500D01*
X80523712Y-109274500D01*
X80523711Y-109274500D01*
X80283214Y-109306161D01*
X80048895Y-109368947D01*
X79824794Y-109461773D01*
X79824785Y-109461777D01*
X79614706Y-109583067D01*
X79422263Y-109730733D01*
X79422256Y-109730739D01*
X79250739Y-109902256D01*
X79250733Y-109902263D01*
X79103067Y-110094706D01*
X78981777Y-110304785D01*
X78981773Y-110304794D01*
X78888947Y-110528895D01*
X78826161Y-110763214D01*
X78794500Y-111003711D01*
X77970500Y-111003711D01*
X77970500Y-97216108D01*
X85605500Y-97216108D01*
X85605500Y-97347892D01*
X85614752Y-97382420D01*
X85639608Y-97475187D01*
X85639789Y-97475500D01*
X85705500Y-97589314D01*
X85798686Y-97682500D01*
X85897521Y-97739563D01*
X85902920Y-97742680D01*
X85912814Y-97748392D01*
X86040108Y-97782500D01*
X86040110Y-97782500D01*
X86171890Y-97782500D01*
X86171892Y-97782500D01*
X86299186Y-97748392D01*
X86299187Y-97748391D01*
X86307037Y-97746288D01*
X86307706Y-97748785D01*
X86364367Y-97742680D01*
X86426855Y-97773938D01*
X86430063Y-97777034D01*
X89412540Y-100759511D01*
X89468489Y-100815460D01*
X89468491Y-100815461D01*
X89468495Y-100815464D01*
X89495649Y-100831141D01*
X89537011Y-100855021D01*
X89613438Y-100875500D01*
X89692562Y-100875500D01*
X90016324Y-100875500D01*
X90083363Y-100895185D01*
X90104005Y-100911819D01*
X90167686Y-100975500D01*
X90281814Y-101041392D01*
X90409108Y-101075500D01*
X90409110Y-101075500D01*
X90540890Y-101075500D01*
X90540892Y-101075500D01*
X90668186Y-101041392D01*
X90782314Y-100975500D01*
X90875500Y-100882314D01*
X90941392Y-100768186D01*
X90975500Y-100640892D01*
X90975500Y-100509108D01*
X90941392Y-100381814D01*
X90875500Y-100267686D01*
X90782314Y-100174500D01*
X90709890Y-100132686D01*
X90668187Y-100108608D01*
X90604539Y-100091554D01*
X90540892Y-100074500D01*
X90409108Y-100074500D01*
X90281812Y-100108608D01*
X90167686Y-100174500D01*
X90167683Y-100174502D01*
X90104005Y-100238181D01*
X90077077Y-100252884D01*
X90051259Y-100269477D01*
X90045058Y-100270368D01*
X90042682Y-100271666D01*
X90016324Y-100274500D01*
X89828833Y-100274500D01*
X89761794Y-100254815D01*
X89741152Y-100238181D01*
X86557444Y-97054473D01*
X86537737Y-97028791D01*
X86506500Y-96974686D01*
X86413314Y-96881500D01*
X86342981Y-96840893D01*
X86299187Y-96815608D01*
X86225802Y-96795945D01*
X86171892Y-96781500D01*
X86040108Y-96781500D01*
X85912812Y-96815608D01*
X85798686Y-96881500D01*
X85798683Y-96881502D01*
X85705502Y-96974683D01*
X85705500Y-96974686D01*
X85639608Y-97088812D01*
X85615398Y-97179167D01*
X85605500Y-97216108D01*
X77970500Y-97216108D01*
X77970500Y-96334108D01*
X86649500Y-96334108D01*
X86649500Y-96465892D01*
X86657159Y-96494475D01*
X86683608Y-96593187D01*
X86701937Y-96624933D01*
X86749500Y-96707314D01*
X86842686Y-96800500D01*
X86941521Y-96857563D01*
X86955956Y-96865897D01*
X86956814Y-96866392D01*
X87084108Y-96900500D01*
X87084110Y-96900500D01*
X87215890Y-96900500D01*
X87215892Y-96900500D01*
X87343186Y-96866392D01*
X87457314Y-96800500D01*
X87520995Y-96736819D01*
X87582318Y-96703334D01*
X87608676Y-96700500D01*
X90024167Y-96700500D01*
X90091206Y-96720185D01*
X90111848Y-96736819D01*
X90988181Y-97613152D01*
X91021666Y-97674475D01*
X91024500Y-97700833D01*
X91024500Y-97790892D01*
X91027051Y-97800411D01*
X91058608Y-97918187D01*
X91091554Y-97975250D01*
X91124500Y-98032314D01*
X91217686Y-98125500D01*
X91331814Y-98191392D01*
X91459108Y-98225500D01*
X91459110Y-98225500D01*
X91590890Y-98225500D01*
X91590892Y-98225500D01*
X91718186Y-98191392D01*
X91832314Y-98125500D01*
X91925500Y-98032314D01*
X91991392Y-97918186D01*
X92025500Y-97790892D01*
X92025500Y-97659108D01*
X91991392Y-97531814D01*
X91925500Y-97417686D01*
X91832314Y-97324500D01*
X91774900Y-97291352D01*
X91718187Y-97258608D01*
X91605790Y-97228492D01*
X91590892Y-97224500D01*
X91500833Y-97224500D01*
X91433794Y-97204815D01*
X91413152Y-97188181D01*
X90384512Y-96159541D01*
X90384511Y-96159540D01*
X90362432Y-96146793D01*
X90362432Y-96146791D01*
X90362429Y-96146791D01*
X90315994Y-96119981D01*
X90315991Y-96119979D01*
X90277775Y-96109739D01*
X90239562Y-96099500D01*
X90239560Y-96099500D01*
X87608676Y-96099500D01*
X87541637Y-96079815D01*
X87520995Y-96063181D01*
X87457316Y-95999502D01*
X87457314Y-95999500D01*
X87399968Y-95966391D01*
X87343187Y-95933608D01*
X87279539Y-95916554D01*
X87215892Y-95899500D01*
X87084108Y-95899500D01*
X86956812Y-95933608D01*
X86842686Y-95999500D01*
X86842683Y-95999502D01*
X86749502Y-96092683D01*
X86749500Y-96092686D01*
X86683608Y-96206812D01*
X86677156Y-96230892D01*
X86649500Y-96334108D01*
X77970500Y-96334108D01*
X77970500Y-93545943D01*
X81949500Y-93545943D01*
X81949500Y-93704057D01*
X81972758Y-93790855D01*
X81990423Y-93856783D01*
X81990426Y-93856790D01*
X82069475Y-93993709D01*
X82069479Y-93993714D01*
X82069480Y-93993716D01*
X82181284Y-94105520D01*
X82181286Y-94105521D01*
X82181290Y-94105524D01*
X82303114Y-94175858D01*
X82318216Y-94184577D01*
X82470943Y-94225500D01*
X82470945Y-94225500D01*
X82629055Y-94225500D01*
X82629057Y-94225500D01*
X82781784Y-94184577D01*
X82918716Y-94105520D01*
X82962417Y-94061819D01*
X83023740Y-94028334D01*
X83050098Y-94025500D01*
X89982745Y-94025500D01*
X90049784Y-94045185D01*
X90070426Y-94061819D01*
X92913181Y-96904574D01*
X92946666Y-96965897D01*
X92949500Y-96992255D01*
X92949500Y-97054057D01*
X92989896Y-97204815D01*
X92990423Y-97206783D01*
X92990426Y-97206790D01*
X93069475Y-97343709D01*
X93069481Y-97343717D01*
X93113181Y-97387417D01*
X93146666Y-97448740D01*
X93149500Y-97475098D01*
X93149500Y-99357745D01*
X93129815Y-99424784D01*
X93113181Y-99445426D01*
X91119522Y-101439084D01*
X91119518Y-101439090D01*
X91066792Y-101530412D01*
X91066793Y-101530413D01*
X91039500Y-101632273D01*
X91039500Y-103922744D01*
X91019815Y-103989783D01*
X91003181Y-104010425D01*
X90515194Y-104498411D01*
X90453871Y-104531896D01*
X90384179Y-104526912D01*
X90328246Y-104485040D01*
X90307739Y-104442826D01*
X90291392Y-104381814D01*
X90225500Y-104267686D01*
X90132314Y-104174500D01*
X90074100Y-104140890D01*
X90018187Y-104108608D01*
X89954539Y-104091554D01*
X89890892Y-104074500D01*
X89800833Y-104074500D01*
X89733794Y-104054815D01*
X89713152Y-104038181D01*
X85586819Y-99911848D01*
X85553334Y-99850525D01*
X85550500Y-99824167D01*
X85550500Y-98958676D01*
X85570185Y-98891637D01*
X85586819Y-98870995D01*
X85650500Y-98807314D01*
X85716392Y-98693186D01*
X85750500Y-98565892D01*
X85750500Y-98434108D01*
X85716392Y-98306814D01*
X85650500Y-98192686D01*
X85557314Y-98099500D01*
X85487007Y-98058908D01*
X85443187Y-98033608D01*
X85379539Y-98016554D01*
X85315892Y-97999500D01*
X85184108Y-97999500D01*
X85056812Y-98033608D01*
X84942686Y-98099500D01*
X84942683Y-98099502D01*
X84849502Y-98192683D01*
X84849500Y-98192686D01*
X84783608Y-98306812D01*
X84749500Y-98434108D01*
X84749500Y-98565891D01*
X84783608Y-98693187D01*
X84806982Y-98733671D01*
X84849500Y-98807314D01*
X84849502Y-98807316D01*
X84913181Y-98870995D01*
X84946666Y-98932318D01*
X84949500Y-98958676D01*
X84949500Y-100039562D01*
X84951316Y-100046338D01*
X84969979Y-100115991D01*
X84969981Y-100115994D01*
X84998844Y-100165985D01*
X84998844Y-100165988D01*
X84998846Y-100165988D01*
X85003761Y-100174502D01*
X85009539Y-100184509D01*
X85009541Y-100184512D01*
X89288181Y-104463152D01*
X89321666Y-104524475D01*
X89324500Y-104550833D01*
X89324500Y-104640891D01*
X89358608Y-104768187D01*
X89391554Y-104825250D01*
X89424500Y-104882314D01*
X89517686Y-104975500D01*
X89631814Y-105041392D01*
X89692824Y-105057739D01*
X89752483Y-105094102D01*
X89783013Y-105156948D01*
X89774719Y-105226324D01*
X89748411Y-105265194D01*
X88579522Y-106434084D01*
X88579520Y-106434087D01*
X88526793Y-106525412D01*
X88499621Y-106626821D01*
X88499617Y-106626836D01*
X88499616Y-106626835D01*
X88499500Y-106627267D01*
X88499500Y-110705985D01*
X88479815Y-110773024D01*
X88427011Y-110818779D01*
X88422954Y-110820546D01*
X88402402Y-110829059D01*
X88402395Y-110829062D01*
X88230344Y-110944022D01*
X88084024Y-111090342D01*
X87969058Y-111262403D01*
X87889870Y-111453579D01*
X87889868Y-111453587D01*
X87849500Y-111656530D01*
X87849500Y-111863469D01*
X87889868Y-112066412D01*
X87889870Y-112066420D01*
X87955939Y-112225925D01*
X87969059Y-112257598D01*
X88017138Y-112329554D01*
X88084024Y-112429657D01*
X88230342Y-112575975D01*
X88230345Y-112575977D01*
X88402402Y-112690941D01*
X88593580Y-112770130D01*
X88794016Y-112809999D01*
X88796530Y-112810499D01*
X88796534Y-112810500D01*
X88796535Y-112810500D01*
X89003466Y-112810500D01*
X89003467Y-112810499D01*
X89206420Y-112770130D01*
X89397598Y-112690941D01*
X89569655Y-112575977D01*
X89715977Y-112429655D01*
X89830941Y-112257598D01*
X89910130Y-112066420D01*
X89950500Y-111863465D01*
X89950500Y-111656535D01*
X89950499Y-111656530D01*
X90389500Y-111656530D01*
X90389500Y-111863469D01*
X90429868Y-112066412D01*
X90429870Y-112066420D01*
X90495939Y-112225925D01*
X90509059Y-112257598D01*
X90557138Y-112329554D01*
X90624024Y-112429657D01*
X90770342Y-112575975D01*
X90770345Y-112575977D01*
X90942402Y-112690941D01*
X91133580Y-112770130D01*
X91334016Y-112809999D01*
X91336530Y-112810499D01*
X91336534Y-112810500D01*
X91336535Y-112810500D01*
X91543466Y-112810500D01*
X91543467Y-112810499D01*
X91746420Y-112770130D01*
X91937598Y-112690941D01*
X92109655Y-112575977D01*
X92255977Y-112429655D01*
X92370941Y-112257598D01*
X92450130Y-112066420D01*
X92490500Y-111863465D01*
X92490500Y-111656535D01*
X92490499Y-111656530D01*
X92929500Y-111656530D01*
X92929500Y-111863469D01*
X92969868Y-112066412D01*
X92969870Y-112066420D01*
X93035939Y-112225925D01*
X93049059Y-112257598D01*
X93097138Y-112329554D01*
X93164024Y-112429657D01*
X93310342Y-112575975D01*
X93310345Y-112575977D01*
X93482402Y-112690941D01*
X93673580Y-112770130D01*
X93874016Y-112809999D01*
X93876530Y-112810499D01*
X93876534Y-112810500D01*
X93876535Y-112810500D01*
X94083466Y-112810500D01*
X94083467Y-112810499D01*
X94286420Y-112770130D01*
X94477598Y-112690941D01*
X94649655Y-112575977D01*
X94795977Y-112429655D01*
X94910941Y-112257598D01*
X94990130Y-112066420D01*
X95030500Y-111863465D01*
X95030500Y-111656535D01*
X95030499Y-111656530D01*
X95469500Y-111656530D01*
X95469500Y-111863469D01*
X95509868Y-112066412D01*
X95509870Y-112066420D01*
X95575939Y-112225925D01*
X95589059Y-112257598D01*
X95637138Y-112329554D01*
X95704024Y-112429657D01*
X95850342Y-112575975D01*
X95850345Y-112575977D01*
X96022402Y-112690941D01*
X96213580Y-112770130D01*
X96414016Y-112809999D01*
X96416530Y-112810499D01*
X96416534Y-112810500D01*
X96416535Y-112810500D01*
X96623466Y-112810500D01*
X96623467Y-112810499D01*
X96826420Y-112770130D01*
X97017598Y-112690941D01*
X97189655Y-112575977D01*
X97335977Y-112429655D01*
X97450941Y-112257598D01*
X97530130Y-112066420D01*
X97570500Y-111863465D01*
X97570500Y-111656535D01*
X97570499Y-111656530D01*
X98009500Y-111656530D01*
X98009500Y-111863469D01*
X98049868Y-112066412D01*
X98049870Y-112066420D01*
X98115939Y-112225925D01*
X98129059Y-112257598D01*
X98177138Y-112329554D01*
X98244024Y-112429657D01*
X98390342Y-112575975D01*
X98390345Y-112575977D01*
X98562402Y-112690941D01*
X98753580Y-112770130D01*
X98954016Y-112809999D01*
X98956530Y-112810499D01*
X98956534Y-112810500D01*
X98956535Y-112810500D01*
X99163466Y-112810500D01*
X99163467Y-112810499D01*
X99366420Y-112770130D01*
X99557598Y-112690941D01*
X99729655Y-112575977D01*
X99875977Y-112429655D01*
X99990941Y-112257598D01*
X100070130Y-112066420D01*
X100110500Y-111863465D01*
X100110500Y-111656535D01*
X100110499Y-111656530D01*
X100549500Y-111656530D01*
X100549500Y-111863469D01*
X100589868Y-112066412D01*
X100589870Y-112066420D01*
X100655939Y-112225925D01*
X100669059Y-112257598D01*
X100717138Y-112329554D01*
X100784024Y-112429657D01*
X100930342Y-112575975D01*
X100930345Y-112575977D01*
X101102402Y-112690941D01*
X101293580Y-112770130D01*
X101494016Y-112809999D01*
X101496530Y-112810499D01*
X101496534Y-112810500D01*
X101496535Y-112810500D01*
X101703466Y-112810500D01*
X101703467Y-112810499D01*
X101906420Y-112770130D01*
X102097598Y-112690941D01*
X102269655Y-112575977D01*
X102415977Y-112429655D01*
X102530941Y-112257598D01*
X102580875Y-112137046D01*
X102624716Y-112082644D01*
X102691010Y-112060579D01*
X102695436Y-112060500D01*
X103044564Y-112060500D01*
X103111603Y-112080185D01*
X103157358Y-112132989D01*
X103159121Y-112137039D01*
X103176572Y-112179167D01*
X103195939Y-112225925D01*
X103209059Y-112257598D01*
X103257138Y-112329554D01*
X103324024Y-112429657D01*
X103470342Y-112575975D01*
X103470345Y-112575977D01*
X103642402Y-112690941D01*
X103833580Y-112770130D01*
X104034016Y-112809999D01*
X104036530Y-112810499D01*
X104036534Y-112810500D01*
X104036535Y-112810500D01*
X104243466Y-112810500D01*
X104243467Y-112810499D01*
X104446420Y-112770130D01*
X104637598Y-112690941D01*
X104809655Y-112575977D01*
X104955977Y-112429655D01*
X105070941Y-112257598D01*
X105150130Y-112066420D01*
X105181008Y-111911185D01*
X105189139Y-111870309D01*
X105221524Y-111808398D01*
X105282239Y-111773824D01*
X105310756Y-111770500D01*
X107422569Y-111770500D01*
X107489608Y-111790185D01*
X107535363Y-111842989D01*
X107540500Y-111856181D01*
X107576454Y-111966836D01*
X107661114Y-112132989D01*
X107662240Y-112135199D01*
X107773310Y-112288073D01*
X107906927Y-112421690D01*
X108059801Y-112532760D01*
X108139347Y-112573290D01*
X108228163Y-112618545D01*
X108228165Y-112618545D01*
X108228168Y-112618547D01*
X108324497Y-112649846D01*
X108407881Y-112676940D01*
X108594514Y-112706500D01*
X108594519Y-112706500D01*
X108783486Y-112706500D01*
X108970118Y-112676940D01*
X109000919Y-112666932D01*
X109149832Y-112618547D01*
X109318199Y-112532760D01*
X109471073Y-112421690D01*
X109604690Y-112288073D01*
X109715760Y-112135199D01*
X109801547Y-111966832D01*
X109837500Y-111856181D01*
X109876938Y-111798506D01*
X109941297Y-111771308D01*
X109955431Y-111770500D01*
X113922569Y-111770500D01*
X113989608Y-111790185D01*
X114035363Y-111842989D01*
X114040500Y-111856181D01*
X114076454Y-111966836D01*
X114161114Y-112132989D01*
X114162240Y-112135199D01*
X114273310Y-112288073D01*
X114406927Y-112421690D01*
X114559801Y-112532760D01*
X114639347Y-112573290D01*
X114728163Y-112618545D01*
X114728165Y-112618545D01*
X114728168Y-112618547D01*
X114824497Y-112649846D01*
X114907881Y-112676940D01*
X115094514Y-112706500D01*
X115094519Y-112706500D01*
X115283486Y-112706500D01*
X115470118Y-112676940D01*
X115500919Y-112666932D01*
X115649832Y-112618547D01*
X115818199Y-112532760D01*
X115971073Y-112421690D01*
X116104690Y-112288073D01*
X116215760Y-112135199D01*
X116301547Y-111966832D01*
X116359940Y-111787118D01*
X116370395Y-111721107D01*
X116389500Y-111600486D01*
X116389500Y-111411513D01*
X116359940Y-111224881D01*
X116316224Y-111090339D01*
X116301547Y-111045168D01*
X116301545Y-111045165D01*
X116301545Y-111045163D01*
X116235223Y-110915000D01*
X116215760Y-110876801D01*
X116104690Y-110723927D01*
X115971073Y-110590310D01*
X115818199Y-110479240D01*
X115649836Y-110393454D01*
X115470118Y-110335059D01*
X115283486Y-110305500D01*
X115283481Y-110305500D01*
X115094519Y-110305500D01*
X115094514Y-110305500D01*
X114907881Y-110335059D01*
X114728163Y-110393454D01*
X114559800Y-110479240D01*
X114491537Y-110528837D01*
X114406927Y-110590310D01*
X114406925Y-110590312D01*
X114406924Y-110590312D01*
X114273312Y-110723924D01*
X114273312Y-110723925D01*
X114273310Y-110723927D01*
X114244766Y-110763214D01*
X114162240Y-110876800D01*
X114076454Y-111045163D01*
X114063895Y-111083819D01*
X114024457Y-111141494D01*
X113960098Y-111168692D01*
X113945964Y-111169500D01*
X109932036Y-111169500D01*
X109864997Y-111149815D01*
X109819242Y-111097011D01*
X109814105Y-111083819D01*
X109801545Y-111045163D01*
X109735223Y-110915000D01*
X109715760Y-110876801D01*
X109604690Y-110723927D01*
X109471073Y-110590310D01*
X109318199Y-110479240D01*
X109149836Y-110393454D01*
X108970118Y-110335059D01*
X108783486Y-110305500D01*
X108783481Y-110305500D01*
X108594519Y-110305500D01*
X108594514Y-110305500D01*
X108407881Y-110335059D01*
X108228163Y-110393454D01*
X108059800Y-110479240D01*
X107991537Y-110528837D01*
X107906927Y-110590310D01*
X107906925Y-110590312D01*
X107906924Y-110590312D01*
X107773312Y-110723924D01*
X107773312Y-110723925D01*
X107773310Y-110723927D01*
X107744766Y-110763214D01*
X107662240Y-110876800D01*
X107576454Y-111045163D01*
X107563895Y-111083819D01*
X107524457Y-111141494D01*
X107460098Y-111168692D01*
X107445964Y-111169500D01*
X105075146Y-111169500D01*
X105008107Y-111149815D01*
X104972044Y-111114391D01*
X104960431Y-111097011D01*
X104955977Y-111090345D01*
X104955974Y-111090342D01*
X104955972Y-111090339D01*
X104809657Y-110944024D01*
X104686950Y-110862035D01*
X104637598Y-110829059D01*
X104446420Y-110749870D01*
X104446412Y-110749868D01*
X104243469Y-110709500D01*
X104243465Y-110709500D01*
X104036535Y-110709500D01*
X104036530Y-110709500D01*
X103833587Y-110749868D01*
X103833579Y-110749870D01*
X103642403Y-110829058D01*
X103470342Y-110944024D01*
X103324024Y-111090342D01*
X103209058Y-111262403D01*
X103188721Y-111311501D01*
X103159721Y-111381515D01*
X103159125Y-111382953D01*
X103115284Y-111437356D01*
X103048990Y-111459421D01*
X103044564Y-111459500D01*
X102695436Y-111459500D01*
X102628397Y-111439815D01*
X102582642Y-111387011D01*
X102580875Y-111382953D01*
X102530941Y-111262402D01*
X102415977Y-111090345D01*
X102415975Y-111090342D01*
X102269657Y-110944024D01*
X102146950Y-110862035D01*
X102097598Y-110829059D01*
X101906420Y-110749870D01*
X101906412Y-110749868D01*
X101703469Y-110709500D01*
X101703465Y-110709500D01*
X101496535Y-110709500D01*
X101496530Y-110709500D01*
X101293587Y-110749868D01*
X101293579Y-110749870D01*
X101102403Y-110829058D01*
X100930342Y-110944024D01*
X100784024Y-111090342D01*
X100669058Y-111262403D01*
X100589870Y-111453579D01*
X100589868Y-111453587D01*
X100549500Y-111656530D01*
X100110499Y-111656530D01*
X100070130Y-111453580D01*
X99990941Y-111262402D01*
X99875977Y-111090345D01*
X99875975Y-111090342D01*
X99729657Y-110944024D01*
X99606950Y-110862035D01*
X99557598Y-110829059D01*
X99366420Y-110749870D01*
X99366412Y-110749868D01*
X99163469Y-110709500D01*
X99163465Y-110709500D01*
X98956535Y-110709500D01*
X98956530Y-110709500D01*
X98753587Y-110749868D01*
X98753579Y-110749870D01*
X98562403Y-110829058D01*
X98390342Y-110944024D01*
X98244024Y-111090342D01*
X98129058Y-111262403D01*
X98049870Y-111453579D01*
X98049868Y-111453587D01*
X98009500Y-111656530D01*
X97570499Y-111656530D01*
X97530130Y-111453580D01*
X97450941Y-111262402D01*
X97335977Y-111090345D01*
X97335975Y-111090342D01*
X97189657Y-110944024D01*
X97066950Y-110862035D01*
X97017598Y-110829059D01*
X96826420Y-110749870D01*
X96826412Y-110749868D01*
X96623469Y-110709500D01*
X96623465Y-110709500D01*
X96416535Y-110709500D01*
X96416530Y-110709500D01*
X96213587Y-110749868D01*
X96213579Y-110749870D01*
X96022403Y-110829058D01*
X95850342Y-110944024D01*
X95704024Y-111090342D01*
X95589058Y-111262403D01*
X95509870Y-111453579D01*
X95509868Y-111453587D01*
X95469500Y-111656530D01*
X95030499Y-111656530D01*
X94990130Y-111453580D01*
X94910941Y-111262402D01*
X94795977Y-111090345D01*
X94795975Y-111090342D01*
X94649657Y-110944024D01*
X94526950Y-110862035D01*
X94477598Y-110829059D01*
X94286420Y-110749870D01*
X94286412Y-110749868D01*
X94083469Y-110709500D01*
X94083465Y-110709500D01*
X93876535Y-110709500D01*
X93876530Y-110709500D01*
X93673587Y-110749868D01*
X93673579Y-110749870D01*
X93482403Y-110829058D01*
X93310342Y-110944024D01*
X93164024Y-111090342D01*
X93049058Y-111262403D01*
X92969870Y-111453579D01*
X92969868Y-111453587D01*
X92929500Y-111656530D01*
X92490499Y-111656530D01*
X92450130Y-111453580D01*
X92370941Y-111262402D01*
X92255977Y-111090345D01*
X92255975Y-111090342D01*
X92109657Y-110944024D01*
X91986950Y-110862035D01*
X91937598Y-110829059D01*
X91746420Y-110749870D01*
X91746412Y-110749868D01*
X91543469Y-110709500D01*
X91543465Y-110709500D01*
X91336535Y-110709500D01*
X91336530Y-110709500D01*
X91133587Y-110749868D01*
X91133579Y-110749870D01*
X90942403Y-110829058D01*
X90770342Y-110944024D01*
X90624024Y-111090342D01*
X90509058Y-111262403D01*
X90429870Y-111453579D01*
X90429868Y-111453587D01*
X90389500Y-111656530D01*
X89950499Y-111656530D01*
X89910130Y-111453580D01*
X89830941Y-111262402D01*
X89715977Y-111090345D01*
X89715975Y-111090342D01*
X89569655Y-110944022D01*
X89397604Y-110829062D01*
X89397599Y-110829060D01*
X89397598Y-110829059D01*
X89377045Y-110820545D01*
X89322643Y-110776704D01*
X89300579Y-110710410D01*
X89300500Y-110705985D01*
X89300500Y-106897255D01*
X89320185Y-106830216D01*
X89336819Y-106809574D01*
X90340893Y-105805500D01*
X91760480Y-104385913D01*
X91793288Y-104329087D01*
X91813207Y-104294587D01*
X91840500Y-104192727D01*
X91840500Y-104159108D01*
X97724500Y-104159108D01*
X97724500Y-104290892D01*
X97731314Y-104316323D01*
X97758608Y-104418187D01*
X97784569Y-104463152D01*
X97824500Y-104532314D01*
X97917686Y-104625500D01*
X98031814Y-104691392D01*
X98159108Y-104725500D01*
X98159110Y-104725500D01*
X98290890Y-104725500D01*
X98290892Y-104725500D01*
X98418186Y-104691392D01*
X98532314Y-104625500D01*
X98625500Y-104532314D01*
X98691392Y-104418186D01*
X98725500Y-104290892D01*
X98725500Y-104159108D01*
X98691392Y-104031814D01*
X98625500Y-103917686D01*
X98561818Y-103854004D01*
X98528334Y-103792680D01*
X98525500Y-103766323D01*
X98525500Y-102975832D01*
X98534144Y-102946391D01*
X98540668Y-102916405D01*
X98544422Y-102911389D01*
X98545185Y-102908793D01*
X98561815Y-102888155D01*
X98688151Y-102761818D01*
X98749474Y-102728334D01*
X98775832Y-102725500D01*
X98865890Y-102725500D01*
X98865892Y-102725500D01*
X98993186Y-102691392D01*
X99107314Y-102625500D01*
X99170995Y-102561819D01*
X99232318Y-102528334D01*
X99258676Y-102525500D01*
X103399167Y-102525500D01*
X103466206Y-102545185D01*
X103486848Y-102561819D01*
X105430681Y-104505652D01*
X105464166Y-104566975D01*
X105467000Y-104593333D01*
X105467000Y-108220062D01*
X105476407Y-108255167D01*
X105487479Y-108296490D01*
X105487482Y-108296495D01*
X105527035Y-108365004D01*
X105527039Y-108365009D01*
X105527040Y-108365011D01*
X106368489Y-109206460D01*
X106427829Y-109240720D01*
X106437008Y-109246020D01*
X106437012Y-109246022D01*
X106513438Y-109266500D01*
X106513440Y-109266500D01*
X110529560Y-109266500D01*
X110529562Y-109266500D01*
X110605989Y-109246021D01*
X110674511Y-109206460D01*
X110730460Y-109150511D01*
X111265460Y-108615511D01*
X111305021Y-108546989D01*
X111325500Y-108470562D01*
X111325500Y-106911513D01*
X113988500Y-106911513D01*
X113988500Y-107100486D01*
X114018059Y-107287118D01*
X114076454Y-107466836D01*
X114162240Y-107635199D01*
X114273310Y-107788073D01*
X114406927Y-107921690D01*
X114559801Y-108032760D01*
X114639347Y-108073290D01*
X114728163Y-108118545D01*
X114728165Y-108118545D01*
X114728168Y-108118547D01*
X114824497Y-108149846D01*
X114907881Y-108176940D01*
X115094514Y-108206500D01*
X115094519Y-108206500D01*
X115283486Y-108206500D01*
X115470118Y-108176940D01*
X115649832Y-108118547D01*
X115818199Y-108032760D01*
X115971073Y-107921690D01*
X116104690Y-107788073D01*
X116215760Y-107635199D01*
X116301547Y-107466832D01*
X116359940Y-107287118D01*
X116389500Y-107100486D01*
X116389500Y-106911513D01*
X116359940Y-106724881D01*
X116301545Y-106545163D01*
X116256290Y-106456347D01*
X116215760Y-106376801D01*
X116104690Y-106223927D01*
X115971073Y-106090310D01*
X115818199Y-105979240D01*
X115649836Y-105893454D01*
X115470118Y-105835059D01*
X115283486Y-105805500D01*
X115283481Y-105805500D01*
X115094519Y-105805500D01*
X115094514Y-105805500D01*
X114907881Y-105835059D01*
X114728163Y-105893454D01*
X114559800Y-105979240D01*
X114472579Y-106042610D01*
X114406927Y-106090310D01*
X114406925Y-106090312D01*
X114406924Y-106090312D01*
X114273312Y-106223924D01*
X114273312Y-106223925D01*
X114273310Y-106223927D01*
X114225610Y-106289579D01*
X114162240Y-106376800D01*
X114076454Y-106545163D01*
X114018059Y-106724881D01*
X113988500Y-106911513D01*
X111325500Y-106911513D01*
X111325500Y-104533676D01*
X111345185Y-104466637D01*
X111361819Y-104445995D01*
X111389628Y-104418186D01*
X111425500Y-104382314D01*
X111491392Y-104268186D01*
X111525500Y-104140892D01*
X111525500Y-104009108D01*
X111491392Y-103881814D01*
X111425500Y-103767686D01*
X111332314Y-103674500D01*
X111275250Y-103641554D01*
X111218187Y-103608608D01*
X111154539Y-103591554D01*
X111090892Y-103574500D01*
X110959108Y-103574500D01*
X110831812Y-103608608D01*
X110717686Y-103674500D01*
X110717683Y-103674502D01*
X110624502Y-103767683D01*
X110624500Y-103767686D01*
X110558608Y-103881812D01*
X110548996Y-103917686D01*
X110524500Y-104009108D01*
X110524500Y-104140892D01*
X110533505Y-104174500D01*
X110558608Y-104268187D01*
X110577844Y-104301504D01*
X110624500Y-104382314D01*
X110624502Y-104382316D01*
X110688181Y-104445995D01*
X110721666Y-104507318D01*
X110724500Y-104533676D01*
X110724500Y-108255167D01*
X110704815Y-108322206D01*
X110688181Y-108342848D01*
X110401848Y-108629181D01*
X110340525Y-108662666D01*
X110314167Y-108665500D01*
X106728833Y-108665500D01*
X106661794Y-108645815D01*
X106641152Y-108629181D01*
X106104319Y-108092348D01*
X106070834Y-108031025D01*
X106068000Y-108004667D01*
X106068000Y-106911513D01*
X107488500Y-106911513D01*
X107488500Y-107100486D01*
X107518059Y-107287118D01*
X107576454Y-107466836D01*
X107662240Y-107635199D01*
X107773310Y-107788073D01*
X107906927Y-107921690D01*
X108059801Y-108032760D01*
X108139347Y-108073290D01*
X108228163Y-108118545D01*
X108228165Y-108118545D01*
X108228168Y-108118547D01*
X108324497Y-108149846D01*
X108407881Y-108176940D01*
X108594514Y-108206500D01*
X108594519Y-108206500D01*
X108783486Y-108206500D01*
X108970118Y-108176940D01*
X109149832Y-108118547D01*
X109318199Y-108032760D01*
X109471073Y-107921690D01*
X109604690Y-107788073D01*
X109715760Y-107635199D01*
X109801547Y-107466832D01*
X109859940Y-107287118D01*
X109889500Y-107100486D01*
X109889500Y-106911513D01*
X109859940Y-106724881D01*
X109801545Y-106545163D01*
X109756290Y-106456347D01*
X109715760Y-106376801D01*
X109604690Y-106223927D01*
X109471073Y-106090310D01*
X109318199Y-105979240D01*
X109149836Y-105893454D01*
X108970118Y-105835059D01*
X108783486Y-105805500D01*
X108783481Y-105805500D01*
X108594519Y-105805500D01*
X108594514Y-105805500D01*
X108407881Y-105835059D01*
X108228163Y-105893454D01*
X108059800Y-105979240D01*
X107972579Y-106042610D01*
X107906927Y-106090310D01*
X107906925Y-106090312D01*
X107906924Y-106090312D01*
X107773312Y-106223924D01*
X107773312Y-106223925D01*
X107773310Y-106223927D01*
X107725610Y-106289579D01*
X107662240Y-106376800D01*
X107576454Y-106545163D01*
X107518059Y-106724881D01*
X107488500Y-106911513D01*
X106068000Y-106911513D01*
X106068000Y-104377939D01*
X106068000Y-104377938D01*
X106047521Y-104301511D01*
X106047517Y-104301504D01*
X106007964Y-104232995D01*
X106007958Y-104232987D01*
X103759510Y-101984539D01*
X103751354Y-101979831D01*
X103735042Y-101970413D01*
X103735041Y-101970412D01*
X103713015Y-101957696D01*
X103690990Y-101944979D01*
X103665513Y-101938152D01*
X103614562Y-101924500D01*
X103614560Y-101924500D01*
X99258676Y-101924500D01*
X99191637Y-101904815D01*
X99170995Y-101888181D01*
X99107316Y-101824502D01*
X99107314Y-101824500D01*
X99050250Y-101791554D01*
X98993187Y-101758608D01*
X98929539Y-101741554D01*
X98865892Y-101724500D01*
X98734108Y-101724500D01*
X98606812Y-101758608D01*
X98492686Y-101824500D01*
X98492683Y-101824502D01*
X98399502Y-101917683D01*
X98399500Y-101917686D01*
X98333608Y-102031812D01*
X98299500Y-102159108D01*
X98299500Y-102249166D01*
X98279815Y-102316205D01*
X98263181Y-102336847D01*
X98040489Y-102559540D01*
X97984541Y-102615487D01*
X97984535Y-102615495D01*
X97944982Y-102684004D01*
X97944979Y-102684009D01*
X97924500Y-102760439D01*
X97924500Y-103766323D01*
X97904815Y-103833362D01*
X97888182Y-103854004D01*
X97824500Y-103917686D01*
X97758608Y-104031812D01*
X97752445Y-104054815D01*
X97724500Y-104159108D01*
X91840500Y-104159108D01*
X91840500Y-101902253D01*
X91860185Y-101835214D01*
X91876814Y-101814577D01*
X93785703Y-99905687D01*
X93785708Y-99905684D01*
X93795911Y-99895480D01*
X93795913Y-99895480D01*
X93870480Y-99820913D01*
X93923207Y-99729587D01*
X93950501Y-99627727D01*
X93950501Y-99522273D01*
X93950501Y-99514678D01*
X93950500Y-99514660D01*
X93950500Y-97475098D01*
X93970185Y-97408059D01*
X93986819Y-97387417D01*
X93992260Y-97381976D01*
X94030520Y-97343716D01*
X94109577Y-97206784D01*
X94141108Y-97089108D01*
X97670500Y-97089108D01*
X97670500Y-97220892D01*
X97675020Y-97237762D01*
X97704608Y-97348187D01*
X97724372Y-97382419D01*
X97770500Y-97462314D01*
X97863686Y-97555500D01*
X97977814Y-97621392D01*
X98105108Y-97655500D01*
X98105110Y-97655500D01*
X98195167Y-97655500D01*
X98262206Y-97675185D01*
X98282848Y-97691819D01*
X98621489Y-98030460D01*
X98690012Y-98070022D01*
X98766438Y-98090500D01*
X98845562Y-98090500D01*
X101964167Y-98090500D01*
X102031206Y-98110185D01*
X102051848Y-98126819D01*
X105938181Y-102013152D01*
X105971666Y-102074475D01*
X105974500Y-102100833D01*
X105974500Y-102190891D01*
X106008608Y-102318187D01*
X106019382Y-102336847D01*
X106074500Y-102432314D01*
X106167686Y-102525500D01*
X106281814Y-102591392D01*
X106409108Y-102625500D01*
X106409110Y-102625500D01*
X106540890Y-102625500D01*
X106540892Y-102625500D01*
X106668186Y-102591392D01*
X106782314Y-102525500D01*
X106875500Y-102432314D01*
X106941392Y-102318186D01*
X106975500Y-102190892D01*
X106975500Y-102059108D01*
X106941392Y-101931814D01*
X106875500Y-101817686D01*
X106782314Y-101724500D01*
X106725250Y-101691554D01*
X106668187Y-101658608D01*
X106604539Y-101641554D01*
X106540892Y-101624500D01*
X106450833Y-101624500D01*
X106383794Y-101604815D01*
X106363152Y-101588181D01*
X102324510Y-97549539D01*
X102315872Y-97544552D01*
X102298594Y-97534577D01*
X102298593Y-97534576D01*
X102277291Y-97522278D01*
X102255990Y-97509979D01*
X102230513Y-97503152D01*
X102179562Y-97489500D01*
X102179560Y-97489500D01*
X98981833Y-97489500D01*
X98914794Y-97469815D01*
X98894152Y-97453181D01*
X98707819Y-97266848D01*
X98674334Y-97205525D01*
X98671500Y-97179167D01*
X98671500Y-97089110D01*
X98671500Y-97089108D01*
X98637392Y-96961814D01*
X98632913Y-96954057D01*
X98601992Y-96900500D01*
X98571500Y-96847686D01*
X98478314Y-96754500D01*
X98415420Y-96718188D01*
X98364187Y-96688608D01*
X98277941Y-96665499D01*
X98236892Y-96654500D01*
X98105108Y-96654500D01*
X97977812Y-96688608D01*
X97863686Y-96754500D01*
X97863683Y-96754502D01*
X97770502Y-96847683D01*
X97770500Y-96847686D01*
X97704608Y-96961812D01*
X97679892Y-97054055D01*
X97670500Y-97089108D01*
X94141108Y-97089108D01*
X94150500Y-97054057D01*
X94150500Y-96895943D01*
X94109577Y-96743216D01*
X94088849Y-96707313D01*
X94030524Y-96606290D01*
X94030518Y-96606282D01*
X93918717Y-96494481D01*
X93918709Y-96494475D01*
X93781790Y-96415426D01*
X93781786Y-96415424D01*
X93781784Y-96415423D01*
X93629057Y-96374500D01*
X93629056Y-96374500D01*
X93567255Y-96374500D01*
X93500216Y-96354815D01*
X93479574Y-96338181D01*
X92575501Y-95434108D01*
X93399500Y-95434108D01*
X93399500Y-95565891D01*
X93433608Y-95693187D01*
X93436738Y-95698608D01*
X93499500Y-95807314D01*
X93592686Y-95900500D01*
X93706814Y-95966392D01*
X93834108Y-96000500D01*
X93834110Y-96000500D01*
X93965890Y-96000500D01*
X93965892Y-96000500D01*
X94093186Y-95966392D01*
X94207314Y-95900500D01*
X94270995Y-95836819D01*
X94332318Y-95803334D01*
X94358676Y-95800500D01*
X98464566Y-95800500D01*
X98531605Y-95820185D01*
X98552247Y-95836819D01*
X98768580Y-96053152D01*
X98802065Y-96114475D01*
X98804899Y-96140833D01*
X98804899Y-96230891D01*
X98839007Y-96358187D01*
X98859961Y-96394480D01*
X98904899Y-96472314D01*
X98998085Y-96565500D01*
X99112213Y-96631392D01*
X99239507Y-96665500D01*
X99239509Y-96665500D01*
X99371289Y-96665500D01*
X99371291Y-96665500D01*
X99498585Y-96631392D01*
X99612713Y-96565500D01*
X99676394Y-96501819D01*
X99737717Y-96468334D01*
X99764075Y-96465500D01*
X103039167Y-96465500D01*
X103106206Y-96485185D01*
X103126848Y-96501819D01*
X105109540Y-98484511D01*
X105165489Y-98540460D01*
X105165491Y-98540461D01*
X105165495Y-98540464D01*
X105234004Y-98580017D01*
X105234011Y-98580021D01*
X105310438Y-98600500D01*
X105389562Y-98600500D01*
X106074167Y-98600500D01*
X106141206Y-98620185D01*
X106161848Y-98636819D01*
X107663181Y-100138152D01*
X107696666Y-100199475D01*
X107699500Y-100225833D01*
X107699500Y-104316323D01*
X107679815Y-104383362D01*
X107663182Y-104404004D01*
X107599500Y-104467686D01*
X107533608Y-104581812D01*
X107517778Y-104640892D01*
X107499500Y-104709108D01*
X107499500Y-104840892D01*
X107516554Y-104904539D01*
X107533608Y-104968187D01*
X107566554Y-105025250D01*
X107599500Y-105082314D01*
X107692686Y-105175500D01*
X107806814Y-105241392D01*
X107934108Y-105275500D01*
X107934110Y-105275500D01*
X108065890Y-105275500D01*
X108065892Y-105275500D01*
X108193186Y-105241392D01*
X108307314Y-105175500D01*
X108400500Y-105082314D01*
X108466392Y-104968186D01*
X108500500Y-104840892D01*
X108500500Y-104709108D01*
X108466392Y-104581814D01*
X108400500Y-104467686D01*
X108336818Y-104404004D01*
X108303334Y-104342680D01*
X108300500Y-104316323D01*
X108300500Y-100010440D01*
X108300500Y-100010438D01*
X108280022Y-99934012D01*
X108240460Y-99865489D01*
X107187152Y-98812181D01*
X107153667Y-98750858D01*
X107158651Y-98681166D01*
X107200523Y-98625233D01*
X107265987Y-98600816D01*
X107274833Y-98600500D01*
X109714560Y-98600500D01*
X109714562Y-98600500D01*
X109790989Y-98580021D01*
X109859511Y-98540460D01*
X109915460Y-98484511D01*
X111338151Y-97061818D01*
X111399474Y-97028334D01*
X111425832Y-97025500D01*
X111515890Y-97025500D01*
X111515892Y-97025500D01*
X111643186Y-96991392D01*
X111757314Y-96925500D01*
X111850500Y-96832314D01*
X111872593Y-96794047D01*
X120921100Y-96794047D01*
X120921100Y-98633552D01*
X120932731Y-98692029D01*
X120932732Y-98692030D01*
X120977047Y-98758352D01*
X121043369Y-98802667D01*
X121043370Y-98802668D01*
X121101847Y-98814299D01*
X121101850Y-98814300D01*
X121101852Y-98814300D01*
X122941350Y-98814300D01*
X122941351Y-98814299D01*
X122956168Y-98811352D01*
X122999829Y-98802668D01*
X122999829Y-98802667D01*
X122999831Y-98802667D01*
X123066152Y-98758352D01*
X123110467Y-98692031D01*
X123110467Y-98692029D01*
X123110468Y-98692029D01*
X123122099Y-98633552D01*
X123122100Y-98633550D01*
X123122100Y-97627189D01*
X123461100Y-97627189D01*
X123461100Y-97800411D01*
X123488198Y-97971501D01*
X123541727Y-98136245D01*
X123620368Y-98290588D01*
X123722186Y-98430728D01*
X123844672Y-98553214D01*
X123984812Y-98655032D01*
X124139155Y-98733673D01*
X124303899Y-98787202D01*
X124474989Y-98814300D01*
X124474990Y-98814300D01*
X124648210Y-98814300D01*
X124648211Y-98814300D01*
X124819301Y-98787202D01*
X124984045Y-98733673D01*
X125138388Y-98655032D01*
X125278528Y-98553214D01*
X125401014Y-98430728D01*
X125502832Y-98290588D01*
X125581473Y-98136245D01*
X125635002Y-97971501D01*
X125662100Y-97800411D01*
X125662100Y-97627189D01*
X125635002Y-97456099D01*
X125581473Y-97291355D01*
X125502832Y-97137012D01*
X125401014Y-96996872D01*
X125278528Y-96874386D01*
X125197476Y-96815498D01*
X125138386Y-96772566D01*
X125029806Y-96717243D01*
X124979009Y-96669269D01*
X124962100Y-96606758D01*
X124962100Y-93790855D01*
X124981785Y-93723816D01*
X124998419Y-93703174D01*
X127422079Y-91279514D01*
X127429888Y-91265990D01*
X127435905Y-91255567D01*
X127474807Y-91188187D01*
X127502100Y-91086327D01*
X127502100Y-81065274D01*
X127521785Y-80998235D01*
X127569806Y-80954789D01*
X127576788Y-80951232D01*
X127716928Y-80849414D01*
X127839414Y-80726928D01*
X127941232Y-80586788D01*
X128019873Y-80432445D01*
X128073402Y-80267701D01*
X128100500Y-80096611D01*
X128100500Y-79923389D01*
X128073402Y-79752299D01*
X128019873Y-79587555D01*
X127941232Y-79433212D01*
X127839414Y-79293072D01*
X127716928Y-79170586D01*
X127606351Y-79090247D01*
X128439500Y-79090247D01*
X128439500Y-80929752D01*
X128451131Y-80988229D01*
X128451132Y-80988230D01*
X128495447Y-81054552D01*
X128561769Y-81098867D01*
X128561770Y-81098868D01*
X128620247Y-81110499D01*
X128620250Y-81110500D01*
X128620252Y-81110500D01*
X130459750Y-81110500D01*
X130459751Y-81110499D01*
X130474568Y-81107552D01*
X130518229Y-81098868D01*
X130518229Y-81098867D01*
X130518231Y-81098867D01*
X130584552Y-81054552D01*
X130628867Y-80988231D01*
X130628867Y-80988229D01*
X130628868Y-80988229D01*
X130640499Y-80929752D01*
X130640500Y-80929750D01*
X130640500Y-79090249D01*
X130640499Y-79090247D01*
X130628868Y-79031770D01*
X130628867Y-79031769D01*
X130584552Y-78965447D01*
X130518230Y-78921132D01*
X130518229Y-78921131D01*
X130459752Y-78909500D01*
X130459748Y-78909500D01*
X128620252Y-78909500D01*
X128620247Y-78909500D01*
X128561770Y-78921131D01*
X128561769Y-78921132D01*
X128495447Y-78965447D01*
X128451132Y-79031769D01*
X128451131Y-79031770D01*
X128439500Y-79090247D01*
X127606351Y-79090247D01*
X127576788Y-79068768D01*
X127422445Y-78990127D01*
X127257701Y-78936598D01*
X127257699Y-78936597D01*
X127257698Y-78936597D01*
X127126271Y-78915781D01*
X127086611Y-78909500D01*
X126913389Y-78909500D01*
X126873728Y-78915781D01*
X126742302Y-78936597D01*
X126577552Y-78990128D01*
X126423211Y-79068768D01*
X126343256Y-79126859D01*
X126283072Y-79170586D01*
X126283070Y-79170588D01*
X126283069Y-79170588D01*
X126160588Y-79293069D01*
X126160588Y-79293070D01*
X126160586Y-79293072D01*
X126116859Y-79353256D01*
X126058768Y-79433211D01*
X125980128Y-79587552D01*
X125926597Y-79752302D01*
X125899500Y-79923389D01*
X125899500Y-80096611D01*
X125926598Y-80267701D01*
X125980127Y-80432445D01*
X126058768Y-80586788D01*
X126160586Y-80726928D01*
X126283072Y-80849414D01*
X126423212Y-80951232D01*
X126577553Y-81029872D01*
X126577554Y-81029872D01*
X126577555Y-81029873D01*
X126615418Y-81042175D01*
X126673092Y-81081611D01*
X126700291Y-81145969D01*
X126701100Y-81160106D01*
X126701100Y-90816345D01*
X126681415Y-90883384D01*
X126664781Y-90904026D01*
X124241122Y-93327684D01*
X124241120Y-93327687D01*
X124188393Y-93419010D01*
X124173525Y-93474501D01*
X124161100Y-93520869D01*
X124161100Y-96606758D01*
X124141415Y-96673797D01*
X124093394Y-96717243D01*
X123984813Y-96772566D01*
X123906053Y-96829790D01*
X123844672Y-96874386D01*
X123844670Y-96874388D01*
X123844669Y-96874388D01*
X123722188Y-96996869D01*
X123722188Y-96996870D01*
X123722186Y-96996872D01*
X123689760Y-97041502D01*
X123620368Y-97137011D01*
X123541728Y-97291352D01*
X123541727Y-97291354D01*
X123541727Y-97291355D01*
X123537719Y-97303689D01*
X123488197Y-97456102D01*
X123472454Y-97555500D01*
X123461100Y-97627189D01*
X123122100Y-97627189D01*
X123122100Y-96794049D01*
X123122099Y-96794047D01*
X123110468Y-96735570D01*
X123110467Y-96735569D01*
X123066152Y-96669247D01*
X122999830Y-96624932D01*
X122999829Y-96624931D01*
X122941352Y-96613300D01*
X122941348Y-96613300D01*
X121101852Y-96613300D01*
X121101847Y-96613300D01*
X121043370Y-96624931D01*
X121043369Y-96624932D01*
X120977047Y-96669247D01*
X120932732Y-96735569D01*
X120932731Y-96735570D01*
X120921100Y-96794047D01*
X111872593Y-96794047D01*
X111905634Y-96736819D01*
X111911904Y-96725960D01*
X111911904Y-96725959D01*
X111911905Y-96725958D01*
X111916391Y-96718188D01*
X111916392Y-96718186D01*
X111950500Y-96590892D01*
X111950500Y-96459108D01*
X111916392Y-96331814D01*
X111850500Y-96217686D01*
X111757314Y-96124500D01*
X111679918Y-96079815D01*
X111643187Y-96058608D01*
X111579539Y-96041554D01*
X111515892Y-96024500D01*
X111384108Y-96024500D01*
X111256812Y-96058608D01*
X111142686Y-96124500D01*
X111142683Y-96124502D01*
X111049502Y-96217683D01*
X111049500Y-96217686D01*
X110983608Y-96331812D01*
X110949500Y-96459108D01*
X110949500Y-96549166D01*
X110929815Y-96616205D01*
X110913181Y-96636847D01*
X109586848Y-97963181D01*
X109525525Y-97996666D01*
X109499167Y-97999500D01*
X105525833Y-97999500D01*
X105458794Y-97979815D01*
X105438152Y-97963181D01*
X103399510Y-95924539D01*
X103377825Y-95912020D01*
X103356140Y-95899500D01*
X103350823Y-95896430D01*
X103330990Y-95884979D01*
X103330991Y-95884979D01*
X103292775Y-95874739D01*
X103254562Y-95864500D01*
X103254560Y-95864500D01*
X99764075Y-95864500D01*
X99697036Y-95844815D01*
X99676394Y-95828181D01*
X99612715Y-95764502D01*
X99612713Y-95764500D01*
X99555649Y-95731554D01*
X99498586Y-95698608D01*
X99434938Y-95681554D01*
X99371291Y-95664500D01*
X99281232Y-95664500D01*
X99214193Y-95644815D01*
X99193551Y-95628181D01*
X98824911Y-95259541D01*
X98824906Y-95259537D01*
X98815464Y-95254086D01*
X98815463Y-95254086D01*
X98756390Y-95219980D01*
X98756389Y-95219979D01*
X98730912Y-95213152D01*
X98679961Y-95199500D01*
X98679959Y-95199500D01*
X94358676Y-95199500D01*
X94291637Y-95179815D01*
X94270995Y-95163181D01*
X94207316Y-95099502D01*
X94207314Y-95099500D01*
X94150250Y-95066554D01*
X94093187Y-95033608D01*
X94029539Y-95016554D01*
X93965892Y-94999500D01*
X93834108Y-94999500D01*
X93706812Y-95033608D01*
X93592686Y-95099500D01*
X93592683Y-95099502D01*
X93499502Y-95192683D01*
X93499500Y-95192686D01*
X93433608Y-95306812D01*
X93399500Y-95434108D01*
X92575501Y-95434108D01*
X91378574Y-94237181D01*
X91345089Y-94175858D01*
X91350073Y-94106166D01*
X91391945Y-94050233D01*
X91457409Y-94025816D01*
X91466255Y-94025500D01*
X102807745Y-94025500D01*
X102874784Y-94045185D01*
X102895426Y-94061819D01*
X105638181Y-96804574D01*
X105671666Y-96865897D01*
X105674500Y-96892255D01*
X105674500Y-96954057D01*
X105710688Y-97089110D01*
X105715423Y-97106783D01*
X105715426Y-97106790D01*
X105794475Y-97243709D01*
X105794479Y-97243714D01*
X105794480Y-97243716D01*
X105906284Y-97355520D01*
X105906286Y-97355521D01*
X105906290Y-97355524D01*
X106043209Y-97434573D01*
X106043216Y-97434577D01*
X106195943Y-97475500D01*
X106195945Y-97475500D01*
X106354055Y-97475500D01*
X106354057Y-97475500D01*
X106506784Y-97434577D01*
X106643716Y-97355520D01*
X106755520Y-97243716D01*
X106834577Y-97106784D01*
X106875500Y-96954057D01*
X106875500Y-96795943D01*
X106834577Y-96643216D01*
X106830900Y-96636847D01*
X106755524Y-96506290D01*
X106755518Y-96506282D01*
X106643717Y-96394481D01*
X106643709Y-96394475D01*
X106506790Y-96315426D01*
X106506786Y-96315424D01*
X106506784Y-96315423D01*
X106354057Y-96274500D01*
X106354056Y-96274500D01*
X106292255Y-96274500D01*
X106225216Y-96254815D01*
X106204574Y-96238181D01*
X103270915Y-93304522D01*
X103270913Y-93304520D01*
X103225250Y-93278156D01*
X103179589Y-93251793D01*
X103128657Y-93238146D01*
X103077727Y-93224500D01*
X103077726Y-93224500D01*
X83050098Y-93224500D01*
X82983059Y-93204815D01*
X82962417Y-93188181D01*
X82918717Y-93144481D01*
X82918709Y-93144475D01*
X82781790Y-93065426D01*
X82781786Y-93065424D01*
X82781784Y-93065423D01*
X82629057Y-93024500D01*
X82470943Y-93024500D01*
X82318216Y-93065423D01*
X82318209Y-93065426D01*
X82181290Y-93144475D01*
X82181282Y-93144481D01*
X82069481Y-93256282D01*
X82069475Y-93256290D01*
X81990426Y-93393209D01*
X81990423Y-93393216D01*
X81949500Y-93545943D01*
X77970500Y-93545943D01*
X77970500Y-76550247D01*
X86529500Y-76550247D01*
X86529500Y-78389752D01*
X86541131Y-78448229D01*
X86541132Y-78448230D01*
X86585447Y-78514552D01*
X86651769Y-78558867D01*
X86651770Y-78558868D01*
X86710247Y-78570499D01*
X86710250Y-78570500D01*
X86710252Y-78570500D01*
X87205500Y-78570500D01*
X87272539Y-78590185D01*
X87318294Y-78642989D01*
X87329500Y-78694500D01*
X87329500Y-83478562D01*
X87349979Y-83554989D01*
X87385014Y-83615672D01*
X87389540Y-83623511D01*
X87389542Y-83623514D01*
X92120195Y-88354166D01*
X95156489Y-91390460D01*
X95225012Y-91430022D01*
X95301438Y-91450500D01*
X95380562Y-91450500D01*
X98366324Y-91450500D01*
X98433363Y-91470185D01*
X98454005Y-91486819D01*
X98517686Y-91550500D01*
X98631814Y-91616392D01*
X98759108Y-91650500D01*
X98759110Y-91650500D01*
X98890890Y-91650500D01*
X98890892Y-91650500D01*
X99018186Y-91616392D01*
X99132314Y-91550500D01*
X99225500Y-91457314D01*
X99291392Y-91343186D01*
X99325500Y-91215892D01*
X99325500Y-91084108D01*
X99291392Y-90956814D01*
X99225500Y-90842686D01*
X99132314Y-90749500D01*
X99075250Y-90716554D01*
X99018187Y-90683608D01*
X98954539Y-90666554D01*
X98890892Y-90649500D01*
X98759108Y-90649500D01*
X98631812Y-90683608D01*
X98517686Y-90749500D01*
X98517683Y-90749502D01*
X98454005Y-90813181D01*
X98392682Y-90846666D01*
X98366324Y-90849500D01*
X95516833Y-90849500D01*
X95449794Y-90829815D01*
X95429152Y-90813181D01*
X95100079Y-90484108D01*
X103399500Y-90484108D01*
X103399500Y-90615891D01*
X103433608Y-90743187D01*
X103466554Y-90800250D01*
X103499500Y-90857314D01*
X103592686Y-90950500D01*
X103706814Y-91016392D01*
X103834108Y-91050500D01*
X103834110Y-91050500D01*
X103965890Y-91050500D01*
X103965892Y-91050500D01*
X104093186Y-91016392D01*
X104207314Y-90950500D01*
X104300500Y-90857314D01*
X104366392Y-90743186D01*
X104400500Y-90615892D01*
X104400500Y-90525832D01*
X104420185Y-90458793D01*
X104436819Y-90438151D01*
X109434724Y-85440247D01*
X122089500Y-85440247D01*
X122089500Y-87279752D01*
X122101131Y-87338229D01*
X122101132Y-87338230D01*
X122145447Y-87404552D01*
X122211769Y-87448867D01*
X122211770Y-87448868D01*
X122270247Y-87460499D01*
X122270250Y-87460500D01*
X122270252Y-87460500D01*
X124109750Y-87460500D01*
X124109751Y-87460499D01*
X124124568Y-87457552D01*
X124168229Y-87448868D01*
X124168229Y-87448867D01*
X124168231Y-87448867D01*
X124234552Y-87404552D01*
X124278867Y-87338231D01*
X124278867Y-87338229D01*
X124278868Y-87338229D01*
X124290499Y-87279752D01*
X124290500Y-87279750D01*
X124290500Y-85440249D01*
X124290499Y-85440247D01*
X124278868Y-85381770D01*
X124278867Y-85381769D01*
X124234552Y-85315447D01*
X124168230Y-85271132D01*
X124168229Y-85271131D01*
X124109752Y-85259500D01*
X124109748Y-85259500D01*
X122270252Y-85259500D01*
X122270247Y-85259500D01*
X122211770Y-85271131D01*
X122211769Y-85271132D01*
X122145447Y-85315447D01*
X122101132Y-85381769D01*
X122101131Y-85381770D01*
X122089500Y-85440247D01*
X109434724Y-85440247D01*
X109528492Y-85346479D01*
X110113740Y-84761231D01*
X110730460Y-84144511D01*
X110770021Y-84075989D01*
X110790500Y-83999562D01*
X110790500Y-83733389D01*
X122089500Y-83733389D01*
X122089500Y-83906610D01*
X122116327Y-84075995D01*
X122116598Y-84077701D01*
X122170127Y-84242445D01*
X122248768Y-84396788D01*
X122350586Y-84536928D01*
X122473072Y-84659414D01*
X122613212Y-84761232D01*
X122767555Y-84839873D01*
X122932299Y-84893402D01*
X123103389Y-84920500D01*
X123103390Y-84920500D01*
X123276610Y-84920500D01*
X123276611Y-84920500D01*
X123447701Y-84893402D01*
X123612445Y-84839873D01*
X123766788Y-84761232D01*
X123906928Y-84659414D01*
X124029414Y-84536928D01*
X124131232Y-84396788D01*
X124209873Y-84242445D01*
X124263402Y-84077701D01*
X124290500Y-83906611D01*
X124290500Y-83733389D01*
X124263402Y-83562299D01*
X124209873Y-83397555D01*
X124131232Y-83243212D01*
X124029414Y-83103072D01*
X123906928Y-82980586D01*
X123766788Y-82878768D01*
X123612445Y-82800127D01*
X123447701Y-82746598D01*
X123447699Y-82746597D01*
X123447698Y-82746597D01*
X123316271Y-82725781D01*
X123276611Y-82719500D01*
X123103389Y-82719500D01*
X123063728Y-82725781D01*
X122932302Y-82746597D01*
X122767552Y-82800128D01*
X122613211Y-82878768D01*
X122533256Y-82936859D01*
X122473072Y-82980586D01*
X122473070Y-82980588D01*
X122473069Y-82980588D01*
X122350588Y-83103069D01*
X122350588Y-83103070D01*
X122350586Y-83103072D01*
X122306859Y-83163256D01*
X122248768Y-83243211D01*
X122170128Y-83397552D01*
X122116597Y-83562302D01*
X122089500Y-83733389D01*
X110790500Y-83733389D01*
X110790500Y-79090247D01*
X115739500Y-79090247D01*
X115739500Y-80929752D01*
X115751131Y-80988229D01*
X115751132Y-80988230D01*
X115795447Y-81054552D01*
X115861769Y-81098867D01*
X115861770Y-81098868D01*
X115920247Y-81110499D01*
X115920250Y-81110500D01*
X115920252Y-81110500D01*
X117759750Y-81110500D01*
X117759751Y-81110499D01*
X117774568Y-81107552D01*
X117818229Y-81098868D01*
X117818229Y-81098867D01*
X117818231Y-81098867D01*
X117884552Y-81054552D01*
X117928867Y-80988231D01*
X117928867Y-80988229D01*
X117928868Y-80988229D01*
X117940499Y-80929752D01*
X117940500Y-80929750D01*
X117940500Y-79923389D01*
X118279500Y-79923389D01*
X118279500Y-80096611D01*
X118306598Y-80267701D01*
X118360127Y-80432445D01*
X118438768Y-80586788D01*
X118540586Y-80726928D01*
X118663072Y-80849414D01*
X118803212Y-80951232D01*
X118957555Y-81029873D01*
X119122299Y-81083402D01*
X119293389Y-81110500D01*
X119293390Y-81110500D01*
X119466610Y-81110500D01*
X119466611Y-81110500D01*
X119637701Y-81083402D01*
X119802445Y-81029873D01*
X119956788Y-80951232D01*
X120096928Y-80849414D01*
X120219414Y-80726928D01*
X120321232Y-80586788D01*
X120399873Y-80432445D01*
X120453402Y-80267701D01*
X120480500Y-80096611D01*
X120480500Y-79923389D01*
X120453402Y-79752299D01*
X120399873Y-79587555D01*
X120321232Y-79433212D01*
X120219414Y-79293072D01*
X120096928Y-79170586D01*
X119956788Y-79068768D01*
X119802445Y-78990127D01*
X119637701Y-78936598D01*
X119637699Y-78936597D01*
X119637698Y-78936597D01*
X119506271Y-78915781D01*
X119466611Y-78909500D01*
X119293389Y-78909500D01*
X119253728Y-78915781D01*
X119122302Y-78936597D01*
X118957552Y-78990128D01*
X118803211Y-79068768D01*
X118723256Y-79126859D01*
X118663072Y-79170586D01*
X118663070Y-79170588D01*
X118663069Y-79170588D01*
X118540588Y-79293069D01*
X118540588Y-79293070D01*
X118540586Y-79293072D01*
X118496859Y-79353256D01*
X118438768Y-79433211D01*
X118360128Y-79587552D01*
X118306597Y-79752302D01*
X118279500Y-79923389D01*
X117940500Y-79923389D01*
X117940500Y-79090249D01*
X117940499Y-79090247D01*
X117928868Y-79031770D01*
X117928867Y-79031769D01*
X117884552Y-78965447D01*
X117818230Y-78921132D01*
X117818229Y-78921131D01*
X117759752Y-78909500D01*
X117759748Y-78909500D01*
X115920252Y-78909500D01*
X115920247Y-78909500D01*
X115861770Y-78921131D01*
X115861769Y-78921132D01*
X115795447Y-78965447D01*
X115751132Y-79031769D01*
X115751131Y-79031770D01*
X115739500Y-79090247D01*
X110790500Y-79090247D01*
X110790500Y-78694500D01*
X110810185Y-78627461D01*
X110862989Y-78581706D01*
X110914500Y-78570500D01*
X111409750Y-78570500D01*
X111409751Y-78570499D01*
X111424568Y-78567552D01*
X111468229Y-78558868D01*
X111468229Y-78558867D01*
X111468231Y-78558867D01*
X111534552Y-78514552D01*
X111578867Y-78448231D01*
X111578867Y-78448229D01*
X111578868Y-78448229D01*
X111590499Y-78389752D01*
X111590500Y-78389750D01*
X111590500Y-76550249D01*
X111590499Y-76550247D01*
X111578868Y-76491770D01*
X111578867Y-76491769D01*
X111534552Y-76425447D01*
X111468230Y-76381132D01*
X111468229Y-76381131D01*
X111409752Y-76369500D01*
X111409748Y-76369500D01*
X109570252Y-76369500D01*
X109570247Y-76369500D01*
X109511770Y-76381131D01*
X109511769Y-76381132D01*
X109445447Y-76425447D01*
X109401132Y-76491769D01*
X109401131Y-76491770D01*
X109389500Y-76550247D01*
X109389500Y-78389752D01*
X109401131Y-78448229D01*
X109401132Y-78448230D01*
X109445447Y-78514552D01*
X109511769Y-78558867D01*
X109511770Y-78558868D01*
X109570247Y-78570499D01*
X109570250Y-78570500D01*
X109570252Y-78570500D01*
X110065500Y-78570500D01*
X110132539Y-78590185D01*
X110178294Y-78642989D01*
X110189500Y-78694500D01*
X110189500Y-83784166D01*
X110169815Y-83851205D01*
X110153181Y-83871847D01*
X104011847Y-90013181D01*
X103950524Y-90046666D01*
X103924166Y-90049500D01*
X103834108Y-90049500D01*
X103706812Y-90083608D01*
X103592686Y-90149500D01*
X103592683Y-90149502D01*
X103499502Y-90242683D01*
X103499500Y-90242686D01*
X103433608Y-90356812D01*
X103399500Y-90484108D01*
X95100079Y-90484108D01*
X87966819Y-83350848D01*
X87933334Y-83289525D01*
X87930500Y-83263167D01*
X87930500Y-78694500D01*
X87950185Y-78627461D01*
X88002989Y-78581706D01*
X88054500Y-78570500D01*
X88549750Y-78570500D01*
X88549751Y-78570499D01*
X88564568Y-78567552D01*
X88608229Y-78558868D01*
X88608229Y-78558867D01*
X88608231Y-78558867D01*
X88674552Y-78514552D01*
X88718867Y-78448231D01*
X88718867Y-78448229D01*
X88718868Y-78448229D01*
X88730499Y-78389752D01*
X88730500Y-78389750D01*
X88730500Y-76550249D01*
X88730499Y-76550247D01*
X94149500Y-76550247D01*
X94149500Y-78389752D01*
X94161131Y-78448229D01*
X94161132Y-78448230D01*
X94205447Y-78514552D01*
X94271769Y-78558867D01*
X94271770Y-78558868D01*
X94330247Y-78570499D01*
X94330250Y-78570500D01*
X94330252Y-78570500D01*
X94825500Y-78570500D01*
X94892539Y-78590185D01*
X94938294Y-78642989D01*
X94949500Y-78694500D01*
X94949500Y-85510562D01*
X94963152Y-85561513D01*
X94969979Y-85586990D01*
X94969982Y-85586995D01*
X95009535Y-85655504D01*
X95009541Y-85655512D01*
X99031181Y-89677152D01*
X99064666Y-89738475D01*
X99067500Y-89764833D01*
X99067500Y-89854892D01*
X99084554Y-89918539D01*
X99101608Y-89982187D01*
X99119503Y-90013181D01*
X99167500Y-90096314D01*
X99260686Y-90189500D01*
X99374814Y-90255392D01*
X99502108Y-90289500D01*
X99502110Y-90289500D01*
X99633890Y-90289500D01*
X99633892Y-90289500D01*
X99761186Y-90255392D01*
X99875314Y-90189500D01*
X99968500Y-90096314D01*
X100034392Y-89982186D01*
X100068500Y-89854892D01*
X100068500Y-89723108D01*
X100037954Y-89609108D01*
X101224500Y-89609108D01*
X101224500Y-89740891D01*
X101258608Y-89868187D01*
X101291554Y-89925250D01*
X101324500Y-89982314D01*
X101417686Y-90075500D01*
X101531814Y-90141392D01*
X101659108Y-90175500D01*
X101659110Y-90175500D01*
X101790890Y-90175500D01*
X101790892Y-90175500D01*
X101918186Y-90141392D01*
X102032314Y-90075500D01*
X102125500Y-89982314D01*
X102191392Y-89868186D01*
X102225500Y-89740892D01*
X102225500Y-89650832D01*
X102245185Y-89583793D01*
X102261819Y-89563151D01*
X102653304Y-89171666D01*
X103110460Y-88714511D01*
X103150022Y-88645988D01*
X103170500Y-88569562D01*
X103170500Y-88490438D01*
X103170500Y-78694500D01*
X103190185Y-78627461D01*
X103242989Y-78581706D01*
X103294500Y-78570500D01*
X103789750Y-78570500D01*
X103789751Y-78570499D01*
X103804568Y-78567552D01*
X103848229Y-78558868D01*
X103848229Y-78558867D01*
X103848231Y-78558867D01*
X103914552Y-78514552D01*
X103958867Y-78448231D01*
X103958867Y-78448229D01*
X103958868Y-78448229D01*
X103970499Y-78389752D01*
X103970500Y-78389750D01*
X103970500Y-76550249D01*
X103970499Y-76550247D01*
X103958868Y-76491770D01*
X103958867Y-76491769D01*
X103914552Y-76425447D01*
X103848230Y-76381132D01*
X103848229Y-76381131D01*
X103789752Y-76369500D01*
X103789748Y-76369500D01*
X101950252Y-76369500D01*
X101950247Y-76369500D01*
X101891770Y-76381131D01*
X101891769Y-76381132D01*
X101825447Y-76425447D01*
X101781132Y-76491769D01*
X101781131Y-76491770D01*
X101769500Y-76550247D01*
X101769500Y-78389752D01*
X101781131Y-78448229D01*
X101781132Y-78448230D01*
X101825447Y-78514552D01*
X101891769Y-78558867D01*
X101891770Y-78558868D01*
X101950247Y-78570499D01*
X101950250Y-78570500D01*
X101950252Y-78570500D01*
X102445500Y-78570500D01*
X102512539Y-78590185D01*
X102558294Y-78642989D01*
X102569500Y-78694500D01*
X102569500Y-88354166D01*
X102549815Y-88421205D01*
X102533181Y-88441847D01*
X101836847Y-89138181D01*
X101775524Y-89171666D01*
X101749166Y-89174500D01*
X101659108Y-89174500D01*
X101531812Y-89208608D01*
X101417686Y-89274500D01*
X101417683Y-89274502D01*
X101324502Y-89367683D01*
X101324500Y-89367686D01*
X101258608Y-89481812D01*
X101224500Y-89609108D01*
X100037954Y-89609108D01*
X100034392Y-89595814D01*
X99968500Y-89481686D01*
X99875314Y-89388500D01*
X99818250Y-89355554D01*
X99761187Y-89322608D01*
X99697539Y-89305554D01*
X99633892Y-89288500D01*
X99543833Y-89288500D01*
X99476794Y-89268815D01*
X99456152Y-89252181D01*
X95586819Y-85382848D01*
X95553334Y-85321525D01*
X95550500Y-85295167D01*
X95550500Y-78694500D01*
X95570185Y-78627461D01*
X95622989Y-78581706D01*
X95674500Y-78570500D01*
X96169750Y-78570500D01*
X96169751Y-78570499D01*
X96184568Y-78567552D01*
X96228229Y-78558868D01*
X96228229Y-78558867D01*
X96228231Y-78558867D01*
X96294552Y-78514552D01*
X96338867Y-78448231D01*
X96338867Y-78448229D01*
X96338868Y-78448229D01*
X96350499Y-78389752D01*
X96350500Y-78389750D01*
X96350500Y-76550249D01*
X96350499Y-76550247D01*
X96338868Y-76491770D01*
X96338867Y-76491769D01*
X96294552Y-76425447D01*
X96228230Y-76381132D01*
X96228229Y-76381131D01*
X96169752Y-76369500D01*
X96169748Y-76369500D01*
X94330252Y-76369500D01*
X94330247Y-76369500D01*
X94271770Y-76381131D01*
X94271769Y-76381132D01*
X94205447Y-76425447D01*
X94161132Y-76491769D01*
X94161131Y-76491770D01*
X94149500Y-76550247D01*
X88730499Y-76550247D01*
X88718868Y-76491770D01*
X88718867Y-76491769D01*
X88674552Y-76425447D01*
X88608230Y-76381132D01*
X88608229Y-76381131D01*
X88549752Y-76369500D01*
X88549748Y-76369500D01*
X86710252Y-76369500D01*
X86710247Y-76369500D01*
X86651770Y-76381131D01*
X86651769Y-76381132D01*
X86585447Y-76425447D01*
X86541132Y-76491769D01*
X86541131Y-76491770D01*
X86529500Y-76550247D01*
X77970500Y-76550247D01*
X77970500Y-76113389D01*
X122089500Y-76113389D01*
X122089500Y-76286610D01*
X122111489Y-76425448D01*
X122116598Y-76457701D01*
X122170127Y-76622445D01*
X122248768Y-76776788D01*
X122350586Y-76916928D01*
X122473072Y-77039414D01*
X122613212Y-77141232D01*
X122767555Y-77219873D01*
X122932299Y-77273402D01*
X123103389Y-77300500D01*
X123103390Y-77300500D01*
X123276610Y-77300500D01*
X123276611Y-77300500D01*
X123447701Y-77273402D01*
X123612445Y-77219873D01*
X123766788Y-77141232D01*
X123906928Y-77039414D01*
X124029414Y-76916928D01*
X124131232Y-76776788D01*
X124209873Y-76622445D01*
X124263402Y-76457701D01*
X124290500Y-76286611D01*
X124290500Y-76113389D01*
X124263402Y-75942299D01*
X124209873Y-75777555D01*
X124131232Y-75623212D01*
X124029414Y-75483072D01*
X123906928Y-75360586D01*
X123766788Y-75258768D01*
X123612445Y-75180127D01*
X123447701Y-75126598D01*
X123447699Y-75126597D01*
X123447698Y-75126597D01*
X123316271Y-75105781D01*
X123276611Y-75099500D01*
X123103389Y-75099500D01*
X123063728Y-75105781D01*
X122932302Y-75126597D01*
X122767552Y-75180128D01*
X122613211Y-75258768D01*
X122533256Y-75316859D01*
X122473072Y-75360586D01*
X122473070Y-75360588D01*
X122473069Y-75360588D01*
X122350588Y-75483069D01*
X122350588Y-75483070D01*
X122350586Y-75483072D01*
X122306859Y-75543256D01*
X122248768Y-75623211D01*
X122170128Y-75777552D01*
X122116597Y-75942302D01*
X122089500Y-76113389D01*
X77970500Y-76113389D01*
X77970500Y-74843389D01*
X86529500Y-74843389D01*
X86529500Y-75016610D01*
X86555398Y-75180128D01*
X86556598Y-75187701D01*
X86610127Y-75352445D01*
X86688768Y-75506788D01*
X86790586Y-75646928D01*
X86913072Y-75769414D01*
X87053212Y-75871232D01*
X87207555Y-75949873D01*
X87372299Y-76003402D01*
X87543389Y-76030500D01*
X87543390Y-76030500D01*
X87716610Y-76030500D01*
X87716611Y-76030500D01*
X87887701Y-76003402D01*
X88052445Y-75949873D01*
X88206788Y-75871232D01*
X88346928Y-75769414D01*
X88469414Y-75646928D01*
X88571232Y-75506788D01*
X88649873Y-75352445D01*
X88703402Y-75187701D01*
X88730500Y-75016611D01*
X88730500Y-74843389D01*
X94149500Y-74843389D01*
X94149500Y-75016610D01*
X94175398Y-75180128D01*
X94176598Y-75187701D01*
X94230127Y-75352445D01*
X94308768Y-75506788D01*
X94410586Y-75646928D01*
X94533072Y-75769414D01*
X94673212Y-75871232D01*
X94827555Y-75949873D01*
X94992299Y-76003402D01*
X95163389Y-76030500D01*
X95163390Y-76030500D01*
X95336610Y-76030500D01*
X95336611Y-76030500D01*
X95507701Y-76003402D01*
X95672445Y-75949873D01*
X95826788Y-75871232D01*
X95966928Y-75769414D01*
X96089414Y-75646928D01*
X96191232Y-75506788D01*
X96269873Y-75352445D01*
X96323402Y-75187701D01*
X96350500Y-75016611D01*
X96350500Y-74843389D01*
X101769500Y-74843389D01*
X101769500Y-75016610D01*
X101795398Y-75180128D01*
X101796598Y-75187701D01*
X101850127Y-75352445D01*
X101928768Y-75506788D01*
X102030586Y-75646928D01*
X102153072Y-75769414D01*
X102293212Y-75871232D01*
X102447555Y-75949873D01*
X102612299Y-76003402D01*
X102783389Y-76030500D01*
X102783390Y-76030500D01*
X102956610Y-76030500D01*
X102956611Y-76030500D01*
X103127701Y-76003402D01*
X103292445Y-75949873D01*
X103446788Y-75871232D01*
X103586928Y-75769414D01*
X103709414Y-75646928D01*
X103811232Y-75506788D01*
X103889873Y-75352445D01*
X103943402Y-75187701D01*
X103970500Y-75016611D01*
X103970500Y-74843389D01*
X109389500Y-74843389D01*
X109389500Y-75016610D01*
X109415398Y-75180128D01*
X109416598Y-75187701D01*
X109470127Y-75352445D01*
X109548768Y-75506788D01*
X109650586Y-75646928D01*
X109773072Y-75769414D01*
X109913212Y-75871232D01*
X110067555Y-75949873D01*
X110232299Y-76003402D01*
X110403389Y-76030500D01*
X110403390Y-76030500D01*
X110576610Y-76030500D01*
X110576611Y-76030500D01*
X110747701Y-76003402D01*
X110912445Y-75949873D01*
X111066788Y-75871232D01*
X111206928Y-75769414D01*
X111329414Y-75646928D01*
X111431232Y-75506788D01*
X111509873Y-75352445D01*
X111563402Y-75187701D01*
X111590500Y-75016611D01*
X111590500Y-74843389D01*
X111563402Y-74672299D01*
X111509873Y-74507555D01*
X111431232Y-74353212D01*
X111329414Y-74213072D01*
X111206928Y-74090586D01*
X111066788Y-73988768D01*
X110912445Y-73910127D01*
X110747701Y-73856598D01*
X110747699Y-73856597D01*
X110747698Y-73856597D01*
X110616271Y-73835781D01*
X110576611Y-73829500D01*
X110403389Y-73829500D01*
X110363728Y-73835781D01*
X110232302Y-73856597D01*
X110067552Y-73910128D01*
X109913211Y-73988768D01*
X109833256Y-74046859D01*
X109773072Y-74090586D01*
X109773070Y-74090588D01*
X109773069Y-74090588D01*
X109650588Y-74213069D01*
X109650588Y-74213070D01*
X109650586Y-74213072D01*
X109606859Y-74273256D01*
X109548768Y-74353211D01*
X109470128Y-74507552D01*
X109416597Y-74672302D01*
X109389500Y-74843389D01*
X103970500Y-74843389D01*
X103943402Y-74672299D01*
X103889873Y-74507555D01*
X103811232Y-74353212D01*
X103709414Y-74213072D01*
X103586928Y-74090586D01*
X103446788Y-73988768D01*
X103292445Y-73910127D01*
X103127701Y-73856598D01*
X103127699Y-73856597D01*
X103127698Y-73856597D01*
X102996271Y-73835781D01*
X102956611Y-73829500D01*
X102783389Y-73829500D01*
X102743728Y-73835781D01*
X102612302Y-73856597D01*
X102447552Y-73910128D01*
X102293211Y-73988768D01*
X102213256Y-74046859D01*
X102153072Y-74090586D01*
X102153070Y-74090588D01*
X102153069Y-74090588D01*
X102030588Y-74213069D01*
X102030588Y-74213070D01*
X102030586Y-74213072D01*
X101986859Y-74273256D01*
X101928768Y-74353211D01*
X101850128Y-74507552D01*
X101796597Y-74672302D01*
X101769500Y-74843389D01*
X96350500Y-74843389D01*
X96323402Y-74672299D01*
X96269873Y-74507555D01*
X96191232Y-74353212D01*
X96089414Y-74213072D01*
X95966928Y-74090586D01*
X95826788Y-73988768D01*
X95672445Y-73910127D01*
X95507701Y-73856598D01*
X95507699Y-73856597D01*
X95507698Y-73856597D01*
X95376271Y-73835781D01*
X95336611Y-73829500D01*
X95163389Y-73829500D01*
X95123728Y-73835781D01*
X94992302Y-73856597D01*
X94827552Y-73910128D01*
X94673211Y-73988768D01*
X94593256Y-74046859D01*
X94533072Y-74090586D01*
X94533070Y-74090588D01*
X94533069Y-74090588D01*
X94410588Y-74213069D01*
X94410588Y-74213070D01*
X94410586Y-74213072D01*
X94366859Y-74273256D01*
X94308768Y-74353211D01*
X94230128Y-74507552D01*
X94176597Y-74672302D01*
X94149500Y-74843389D01*
X88730500Y-74843389D01*
X88703402Y-74672299D01*
X88649873Y-74507555D01*
X88571232Y-74353212D01*
X88469414Y-74213072D01*
X88346928Y-74090586D01*
X88206788Y-73988768D01*
X88052445Y-73910127D01*
X87887701Y-73856598D01*
X87887699Y-73856597D01*
X87887698Y-73856597D01*
X87756271Y-73835781D01*
X87716611Y-73829500D01*
X87543389Y-73829500D01*
X87503728Y-73835781D01*
X87372302Y-73856597D01*
X87207552Y-73910128D01*
X87053211Y-73988768D01*
X86973256Y-74046859D01*
X86913072Y-74090586D01*
X86913070Y-74090588D01*
X86913069Y-74090588D01*
X86790588Y-74213069D01*
X86790588Y-74213070D01*
X86790586Y-74213072D01*
X86746859Y-74273256D01*
X86688768Y-74353211D01*
X86610128Y-74507552D01*
X86556597Y-74672302D01*
X86529500Y-74843389D01*
X77970500Y-74843389D01*
X77970500Y-72740247D01*
X122089500Y-72740247D01*
X122089500Y-74579752D01*
X122101131Y-74638229D01*
X122101132Y-74638230D01*
X122145447Y-74704552D01*
X122211769Y-74748867D01*
X122211770Y-74748868D01*
X122270247Y-74760499D01*
X122270250Y-74760500D01*
X122270252Y-74760500D01*
X124109750Y-74760500D01*
X124109751Y-74760499D01*
X124124568Y-74757552D01*
X124168229Y-74748868D01*
X124168229Y-74748867D01*
X124168231Y-74748867D01*
X124234552Y-74704552D01*
X124278867Y-74638231D01*
X124278867Y-74638229D01*
X124278868Y-74638229D01*
X124290499Y-74579752D01*
X124290500Y-74579750D01*
X124290500Y-72740249D01*
X124290499Y-72740247D01*
X124278868Y-72681770D01*
X124278867Y-72681769D01*
X124234552Y-72615447D01*
X124168230Y-72571132D01*
X124168229Y-72571131D01*
X124109752Y-72559500D01*
X124109748Y-72559500D01*
X122270252Y-72559500D01*
X122270247Y-72559500D01*
X122211770Y-72571131D01*
X122211769Y-72571132D01*
X122145447Y-72615447D01*
X122101132Y-72681769D01*
X122101131Y-72681770D01*
X122089500Y-72740247D01*
X77970500Y-72740247D01*
X77970500Y-69093711D01*
X78794500Y-69093711D01*
X78794500Y-69336288D01*
X78826161Y-69576785D01*
X78888947Y-69811104D01*
X78981773Y-70035205D01*
X78981776Y-70035212D01*
X79103064Y-70245289D01*
X79103066Y-70245292D01*
X79103067Y-70245293D01*
X79250733Y-70437736D01*
X79250739Y-70437743D01*
X79422256Y-70609260D01*
X79422262Y-70609265D01*
X79614711Y-70756936D01*
X79824788Y-70878224D01*
X80048900Y-70971054D01*
X80283211Y-71033838D01*
X80463586Y-71057584D01*
X80523711Y-71065500D01*
X80523712Y-71065500D01*
X80766289Y-71065500D01*
X80814388Y-71059167D01*
X81006789Y-71033838D01*
X81241100Y-70971054D01*
X81465212Y-70878224D01*
X81675289Y-70756936D01*
X81867738Y-70609265D01*
X82039265Y-70437738D01*
X82186936Y-70245289D01*
X82308224Y-70035212D01*
X82401054Y-69811100D01*
X82463838Y-69576789D01*
X82495500Y-69336288D01*
X82495500Y-69093712D01*
X82488922Y-69043750D01*
X82463838Y-68853214D01*
X82463838Y-68853211D01*
X82401054Y-68618900D01*
X82308224Y-68394788D01*
X82186936Y-68184711D01*
X82039265Y-67992262D01*
X82039260Y-67992256D01*
X81867743Y-67820739D01*
X81867736Y-67820733D01*
X81675293Y-67673067D01*
X81675292Y-67673066D01*
X81675289Y-67673064D01*
X81465212Y-67551776D01*
X81465205Y-67551773D01*
X81241104Y-67458947D01*
X81006785Y-67396161D01*
X80766289Y-67364500D01*
X80766288Y-67364500D01*
X80523712Y-67364500D01*
X80523711Y-67364500D01*
X80283214Y-67396161D01*
X80048895Y-67458947D01*
X79824794Y-67551773D01*
X79824785Y-67551777D01*
X79614706Y-67673067D01*
X79422263Y-67820733D01*
X79422256Y-67820739D01*
X79250739Y-67992256D01*
X79250733Y-67992263D01*
X79103067Y-68184706D01*
X79103064Y-68184710D01*
X79103064Y-68184711D01*
X79086817Y-68212851D01*
X78981777Y-68394785D01*
X78981773Y-68394794D01*
X78888947Y-68618895D01*
X78826161Y-68853214D01*
X78794500Y-69093711D01*
X77970500Y-69093711D01*
X77970500Y-69043750D01*
X77970726Y-69036263D01*
X77981798Y-68853214D01*
X77988271Y-68746201D01*
X77990076Y-68731340D01*
X78010682Y-68618900D01*
X78041780Y-68449197D01*
X78045364Y-68434663D01*
X78057790Y-68394788D01*
X78130696Y-68160822D01*
X78135998Y-68146841D01*
X78253731Y-67885249D01*
X78260676Y-67872016D01*
X78409080Y-67626526D01*
X78417567Y-67614230D01*
X78594480Y-67388417D01*
X78604395Y-67377226D01*
X78807226Y-67174395D01*
X78818417Y-67164480D01*
X79044230Y-66987567D01*
X79056526Y-66979080D01*
X79302016Y-66830676D01*
X79315249Y-66823731D01*
X79576841Y-66705998D01*
X79590822Y-66700696D01*
X79864668Y-66615362D01*
X79879197Y-66611780D01*
X80161344Y-66560075D01*
X80176201Y-66558271D01*
X80466264Y-66540726D01*
X80473751Y-66540500D01*
X131956000Y-66540500D01*
X132023039Y-66560185D01*
G37*
%TD.AperFunction*%
%TD*%
%TA.AperFunction,Conductor*%
%TO.N,/RTC_GND*%
G36*
X142183039Y-82569685D02*
G01*
X142228794Y-82622489D01*
X142240000Y-82674000D01*
X142240000Y-85090000D01*
X158125500Y-85090000D01*
X158192539Y-85109685D01*
X158238294Y-85162489D01*
X158249500Y-85214000D01*
X158249500Y-111296249D01*
X158249274Y-111303736D01*
X158231728Y-111593794D01*
X158229923Y-111608659D01*
X158178219Y-111890798D01*
X158174635Y-111905336D01*
X158089306Y-112179167D01*
X158083997Y-112193168D01*
X157966275Y-112454736D01*
X157959316Y-112467995D01*
X157810928Y-112713459D01*
X157802422Y-112725782D01*
X157625526Y-112951573D01*
X157615596Y-112962781D01*
X157412781Y-113165596D01*
X157401573Y-113175526D01*
X157175782Y-113352422D01*
X157163459Y-113360928D01*
X156917995Y-113509316D01*
X156904736Y-113516275D01*
X156643168Y-113633997D01*
X156629167Y-113639306D01*
X156355336Y-113724635D01*
X156340798Y-113728219D01*
X156058659Y-113779923D01*
X156043794Y-113781728D01*
X155753736Y-113799274D01*
X155746249Y-113799500D01*
X119504000Y-113799500D01*
X119436961Y-113779815D01*
X119391206Y-113727011D01*
X119380000Y-113675500D01*
X119380000Y-110862155D01*
X125650000Y-110862155D01*
X125650000Y-111510000D01*
X126566988Y-111510000D01*
X126534075Y-111567007D01*
X126500000Y-111694174D01*
X126500000Y-111825826D01*
X126534075Y-111952993D01*
X126566988Y-112010000D01*
X125650000Y-112010000D01*
X125650000Y-112657844D01*
X125656401Y-112717372D01*
X125656403Y-112717379D01*
X125706645Y-112852086D01*
X125706649Y-112852093D01*
X125792809Y-112967187D01*
X125792812Y-112967190D01*
X125907906Y-113053350D01*
X125907913Y-113053354D01*
X126042620Y-113103596D01*
X126042627Y-113103598D01*
X126102155Y-113109999D01*
X126102172Y-113110000D01*
X126750000Y-113110000D01*
X126750000Y-112193012D01*
X126807007Y-112225925D01*
X126934174Y-112260000D01*
X127065826Y-112260000D01*
X127192993Y-112225925D01*
X127250000Y-112193012D01*
X127250000Y-113110000D01*
X127897828Y-113110000D01*
X127897844Y-113109999D01*
X127957372Y-113103598D01*
X127957379Y-113103596D01*
X128092086Y-113053354D01*
X128092093Y-113053350D01*
X128207187Y-112967190D01*
X128207190Y-112967187D01*
X128293350Y-112852093D01*
X128293354Y-112852086D01*
X128342422Y-112720529D01*
X128384293Y-112664595D01*
X128449757Y-112640178D01*
X128518030Y-112655030D01*
X128546285Y-112676181D01*
X128660213Y-112790109D01*
X128832179Y-112915048D01*
X128832181Y-112915049D01*
X128832184Y-112915051D01*
X129021588Y-113011557D01*
X129223757Y-113077246D01*
X129433713Y-113110500D01*
X129433714Y-113110500D01*
X129646286Y-113110500D01*
X129646287Y-113110500D01*
X129856243Y-113077246D01*
X130058412Y-113011557D01*
X130247816Y-112915051D01*
X130334471Y-112852093D01*
X130419786Y-112790109D01*
X130419788Y-112790106D01*
X130419792Y-112790104D01*
X130570104Y-112639792D01*
X130570106Y-112639788D01*
X130570109Y-112639786D01*
X130695048Y-112467820D01*
X130695047Y-112467820D01*
X130695051Y-112467816D01*
X130699514Y-112459054D01*
X130747488Y-112408259D01*
X130815308Y-112391463D01*
X130881444Y-112413999D01*
X130920486Y-112459056D01*
X130924951Y-112467820D01*
X131049890Y-112639786D01*
X131200213Y-112790109D01*
X131372179Y-112915048D01*
X131372181Y-112915049D01*
X131372184Y-112915051D01*
X131561588Y-113011557D01*
X131763757Y-113077246D01*
X131973713Y-113110500D01*
X131973714Y-113110500D01*
X132186286Y-113110500D01*
X132186287Y-113110500D01*
X132396243Y-113077246D01*
X132598412Y-113011557D01*
X132787816Y-112915051D01*
X132874471Y-112852093D01*
X132959786Y-112790109D01*
X132959788Y-112790106D01*
X132959792Y-112790104D01*
X133110104Y-112639792D01*
X133110106Y-112639788D01*
X133110109Y-112639786D01*
X133235048Y-112467820D01*
X133235047Y-112467820D01*
X133235051Y-112467816D01*
X133239514Y-112459054D01*
X133287488Y-112408259D01*
X133355308Y-112391463D01*
X133421444Y-112413999D01*
X133460486Y-112459056D01*
X133464951Y-112467820D01*
X133589890Y-112639786D01*
X133740213Y-112790109D01*
X133912179Y-112915048D01*
X133912181Y-112915049D01*
X133912184Y-112915051D01*
X134101588Y-113011557D01*
X134303757Y-113077246D01*
X134513713Y-113110500D01*
X134513714Y-113110500D01*
X134726286Y-113110500D01*
X134726287Y-113110500D01*
X134936243Y-113077246D01*
X135138412Y-113011557D01*
X135327816Y-112915051D01*
X135414471Y-112852093D01*
X135499786Y-112790109D01*
X135499788Y-112790106D01*
X135499792Y-112790104D01*
X135650104Y-112639792D01*
X135650106Y-112639788D01*
X135650109Y-112639786D01*
X135775048Y-112467820D01*
X135775047Y-112467820D01*
X135775051Y-112467816D01*
X135779514Y-112459054D01*
X135827488Y-112408259D01*
X135895308Y-112391463D01*
X135961444Y-112413999D01*
X136000486Y-112459056D01*
X136004951Y-112467820D01*
X136129890Y-112639786D01*
X136280213Y-112790109D01*
X136452179Y-112915048D01*
X136452181Y-112915049D01*
X136452184Y-112915051D01*
X136641588Y-113011557D01*
X136843757Y-113077246D01*
X137053713Y-113110500D01*
X137053714Y-113110500D01*
X137266286Y-113110500D01*
X137266287Y-113110500D01*
X137476243Y-113077246D01*
X137678412Y-113011557D01*
X137867816Y-112915051D01*
X137954471Y-112852093D01*
X138039786Y-112790109D01*
X138039788Y-112790106D01*
X138039792Y-112790104D01*
X138190104Y-112639792D01*
X138190106Y-112639788D01*
X138190109Y-112639786D01*
X138315048Y-112467820D01*
X138315047Y-112467820D01*
X138315051Y-112467816D01*
X138319514Y-112459054D01*
X138367488Y-112408259D01*
X138435308Y-112391463D01*
X138501444Y-112413999D01*
X138540486Y-112459056D01*
X138544951Y-112467820D01*
X138669890Y-112639786D01*
X138820213Y-112790109D01*
X138992179Y-112915048D01*
X138992181Y-112915049D01*
X138992184Y-112915051D01*
X139181588Y-113011557D01*
X139383757Y-113077246D01*
X139593713Y-113110500D01*
X139593714Y-113110500D01*
X139806286Y-113110500D01*
X139806287Y-113110500D01*
X140016243Y-113077246D01*
X140218412Y-113011557D01*
X140407816Y-112915051D01*
X140494471Y-112852093D01*
X140579786Y-112790109D01*
X140579788Y-112790106D01*
X140579792Y-112790104D01*
X140730104Y-112639792D01*
X140730106Y-112639788D01*
X140730109Y-112639786D01*
X140855048Y-112467820D01*
X140855047Y-112467820D01*
X140855051Y-112467816D01*
X140859514Y-112459054D01*
X140907488Y-112408259D01*
X140975308Y-112391463D01*
X141041444Y-112413999D01*
X141080486Y-112459056D01*
X141084951Y-112467820D01*
X141209890Y-112639786D01*
X141360213Y-112790109D01*
X141532179Y-112915048D01*
X141532181Y-112915049D01*
X141532184Y-112915051D01*
X141721588Y-113011557D01*
X141923757Y-113077246D01*
X142133713Y-113110500D01*
X142133714Y-113110500D01*
X142346286Y-113110500D01*
X142346287Y-113110500D01*
X142556243Y-113077246D01*
X142758412Y-113011557D01*
X142947816Y-112915051D01*
X143034471Y-112852093D01*
X143119786Y-112790109D01*
X143119788Y-112790106D01*
X143119792Y-112790104D01*
X143270104Y-112639792D01*
X143270106Y-112639788D01*
X143270109Y-112639786D01*
X143395048Y-112467820D01*
X143395047Y-112467820D01*
X143395051Y-112467816D01*
X143399514Y-112459054D01*
X143447488Y-112408259D01*
X143515308Y-112391463D01*
X143581444Y-112413999D01*
X143620486Y-112459056D01*
X143624951Y-112467820D01*
X143749890Y-112639786D01*
X143900213Y-112790109D01*
X144072179Y-112915048D01*
X144072181Y-112915049D01*
X144072184Y-112915051D01*
X144261588Y-113011557D01*
X144463757Y-113077246D01*
X144673713Y-113110500D01*
X144673714Y-113110500D01*
X144886286Y-113110500D01*
X144886287Y-113110500D01*
X145096243Y-113077246D01*
X145298412Y-113011557D01*
X145487816Y-112915051D01*
X145574471Y-112852093D01*
X145659786Y-112790109D01*
X145659788Y-112790106D01*
X145659792Y-112790104D01*
X145810104Y-112639792D01*
X145810106Y-112639788D01*
X145810109Y-112639786D01*
X145935048Y-112467820D01*
X145935047Y-112467820D01*
X145935051Y-112467816D01*
X146031557Y-112278412D01*
X146097246Y-112076243D01*
X146130500Y-111866287D01*
X146130500Y-111653713D01*
X146097246Y-111443757D01*
X146031557Y-111241588D01*
X145959725Y-111100610D01*
X145936969Y-111055948D01*
X145936968Y-111055946D01*
X145935050Y-111052182D01*
X145899834Y-111003711D01*
X153724500Y-111003711D01*
X153724500Y-111246288D01*
X153756161Y-111486785D01*
X153818947Y-111721104D01*
X153895259Y-111905336D01*
X153911776Y-111945212D01*
X154033064Y-112155289D01*
X154033066Y-112155292D01*
X154033067Y-112155293D01*
X154180733Y-112347736D01*
X154180739Y-112347743D01*
X154352256Y-112519260D01*
X154352262Y-112519265D01*
X154544711Y-112666936D01*
X154754788Y-112788224D01*
X154978900Y-112881054D01*
X155213211Y-112943838D01*
X155390567Y-112967187D01*
X155453711Y-112975500D01*
X155453712Y-112975500D01*
X155696289Y-112975500D01*
X155759410Y-112967190D01*
X155936789Y-112943838D01*
X156171100Y-112881054D01*
X156395212Y-112788224D01*
X156605289Y-112666936D01*
X156797738Y-112519265D01*
X156969265Y-112347738D01*
X157116936Y-112155289D01*
X157238224Y-111945212D01*
X157331054Y-111721100D01*
X157393838Y-111486789D01*
X157425500Y-111246288D01*
X157425500Y-111003712D01*
X157393838Y-110763211D01*
X157331054Y-110528900D01*
X157238224Y-110304788D01*
X157116936Y-110094711D01*
X156969265Y-109902262D01*
X156969260Y-109902256D01*
X156797743Y-109730739D01*
X156797736Y-109730733D01*
X156605293Y-109583067D01*
X156605292Y-109583066D01*
X156605289Y-109583064D01*
X156395212Y-109461776D01*
X156395205Y-109461773D01*
X156171104Y-109368947D01*
X155936785Y-109306161D01*
X155696289Y-109274500D01*
X155696288Y-109274500D01*
X155453712Y-109274500D01*
X155453711Y-109274500D01*
X155213214Y-109306161D01*
X154978895Y-109368947D01*
X154754794Y-109461773D01*
X154754785Y-109461777D01*
X154544706Y-109583067D01*
X154352263Y-109730733D01*
X154352256Y-109730739D01*
X154180739Y-109902256D01*
X154180733Y-109902263D01*
X154033067Y-110094706D01*
X153911777Y-110304785D01*
X153911773Y-110304794D01*
X153818947Y-110528895D01*
X153756161Y-110763214D01*
X153724500Y-111003711D01*
X145899834Y-111003711D01*
X145810109Y-110880213D01*
X145659786Y-110729890D01*
X145487820Y-110604951D01*
X145298414Y-110508444D01*
X145298413Y-110508443D01*
X145298412Y-110508443D01*
X145096243Y-110442754D01*
X145096241Y-110442753D01*
X145096240Y-110442753D01*
X144934957Y-110417208D01*
X144886287Y-110409500D01*
X144673713Y-110409500D01*
X144625042Y-110417208D01*
X144463760Y-110442753D01*
X144261585Y-110508444D01*
X144072179Y-110604951D01*
X143900213Y-110729890D01*
X143749890Y-110880213D01*
X143624949Y-111052182D01*
X143620484Y-111060946D01*
X143572509Y-111111742D01*
X143504688Y-111128536D01*
X143438553Y-111105998D01*
X143399516Y-111060946D01*
X143395050Y-111052182D01*
X143270109Y-110880213D01*
X143119786Y-110729890D01*
X142947820Y-110604951D01*
X142758414Y-110508444D01*
X142758413Y-110508443D01*
X142758412Y-110508443D01*
X142556243Y-110442754D01*
X142556241Y-110442753D01*
X142556240Y-110442753D01*
X142394957Y-110417208D01*
X142346287Y-110409500D01*
X142133713Y-110409500D01*
X142085042Y-110417208D01*
X141923760Y-110442753D01*
X141721585Y-110508444D01*
X141532179Y-110604951D01*
X141360213Y-110729890D01*
X141209890Y-110880213D01*
X141084949Y-111052182D01*
X141080484Y-111060946D01*
X141032509Y-111111742D01*
X140964688Y-111128536D01*
X140898553Y-111105998D01*
X140859516Y-111060946D01*
X140855050Y-111052182D01*
X140730109Y-110880213D01*
X140579786Y-110729890D01*
X140407820Y-110604951D01*
X140218414Y-110508444D01*
X140218413Y-110508443D01*
X140218412Y-110508443D01*
X140016243Y-110442754D01*
X140016241Y-110442753D01*
X140016240Y-110442753D01*
X139854957Y-110417208D01*
X139806287Y-110409500D01*
X139593713Y-110409500D01*
X139545042Y-110417208D01*
X139383760Y-110442753D01*
X139181585Y-110508444D01*
X138992179Y-110604951D01*
X138820213Y-110729890D01*
X138669890Y-110880213D01*
X138544949Y-111052182D01*
X138540484Y-111060946D01*
X138492509Y-111111742D01*
X138424688Y-111128536D01*
X138358553Y-111105998D01*
X138319516Y-111060946D01*
X138315050Y-111052182D01*
X138190109Y-110880213D01*
X138039786Y-110729890D01*
X137867820Y-110604951D01*
X137678414Y-110508444D01*
X137678413Y-110508443D01*
X137678412Y-110508443D01*
X137476243Y-110442754D01*
X137476241Y-110442753D01*
X137476240Y-110442753D01*
X137314957Y-110417208D01*
X137266287Y-110409500D01*
X137053713Y-110409500D01*
X137005042Y-110417208D01*
X136843760Y-110442753D01*
X136641585Y-110508444D01*
X136452179Y-110604951D01*
X136280213Y-110729890D01*
X136129890Y-110880213D01*
X136004949Y-111052182D01*
X136000484Y-111060946D01*
X135952509Y-111111742D01*
X135884688Y-111128536D01*
X135818553Y-111105998D01*
X135779516Y-111060946D01*
X135775050Y-111052182D01*
X135650109Y-110880213D01*
X135499786Y-110729890D01*
X135327820Y-110604951D01*
X135138414Y-110508444D01*
X135138413Y-110508443D01*
X135138412Y-110508443D01*
X134936243Y-110442754D01*
X134936241Y-110442753D01*
X134936240Y-110442753D01*
X134774957Y-110417208D01*
X134726287Y-110409500D01*
X134513713Y-110409500D01*
X134465042Y-110417208D01*
X134303760Y-110442753D01*
X134101585Y-110508444D01*
X133912179Y-110604951D01*
X133740213Y-110729890D01*
X133589890Y-110880213D01*
X133464949Y-111052182D01*
X133460484Y-111060946D01*
X133412509Y-111111742D01*
X133344688Y-111128536D01*
X133278553Y-111105998D01*
X133239516Y-111060946D01*
X133235050Y-111052182D01*
X133110109Y-110880213D01*
X132959786Y-110729890D01*
X132787820Y-110604951D01*
X132598414Y-110508444D01*
X132598413Y-110508443D01*
X132598412Y-110508443D01*
X132396243Y-110442754D01*
X132396241Y-110442753D01*
X132396240Y-110442753D01*
X132234957Y-110417208D01*
X132186287Y-110409500D01*
X131973713Y-110409500D01*
X131925042Y-110417208D01*
X131763760Y-110442753D01*
X131561585Y-110508444D01*
X131372179Y-110604951D01*
X131200213Y-110729890D01*
X131049890Y-110880213D01*
X130924949Y-111052182D01*
X130920484Y-111060946D01*
X130872509Y-111111742D01*
X130804688Y-111128536D01*
X130738553Y-111105998D01*
X130699516Y-111060946D01*
X130695050Y-111052182D01*
X130570109Y-110880213D01*
X130419786Y-110729890D01*
X130247820Y-110604951D01*
X130058414Y-110508444D01*
X130058413Y-110508443D01*
X130058412Y-110508443D01*
X129856243Y-110442754D01*
X129856241Y-110442753D01*
X129856240Y-110442753D01*
X129694957Y-110417208D01*
X129646287Y-110409500D01*
X129433713Y-110409500D01*
X129385042Y-110417208D01*
X129223760Y-110442753D01*
X129021585Y-110508444D01*
X128832179Y-110604951D01*
X128660215Y-110729889D01*
X128546285Y-110843819D01*
X128484962Y-110877303D01*
X128415270Y-110872319D01*
X128359337Y-110830447D01*
X128342422Y-110799470D01*
X128293354Y-110667913D01*
X128293350Y-110667906D01*
X128207190Y-110552812D01*
X128207187Y-110552809D01*
X128092093Y-110466649D01*
X128092086Y-110466645D01*
X127957379Y-110416403D01*
X127957372Y-110416401D01*
X127897844Y-110410000D01*
X127250000Y-110410000D01*
X127250000Y-111326988D01*
X127192993Y-111294075D01*
X127065826Y-111260000D01*
X126934174Y-111260000D01*
X126807007Y-111294075D01*
X126750000Y-111326988D01*
X126750000Y-110410000D01*
X126102155Y-110410000D01*
X126042627Y-110416401D01*
X126042620Y-110416403D01*
X125907913Y-110466645D01*
X125907906Y-110466649D01*
X125792812Y-110552809D01*
X125792809Y-110552812D01*
X125706649Y-110667906D01*
X125706645Y-110667913D01*
X125656403Y-110802620D01*
X125656401Y-110802627D01*
X125650000Y-110862155D01*
X119380000Y-110862155D01*
X119380000Y-101724000D01*
X119399685Y-101656961D01*
X119452489Y-101611206D01*
X119504000Y-101600000D01*
X127000000Y-101600000D01*
X127000000Y-100251153D01*
X138264500Y-100251153D01*
X138264500Y-100408846D01*
X138295261Y-100563489D01*
X138295264Y-100563501D01*
X138355602Y-100709172D01*
X138355609Y-100709185D01*
X138443210Y-100840288D01*
X138443213Y-100840292D01*
X138554707Y-100951786D01*
X138554711Y-100951789D01*
X138685814Y-101039390D01*
X138685827Y-101039397D01*
X138831498Y-101099735D01*
X138831503Y-101099737D01*
X138986153Y-101130499D01*
X138986156Y-101130500D01*
X138986158Y-101130500D01*
X139143844Y-101130500D01*
X139143845Y-101130499D01*
X139298497Y-101099737D01*
X139444179Y-101039394D01*
X139482594Y-101013726D01*
X139575875Y-100951398D01*
X139642553Y-100930520D01*
X139644766Y-100930500D01*
X145165643Y-100930500D01*
X145195083Y-100939144D01*
X145225070Y-100945668D01*
X145230085Y-100949422D01*
X145232682Y-100950185D01*
X145253324Y-100966819D01*
X145393733Y-101107228D01*
X145427218Y-101168551D01*
X145427669Y-101170717D01*
X145458569Y-101326059D01*
X145458572Y-101326069D01*
X145518910Y-101471740D01*
X145518917Y-101471753D01*
X145606518Y-101602856D01*
X145606521Y-101602860D01*
X145718015Y-101714354D01*
X145718019Y-101714357D01*
X145849122Y-101801958D01*
X145849135Y-101801965D01*
X145994806Y-101862303D01*
X145994811Y-101862305D01*
X146149461Y-101893067D01*
X146149464Y-101893068D01*
X146149466Y-101893068D01*
X146307152Y-101893068D01*
X146307153Y-101893067D01*
X146461805Y-101862305D01*
X146607487Y-101801962D01*
X146738597Y-101714357D01*
X146850097Y-101602857D01*
X146937702Y-101471747D01*
X146998045Y-101326065D01*
X147028808Y-101171410D01*
X147028808Y-101013726D01*
X147028808Y-101013723D01*
X147028807Y-101013721D01*
X146998045Y-100859071D01*
X146990265Y-100840288D01*
X146937705Y-100713395D01*
X146937698Y-100713382D01*
X146850097Y-100582279D01*
X146850094Y-100582275D01*
X146738600Y-100470781D01*
X146738596Y-100470778D01*
X146607493Y-100383177D01*
X146607480Y-100383170D01*
X146461809Y-100322832D01*
X146461799Y-100322829D01*
X146306457Y-100291929D01*
X146244546Y-100259544D01*
X146242968Y-100257993D01*
X145953330Y-99968355D01*
X145953328Y-99968352D01*
X145834457Y-99849481D01*
X145834456Y-99849480D01*
X145747644Y-99799360D01*
X145747644Y-99799359D01*
X145747640Y-99799358D01*
X145697525Y-99770423D01*
X145544797Y-99729499D01*
X145386683Y-99729499D01*
X145379087Y-99729499D01*
X145379071Y-99729500D01*
X139644766Y-99729500D01*
X139577727Y-99709815D01*
X139575875Y-99708602D01*
X139444185Y-99620609D01*
X139444172Y-99620602D01*
X139298501Y-99560264D01*
X139298489Y-99560261D01*
X139143845Y-99529500D01*
X139143842Y-99529500D01*
X138986158Y-99529500D01*
X138986155Y-99529500D01*
X138831510Y-99560261D01*
X138831498Y-99560264D01*
X138685827Y-99620602D01*
X138685814Y-99620609D01*
X138554711Y-99708210D01*
X138554707Y-99708213D01*
X138443213Y-99819707D01*
X138443210Y-99819711D01*
X138355609Y-99950814D01*
X138355602Y-99950827D01*
X138295264Y-100096498D01*
X138295261Y-100096510D01*
X138264500Y-100251153D01*
X127000000Y-100251153D01*
X127000000Y-98539504D01*
X135091100Y-98539504D01*
X135091100Y-98716895D01*
X135125703Y-98890858D01*
X135125706Y-98890867D01*
X135193583Y-99054740D01*
X135193590Y-99054753D01*
X135292135Y-99202234D01*
X135292138Y-99202238D01*
X135417561Y-99327661D01*
X135417565Y-99327664D01*
X135565046Y-99426209D01*
X135565059Y-99426216D01*
X135687963Y-99477123D01*
X135728934Y-99494094D01*
X135728936Y-99494094D01*
X135728941Y-99494096D01*
X135902904Y-99528699D01*
X135902907Y-99528700D01*
X135902909Y-99528700D01*
X136080293Y-99528700D01*
X136080294Y-99528699D01*
X136138282Y-99517164D01*
X136254258Y-99494096D01*
X136254261Y-99494094D01*
X136254266Y-99494094D01*
X136418147Y-99426213D01*
X136565635Y-99327664D01*
X136691064Y-99202235D01*
X136789613Y-99054747D01*
X136857494Y-98890866D01*
X136884397Y-98755608D01*
X136916780Y-98693703D01*
X136918275Y-98692180D01*
X137871038Y-97739419D01*
X137932361Y-97705934D01*
X137958719Y-97703100D01*
X147192500Y-97703100D01*
X147259539Y-97722785D01*
X147261388Y-97723996D01*
X147376053Y-97800613D01*
X147539934Y-97868494D01*
X147539936Y-97868494D01*
X147539941Y-97868496D01*
X147713904Y-97903099D01*
X147713907Y-97903100D01*
X147713909Y-97903100D01*
X147891293Y-97903100D01*
X147891294Y-97903099D01*
X147949282Y-97891564D01*
X148065258Y-97868496D01*
X148065261Y-97868494D01*
X148065266Y-97868494D01*
X148229147Y-97800613D01*
X148376635Y-97702064D01*
X148502064Y-97576635D01*
X148600613Y-97429147D01*
X148668494Y-97265266D01*
X148703100Y-97091291D01*
X148703100Y-96913909D01*
X148703100Y-96913906D01*
X148703099Y-96913904D01*
X148668496Y-96739941D01*
X148668493Y-96739932D01*
X148600616Y-96576059D01*
X148600609Y-96576046D01*
X148502064Y-96428565D01*
X148502061Y-96428561D01*
X148376638Y-96303138D01*
X148376634Y-96303135D01*
X148229153Y-96204590D01*
X148229140Y-96204583D01*
X148065267Y-96136706D01*
X148065258Y-96136703D01*
X147891294Y-96102100D01*
X147891291Y-96102100D01*
X147713909Y-96102100D01*
X147713906Y-96102100D01*
X147539941Y-96136703D01*
X147539932Y-96136706D01*
X147376052Y-96204587D01*
X147376050Y-96204588D01*
X147261391Y-96281202D01*
X147194714Y-96302080D01*
X147192500Y-96302100D01*
X137548204Y-96302100D01*
X137412877Y-96329018D01*
X137412867Y-96329021D01*
X137285392Y-96381822D01*
X137170654Y-96458487D01*
X135927675Y-97701466D01*
X135866352Y-97734951D01*
X135864186Y-97735402D01*
X135728940Y-97762304D01*
X135728932Y-97762306D01*
X135565059Y-97830183D01*
X135565046Y-97830190D01*
X135417565Y-97928735D01*
X135417561Y-97928738D01*
X135292138Y-98054161D01*
X135292135Y-98054165D01*
X135193590Y-98201646D01*
X135193583Y-98201659D01*
X135125706Y-98365532D01*
X135125703Y-98365541D01*
X135091100Y-98539504D01*
X127000000Y-98539504D01*
X127000000Y-94104000D01*
X127019685Y-94036961D01*
X127072489Y-93991206D01*
X127124000Y-93980000D01*
X132080000Y-93980000D01*
X132080000Y-82674000D01*
X132099685Y-82606961D01*
X132152489Y-82561206D01*
X132204000Y-82550000D01*
X142116000Y-82550000D01*
X142183039Y-82569685D01*
G37*
%TD.AperFunction*%
%TD*%
M02*
