%TF.GenerationSoftware,KiCad,Pcbnew,9.0.5*%
%TF.CreationDate,2025-10-12T13:48:01+02:00*%
%TF.ProjectId,sw63_mk4_displaytestboard,73773633-5f6d-46b3-945f-646973706c61,rev?*%
%TF.SameCoordinates,Original*%
%TF.FileFunction,Soldermask,Bot*%
%TF.FilePolarity,Negative*%
%FSLAX46Y46*%
G04 Gerber Fmt 4.6, Leading zero omitted, Abs format (unit mm)*
G04 Created by KiCad (PCBNEW 9.0.5) date 2025-10-12 13:48:01*
%MOMM*%
%LPD*%
G01*
G04 APERTURE LIST*
%ADD10C,2.000000*%
%ADD11R,1.700000X1.700000*%
%ADD12C,1.700000*%
%ADD13C,3.200000*%
%ADD14R,1.800000X1.800000*%
%ADD15C,1.800000*%
G04 APERTURE END LIST*
D10*
%TO.C,SW1*%
X108689000Y-107006000D03*
X115189000Y-107006000D03*
X108689000Y-111506000D03*
X115189000Y-111506000D03*
%TD*%
D11*
%TO.C,J1*%
X86360000Y-111760000D03*
D12*
X88900000Y-111760000D03*
X91440000Y-111760000D03*
X93980000Y-111760000D03*
X96520000Y-111760000D03*
X99060000Y-111760000D03*
X101600000Y-111760000D03*
X104140000Y-111760000D03*
%TD*%
D13*
%TO.C,H4*%
X80645000Y-111125000D03*
%TD*%
%TO.C,H3*%
X155575000Y-69215000D03*
%TD*%
%TO.C,H2*%
X155575000Y-111125000D03*
%TD*%
%TO.C,H1*%
X80645000Y-69215000D03*
%TD*%
D14*
%TO.C,D14*%
X95250000Y-77470000D03*
D15*
X95250000Y-74930000D03*
%TD*%
D14*
%TO.C,D16*%
X110490000Y-77470000D03*
D15*
X110490000Y-74930000D03*
%TD*%
D14*
%TO.C,D21*%
X122021600Y-97713800D03*
D15*
X124561600Y-97713800D03*
%TD*%
D14*
%TO.C,D20*%
X116840000Y-80010000D03*
D15*
X119380000Y-80010000D03*
%TD*%
D14*
%TO.C,D18*%
X129540000Y-80010000D03*
D15*
X127000000Y-80010000D03*
%TD*%
D11*
%TO.C,J4*%
X134620000Y-72390000D03*
D12*
X137160000Y-72390000D03*
X139700000Y-72390000D03*
%TD*%
D14*
%TO.C,D13*%
X87630000Y-77470000D03*
D15*
X87630000Y-74930000D03*
%TD*%
D14*
%TO.C,D15*%
X102870000Y-77470000D03*
D15*
X102870000Y-74930000D03*
%TD*%
D14*
%TO.C,D19*%
X123190000Y-86360000D03*
D15*
X123190000Y-83820000D03*
%TD*%
D11*
%TO.C,J6*%
X144780000Y-80010000D03*
D12*
X147320000Y-80010000D03*
X149860000Y-80010000D03*
%TD*%
D11*
%TO.C,J3*%
X134620000Y-80010000D03*
D12*
X137160000Y-80010000D03*
X139700000Y-80010000D03*
%TD*%
D11*
%TO.C,J5*%
X144780000Y-72390000D03*
D12*
X147320000Y-72390000D03*
X149860000Y-72390000D03*
%TD*%
D14*
%TO.C,D17*%
X123190000Y-73660000D03*
D15*
X123190000Y-76200000D03*
%TD*%
D11*
%TO.C,J2*%
X127000000Y-111760000D03*
D12*
X129540000Y-111760000D03*
X132080000Y-111760000D03*
X134620000Y-111760000D03*
X137160000Y-111760000D03*
X139700000Y-111760000D03*
X142240000Y-111760000D03*
X144780000Y-111760000D03*
%TD*%
M02*
