<?xml version="1.0" encoding="UTF-8"?>
<svg id="Layer_1" xmlns="http://www.w3.org/2000/svg" version="1.1" viewBox="0 0 7.8849116 8.6758378">
  <!-- Generator: Adobe Illustrator 30.0.0, SVG Export Plug-In . SVG Version: 2.1.1 Build 123)  -->
  <path id="gge176" d="M1.7641328,1.0089968C2.4310439.4568703,2.9896743.0028294,3.0051429.0000169s.3800374.3461117.810348.7753677l.7818715.7804653.8265198-.3179869c.4545683-.1749016.8349572-.3179869.8451525-.3179869s.3888264.5614428.8416369,1.2473382c.4770682.7229851.8019105,1.2689592.7723794,1.2984903-.0281249.0281249-.3364438.1583782-.6848407.2891589-.3483969.1309565-.651794.2492567-.6739423.2631434-.0224999.0137109.2699988.4856814.6500362,1.0488821l.6904657,1.0239212-1.292338,1.2925138-1.292338,1.2925138-1.0937061-.6113645-1.0937061-.6113645-.1733195.1886124c-.095273.1037105-.2939049.3237876-.4408574.4891971l-.2671863.3004088-1.1056592-1.1520652C.4974587,6.6455734,0,6.1034664,0,6.0748142c0-.028828.2963659-.4647636.6584736-.9687262.5287477-.7356413.6493331-.9395466.6124192-1.033765-.4320684-1.0991553-.7509342-1.9671593-.7372233-2.0079403.0094921-.0283007.5632006-.5032595,1.2304633-1.0553859M3.7086164,1.8355166c-.3926936-.376346-.743903-.6825556-.7804653-.680622-.0787497.0043945-1.3872595,1.0726124-1.4160875,1.1559324-.0108984.0314647.1374603.4661698.3294126.9662653s.3568344.9381404.3663265.973648c.0098437.0355077-.2397646.4255645-.5547632.8665977-.314647.441209-.5748021.8305627-.5779662.865543s.2453895.3257212.5519507.6463448l.5579272.5827123.3673812-.399549.3670296-.399549,1.0694484.6043333c.5881615.3322251,1.0958155.6052122,1.1281591.6064426.031992.0012305.426795-.3684359.8771446-.8214221l.819137-.8238831-.8029652-1.1729831c-.758317-1.1079443-.795934-1.1756198-.674997-1.220268,1.0676906-.3960334,1.2902287-.482869,1.3260879-.5178493.0235546-.0224999-.1255073-.2921471-.3304673-.5990598l-.3733577-.5579272-.56531.2207803c-.3107799.1214643-.6563643.2587489-.7674575.3049791l-.2024991.0840231-.7136687-.6844892"/>
</svg>