<?xml version="1.0" encoding="UTF-8"?>
<svg id="Layer_1" xmlns="http://www.w3.org/2000/svg" version="1.1" viewBox="0 0 12.1681902 10.7293569">
  <!-- Generator: Adobe Illustrator 30.0.0, SVG Export Plug-In . SVG Version: 2.1.1 Build 123)  -->
  <path d="M3.8879849,10.7293569c-.0727539,0-.1464844-.0136719-.2167969-.0419922-.2348633-.0957031-.3798828-.3339844-.3569336-.5859375l.4746094-5.2158203L.240524,2.3416615C.0471646,2.2039662-.0412143,1.9608022.018356,1.7303334c.059082-.2304688.2539062-.4003906.4902344-.4287109L11.5247037.0047475c.3120117-.0410156.6025391.1884766.6396484.5048828.0166016.1445312-.0214844.2832031-.0981445.3945312-.0209961.0634766-.0537109.1240234-.0986328.1796875l-7.6318359,9.4316406c-.1118164.1386719-.277832.2138672-.4477539.2138672ZM2.1204068,2.2723256l2.6074219,1.8691406c.1660156.1181641.2568359.3164062.2382812.5195312l-.3325195,3.6552734L10.3040005,1.3084584l-8.1835938.9638672Z"/>
</svg>