M48
; DRILL file {KiCad 9.0.6} date 2026-01-29T21:52:29+0100
; FORMAT={-:-/ absolute / inch / decimal}
; #@! TF.CreationDate,2026-01-29T21:52:29+01:00
; #@! TF.GenerationSoftware,Kicad,Pcbnew,9.0.6
; #@! TF.FileFunction,Plated,1,4,PTH
FMAT,2
INCH
; #@! TA.AperFunction,Plated,PTH,ViaDrill
T1C0.0118
; #@! TA.AperFunction,Plated,PTH,ComponentDrill
T2C0.0354
%
G90
G05
T1
X3.9891Y-3.2933
X3.9898Y-3.2541
X3.9911Y-3.1929
X4.0065Y-3.3468
X4.0079Y-3.0561
X4.0118Y-3.1323
X4.037Y-3.3606
X4.0945Y-3.6063
X4.0963Y-3.1582
X4.1004Y-3.3355
X4.1063Y-2.8858
X4.114Y-3.0332
X4.1203Y-3.4684
X4.1535Y-3.3543
X4.1654Y-3.4951
X4.1693Y-2.8386
X4.2106Y-3.1508
X4.2138Y-3.3425
X4.2146Y-2.8465
X4.2321Y-3.4322
X4.237Y-3.3937
X4.2441Y-3.5315
X4.2717Y-2.7685
X4.2765Y-3.1447
X4.2803Y-3.0807
X4.3083Y-3.3764
X4.311Y-3.3445
X4.3346Y-3.1122
X4.3425Y-3.3882
X4.3524Y-2.9977
X4.3543Y-2.9213
X4.3583Y-3.8031
X4.3858Y-3.8465
X4.3878Y-3.0835
X4.3909Y-3.4161
X4.3917Y-3.7894
X4.3953Y-3.3823
X4.3957Y-2.9957
X4.3976Y-3.3488
X4.4254Y-3.0489
X4.4331Y-3.8622
X4.4339Y-3.5815
X4.4515Y-3.0698
X4.4665Y-2.7382
X4.4764Y-2.6299
X4.4843Y-3.0768
X4.5087Y-3.352
X4.5091Y-2.7539
X4.5091Y-3.5351
X4.5157Y-3.0886
X4.5157Y-3.4587
X4.5433Y-3.3496
X4.5451Y-3.1309
X4.5748Y-3.8878
X4.585Y-3.0772
X4.5949Y-3.3496
X4.6083Y-2.7665
X4.615Y-2.715
X4.6181Y-3.0866
X4.622Y-3.2283
X4.626Y-2.9902
X4.626Y-3.3307
X4.6348Y-3.258
X4.6593Y-3.459
X4.6594Y-3.626
X4.6909Y-3.6358
X4.7087Y-3.1043
X4.7228Y-2.7583
X4.7269Y-3.2359
X4.7417Y-2.8661
X4.7459Y-3.6072
X4.752Y-2.6181
X4.7605Y-3.2392
X4.7654Y-3.0295
X4.7835Y-3.4764
X4.8004Y-3.0409
X4.812Y-2.8927
X4.815Y-3.8504
X4.8158Y-3.2506
X4.8266Y-3.4632
X4.8278Y-3.0709
X4.8375Y-3.2757
X4.8386Y-3.227
X4.8819Y-3.3583
X4.8839Y-2.8327
X4.9075Y-3.4094
X4.9134Y-3.0394
X4.9134Y-3.4783
X4.9154Y-3.5295
X4.9154Y-3.6043
X4.9213Y-3.748
X4.9262Y-2.9065
X4.9567Y-3.4252
X4.9567Y-3.6063
X4.9754Y-2.753
X5.0335Y-2.7913
X5.0465Y-3.2736
X5.0479Y-3.2205
X5.1063Y-2.8819
X5.1417Y-3.1142
X5.1614Y-3.252
X5.2047Y-3.2461
X5.2205Y-3.4764
X5.2323Y-3.378
X5.248Y-3.1181
T2
X4.1665Y-3.5984
X4.1921Y-2.9528
X4.2665Y-3.5984
X4.2921Y-2.9528
X4.3248Y-3.4402
X4.3248Y-3.5402
X4.3248Y-3.6567
X4.3248Y-3.7567
X4.3831Y-3.5984
X4.4484Y-2.9528
X4.4831Y-3.5984
X4.5484Y-2.9528
X4.7036Y-2.9528
X4.8036Y-2.9528
X4.9598Y-2.9528
X4.9866Y-3.5315
X5.0598Y-2.9528
X5.0866Y-3.5315
M30
