%TF.GenerationSoftware,KiCad,Pcbnew,9.0.6*%
%TF.CreationDate,2026-03-12T20:57:09+01:00*%
%TF.ProjectId,sw63_mk4_v2,73773633-5f6d-46b3-945f-76322e6b6963,v2*%
%TF.SameCoordinates,Original*%
%TF.FileFunction,Legend,Bot*%
%TF.FilePolarity,Positive*%
%FSLAX46Y46*%
G04 Gerber Fmt 4.6, Leading zero omitted, Abs format (unit mm)*
G04 Created by KiCad (PCBNEW 9.0.6) date 2026-03-12 20:57:09*
%MOMM*%
%LPD*%
G01*
G04 APERTURE LIST*
G04 Aperture macros list*
%AMRoundRect*
0 Rectangle with rounded corners*
0 $1 Rounding radius*
0 $2 $3 $4 $5 $6 $7 $8 $9 X,Y pos of 4 corners*
0 Add a 4 corners polygon primitive as box body*
4,1,4,$2,$3,$4,$5,$6,$7,$8,$9,$2,$3,0*
0 Add four circle primitives for the rounded corners*
1,1,$1+$1,$2,$3*
1,1,$1+$1,$4,$5*
1,1,$1+$1,$6,$7*
1,1,$1+$1,$8,$9*
0 Add four rect primitives between the rounded corners*
20,1,$1+$1,$2,$3,$4,$5,0*
20,1,$1+$1,$4,$5,$6,$7,0*
20,1,$1+$1,$6,$7,$8,$9,0*
20,1,$1+$1,$8,$9,$2,$3,0*%
G04 Aperture macros list end*
%ADD10C,0.150000*%
%ADD11C,0.100000*%
%ADD12C,0.200000*%
%ADD13C,0.120000*%
%ADD14C,0.152400*%
%ADD15R,1.800000X1.800000*%
%ADD16C,1.800000*%
%ADD17C,1.400000*%
%ADD18C,1.600000*%
%ADD19RoundRect,0.135000X-0.135000X-0.185000X0.135000X-0.185000X0.135000X0.185000X-0.135000X0.185000X0*%
%ADD20RoundRect,0.112500X-0.187500X-0.112500X0.187500X-0.112500X0.187500X0.112500X-0.187500X0.112500X0*%
%ADD21RoundRect,0.140000X-0.140000X-0.170000X0.140000X-0.170000X0.140000X0.170000X-0.140000X0.170000X0*%
%ADD22C,0.950000*%
%ADD23RoundRect,0.101600X-0.600000X0.300000X-0.600000X-0.300000X0.600000X-0.300000X0.600000X0.300000X0*%
%ADD24RoundRect,0.101600X-0.600000X0.150000X-0.600000X-0.150000X0.600000X-0.150000X0.600000X0.150000X0*%
%ADD25RoundRect,0.101600X-0.600000X0.625000X-0.600000X-0.625000X0.600000X-0.625000X0.600000X0.625000X0*%
%ADD26RoundRect,0.135000X0.135000X0.185000X-0.135000X0.185000X-0.135000X-0.185000X0.135000X-0.185000X0*%
%ADD27RoundRect,0.140000X0.170000X-0.140000X0.170000X0.140000X-0.170000X0.140000X-0.170000X-0.140000X0*%
%ADD28RoundRect,0.135000X0.185000X-0.135000X0.185000X0.135000X-0.185000X0.135000X-0.185000X-0.135000X0*%
%ADD29RoundRect,0.062500X0.062500X-0.375000X0.062500X0.375000X-0.062500X0.375000X-0.062500X-0.375000X0*%
%ADD30RoundRect,0.062500X0.375000X-0.062500X0.375000X0.062500X-0.375000X0.062500X-0.375000X-0.062500X0*%
%ADD31R,3.450000X3.450000*%
%ADD32RoundRect,0.135000X-0.185000X0.135000X-0.185000X-0.135000X0.185000X-0.135000X0.185000X0.135000X0*%
%ADD33RoundRect,0.150000X-0.150000X0.587500X-0.150000X-0.587500X0.150000X-0.587500X0.150000X0.587500X0*%
%ADD34RoundRect,0.140000X0.140000X0.170000X-0.140000X0.170000X-0.140000X-0.170000X0.140000X-0.170000X0*%
%ADD35RoundRect,0.100000X0.100000X-0.637500X0.100000X0.637500X-0.100000X0.637500X-0.100000X-0.637500X0*%
%ADD36RoundRect,0.100000X0.637500X0.100000X-0.637500X0.100000X-0.637500X-0.100000X0.637500X-0.100000X0*%
%ADD37RoundRect,0.150000X-0.150000X0.825000X-0.150000X-0.825000X0.150000X-0.825000X0.150000X0.825000X0*%
%ADD38RoundRect,0.140000X-0.170000X0.140000X-0.170000X-0.140000X0.170000X-0.140000X0.170000X0.140000X0*%
%ADD39RoundRect,0.150000X-0.587500X-0.150000X0.587500X-0.150000X0.587500X0.150000X-0.587500X0.150000X0*%
%ADD40RoundRect,0.218750X0.218750X0.256250X-0.218750X0.256250X-0.218750X-0.256250X0.218750X-0.256250X0*%
%ADD41RoundRect,0.150000X0.512500X0.150000X-0.512500X0.150000X-0.512500X-0.150000X0.512500X-0.150000X0*%
%ADD42RoundRect,0.250000X0.123744X0.512652X-0.512652X-0.123744X-0.123744X-0.512652X0.512652X0.123744X0*%
%ADD43RoundRect,0.270000X0.405000X0.830000X-0.405000X0.830000X-0.405000X-0.830000X0.405000X-0.830000X0*%
%ADD44R,1.700000X1.700000*%
%ADD45C,1.700000*%
G04 APERTURE END LIST*
D10*
X104440000Y-76460000D02*
X108570000Y-76460000D01*
X108570000Y-79450000D01*
X104440000Y-79450000D01*
X104440000Y-76460000D01*
D11*
X118465238Y-94876109D02*
X118631904Y-94638014D01*
X118750952Y-94876109D02*
X118750952Y-94376109D01*
X118750952Y-94376109D02*
X118560476Y-94376109D01*
X118560476Y-94376109D02*
X118512857Y-94399919D01*
X118512857Y-94399919D02*
X118489047Y-94423728D01*
X118489047Y-94423728D02*
X118465238Y-94471347D01*
X118465238Y-94471347D02*
X118465238Y-94542776D01*
X118465238Y-94542776D02*
X118489047Y-94590395D01*
X118489047Y-94590395D02*
X118512857Y-94614204D01*
X118512857Y-94614204D02*
X118560476Y-94638014D01*
X118560476Y-94638014D02*
X118750952Y-94638014D01*
D12*
X108274761Y-75961266D02*
X107665238Y-75961266D01*
X126916992Y-91652541D02*
X126815977Y-91080122D01*
X127321053Y-91248480D02*
X126613946Y-90541374D01*
X126613946Y-90541374D02*
X126344572Y-90810748D01*
X126344572Y-90810748D02*
X126310900Y-90911763D01*
X126310900Y-90911763D02*
X126310900Y-90979106D01*
X126310900Y-90979106D02*
X126344572Y-91080122D01*
X126344572Y-91080122D02*
X126445587Y-91181137D01*
X126445587Y-91181137D02*
X126546603Y-91214809D01*
X126546603Y-91214809D02*
X126613946Y-91214809D01*
X126613946Y-91214809D02*
X126714961Y-91181137D01*
X126714961Y-91181137D02*
X126984335Y-90911763D01*
X126613946Y-91888244D02*
X126546603Y-92022931D01*
X126546603Y-92022931D02*
X126378244Y-92191289D01*
X126378244Y-92191289D02*
X126277229Y-92224961D01*
X126277229Y-92224961D02*
X126209885Y-92224961D01*
X126209885Y-92224961D02*
X126108870Y-92191289D01*
X126108870Y-92191289D02*
X126041526Y-92123946D01*
X126041526Y-92123946D02*
X126007855Y-92022931D01*
X126007855Y-92022931D02*
X126007855Y-91955587D01*
X126007855Y-91955587D02*
X126041526Y-91854572D01*
X126041526Y-91854572D02*
X126142542Y-91686213D01*
X126142542Y-91686213D02*
X126176213Y-91585198D01*
X126176213Y-91585198D02*
X126176213Y-91517854D01*
X126176213Y-91517854D02*
X126142542Y-91416839D01*
X126142542Y-91416839D02*
X126075198Y-91349496D01*
X126075198Y-91349496D02*
X125974183Y-91315824D01*
X125974183Y-91315824D02*
X125906839Y-91315824D01*
X125906839Y-91315824D02*
X125805824Y-91349496D01*
X125805824Y-91349496D02*
X125637465Y-91517854D01*
X125637465Y-91517854D02*
X125570122Y-91652541D01*
X125334420Y-91820900D02*
X124930359Y-92224961D01*
X125839496Y-92730037D02*
X125132389Y-92022931D01*
D11*
X105449046Y-79934204D02*
X105377618Y-79958014D01*
X105377618Y-79958014D02*
X105353808Y-79981823D01*
X105353808Y-79981823D02*
X105329999Y-80029442D01*
X105329999Y-80029442D02*
X105329999Y-80100871D01*
X105329999Y-80100871D02*
X105353808Y-80148490D01*
X105353808Y-80148490D02*
X105377618Y-80172300D01*
X105377618Y-80172300D02*
X105425237Y-80196109D01*
X105425237Y-80196109D02*
X105615713Y-80196109D01*
X105615713Y-80196109D02*
X105615713Y-79696109D01*
X105615713Y-79696109D02*
X105449046Y-79696109D01*
X105449046Y-79696109D02*
X105401427Y-79719919D01*
X105401427Y-79719919D02*
X105377618Y-79743728D01*
X105377618Y-79743728D02*
X105353808Y-79791347D01*
X105353808Y-79791347D02*
X105353808Y-79838966D01*
X105353808Y-79838966D02*
X105377618Y-79886585D01*
X105377618Y-79886585D02*
X105401427Y-79910395D01*
X105401427Y-79910395D02*
X105449046Y-79934204D01*
X105449046Y-79934204D02*
X105615713Y-79934204D01*
X105139522Y-80053252D02*
X104901427Y-80053252D01*
X105187141Y-80196109D02*
X105020475Y-79696109D01*
X105020475Y-79696109D02*
X104853808Y-80196109D01*
X104758570Y-79696109D02*
X104472856Y-79696109D01*
X104615713Y-80196109D02*
X104615713Y-79696109D01*
D12*
X108796455Y-94941278D02*
X108659500Y-94878677D01*
X108659500Y-94878677D02*
X108485368Y-94716296D01*
X108485368Y-94716296D02*
X108448191Y-94616517D01*
X108448191Y-94616517D02*
X108445841Y-94549215D01*
X108445841Y-94549215D02*
X108475967Y-94447086D01*
X108475967Y-94447086D02*
X108540919Y-94377433D01*
X108540919Y-94377433D02*
X108640698Y-94340257D01*
X108640698Y-94340257D02*
X108708000Y-94337906D01*
X108708000Y-94337906D02*
X108810129Y-94368032D01*
X108810129Y-94368032D02*
X108981911Y-94463110D01*
X108981911Y-94463110D02*
X109084039Y-94493236D01*
X109084039Y-94493236D02*
X109151342Y-94490886D01*
X109151342Y-94490886D02*
X109251120Y-94453709D01*
X109251120Y-94453709D02*
X109316073Y-94384057D01*
X109316073Y-94384057D02*
X109346199Y-94281928D01*
X109346199Y-94281928D02*
X109343848Y-94214625D01*
X109343848Y-94214625D02*
X109306672Y-94114847D01*
X109306672Y-94114847D02*
X109132540Y-93952466D01*
X109132540Y-93952466D02*
X108995585Y-93889864D01*
X108784276Y-93627705D02*
X107928146Y-94196678D01*
X107928146Y-94196678D02*
X108275982Y-93544378D01*
X108275982Y-93544378D02*
X107649535Y-93936869D01*
X107649535Y-93936869D02*
X108157402Y-93043135D01*
X107565353Y-92491041D02*
X107704659Y-92620946D01*
X107704659Y-92620946D02*
X107741836Y-92720724D01*
X107741836Y-92720724D02*
X107744186Y-92788027D01*
X107744186Y-92788027D02*
X107716410Y-92957458D01*
X107716410Y-92957458D02*
X107621332Y-93129240D01*
X107621332Y-93129240D02*
X107361523Y-93407850D01*
X107361523Y-93407850D02*
X107261745Y-93445027D01*
X107261745Y-93445027D02*
X107194442Y-93447377D01*
X107194442Y-93447377D02*
X107092313Y-93417252D01*
X107092313Y-93417252D02*
X106953008Y-93287347D01*
X106953008Y-93287347D02*
X106915831Y-93187568D01*
X106915831Y-93187568D02*
X106913481Y-93120266D01*
X106913481Y-93120266D02*
X106943607Y-93018137D01*
X106943607Y-93018137D02*
X107105987Y-92844005D01*
X107105987Y-92844005D02*
X107205766Y-92806829D01*
X107205766Y-92806829D02*
X107273068Y-92804478D01*
X107273068Y-92804478D02*
X107375197Y-92834604D01*
X107375197Y-92834604D02*
X107514503Y-92964509D01*
X107514503Y-92964509D02*
X107551679Y-93064287D01*
X107551679Y-93064287D02*
X107554030Y-93131590D01*
X107554030Y-93131590D02*
X107523904Y-93233719D01*
X107251916Y-92198756D02*
X106799173Y-91776567D01*
X106799173Y-91776567D02*
X106783149Y-92282510D01*
X106783149Y-92282510D02*
X106678670Y-92185082D01*
X106678670Y-92185082D02*
X106576541Y-92154956D01*
X106576541Y-92154956D02*
X106509239Y-92157306D01*
X106509239Y-92157306D02*
X106409460Y-92194483D01*
X106409460Y-92194483D02*
X106247079Y-92368615D01*
X106247079Y-92368615D02*
X106216954Y-92470744D01*
X106216954Y-92470744D02*
X106219304Y-92538046D01*
X106219304Y-92538046D02*
X106256480Y-92637825D01*
X106256480Y-92637825D02*
X106465439Y-92832681D01*
X106465439Y-92832681D02*
X106567567Y-92862807D01*
X106567567Y-92862807D02*
X106634870Y-92860457D01*
X108136156Y-96591971D02*
X108818154Y-95860618D01*
X108818154Y-95860618D02*
X108087228Y-96155680D01*
X108087228Y-96155680D02*
X108330585Y-95405952D01*
X108330585Y-95405952D02*
X107648586Y-96137306D01*
X107300323Y-95812545D02*
X107982321Y-95081191D01*
X107490479Y-95468981D02*
X107021712Y-95552736D01*
X107476378Y-95065167D02*
X107495180Y-95603586D01*
X106849503Y-94480596D02*
X106394837Y-94968166D01*
X107283444Y-94364366D02*
X106970434Y-95049142D01*
X106970434Y-95049142D02*
X106517691Y-94626953D01*
X105978843Y-93668693D02*
X105350046Y-93993882D01*
X105350046Y-93993882D02*
X105630580Y-93343932D01*
X105549176Y-92942468D02*
X105546825Y-92875165D01*
X105546825Y-92875165D02*
X105509649Y-92775386D01*
X105509649Y-92775386D02*
X105335517Y-92613006D01*
X105335517Y-92613006D02*
X105233388Y-92582880D01*
X105233388Y-92582880D02*
X105166086Y-92585230D01*
X105166086Y-92585230D02*
X105066307Y-92622407D01*
X105066307Y-92622407D02*
X105001355Y-92692060D01*
X105001355Y-92692060D02*
X104938753Y-92829015D01*
X104938753Y-92829015D02*
X104966956Y-93636645D01*
X104966956Y-93636645D02*
X104514213Y-93214455D01*
D11*
X115696665Y-93846109D02*
X115529999Y-94346109D01*
X115529999Y-94346109D02*
X115363332Y-93846109D01*
X120889047Y-94439919D02*
X120936666Y-94416109D01*
X120936666Y-94416109D02*
X121008095Y-94416109D01*
X121008095Y-94416109D02*
X121079523Y-94439919D01*
X121079523Y-94439919D02*
X121127142Y-94487538D01*
X121127142Y-94487538D02*
X121150952Y-94535157D01*
X121150952Y-94535157D02*
X121174761Y-94630395D01*
X121174761Y-94630395D02*
X121174761Y-94701823D01*
X121174761Y-94701823D02*
X121150952Y-94797061D01*
X121150952Y-94797061D02*
X121127142Y-94844680D01*
X121127142Y-94844680D02*
X121079523Y-94892300D01*
X121079523Y-94892300D02*
X121008095Y-94916109D01*
X121008095Y-94916109D02*
X120960476Y-94916109D01*
X120960476Y-94916109D02*
X120889047Y-94892300D01*
X120889047Y-94892300D02*
X120865238Y-94868490D01*
X120865238Y-94868490D02*
X120865238Y-94701823D01*
X120865238Y-94701823D02*
X120960476Y-94701823D01*
D12*
X107362576Y-69234149D02*
X107699293Y-69840240D01*
X107699293Y-69840240D02*
X107227889Y-69638210D01*
X107227889Y-69638210D02*
X107429919Y-70109614D01*
X107429919Y-70109614D02*
X106823828Y-69772897D01*
X106722812Y-70816721D02*
X106352423Y-70446332D01*
X106352423Y-70446332D02*
X106318751Y-70345316D01*
X106318751Y-70345316D02*
X106352423Y-70244301D01*
X106352423Y-70244301D02*
X106487110Y-70109614D01*
X106487110Y-70109614D02*
X106588125Y-70075942D01*
X106689141Y-70783049D02*
X106790156Y-70749377D01*
X106790156Y-70749377D02*
X106958515Y-70581019D01*
X106958515Y-70581019D02*
X106992186Y-70480003D01*
X106992186Y-70480003D02*
X106958515Y-70378988D01*
X106958515Y-70378988D02*
X106891171Y-70311645D01*
X106891171Y-70311645D02*
X106790156Y-70277973D01*
X106790156Y-70277973D02*
X106689141Y-70311645D01*
X106689141Y-70311645D02*
X106520782Y-70480003D01*
X106520782Y-70480003D02*
X106419767Y-70513675D01*
X106015706Y-70581019D02*
X105746331Y-70850393D01*
X105678988Y-70446332D02*
X106285080Y-71052423D01*
X106285080Y-71052423D02*
X106318751Y-71153439D01*
X106318751Y-71153439D02*
X106285080Y-71254454D01*
X106285080Y-71254454D02*
X106217736Y-71321797D01*
X105645316Y-71826874D02*
X105746331Y-71793202D01*
X105746331Y-71793202D02*
X105881018Y-71658515D01*
X105881018Y-71658515D02*
X105914690Y-71557500D01*
X105914690Y-71557500D02*
X105914690Y-71490156D01*
X105914690Y-71490156D02*
X105881018Y-71389141D01*
X105881018Y-71389141D02*
X105678988Y-71187111D01*
X105678988Y-71187111D02*
X105577972Y-71153439D01*
X105577972Y-71153439D02*
X105510629Y-71153439D01*
X105510629Y-71153439D02*
X105409614Y-71187111D01*
X105409614Y-71187111D02*
X105274927Y-71321798D01*
X105274927Y-71321798D02*
X105241255Y-71422813D01*
X105375942Y-72163591D02*
X104668835Y-71456485D01*
X105072896Y-72466637D02*
X104702507Y-72096248D01*
X104702507Y-72096248D02*
X104668835Y-71995233D01*
X104668835Y-71995233D02*
X104702507Y-71894217D01*
X104702507Y-71894217D02*
X104803522Y-71793202D01*
X104803522Y-71793202D02*
X104904537Y-71759530D01*
X104904537Y-71759530D02*
X104971881Y-71759530D01*
D11*
X118785238Y-97088490D02*
X118809047Y-97112300D01*
X118809047Y-97112300D02*
X118880476Y-97136109D01*
X118880476Y-97136109D02*
X118928095Y-97136109D01*
X118928095Y-97136109D02*
X118999523Y-97112300D01*
X118999523Y-97112300D02*
X119047142Y-97064680D01*
X119047142Y-97064680D02*
X119070952Y-97017061D01*
X119070952Y-97017061D02*
X119094761Y-96921823D01*
X119094761Y-96921823D02*
X119094761Y-96850395D01*
X119094761Y-96850395D02*
X119070952Y-96755157D01*
X119070952Y-96755157D02*
X119047142Y-96707538D01*
X119047142Y-96707538D02*
X118999523Y-96659919D01*
X118999523Y-96659919D02*
X118928095Y-96636109D01*
X118928095Y-96636109D02*
X118880476Y-96636109D01*
X118880476Y-96636109D02*
X118809047Y-96659919D01*
X118809047Y-96659919D02*
X118785238Y-96683728D01*
X118570952Y-97136109D02*
X118570952Y-96636109D01*
X118285238Y-97136109D02*
X118499523Y-96850395D01*
X118285238Y-96636109D02*
X118570952Y-96921823D01*
X116591428Y-97556109D02*
X116591428Y-97056109D01*
X116591428Y-97056109D02*
X116472380Y-97056109D01*
X116472380Y-97056109D02*
X116400952Y-97079919D01*
X116400952Y-97079919D02*
X116353333Y-97127538D01*
X116353333Y-97127538D02*
X116329523Y-97175157D01*
X116329523Y-97175157D02*
X116305714Y-97270395D01*
X116305714Y-97270395D02*
X116305714Y-97341823D01*
X116305714Y-97341823D02*
X116329523Y-97437061D01*
X116329523Y-97437061D02*
X116353333Y-97484680D01*
X116353333Y-97484680D02*
X116400952Y-97532300D01*
X116400952Y-97532300D02*
X116472380Y-97556109D01*
X116472380Y-97556109D02*
X116591428Y-97556109D01*
X116162856Y-97056109D02*
X115877142Y-97056109D01*
X116019999Y-97556109D02*
X116019999Y-97056109D01*
D12*
X105330951Y-75771266D02*
X104569047Y-75771266D01*
X104949999Y-76152219D02*
X104949999Y-75390314D01*
X125898770Y-96582722D02*
X125123292Y-96240004D01*
X125585789Y-95994090D02*
X125436273Y-96828636D01*
X125184003Y-96962771D02*
X124408525Y-96620053D01*
X124871022Y-96374139D02*
X124721506Y-97208684D01*
X123747493Y-96594006D02*
X123663403Y-96638718D01*
X123663403Y-96638718D02*
X123601668Y-96725475D01*
X123601668Y-96725475D02*
X123581979Y-96789876D01*
X123581979Y-96789876D02*
X123584645Y-96896322D01*
X123584645Y-96896322D02*
X123632023Y-97086858D01*
X123632023Y-97086858D02*
X123743802Y-97297083D01*
X123743802Y-97297083D02*
X123875271Y-97442908D01*
X123875271Y-97442908D02*
X123962027Y-97504643D01*
X123962027Y-97504643D02*
X124026428Y-97524332D01*
X124026428Y-97524332D02*
X124132874Y-97521665D01*
X124132874Y-97521665D02*
X124216965Y-97476954D01*
X124216965Y-97476954D02*
X124278699Y-97390197D01*
X124278699Y-97390197D02*
X124298388Y-97325796D01*
X124298388Y-97325796D02*
X124295722Y-97219350D01*
X124295722Y-97219350D02*
X124248344Y-97028814D01*
X124248344Y-97028814D02*
X124136565Y-96818588D01*
X124136565Y-96818588D02*
X124005097Y-96672764D01*
X124005097Y-96672764D02*
X123918340Y-96611029D01*
X123918340Y-96611029D02*
X123853939Y-96591340D01*
X123853939Y-96591340D02*
X123747493Y-96594006D01*
X123628333Y-97789935D02*
X122852855Y-97447217D01*
X123315352Y-97201303D02*
X123165836Y-98035849D01*
X130611282Y-72783473D02*
X130510267Y-72749801D01*
X130510267Y-72749801D02*
X130375580Y-72615114D01*
X130375580Y-72615114D02*
X130341908Y-72514099D01*
X130341908Y-72514099D02*
X130375580Y-72413084D01*
X130375580Y-72413084D02*
X130409252Y-72379412D01*
X130409252Y-72379412D02*
X130510267Y-72345740D01*
X130510267Y-72345740D02*
X130611282Y-72379412D01*
X130611282Y-72379412D02*
X130712297Y-72480427D01*
X130712297Y-72480427D02*
X130813313Y-72514099D01*
X130813313Y-72514099D02*
X130914328Y-72480427D01*
X130914328Y-72480427D02*
X130948000Y-72446755D01*
X130948000Y-72446755D02*
X130981671Y-72345740D01*
X130981671Y-72345740D02*
X130948000Y-72244725D01*
X130948000Y-72244725D02*
X130846984Y-72143710D01*
X130846984Y-72143710D02*
X130745969Y-72110038D01*
X130442923Y-71739648D02*
X129735816Y-72446755D01*
X130409251Y-71773320D02*
X130375580Y-71672305D01*
X130375580Y-71672305D02*
X130240893Y-71537618D01*
X130240893Y-71537618D02*
X130139877Y-71503946D01*
X130139877Y-71503946D02*
X130072534Y-71503946D01*
X130072534Y-71503946D02*
X129971519Y-71537618D01*
X129971519Y-71537618D02*
X129769488Y-71739648D01*
X129769488Y-71739648D02*
X129735816Y-71840664D01*
X129735816Y-71840664D02*
X129735816Y-71908007D01*
X129735816Y-71908007D02*
X129769488Y-72009022D01*
X129769488Y-72009022D02*
X129904175Y-72143709D01*
X129904175Y-72143709D02*
X130005190Y-72177381D01*
X129028709Y-71268244D02*
X129399099Y-70897855D01*
X129399099Y-70897855D02*
X129500114Y-70864183D01*
X129500114Y-70864183D02*
X129601129Y-70897855D01*
X129601129Y-70897855D02*
X129735816Y-71032542D01*
X129735816Y-71032542D02*
X129769488Y-71133557D01*
X129062381Y-71234572D02*
X129096053Y-71335587D01*
X129096053Y-71335587D02*
X129264412Y-71503946D01*
X129264412Y-71503946D02*
X129365427Y-71537618D01*
X129365427Y-71537618D02*
X129466442Y-71503946D01*
X129466442Y-71503946D02*
X129533786Y-71436603D01*
X129533786Y-71436603D02*
X129567458Y-71335587D01*
X129567458Y-71335587D02*
X129533786Y-71234572D01*
X129533786Y-71234572D02*
X129365427Y-71066213D01*
X129365427Y-71066213D02*
X129331755Y-70965198D01*
X128422618Y-70594809D02*
X128456290Y-70695824D01*
X128456290Y-70695824D02*
X128590977Y-70830511D01*
X128590977Y-70830511D02*
X128691992Y-70864183D01*
X128691992Y-70864183D02*
X128759335Y-70864183D01*
X128759335Y-70864183D02*
X128860351Y-70830511D01*
X128860351Y-70830511D02*
X129062381Y-70628480D01*
X129062381Y-70628480D02*
X129096053Y-70527465D01*
X129096053Y-70527465D02*
X129096053Y-70460122D01*
X129096053Y-70460122D02*
X129062381Y-70359106D01*
X129062381Y-70359106D02*
X128927694Y-70224419D01*
X128927694Y-70224419D02*
X128826679Y-70190748D01*
X127850198Y-70022389D02*
X127883870Y-70123404D01*
X127883870Y-70123404D02*
X128018557Y-70258091D01*
X128018557Y-70258091D02*
X128119572Y-70291763D01*
X128119572Y-70291763D02*
X128220587Y-70258091D01*
X128220587Y-70258091D02*
X128489961Y-69988717D01*
X128489961Y-69988717D02*
X128523633Y-69887702D01*
X128523633Y-69887702D02*
X128489961Y-69786687D01*
X128489961Y-69786687D02*
X128355274Y-69652000D01*
X128355274Y-69652000D02*
X128254259Y-69618328D01*
X128254259Y-69618328D02*
X128153244Y-69652000D01*
X128153244Y-69652000D02*
X128085900Y-69719343D01*
X128085900Y-69719343D02*
X128355274Y-70123404D01*
D11*
X121162857Y-97156109D02*
X121162857Y-96656109D01*
X121162857Y-96656109D02*
X120877143Y-97156109D01*
X120877143Y-97156109D02*
X120877143Y-96656109D01*
X120353333Y-97108490D02*
X120377142Y-97132300D01*
X120377142Y-97132300D02*
X120448571Y-97156109D01*
X120448571Y-97156109D02*
X120496190Y-97156109D01*
X120496190Y-97156109D02*
X120567618Y-97132300D01*
X120567618Y-97132300D02*
X120615237Y-97084680D01*
X120615237Y-97084680D02*
X120639047Y-97037061D01*
X120639047Y-97037061D02*
X120662856Y-96941823D01*
X120662856Y-96941823D02*
X120662856Y-96870395D01*
X120662856Y-96870395D02*
X120639047Y-96775157D01*
X120639047Y-96775157D02*
X120615237Y-96727538D01*
X120615237Y-96727538D02*
X120567618Y-96679919D01*
X120567618Y-96679919D02*
X120496190Y-96656109D01*
X120496190Y-96656109D02*
X120448571Y-96656109D01*
X120448571Y-96656109D02*
X120377142Y-96679919D01*
X120377142Y-96679919D02*
X120353333Y-96703728D01*
D13*
%TO.C,R3*%
X110906359Y-68520000D02*
X111213641Y-68520000D01*
X110906359Y-69280000D02*
X111213641Y-69280000D01*
%TO.C,D22*%
X121040000Y-71900000D02*
X123700000Y-71900000D01*
X121040000Y-73600000D02*
X121040000Y-71900000D01*
X121040000Y-73600000D02*
X123700000Y-73600000D01*
%TO.C,C10*%
X112742164Y-85440000D02*
X112957836Y-85440000D01*
X112742164Y-86160000D02*
X112957836Y-86160000D01*
D14*
%TO.C,J1*%
X126530000Y-77500000D02*
X133180000Y-77500000D01*
X126530000Y-78800000D02*
X126530000Y-77500000D01*
X126530000Y-87500000D02*
X126530000Y-86200000D01*
X126530000Y-87500000D02*
X133180000Y-87500000D01*
X126530000Y-87512000D02*
X126530000Y-87500000D01*
X133180000Y-78030000D02*
X133180000Y-77500000D01*
X133180000Y-78030000D02*
X134380000Y-78030000D01*
X133180000Y-86970000D02*
X133180000Y-87500000D01*
X134380000Y-78030000D02*
X134380000Y-86970000D01*
X134380000Y-86970000D02*
X133180000Y-86970000D01*
D13*
%TO.C,R16*%
X113773641Y-67310000D02*
X113466359Y-67310000D01*
X113773641Y-68070000D02*
X113466359Y-68070000D01*
%TO.C,C5*%
X121140000Y-78407836D02*
X121140000Y-78192164D01*
X121860000Y-78407836D02*
X121860000Y-78192164D01*
%TO.C,R7*%
X120070000Y-78453641D02*
X120070000Y-78146359D01*
X120830000Y-78453641D02*
X120830000Y-78146359D01*
%TO.C,C3*%
X113190000Y-71957836D02*
X113190000Y-71742164D01*
X113910000Y-71957836D02*
X113910000Y-71742164D01*
%TO.C,U7*%
X109890000Y-79090000D02*
X109890000Y-79565000D01*
X109890000Y-83835000D02*
X109890000Y-84310000D01*
X109890000Y-84310000D02*
X110365000Y-84310000D01*
X110365000Y-79090000D02*
X109890000Y-79090000D01*
X114635000Y-84310000D02*
X115110000Y-84310000D01*
X115110000Y-79090000D02*
X114635000Y-79090000D01*
X115110000Y-79565000D02*
X115110000Y-79090000D01*
X115110000Y-84310000D02*
X115110000Y-83835000D01*
X114490000Y-85170000D02*
X114010000Y-85170000D01*
X114250000Y-84840000D01*
X114490000Y-85170000D01*
G36*
X114490000Y-85170000D02*
G01*
X114010000Y-85170000D01*
X114250000Y-84840000D01*
X114490000Y-85170000D01*
G37*
%TO.C,R5*%
X112270000Y-95846359D02*
X112270000Y-96153641D01*
X113030000Y-95846359D02*
X113030000Y-96153641D01*
%TO.C,Q2*%
X111100000Y-88000000D02*
X111100000Y-89520000D01*
X111100000Y-89520000D02*
X112100000Y-89520000D01*
X111150000Y-88000000D02*
X111100000Y-88000000D01*
X113050000Y-88000000D02*
X112270000Y-88000000D01*
X113220000Y-89520000D02*
X114220000Y-89520000D01*
X114220000Y-88000000D02*
X114170000Y-88000000D01*
X114220000Y-89520000D02*
X114220000Y-88000000D01*
X112610000Y-87700000D02*
X112280000Y-87460000D01*
X112610000Y-87220000D01*
X112610000Y-87700000D01*
G36*
X112610000Y-87700000D02*
G01*
X112280000Y-87460000D01*
X112610000Y-87220000D01*
X112610000Y-87700000D01*
G37*
%TO.C,R12*%
X111996359Y-92620000D02*
X112303641Y-92620000D01*
X111996359Y-93380000D02*
X112303641Y-93380000D01*
%TO.C,C11*%
X115092164Y-85840000D02*
X115307836Y-85840000D01*
X115092164Y-86560000D02*
X115307836Y-86560000D01*
%TO.C,R11*%
X103303641Y-78370000D02*
X102996359Y-78370000D01*
X103303641Y-79130000D02*
X102996359Y-79130000D01*
%TO.C,R8*%
X115070000Y-90246359D02*
X115070000Y-90553641D01*
X115830000Y-90246359D02*
X115830000Y-90553641D01*
%TO.C,C9*%
X110337836Y-77540000D02*
X110122164Y-77540000D01*
X110337836Y-78260000D02*
X110122164Y-78260000D01*
%TO.C,R13*%
X102996359Y-77170000D02*
X103303641Y-77170000D01*
X102996359Y-77930000D02*
X103303641Y-77930000D01*
%TO.C,U3*%
X101615000Y-81790000D02*
X101615000Y-86410000D01*
X107085000Y-86410000D02*
X107085000Y-81790000D01*
X106870000Y-88290000D02*
X106390000Y-88290000D01*
X106630000Y-87960000D01*
X106870000Y-88290000D01*
G36*
X106870000Y-88290000D02*
G01*
X106390000Y-88290000D01*
X106630000Y-87960000D01*
X106870000Y-88290000D01*
G37*
%TO.C,U5*%
X117590000Y-93785000D02*
X122210000Y-93785000D01*
X122210000Y-88315000D02*
X117590000Y-88315000D01*
X124090000Y-89010000D02*
X123760000Y-88770000D01*
X124090000Y-88530000D01*
X124090000Y-89010000D01*
G36*
X124090000Y-89010000D02*
G01*
X123760000Y-88770000D01*
X124090000Y-88530000D01*
X124090000Y-89010000D01*
G37*
%TO.C,C1*%
X107790000Y-71907836D02*
X107790000Y-71692164D01*
X108510000Y-71907836D02*
X108510000Y-71692164D01*
%TO.C,R14*%
X123420000Y-86946359D02*
X123420000Y-87253641D01*
X124180000Y-86946359D02*
X124180000Y-87253641D01*
%TO.C,U6*%
X114940000Y-67640000D02*
X114940000Y-71760000D01*
X114940000Y-71760000D02*
X115035000Y-71760000D01*
X115035000Y-67640000D02*
X114940000Y-67640000D01*
X119965000Y-71760000D02*
X120060000Y-71760000D01*
X120060000Y-67640000D02*
X119965000Y-67640000D01*
X120060000Y-71760000D02*
X120060000Y-67640000D01*
X115030000Y-67100000D02*
X114700000Y-67340000D01*
X114700000Y-66860000D01*
X115030000Y-67100000D01*
G36*
X115030000Y-67100000D02*
G01*
X114700000Y-67340000D01*
X114700000Y-66860000D01*
X115030000Y-67100000D01*
G37*
%TO.C,C6*%
X115090000Y-88292164D02*
X115090000Y-88507836D01*
X115810000Y-88292164D02*
X115810000Y-88507836D01*
%TO.C,C7*%
X121642164Y-67040000D02*
X121857836Y-67040000D01*
X121642164Y-67760000D02*
X121857836Y-67760000D01*
%TO.C,R10*%
X114036359Y-76870000D02*
X114343641Y-76870000D01*
X114036359Y-77630000D02*
X114343641Y-77630000D01*
%TO.C,Q1*%
X125690000Y-70490000D02*
X125690000Y-70540000D01*
X125690000Y-71660000D02*
X125690000Y-72440000D01*
X125690000Y-73560000D02*
X125690000Y-73610000D01*
X125690000Y-73610000D02*
X127210000Y-73610000D01*
X127210000Y-70490000D02*
X125690000Y-70490000D01*
X127210000Y-71490000D02*
X127210000Y-70490000D01*
X127210000Y-73610000D02*
X127210000Y-72610000D01*
X125150000Y-72430000D02*
X124910000Y-72100000D01*
X125390000Y-72100000D01*
X125150000Y-72430000D01*
G36*
X125150000Y-72430000D02*
G01*
X124910000Y-72100000D01*
X125390000Y-72100000D01*
X125150000Y-72430000D01*
G37*
%TO.C,C8*%
X124740000Y-69142164D02*
X124740000Y-69357836D01*
X125460000Y-69142164D02*
X125460000Y-69357836D01*
%TO.C,R6*%
X107320000Y-82846359D02*
X107320000Y-83153641D01*
X108080000Y-82846359D02*
X108080000Y-83153641D01*
%TO.C,R15*%
X113466359Y-68370000D02*
X113773641Y-68370000D01*
X113466359Y-69130000D02*
X113773641Y-69130000D01*
%TO.C,R4*%
X123670000Y-74796359D02*
X123670000Y-75103641D01*
X124430000Y-74796359D02*
X124430000Y-75103641D01*
%TO.C,F1*%
X123812779Y-79490000D02*
X123487221Y-79490000D01*
X123812779Y-80510000D02*
X123487221Y-80510000D01*
%TO.C,R9*%
X116453641Y-76870000D02*
X116146359Y-76870000D01*
X116453641Y-77630000D02*
X116146359Y-77630000D01*
%TO.C,C4*%
X107340000Y-80892164D02*
X107340000Y-81107836D01*
X108060000Y-80892164D02*
X108060000Y-81107836D01*
%TO.C,U2*%
X121490000Y-68140000D02*
X121490000Y-68190000D01*
X121490000Y-69310000D02*
X121490000Y-70090000D01*
X121490000Y-71210000D02*
X121490000Y-71260000D01*
X121490000Y-71260000D02*
X123310000Y-71260000D01*
X123310000Y-68140000D02*
X121490000Y-68140000D01*
X123310000Y-68190000D02*
X123310000Y-68140000D01*
X123310000Y-71260000D02*
X123310000Y-71210000D01*
X123850000Y-68190000D02*
X123610000Y-67860000D01*
X124090000Y-67860000D01*
X123850000Y-68190000D01*
G36*
X123850000Y-68190000D02*
G01*
X123610000Y-67860000D01*
X124090000Y-67860000D01*
X123850000Y-68190000D01*
G37*
%TO.C,SW2*%
X128240221Y-90803748D02*
X125765348Y-93278621D01*
X128240221Y-90803748D02*
X128268506Y-90832032D01*
X128834191Y-90266346D02*
X128268506Y-90832032D01*
%TO.C,C2*%
X123992164Y-78240000D02*
X124207836Y-78240000D01*
X123992164Y-78960000D02*
X124207836Y-78960000D01*
%TO.C,R1*%
X124303641Y-80870000D02*
X123996359Y-80870000D01*
X124303641Y-81630000D02*
X123996359Y-81630000D01*
%TO.C,C12*%
X117140000Y-74557836D02*
X117140000Y-74342164D01*
X117860000Y-74557836D02*
X117860000Y-74342164D01*
%TO.C,U1*%
X109940000Y-69740000D02*
X109940000Y-69790000D01*
X109940000Y-70910000D02*
X109940000Y-71690000D01*
X109940000Y-72810000D02*
X109940000Y-72860000D01*
X109940000Y-72860000D02*
X111760000Y-72860000D01*
X111760000Y-69740000D02*
X109940000Y-69740000D01*
X111760000Y-69790000D02*
X111760000Y-69740000D01*
X111760000Y-72860000D02*
X111760000Y-72810000D01*
X112300000Y-69790000D02*
X112060000Y-69460000D01*
X112540000Y-69460000D01*
X112300000Y-69790000D01*
G36*
X112300000Y-69790000D02*
G01*
X112060000Y-69460000D01*
X112540000Y-69460000D01*
X112300000Y-69790000D01*
G37*
%TO.C,U4*%
X116615000Y-80990000D02*
X116615000Y-85610000D01*
X122085000Y-85610000D02*
X122085000Y-80990000D01*
X121870000Y-87490000D02*
X121390000Y-87490000D01*
X121630000Y-87160000D01*
X121870000Y-87490000D01*
G36*
X121870000Y-87490000D02*
G01*
X121390000Y-87490000D01*
X121630000Y-87160000D01*
X121870000Y-87490000D01*
G37*
%TO.C,J2*%
X113580000Y-94145000D02*
X113580000Y-95525000D01*
X113580000Y-96795000D02*
X113580000Y-99445000D01*
X113580000Y-99445000D02*
X121420000Y-99445000D01*
X114960000Y-94145000D02*
X113580000Y-94145000D01*
X116230000Y-94145000D02*
X116230000Y-96795000D01*
X116230000Y-94145000D02*
X121420000Y-94145000D01*
X116230000Y-96795000D02*
X113580000Y-96795000D01*
X121420000Y-94145000D02*
X121420000Y-99445000D01*
%TO.C,R2*%
X124253641Y-83520000D02*
X123946359Y-83520000D01*
X124253641Y-84280000D02*
X123946359Y-84280000D01*
%TD*%
%LPC*%
D15*
%TO.C,D14*%
X119471866Y-75000000D03*
D16*
X122011866Y-75000000D03*
%TD*%
D15*
%TO.C,D16*%
X106480000Y-75000000D03*
D16*
X109020000Y-75000000D03*
%TD*%
D17*
%TO.C,D21*%
X129200000Y-89700000D03*
X126660000Y-89700000D03*
%TD*%
D18*
%TO.C,H4*%
X103500000Y-90000000D03*
%TD*%
%TO.C,H3*%
X131500000Y-75000000D03*
%TD*%
D17*
%TO.C,D20*%
X105830000Y-91400000D03*
X108370000Y-91400000D03*
%TD*%
D18*
%TO.C,H1*%
X103500000Y-75000000D03*
%TD*%
D17*
%TO.C,D18*%
X113870000Y-91400000D03*
X111330000Y-91400000D03*
%TD*%
D18*
%TO.C,H2*%
X131500000Y-90000000D03*
%TD*%
D15*
%TO.C,D13*%
X128520000Y-75000000D03*
D16*
X125980000Y-75000000D03*
%TD*%
D15*
%TO.C,D15*%
X115528134Y-75000000D03*
D16*
X112988134Y-75000000D03*
%TD*%
D17*
%TO.C,D19*%
X109850000Y-95420000D03*
X109850000Y-92880000D03*
%TD*%
%TO.C,D17*%
X109850000Y-87380000D03*
X109850000Y-89920000D03*
%TD*%
D19*
%TO.C,R3*%
X110550000Y-68900000D03*
X111570000Y-68900000D03*
%TD*%
D20*
%TO.C,D22*%
X121600000Y-72750000D03*
X123700000Y-72750000D03*
%TD*%
D21*
%TO.C,C10*%
X112370000Y-85800000D03*
X113330000Y-85800000D03*
%TD*%
D22*
%TO.C,J1*%
X128380000Y-79250000D03*
X128380000Y-85750000D03*
D23*
X126510000Y-79300000D03*
X126510000Y-80100000D03*
D24*
X126510000Y-81250000D03*
X126510000Y-82250000D03*
X126510000Y-82750000D03*
X126510000Y-83750000D03*
D23*
X126510000Y-85700000D03*
X126510000Y-84900000D03*
D24*
X126510000Y-84250000D03*
X126510000Y-83250000D03*
X126510000Y-81750000D03*
X126510000Y-80750000D03*
D25*
X131300000Y-76780000D03*
X128300000Y-76780000D03*
X131300000Y-88220000D03*
X128300000Y-88220000D03*
%TD*%
D26*
%TO.C,R16*%
X114130000Y-67690000D03*
X113110000Y-67690000D03*
%TD*%
D27*
%TO.C,C5*%
X121500000Y-78780000D03*
X121500000Y-77820000D03*
%TD*%
D28*
%TO.C,R7*%
X120450000Y-78810000D03*
X120450000Y-77790000D03*
%TD*%
D27*
%TO.C,C3*%
X113550000Y-72330000D03*
X113550000Y-71370000D03*
%TD*%
D29*
%TO.C,U7*%
X114250000Y-84137500D03*
X113750000Y-84137500D03*
X113250000Y-84137500D03*
X112750000Y-84137500D03*
X112250000Y-84137500D03*
X111750000Y-84137500D03*
X111250000Y-84137500D03*
X110750000Y-84137500D03*
D30*
X110062500Y-83450000D03*
X110062500Y-82950000D03*
X110062500Y-82450000D03*
X110062500Y-81950000D03*
X110062500Y-81450000D03*
X110062500Y-80950000D03*
X110062500Y-80450000D03*
X110062500Y-79950000D03*
D29*
X110750000Y-79262500D03*
X111250000Y-79262500D03*
X111750000Y-79262500D03*
X112250000Y-79262500D03*
X112750000Y-79262500D03*
X113250000Y-79262500D03*
X113750000Y-79262500D03*
X114250000Y-79262500D03*
D30*
X114937500Y-79950000D03*
X114937500Y-80450000D03*
X114937500Y-80950000D03*
X114937500Y-81450000D03*
X114937500Y-81950000D03*
X114937500Y-82450000D03*
X114937500Y-82950000D03*
X114937500Y-83450000D03*
D31*
X112500000Y-81700000D03*
%TD*%
D32*
%TO.C,R5*%
X112650000Y-95490000D03*
X112650000Y-96510000D03*
%TD*%
D33*
%TO.C,Q2*%
X111710000Y-87822500D03*
X113610000Y-87822500D03*
X112660000Y-89697500D03*
%TD*%
D19*
%TO.C,R12*%
X111640000Y-93000000D03*
X112660000Y-93000000D03*
%TD*%
D21*
%TO.C,C11*%
X114720000Y-86200000D03*
X115680000Y-86200000D03*
%TD*%
D26*
%TO.C,R11*%
X103660000Y-78750000D03*
X102640000Y-78750000D03*
%TD*%
D32*
%TO.C,R8*%
X115450000Y-89890000D03*
X115450000Y-90910000D03*
%TD*%
D34*
%TO.C,C9*%
X110710000Y-77900000D03*
X109750000Y-77900000D03*
%TD*%
D19*
%TO.C,R13*%
X102640000Y-77550000D03*
X103660000Y-77550000D03*
%TD*%
D35*
%TO.C,U3*%
X106625000Y-86962500D03*
X105975000Y-86962500D03*
X105325000Y-86962500D03*
X104675000Y-86962500D03*
X104025000Y-86962500D03*
X103375000Y-86962500D03*
X102725000Y-86962500D03*
X102075000Y-86962500D03*
X102075000Y-81237500D03*
X102725000Y-81237500D03*
X103375000Y-81237500D03*
X104025000Y-81237500D03*
X104675000Y-81237500D03*
X105325000Y-81237500D03*
X105975000Y-81237500D03*
X106625000Y-81237500D03*
%TD*%
D36*
%TO.C,U5*%
X122762500Y-88775000D03*
X122762500Y-89425000D03*
X122762500Y-90075000D03*
X122762500Y-90725000D03*
X122762500Y-91375000D03*
X122762500Y-92025000D03*
X122762500Y-92675000D03*
X122762500Y-93325000D03*
X117037500Y-93325000D03*
X117037500Y-92675000D03*
X117037500Y-92025000D03*
X117037500Y-91375000D03*
X117037500Y-90725000D03*
X117037500Y-90075000D03*
X117037500Y-89425000D03*
X117037500Y-88775000D03*
%TD*%
D27*
%TO.C,C1*%
X108150000Y-72280000D03*
X108150000Y-71320000D03*
%TD*%
D32*
%TO.C,R14*%
X123800000Y-86590000D03*
X123800000Y-87610000D03*
%TD*%
D37*
%TO.C,U6*%
X115595000Y-67225000D03*
X116865000Y-67225000D03*
X118135000Y-67225000D03*
X119405000Y-67225000D03*
X119405000Y-72175000D03*
X118135000Y-72175000D03*
X116865000Y-72175000D03*
X115595000Y-72175000D03*
%TD*%
D38*
%TO.C,C6*%
X115450000Y-87920000D03*
X115450000Y-88880000D03*
%TD*%
D21*
%TO.C,C7*%
X121270000Y-67400000D03*
X122230000Y-67400000D03*
%TD*%
D19*
%TO.C,R10*%
X113680000Y-77250000D03*
X114700000Y-77250000D03*
%TD*%
D39*
%TO.C,Q1*%
X125512500Y-73000000D03*
X125512500Y-71100000D03*
X127387500Y-72050000D03*
%TD*%
D38*
%TO.C,C8*%
X125100000Y-68770000D03*
X125100000Y-69730000D03*
%TD*%
D32*
%TO.C,R6*%
X107700000Y-82490000D03*
X107700000Y-83510000D03*
%TD*%
D19*
%TO.C,R15*%
X113110000Y-68750000D03*
X114130000Y-68750000D03*
%TD*%
D32*
%TO.C,R4*%
X124050000Y-74440000D03*
X124050000Y-75460000D03*
%TD*%
D40*
%TO.C,F1*%
X124437500Y-80000000D03*
X122862500Y-80000000D03*
%TD*%
D26*
%TO.C,R9*%
X116810000Y-77250000D03*
X115790000Y-77250000D03*
%TD*%
D38*
%TO.C,C4*%
X107700000Y-80520000D03*
X107700000Y-81480000D03*
%TD*%
D41*
%TO.C,U2*%
X123537500Y-68750000D03*
X123537500Y-69700000D03*
X123537500Y-70650000D03*
X121262500Y-70650000D03*
X121262500Y-68750000D03*
%TD*%
D42*
%TO.C,SW2*%
X128862475Y-91355291D03*
X126316891Y-93900875D03*
X129880709Y-92373525D03*
X127335125Y-94919109D03*
%TD*%
D21*
%TO.C,C2*%
X123620000Y-78600000D03*
X124580000Y-78600000D03*
%TD*%
D26*
%TO.C,R1*%
X124660000Y-81250000D03*
X123640000Y-81250000D03*
%TD*%
D27*
%TO.C,C12*%
X117500000Y-74930000D03*
X117500000Y-73970000D03*
%TD*%
D41*
%TO.C,U1*%
X111987500Y-70350000D03*
X111987500Y-71300000D03*
X111987500Y-72250000D03*
X109712500Y-72250000D03*
X109712500Y-70350000D03*
%TD*%
D43*
%TO.C,J3*%
X107480000Y-77930000D03*
X105480000Y-77930000D03*
%TD*%
D35*
%TO.C,U4*%
X121625000Y-86162500D03*
X120975000Y-86162500D03*
X120325000Y-86162500D03*
X119675000Y-86162500D03*
X119025000Y-86162500D03*
X118375000Y-86162500D03*
X117725000Y-86162500D03*
X117075000Y-86162500D03*
X117075000Y-80437500D03*
X117725000Y-80437500D03*
X118375000Y-80437500D03*
X119025000Y-80437500D03*
X119675000Y-80437500D03*
X120325000Y-80437500D03*
X120975000Y-80437500D03*
X121625000Y-80437500D03*
%TD*%
D44*
%TO.C,J2*%
X114960000Y-95525000D03*
D45*
X114960000Y-98065000D03*
X117500000Y-95525000D03*
X117500000Y-98065000D03*
X120040000Y-95525000D03*
X120040000Y-98065000D03*
%TD*%
D26*
%TO.C,R2*%
X124610000Y-83900000D03*
X123590000Y-83900000D03*
%TD*%
%LPD*%
M02*
