%TF.GenerationSoftware,KiCad,Pcbnew,9.0.6*%
%TF.CreationDate,2026-01-29T21:52:29+01:00*%
%TF.ProjectId,sw63_mk4_v1,73773633-5f6d-46b3-945f-76312e6b6963,rev?*%
%TF.SameCoordinates,Original*%
%TF.FileFunction,Copper,L1,Top*%
%TF.FilePolarity,Positive*%
%FSLAX46Y46*%
G04 Gerber Fmt 4.6, Leading zero omitted, Abs format (unit mm)*
G04 Created by KiCad (PCBNEW 9.0.6) date 2026-01-29 21:52:29*
%MOMM*%
%LPD*%
G01*
G04 APERTURE LIST*
G04 Aperture macros list*
%AMRoundRect*
0 Rectangle with rounded corners*
0 $1 Rounding radius*
0 $2 $3 $4 $5 $6 $7 $8 $9 X,Y pos of 4 corners*
0 Add a 4 corners polygon primitive as box body*
4,1,4,$2,$3,$4,$5,$6,$7,$8,$9,$2,$3,0*
0 Add four circle primitives for the rounded corners*
1,1,$1+$1,$2,$3*
1,1,$1+$1,$4,$5*
1,1,$1+$1,$6,$7*
1,1,$1+$1,$8,$9*
0 Add four rect primitives between the rounded corners*
20,1,$1+$1,$2,$3,$4,$5,0*
20,1,$1+$1,$4,$5,$6,$7,0*
20,1,$1+$1,$6,$7,$8,$9,0*
20,1,$1+$1,$8,$9,$2,$3,0*%
G04 Aperture macros list end*
%TA.AperFunction,SMDPad,CuDef*%
%ADD10RoundRect,0.250000X0.625000X-0.375000X0.625000X0.375000X-0.625000X0.375000X-0.625000X-0.375000X0*%
%TD*%
%TA.AperFunction,ComponentPad*%
%ADD11R,1.800000X1.800000*%
%TD*%
%TA.AperFunction,ComponentPad*%
%ADD12C,1.800000*%
%TD*%
%TA.AperFunction,ComponentPad*%
%ADD13C,1.400000*%
%TD*%
%TA.AperFunction,SMDPad,CuDef*%
%ADD14RoundRect,0.250000X-0.250000X1.150000X-0.250000X-1.150000X0.250000X-1.150000X0.250000X1.150000X0*%
%TD*%
%TA.AperFunction,SMDPad,CuDef*%
%ADD15RoundRect,0.243750X-0.243750X-0.456250X0.243750X-0.456250X0.243750X0.456250X-0.243750X0.456250X0*%
%TD*%
%TA.AperFunction,ViaPad*%
%ADD16C,0.700000*%
%TD*%
%TA.AperFunction,ViaPad*%
%ADD17C,0.600000*%
%TD*%
%TA.AperFunction,Conductor*%
%ADD18C,0.200000*%
%TD*%
%TA.AperFunction,Conductor*%
%ADD19C,0.300000*%
%TD*%
G04 APERTURE END LIST*
D10*
%TO.P,D10,1,K*%
%TO.N,Net-(D10-K)*%
X126854525Y-83900000D03*
%TO.P,D10,2,A*%
%TO.N,/VSEL*%
X126854525Y-81100000D03*
%TD*%
D11*
%TO.P,D14,1,K*%
%TO.N,Net-(D14-K)*%
X119471866Y-75000000D03*
D12*
%TO.P,D14,2,A*%
%TO.N,/VSEL*%
X122011866Y-75000000D03*
%TD*%
D11*
%TO.P,D16,1,K*%
%TO.N,Net-(D16-K)*%
X106480000Y-75000000D03*
D12*
%TO.P,D16,2,A*%
%TO.N,/VSEL*%
X109020000Y-75000000D03*
%TD*%
D13*
%TO.P,D21,1,K*%
%TO.N,Net-(D21-K)*%
X129200000Y-89700000D03*
%TO.P,D21,2,A*%
%TO.N,/VSEL*%
X126660000Y-89700000D03*
%TD*%
D10*
%TO.P,D8,1,K*%
%TO.N,Net-(D8-K)*%
X121509075Y-83900000D03*
%TO.P,D8,2,A*%
%TO.N,/VSEL*%
X121509075Y-81100000D03*
%TD*%
%TO.P,D12,1,K*%
%TO.N,Net-(D12-K)*%
X132200000Y-83900000D03*
%TO.P,D12,2,A*%
%TO.N,/VSEL*%
X132200000Y-81100000D03*
%TD*%
D14*
%TO.P,SW1,1,1*%
%TO.N,GND*%
X123500000Y-89800000D03*
X123500000Y-95600000D03*
%TO.P,SW1,2,2*%
%TO.N,/BTN*%
X119500000Y-89800000D03*
X119500000Y-95600000D03*
%TD*%
D10*
%TO.P,D9,1,K*%
%TO.N,Net-(D9-K)*%
X124181800Y-83900000D03*
%TO.P,D9,2,A*%
%TO.N,/VSEL*%
X124181800Y-81100000D03*
%TD*%
D13*
%TO.P,D20,1,K*%
%TO.N,Net-(D20-K)*%
X105830000Y-91400000D03*
%TO.P,D20,2,A*%
%TO.N,/VSEL*%
X108370000Y-91400000D03*
%TD*%
D10*
%TO.P,D11,1,K*%
%TO.N,Net-(D11-K)*%
X129527250Y-83900000D03*
%TO.P,D11,2,A*%
%TO.N,/VSEL*%
X129527250Y-81100000D03*
%TD*%
D13*
%TO.P,D18,1,K*%
%TO.N,Net-(D18-K)*%
X113870000Y-91400000D03*
%TO.P,D18,2,A*%
%TO.N,/VSEL*%
X111330000Y-91400000D03*
%TD*%
D10*
%TO.P,D6,1,K*%
%TO.N,Net-(D6-K)*%
X116163625Y-83900000D03*
%TO.P,D6,2,A*%
%TO.N,/VSEL*%
X116163625Y-81100000D03*
%TD*%
%TO.P,D4,1,K*%
%TO.N,Net-(D4-K)*%
X102800000Y-83900000D03*
%TO.P,D4,2,A*%
%TO.N,/VSEL*%
X102800000Y-81100000D03*
%TD*%
%TO.P,D2,1,K*%
%TO.N,Net-(D2-K)*%
X108145450Y-83900000D03*
%TO.P,D2,2,A*%
%TO.N,/VSEL*%
X108145450Y-81100000D03*
%TD*%
%TO.P,D7,1,K*%
%TO.N,Net-(D7-K)*%
X118836350Y-83900000D03*
%TO.P,D7,2,A*%
%TO.N,/VSEL*%
X118836350Y-81100000D03*
%TD*%
D11*
%TO.P,D13,1,K*%
%TO.N,Net-(D13-K)*%
X128520000Y-75000000D03*
D12*
%TO.P,D13,2,A*%
%TO.N,/VSEL*%
X125980000Y-75000000D03*
%TD*%
D11*
%TO.P,D15,1,K*%
%TO.N,Net-(D15-K)*%
X115528134Y-75000000D03*
D12*
%TO.P,D15,2,A*%
%TO.N,/VSEL*%
X112988134Y-75000000D03*
%TD*%
D13*
%TO.P,D19,1,K*%
%TO.N,Net-(D19-K)*%
X109850000Y-95420000D03*
%TO.P,D19,2,A*%
%TO.N,/VSEL*%
X109850000Y-92880000D03*
%TD*%
D10*
%TO.P,D3,1,K*%
%TO.N,Net-(D3-K)*%
X105472725Y-83900000D03*
%TO.P,D3,2,A*%
%TO.N,/VSEL*%
X105472725Y-81100000D03*
%TD*%
D15*
%TO.P,Q3,1,C*%
%TO.N,/ACTIVE*%
X120662500Y-86600000D03*
%TO.P,Q3,2,E*%
%TO.N,/AMBIENT_LIGHT*%
X122537500Y-86600000D03*
%TD*%
D10*
%TO.P,D1,1,K*%
%TO.N,Net-(D1-K)*%
X110818175Y-83900000D03*
%TO.P,D1,2,A*%
%TO.N,/VSEL*%
X110818175Y-81100000D03*
%TD*%
%TO.P,D5,1,K*%
%TO.N,Net-(D5-K)*%
X113490900Y-83900000D03*
%TO.P,D5,2,A*%
%TO.N,/VSEL*%
X113490900Y-81100000D03*
%TD*%
D13*
%TO.P,D17,1,K*%
%TO.N,Net-(D17-K)*%
X109850000Y-87380000D03*
%TO.P,D17,2,A*%
%TO.N,/VSEL*%
X109850000Y-89920000D03*
%TD*%
D16*
%TO.N,VDD*%
X117500000Y-75950000D03*
D17*
X111550000Y-96250000D03*
D16*
X111640000Y-85910000D03*
X114520000Y-85140000D03*
X110100000Y-79050000D03*
X111650000Y-76091477D03*
D17*
%TO.N,GND*%
X119960000Y-70060000D03*
X117400000Y-82000000D03*
X129700000Y-73200000D03*
X120700000Y-66500000D03*
X131100000Y-82600000D03*
X104000000Y-91600000D03*
X125900000Y-91600000D03*
X132900000Y-85800000D03*
X122225000Y-73475000D03*
X133300000Y-79200000D03*
X108500000Y-70320000D03*
X110700000Y-96600000D03*
X117500000Y-84600000D03*
X130600000Y-79100000D03*
X111400000Y-97700000D03*
X125900000Y-87000000D03*
D16*
X108720000Y-78250000D03*
D17*
X112620000Y-90970000D03*
X125125000Y-73825000D03*
X124800000Y-77200000D03*
X113700000Y-66800000D03*
X117220000Y-68960000D03*
X125000000Y-95200000D03*
X104300000Y-73300000D03*
X132600000Y-88300000D03*
X117050000Y-70270000D03*
X110600000Y-74200000D03*
%TO.N,Net-(D1-K)*%
X109430000Y-85760000D03*
%TO.N,Net-(D2-K)*%
X107031631Y-84899129D03*
%TO.N,Net-(D3-K)*%
X105500000Y-85200000D03*
%TO.N,Net-(D4-K)*%
X102540380Y-85359620D03*
%TO.N,Net-(D9-K)*%
X124000000Y-85300000D03*
%TO.N,Net-(D10-K)*%
X122871791Y-83203234D03*
%TO.N,Net-(D11-K)*%
X122320155Y-82564657D03*
%TO.N,Net-(D12-K)*%
X116710000Y-85080000D03*
%TO.N,Net-(D13-K)*%
X121040000Y-76950000D03*
%TO.N,Net-(D15-K)*%
X117300000Y-78400000D03*
%TO.N,Net-(D16-K)*%
X116460000Y-78160000D03*
%TO.N,/LATCH*%
X111449396Y-78321848D03*
X124850000Y-91550000D03*
X104655574Y-88098503D03*
%TO.N,/!OE*%
X101900000Y-79559311D03*
X107619538Y-86199953D03*
X120546133Y-91623514D03*
X120062065Y-82192825D03*
X119600000Y-78850000D03*
%TO.N,/CLOCK*%
X124850000Y-89650000D03*
X105800000Y-88775000D03*
D16*
%TO.N,VBUS*%
X107050000Y-72300000D03*
X124050000Y-71950000D03*
%TO.N,/VBAT*%
X127850000Y-70900000D03*
X105900000Y-72100000D03*
X104496112Y-77043838D03*
D17*
%TO.N,/VSEL*%
X126375000Y-69925000D03*
D16*
X120440000Y-72800000D03*
X106950000Y-80030000D03*
X122625000Y-78000000D03*
X132200000Y-82450000D03*
X114700000Y-87850000D03*
D17*
%TO.N,Net-(D5-K)*%
X101324000Y-83650000D03*
%TO.N,Net-(D6-K)*%
X101340007Y-82654594D03*
%TO.N,Net-(D7-K)*%
X101374000Y-81100000D03*
%TO.N,Net-(D8-K)*%
X104047031Y-80217161D03*
X117723375Y-82754351D03*
%TO.N,/D+*%
X113068866Y-77971898D03*
X122900000Y-81964657D03*
%TO.N,/D-*%
X128215729Y-81800121D03*
X128180871Y-83150000D03*
X112404669Y-77441477D03*
%TO.N,/SWDIO*%
X118350000Y-92100000D03*
X113900000Y-78150000D03*
X116200000Y-98750000D03*
%TO.N,/!RESET*%
X112600000Y-98100000D03*
X122300000Y-97800000D03*
%TO.N,/SWCLK*%
X114700000Y-78450000D03*
X119150000Y-92350000D03*
D16*
%TO.N,/GND_LED*%
X104149347Y-84720898D03*
X114530000Y-89792253D03*
X107495536Y-87177502D03*
X108624000Y-79875000D03*
X122595000Y-87965000D03*
X121930000Y-77240000D03*
D17*
%TO.N,/ACTIVE*%
X111530000Y-86770000D03*
%TO.N,/AMBIENT_LIGHT*%
X124650000Y-86600000D03*
X110300000Y-86060000D03*
%TO.N,/BATTERY_LEVEL*%
X101800000Y-77625000D03*
X109500000Y-84950000D03*
%TO.N,/BTN*%
X111700000Y-85060000D03*
X118346548Y-87857439D03*
%TO.N,/CHRG_STAT*%
X113450000Y-69550000D03*
X115400000Y-85080000D03*
X110550000Y-76141477D03*
%TO.N,Net-(U3-SDO)*%
X101765705Y-85009789D03*
X107800000Y-89700000D03*
X121500000Y-88300000D03*
%TO.N,Net-(U4-SDO)*%
X124800000Y-88350000D03*
X120917217Y-82275000D03*
%TO.N,/USB_DTCT*%
X115445000Y-79525000D03*
X114530000Y-69950000D03*
%TD*%
D18*
%TO.N,Net-(D1-K)*%
X110818175Y-84631825D02*
X110818175Y-83900000D01*
X109690000Y-85760000D02*
X110818175Y-84631825D01*
X109430000Y-85760000D02*
X109690000Y-85760000D01*
%TO.N,Net-(D2-K)*%
X107270450Y-83900000D02*
X107087811Y-84082639D01*
X107087811Y-84082639D02*
X107087811Y-84842949D01*
X107087811Y-84842949D02*
X107031631Y-84899129D01*
X108145450Y-83900000D02*
X107270450Y-83900000D01*
%TO.N,Net-(D3-K)*%
X105472725Y-83900000D02*
X105472725Y-85172725D01*
X105472725Y-85172725D02*
X105500000Y-85200000D01*
%TO.N,Net-(D4-K)*%
X102800000Y-83900000D02*
X102800000Y-85100000D01*
X102800000Y-85100000D02*
X102540380Y-85359620D01*
%TO.N,Net-(D9-K)*%
X124000000Y-85300000D02*
X124000000Y-84081800D01*
X124000000Y-84081800D02*
X124181800Y-83900000D01*
%TO.N,Net-(D10-K)*%
X125928525Y-82974000D02*
X123101025Y-82974000D01*
X126854525Y-83900000D02*
X125928525Y-82974000D01*
X123101025Y-82974000D02*
X122871791Y-83203234D01*
%TO.N,Net-(D11-K)*%
X123219239Y-82500000D02*
X123149239Y-82570000D01*
X123149239Y-82570000D02*
X122325498Y-82570000D01*
X129527250Y-82977250D02*
X129050000Y-82500000D01*
X129050000Y-82500000D02*
X123219239Y-82500000D01*
X122325498Y-82570000D02*
X122320155Y-82564657D01*
X129527250Y-83900000D02*
X129527250Y-82977250D01*
%TO.N,Net-(D12-K)*%
X129040000Y-87060000D02*
X127260000Y-87060000D01*
X122885354Y-85400000D02*
X117030000Y-85400000D01*
X126100000Y-85900000D02*
X123385354Y-85900000D01*
X117030000Y-85400000D02*
X116710000Y-85080000D01*
X132200000Y-83900000D02*
X129040000Y-87060000D01*
X127260000Y-87060000D02*
X126100000Y-85900000D01*
X123385354Y-85900000D02*
X122885354Y-85400000D01*
%TO.N,Net-(D15-K)*%
X117300000Y-77330000D02*
X116820000Y-76850000D01*
X117300000Y-78400000D02*
X117300000Y-77330000D01*
X115930000Y-76850000D02*
X115528134Y-76448134D01*
X115528134Y-76448134D02*
X115528134Y-75000000D01*
X116820000Y-76850000D02*
X115930000Y-76850000D01*
%TO.N,Net-(D16-K)*%
X114141477Y-76791477D02*
X107171477Y-76791477D01*
X116600000Y-78020000D02*
X116600000Y-77610000D01*
X107171477Y-76791477D02*
X106480000Y-76100000D01*
X116600000Y-77610000D02*
X116360000Y-77370000D01*
X116360000Y-77370000D02*
X114720000Y-77370000D01*
X116460000Y-78160000D02*
X116600000Y-78020000D01*
X106480000Y-76100000D02*
X106480000Y-75000000D01*
X114720000Y-77370000D02*
X114141477Y-76791477D01*
D19*
%TO.N,/VSEL*%
X110818175Y-81100000D02*
X113490900Y-81100000D01*
X113490900Y-81100000D02*
X116163625Y-81100000D01*
X105472725Y-81100000D02*
X108145450Y-81100000D01*
X122525000Y-78000000D02*
X121509075Y-79015925D01*
X116163625Y-81100000D02*
X118836350Y-81100000D01*
X126854525Y-81100000D02*
X124181800Y-81100000D01*
X124181800Y-81100000D02*
X121509075Y-81100000D01*
X102800000Y-81100000D02*
X105472725Y-81100000D01*
X121509075Y-79015925D02*
X121509075Y-81100000D01*
X122625000Y-78000000D02*
X122525000Y-78000000D01*
X132200000Y-82450000D02*
X132200000Y-81100000D01*
X121509075Y-81100000D02*
X118836350Y-81100000D01*
X108145450Y-81100000D02*
X110818175Y-81100000D01*
X129527250Y-81100000D02*
X126854525Y-81100000D01*
X132200000Y-81100000D02*
X129527250Y-81100000D01*
D18*
%TO.N,Net-(D5-K)*%
X101957968Y-82950000D02*
X112540900Y-82950000D01*
X101324000Y-83650000D02*
X101340403Y-83633597D01*
X101340403Y-83633597D02*
X101340403Y-83567565D01*
X112540900Y-82950000D02*
X113490900Y-83900000D01*
X101340403Y-83567565D02*
X101957968Y-82950000D01*
%TO.N,Net-(D6-K)*%
X115288625Y-83900000D02*
X113938625Y-82550000D01*
X101444601Y-82550000D02*
X101340007Y-82654594D01*
X116163625Y-83900000D02*
X115288625Y-83900000D01*
X113938625Y-82550000D02*
X101444601Y-82550000D01*
%TO.N,Net-(D7-K)*%
X116120000Y-82050000D02*
X101963840Y-82050000D01*
X118100000Y-83900000D02*
X117520000Y-83320000D01*
X117520000Y-83320000D02*
X117390000Y-83320000D01*
X117390000Y-83320000D02*
X116120000Y-82050000D01*
X118836350Y-83900000D02*
X118100000Y-83900000D01*
X101963840Y-82050000D02*
X101374000Y-81460160D01*
X101374000Y-81460160D02*
X101374000Y-81100000D01*
%TO.N,Net-(D8-K)*%
X121509075Y-83900000D02*
X120700000Y-83900000D01*
X117768106Y-82709620D02*
X117723375Y-82754351D01*
X119509620Y-82709620D02*
X117768106Y-82709620D01*
X120700000Y-83900000D02*
X119509620Y-82709620D01*
%TO.N,/ACTIVE*%
X112820000Y-85950000D02*
X112000000Y-86770000D01*
X120150000Y-86600000D02*
X119500000Y-85950000D01*
X119500000Y-85950000D02*
X112820000Y-85950000D01*
X112000000Y-86770000D02*
X111530000Y-86770000D01*
X120662500Y-86600000D02*
X120150000Y-86600000D01*
%TO.N,/AMBIENT_LIGHT*%
X122537500Y-86600000D02*
X122537500Y-86992500D01*
X110910000Y-86670000D02*
X110300000Y-86060000D01*
X119725000Y-87405000D02*
X119725000Y-86835000D01*
X121830000Y-87700000D02*
X120020000Y-87700000D01*
X110910000Y-87120000D02*
X110910000Y-86670000D01*
X119725000Y-86835000D02*
X119250000Y-86360000D01*
X122537500Y-86600000D02*
X124650000Y-86600000D01*
X111190000Y-87400000D02*
X110910000Y-87120000D01*
X122537500Y-86992500D02*
X121830000Y-87700000D01*
X119250000Y-86360000D02*
X113090000Y-86360000D01*
X113090000Y-86360000D02*
X112050000Y-87400000D01*
X112050000Y-87400000D02*
X111190000Y-87400000D01*
X120020000Y-87700000D02*
X119725000Y-87405000D01*
%TO.N,/BATTERY_LEVEL*%
X101010000Y-79090000D02*
X101010000Y-80310000D01*
X101800000Y-77625000D02*
X101800000Y-78300000D01*
X100724000Y-80596000D02*
X100724000Y-84499000D01*
X101115705Y-85279028D02*
X101846297Y-86009620D01*
X101010000Y-80310000D02*
X100724000Y-80596000D01*
X106840380Y-86009620D02*
X107900000Y-84950000D01*
X101846297Y-86009620D02*
X106840380Y-86009620D01*
X101115705Y-84890705D02*
X101115705Y-85279028D01*
X107900000Y-84950000D02*
X109500000Y-84950000D01*
X100724000Y-84499000D02*
X101115705Y-84890705D01*
X101800000Y-78300000D02*
X101010000Y-79090000D01*
%TO.N,/BTN*%
X119500000Y-93000000D02*
X119949000Y-92551000D01*
X119949000Y-91749000D02*
X119500000Y-91300000D01*
X118777439Y-87857439D02*
X119500000Y-88580000D01*
X118346548Y-87857439D02*
X118777439Y-87857439D01*
X119949000Y-92551000D02*
X119949000Y-91749000D01*
X119500000Y-95600000D02*
X119500000Y-93000000D01*
X119500000Y-91300000D02*
X119500000Y-89800000D01*
X119500000Y-88580000D02*
X119500000Y-89800000D01*
%TD*%
%TA.AperFunction,Conductor*%
%TO.N,GND*%
G36*
X117866985Y-65503476D02*
G01*
X117869609Y-65503533D01*
X118235151Y-65515417D01*
X118237783Y-65515531D01*
X118592005Y-65534737D01*
X118602863Y-65535326D01*
X118605545Y-65535500D01*
X118970234Y-65563207D01*
X118972795Y-65563430D01*
X119336775Y-65599031D01*
X119339342Y-65599310D01*
X119702500Y-65642791D01*
X119705146Y-65643137D01*
X120067212Y-65694468D01*
X120069738Y-65694854D01*
X120430671Y-65754026D01*
X120433202Y-65754469D01*
X120792767Y-65821445D01*
X120795276Y-65821940D01*
X121153325Y-65896695D01*
X121155913Y-65897265D01*
X121512130Y-65979731D01*
X121514738Y-65980364D01*
X121869121Y-66070536D01*
X121871678Y-66071216D01*
X122217211Y-66167154D01*
X122224025Y-66169046D01*
X122226607Y-66169793D01*
X122576713Y-66275221D01*
X122579206Y-66276001D01*
X122927071Y-66389028D01*
X122929502Y-66389847D01*
X123198341Y-66483685D01*
X123274774Y-66510364D01*
X123277301Y-66511277D01*
X123385185Y-66551576D01*
X123619852Y-66639234D01*
X123622284Y-66640172D01*
X123962028Y-66775539D01*
X123964422Y-66776522D01*
X124301149Y-66919215D01*
X124303611Y-66920290D01*
X124637101Y-67070215D01*
X124639525Y-67071336D01*
X124969759Y-67228484D01*
X124972058Y-67229609D01*
X125298834Y-67393886D01*
X125301111Y-67395061D01*
X125624323Y-67566418D01*
X125626533Y-67567620D01*
X125945850Y-67745878D01*
X125948164Y-67747203D01*
X126263574Y-67932355D01*
X126265818Y-67933706D01*
X126519997Y-68090416D01*
X126577047Y-68125589D01*
X126579318Y-68127023D01*
X126886404Y-68325659D01*
X126888545Y-68327078D01*
X127191235Y-68532306D01*
X127193378Y-68533793D01*
X127491532Y-68745518D01*
X127493706Y-68747097D01*
X127787184Y-68965218D01*
X127789323Y-68966844D01*
X128078000Y-69191267D01*
X128080102Y-69192939D01*
X128363846Y-69423559D01*
X128365881Y-69425250D01*
X128644607Y-69662001D01*
X128646555Y-69663691D01*
X128920123Y-69906459D01*
X128922106Y-69908259D01*
X129175561Y-70143187D01*
X129190246Y-70156798D01*
X129192197Y-70158646D01*
X129454903Y-70412951D01*
X129456813Y-70414840D01*
X129713973Y-70674801D01*
X129715841Y-70676731D01*
X129967285Y-70942176D01*
X129969094Y-70944127D01*
X130121791Y-71112488D01*
X130214751Y-71214984D01*
X130216534Y-71216993D01*
X130456267Y-71493111D01*
X130458006Y-71495159D01*
X130691645Y-71776337D01*
X130693340Y-71778421D01*
X130920895Y-72064673D01*
X130922544Y-72066794D01*
X131143849Y-72357916D01*
X131145451Y-72360073D01*
X131360326Y-72655823D01*
X131361882Y-72658013D01*
X131570379Y-72958464D01*
X131571886Y-72960688D01*
X131773762Y-73265490D01*
X131775221Y-73267746D01*
X131970480Y-73576904D01*
X131971890Y-73579190D01*
X132160400Y-73892497D01*
X132161747Y-73894791D01*
X132163611Y-73898045D01*
X132179853Y-73966001D01*
X132156777Y-74031949D01*
X132101709Y-74074953D01*
X132032134Y-74081359D01*
X132003345Y-74071100D01*
X132003226Y-74071390D01*
X131806420Y-73989870D01*
X131806412Y-73989868D01*
X131603469Y-73949500D01*
X131603465Y-73949500D01*
X131396535Y-73949500D01*
X131396530Y-73949500D01*
X131193587Y-73989868D01*
X131193579Y-73989870D01*
X131002403Y-74069058D01*
X130830342Y-74184024D01*
X130684024Y-74330342D01*
X130569058Y-74502403D01*
X130489870Y-74693579D01*
X130489868Y-74693587D01*
X130449500Y-74896530D01*
X130449500Y-75103469D01*
X130489868Y-75306412D01*
X130489870Y-75306420D01*
X130569058Y-75497596D01*
X130684024Y-75669657D01*
X130830342Y-75815975D01*
X130830345Y-75815977D01*
X131002402Y-75930941D01*
X131193580Y-76010130D01*
X131396530Y-76050499D01*
X131396534Y-76050500D01*
X131396535Y-76050500D01*
X131603466Y-76050500D01*
X131603467Y-76050499D01*
X131806420Y-76010130D01*
X131997598Y-75930941D01*
X132169655Y-75815977D01*
X132315977Y-75669655D01*
X132430941Y-75497598D01*
X132510130Y-75306420D01*
X132550500Y-75103465D01*
X132550500Y-75103461D01*
X132550539Y-75103066D01*
X132550619Y-75102866D01*
X132550892Y-75101493D01*
X132550779Y-75100829D01*
X132551241Y-75099741D01*
X132551689Y-75097490D01*
X132552158Y-75097583D01*
X132564023Y-75069659D01*
X132576692Y-75038276D01*
X132577646Y-75037600D01*
X132578104Y-75036524D01*
X132606077Y-75017476D01*
X132633722Y-74997910D01*
X132634891Y-74997857D01*
X132635857Y-74997200D01*
X132669701Y-74996299D01*
X132703522Y-74994786D01*
X132704532Y-74995373D01*
X132705702Y-74995342D01*
X132734650Y-75012876D01*
X132763931Y-75029893D01*
X132764792Y-75031133D01*
X132765463Y-75031540D01*
X132785328Y-75060713D01*
X132850442Y-75193809D01*
X132851573Y-75196188D01*
X133005083Y-75527996D01*
X133006185Y-75530446D01*
X133152506Y-75865579D01*
X133153554Y-75868053D01*
X133292548Y-76206204D01*
X133293543Y-76208700D01*
X133425198Y-76549832D01*
X133426137Y-76552348D01*
X133550378Y-76896267D01*
X133551264Y-76898804D01*
X133668004Y-77245278D01*
X133668834Y-77247832D01*
X133778050Y-77596779D01*
X133778823Y-77599347D01*
X133782040Y-77610464D01*
X133880455Y-77950587D01*
X133881174Y-77953176D01*
X133975177Y-78306550D01*
X133975839Y-78309153D01*
X134062156Y-78664448D01*
X134062762Y-78667066D01*
X134141364Y-79024160D01*
X134141913Y-79026790D01*
X134212759Y-79385495D01*
X134213251Y-79388136D01*
X134276308Y-79748284D01*
X134276743Y-79750935D01*
X134331988Y-80112402D01*
X134332365Y-80115062D01*
X134379765Y-80477628D01*
X134380084Y-80480295D01*
X134419613Y-80843758D01*
X134419875Y-80846432D01*
X134451527Y-81210747D01*
X134451730Y-81213426D01*
X134475477Y-81578244D01*
X134475622Y-81580923D01*
X134476481Y-81600727D01*
X134491464Y-81946266D01*
X134491551Y-81948952D01*
X134499472Y-82314497D01*
X134499501Y-82317183D01*
X134499501Y-82682816D01*
X134499472Y-82685502D01*
X134491551Y-83051047D01*
X134491464Y-83053733D01*
X134475623Y-83419073D01*
X134475477Y-83421755D01*
X134451730Y-83786573D01*
X134451527Y-83789252D01*
X134419875Y-84153567D01*
X134419613Y-84156241D01*
X134380084Y-84519704D01*
X134379765Y-84522371D01*
X134332365Y-84884937D01*
X134331988Y-84887597D01*
X134276743Y-85249064D01*
X134276308Y-85251715D01*
X134213251Y-85611863D01*
X134212759Y-85614504D01*
X134141913Y-85973209D01*
X134141364Y-85975839D01*
X134062762Y-86332933D01*
X134062156Y-86335551D01*
X133975839Y-86690846D01*
X133975177Y-86693449D01*
X133881174Y-87046823D01*
X133880455Y-87049412D01*
X133778825Y-87400647D01*
X133778050Y-87403220D01*
X133668834Y-87752167D01*
X133668004Y-87754721D01*
X133551264Y-88101195D01*
X133550378Y-88103732D01*
X133426137Y-88447651D01*
X133425198Y-88450167D01*
X133293543Y-88791299D01*
X133292548Y-88793795D01*
X133153554Y-89131946D01*
X133152506Y-89134420D01*
X133006185Y-89469553D01*
X133005083Y-89472003D01*
X132851573Y-89803811D01*
X132850419Y-89806238D01*
X132785328Y-89939286D01*
X132738185Y-89990854D01*
X132670646Y-90008749D01*
X132604153Y-89987289D01*
X132559819Y-89933287D01*
X132551948Y-89902458D01*
X132551689Y-89902510D01*
X132550724Y-89897663D01*
X132550539Y-89896935D01*
X132550500Y-89896545D01*
X132550500Y-89896535D01*
X132510130Y-89693580D01*
X132430941Y-89502402D01*
X132315977Y-89330345D01*
X132315975Y-89330342D01*
X132169657Y-89184024D01*
X132018616Y-89083103D01*
X131997598Y-89069059D01*
X131985447Y-89064026D01*
X131806420Y-88989870D01*
X131806412Y-88989868D01*
X131603469Y-88949500D01*
X131603465Y-88949500D01*
X131396535Y-88949500D01*
X131396530Y-88949500D01*
X131193587Y-88989868D01*
X131193579Y-88989870D01*
X131002403Y-89069058D01*
X130830342Y-89184024D01*
X130684024Y-89330342D01*
X130569058Y-89502403D01*
X130489870Y-89693579D01*
X130489868Y-89693587D01*
X130449500Y-89896530D01*
X130449500Y-90103469D01*
X130489868Y-90306412D01*
X130489870Y-90306420D01*
X130569059Y-90497598D01*
X130614692Y-90565893D01*
X130684024Y-90669657D01*
X130830342Y-90815975D01*
X130830345Y-90815977D01*
X131002402Y-90930941D01*
X131193580Y-91010130D01*
X131317108Y-91034701D01*
X131396530Y-91050499D01*
X131396534Y-91050500D01*
X131396535Y-91050500D01*
X131603466Y-91050500D01*
X131603467Y-91050499D01*
X131806420Y-91010130D01*
X131997598Y-90930941D01*
X131997600Y-90930939D01*
X131998567Y-90930539D01*
X131998820Y-90930297D01*
X131999453Y-90930172D01*
X132003226Y-90928610D01*
X132003540Y-90929370D01*
X132032424Y-90923701D01*
X132065957Y-90916718D01*
X132066651Y-90916984D01*
X132067382Y-90916841D01*
X132099205Y-90929456D01*
X132131202Y-90941715D01*
X132131642Y-90942315D01*
X132132334Y-90942589D01*
X132152285Y-90970406D01*
X132172576Y-90998018D01*
X132172622Y-90998760D01*
X132173056Y-90999365D01*
X132174800Y-91033539D01*
X132176942Y-91067751D01*
X132176591Y-91068649D01*
X132176617Y-91069144D01*
X132163611Y-91101954D01*
X132161747Y-91105208D01*
X132160400Y-91107502D01*
X131971890Y-91420809D01*
X131970480Y-91423095D01*
X131775221Y-91732253D01*
X131773762Y-91734509D01*
X131571886Y-92039311D01*
X131570379Y-92041535D01*
X131361882Y-92341986D01*
X131360326Y-92344176D01*
X131145451Y-92639926D01*
X131143849Y-92642083D01*
X130922544Y-92933205D01*
X130920895Y-92935326D01*
X130693340Y-93221578D01*
X130691645Y-93223662D01*
X130458006Y-93504840D01*
X130456267Y-93506888D01*
X130216534Y-93783006D01*
X130214751Y-93785015D01*
X129969112Y-94055852D01*
X129967285Y-94057823D01*
X129715841Y-94323268D01*
X129713973Y-94325198D01*
X129456813Y-94585159D01*
X129454903Y-94587048D01*
X129192197Y-94841353D01*
X129190246Y-94843201D01*
X128922112Y-95091735D01*
X128920123Y-95093540D01*
X128646595Y-95336273D01*
X128644566Y-95338034D01*
X128365913Y-95574723D01*
X128363846Y-95576440D01*
X128080102Y-95807060D01*
X128078000Y-95808732D01*
X127789323Y-96033155D01*
X127787184Y-96034781D01*
X127493706Y-96252902D01*
X127491532Y-96254481D01*
X127193409Y-96466184D01*
X127191202Y-96467715D01*
X126888595Y-96672888D01*
X126886355Y-96674372D01*
X126579318Y-96872976D01*
X126577047Y-96874410D01*
X126265848Y-97066275D01*
X126263546Y-97067661D01*
X125948182Y-97252786D01*
X125945850Y-97254121D01*
X125626572Y-97432357D01*
X125624252Y-97433619D01*
X125301201Y-97604891D01*
X125298814Y-97606123D01*
X124972116Y-97770362D01*
X124969702Y-97771543D01*
X124639539Y-97928656D01*
X124637101Y-97929784D01*
X124303611Y-98079709D01*
X124301149Y-98080784D01*
X123964467Y-98223458D01*
X123961982Y-98224479D01*
X123622321Y-98359812D01*
X123619815Y-98360779D01*
X123277301Y-98488722D01*
X123274774Y-98489635D01*
X122929559Y-98610132D01*
X122927013Y-98610990D01*
X122579241Y-98723987D01*
X122576677Y-98724789D01*
X122226605Y-98830206D01*
X122224025Y-98830953D01*
X121871698Y-98928777D01*
X121869101Y-98929468D01*
X121514740Y-99019634D01*
X121512130Y-99020268D01*
X121155932Y-99102729D01*
X121153308Y-99103307D01*
X120795338Y-99178046D01*
X120792702Y-99178566D01*
X120433259Y-99245520D01*
X120430613Y-99245983D01*
X120069803Y-99305135D01*
X120067147Y-99305541D01*
X119705155Y-99356860D01*
X119702491Y-99357209D01*
X119339393Y-99400683D01*
X119336723Y-99400973D01*
X118972854Y-99436563D01*
X118970177Y-99436796D01*
X118605544Y-99464499D01*
X118602863Y-99464673D01*
X118237810Y-99484466D01*
X118235126Y-99484583D01*
X117869640Y-99496465D01*
X117866954Y-99496523D01*
X117501343Y-99500484D01*
X117498657Y-99500484D01*
X117133045Y-99496523D01*
X117130359Y-99496465D01*
X116764873Y-99484583D01*
X116762189Y-99484466D01*
X116400403Y-99464851D01*
X116334527Y-99441566D01*
X116291698Y-99386363D01*
X116285514Y-99316767D01*
X116317937Y-99254876D01*
X116375022Y-99221258D01*
X116393186Y-99216392D01*
X116507314Y-99150500D01*
X116600500Y-99057314D01*
X116666392Y-98943186D01*
X116700500Y-98815892D01*
X116700500Y-98684108D01*
X116666392Y-98556814D01*
X116600500Y-98442686D01*
X116507314Y-98349500D01*
X116422442Y-98300499D01*
X116393187Y-98283608D01*
X116313767Y-98262328D01*
X116265892Y-98249500D01*
X116134108Y-98249500D01*
X116006812Y-98283608D01*
X115892686Y-98349500D01*
X115892683Y-98349502D01*
X115799502Y-98442683D01*
X115799500Y-98442686D01*
X115733608Y-98556812D01*
X115714612Y-98627708D01*
X115699500Y-98684108D01*
X115699500Y-98815892D01*
X115703336Y-98830207D01*
X115733608Y-98943187D01*
X115741084Y-98956135D01*
X115799500Y-99057314D01*
X115892686Y-99150500D01*
X115965398Y-99192480D01*
X115971744Y-99199135D01*
X115980273Y-99202573D01*
X115995472Y-99224021D01*
X116013613Y-99243047D01*
X116015353Y-99252076D01*
X116020671Y-99259580D01*
X116021861Y-99285840D01*
X116026837Y-99311654D01*
X116023418Y-99320192D01*
X116023835Y-99329378D01*
X116010640Y-99352110D01*
X116000869Y-99376518D01*
X115993377Y-99381853D01*
X115988761Y-99389806D01*
X115965369Y-99401797D01*
X115943955Y-99417047D01*
X115933120Y-99418329D01*
X115926585Y-99421680D01*
X115891328Y-99423278D01*
X115663277Y-99400973D01*
X115660606Y-99400683D01*
X115297508Y-99357209D01*
X115294844Y-99356860D01*
X114932852Y-99305541D01*
X114930196Y-99305135D01*
X114569386Y-99245983D01*
X114566740Y-99245520D01*
X114207297Y-99178566D01*
X114204661Y-99178046D01*
X113846691Y-99103307D01*
X113844067Y-99102729D01*
X113487869Y-99020268D01*
X113485259Y-99019634D01*
X113130898Y-98929468D01*
X113128301Y-98928777D01*
X112775974Y-98830953D01*
X112773395Y-98830207D01*
X112771590Y-98829663D01*
X112736517Y-98819102D01*
X112678002Y-98780925D01*
X112649416Y-98717171D01*
X112659835Y-98648082D01*
X112705952Y-98595595D01*
X112740175Y-98580596D01*
X112793186Y-98566392D01*
X112907314Y-98500500D01*
X113000500Y-98407314D01*
X113066392Y-98293186D01*
X113100500Y-98165892D01*
X113100500Y-98034108D01*
X113066392Y-97906814D01*
X113042764Y-97865890D01*
X113000503Y-97792691D01*
X113000502Y-97792690D01*
X113000500Y-97792686D01*
X112941922Y-97734108D01*
X121799500Y-97734108D01*
X121799500Y-97865891D01*
X121833608Y-97993187D01*
X121866554Y-98050250D01*
X121899500Y-98107314D01*
X121992686Y-98200500D01*
X122106814Y-98266392D01*
X122234108Y-98300500D01*
X122234110Y-98300500D01*
X122365890Y-98300500D01*
X122365892Y-98300500D01*
X122493186Y-98266392D01*
X122607314Y-98200500D01*
X122700500Y-98107314D01*
X122766392Y-97993186D01*
X122800500Y-97865892D01*
X122800500Y-97734108D01*
X122766392Y-97606814D01*
X122766390Y-97606810D01*
X122766183Y-97606451D01*
X122766099Y-97606108D01*
X122763280Y-97599300D01*
X122764341Y-97598860D01*
X122749713Y-97538551D01*
X122772566Y-97472525D01*
X122827489Y-97429335D01*
X122897042Y-97422695D01*
X122925978Y-97432072D01*
X122930881Y-97434358D01*
X123097302Y-97489505D01*
X123097309Y-97489506D01*
X123200019Y-97499999D01*
X123750000Y-97499999D01*
X123799972Y-97499999D01*
X123799986Y-97499998D01*
X123902697Y-97489505D01*
X124069119Y-97434358D01*
X124069124Y-97434356D01*
X124218345Y-97342315D01*
X124342315Y-97218345D01*
X124434356Y-97069124D01*
X124434358Y-97069119D01*
X124489505Y-96902697D01*
X124489506Y-96902690D01*
X124499999Y-96799986D01*
X124500000Y-96799973D01*
X124500000Y-95850000D01*
X123750000Y-95850000D01*
X123750000Y-97499999D01*
X123200019Y-97499999D01*
X123249999Y-97499998D01*
X123250000Y-97499998D01*
X123250000Y-95850000D01*
X122500001Y-95850000D01*
X122500001Y-96799986D01*
X122510494Y-96902697D01*
X122565641Y-97069119D01*
X122565645Y-97069128D01*
X122611567Y-97143579D01*
X122630007Y-97210971D01*
X122609084Y-97277634D01*
X122555442Y-97322404D01*
X122486111Y-97331065D01*
X122473939Y-97328450D01*
X122365892Y-97299500D01*
X122234108Y-97299500D01*
X122106812Y-97333608D01*
X121992686Y-97399500D01*
X121992683Y-97399502D01*
X121899502Y-97492683D01*
X121899500Y-97492686D01*
X121833608Y-97606812D01*
X121799500Y-97734108D01*
X112941922Y-97734108D01*
X112907314Y-97699500D01*
X112850250Y-97666554D01*
X112793187Y-97633608D01*
X112693188Y-97606814D01*
X112665892Y-97599500D01*
X112534108Y-97599500D01*
X112406812Y-97633608D01*
X112292686Y-97699500D01*
X112292683Y-97699502D01*
X112199502Y-97792683D01*
X112199500Y-97792686D01*
X112133608Y-97906812D01*
X112099500Y-98034108D01*
X112099500Y-98165891D01*
X112133608Y-98293187D01*
X112166121Y-98349500D01*
X112199500Y-98407314D01*
X112199502Y-98407316D01*
X112204447Y-98413760D01*
X112202577Y-98415194D01*
X112230286Y-98465938D01*
X112225302Y-98535630D01*
X112183430Y-98591563D01*
X112117966Y-98615980D01*
X112068256Y-98609369D01*
X111725225Y-98489635D01*
X111722698Y-98488722D01*
X111380184Y-98360779D01*
X111377678Y-98359812D01*
X111038017Y-98224479D01*
X111035532Y-98223458D01*
X110698850Y-98080784D01*
X110696388Y-98079709D01*
X110362898Y-97929784D01*
X110360460Y-97928656D01*
X110168618Y-97837365D01*
X110030278Y-97771533D01*
X110027903Y-97770371D01*
X109755857Y-97633608D01*
X109701185Y-97606123D01*
X109698854Y-97604920D01*
X109375708Y-97433599D01*
X109373427Y-97432357D01*
X109372916Y-97432072D01*
X109054149Y-97254121D01*
X109051817Y-97252786D01*
X108736453Y-97067661D01*
X108734151Y-97066275D01*
X108422952Y-96874410D01*
X108420681Y-96872976D01*
X108231335Y-96750499D01*
X108113617Y-96674354D01*
X108111432Y-96672907D01*
X107808784Y-96467706D01*
X107806590Y-96466184D01*
X107774205Y-96443187D01*
X107508467Y-96254481D01*
X107506293Y-96252902D01*
X107212815Y-96034781D01*
X107210676Y-96033155D01*
X106921999Y-95808732D01*
X106919897Y-95807060D01*
X106636153Y-95576440D01*
X106634109Y-95574742D01*
X106355399Y-95338004D01*
X106353437Y-95336302D01*
X106347805Y-95331304D01*
X108949500Y-95331304D01*
X108949500Y-95508695D01*
X108984103Y-95682658D01*
X108984106Y-95682667D01*
X109051983Y-95846540D01*
X109051990Y-95846553D01*
X109150535Y-95994034D01*
X109150538Y-95994038D01*
X109275961Y-96119461D01*
X109275965Y-96119464D01*
X109423446Y-96218009D01*
X109423459Y-96218016D01*
X109507683Y-96252902D01*
X109587334Y-96285894D01*
X109587336Y-96285894D01*
X109587341Y-96285896D01*
X109761304Y-96320499D01*
X109761307Y-96320500D01*
X109761309Y-96320500D01*
X109938693Y-96320500D01*
X109938694Y-96320499D01*
X109996682Y-96308964D01*
X110112658Y-96285896D01*
X110112661Y-96285894D01*
X110112666Y-96285894D01*
X110276547Y-96218013D01*
X110327289Y-96184108D01*
X111049500Y-96184108D01*
X111049500Y-96315892D01*
X111050735Y-96320500D01*
X111083608Y-96443187D01*
X111097770Y-96467715D01*
X111149500Y-96557314D01*
X111242686Y-96650500D01*
X111356814Y-96716392D01*
X111484108Y-96750500D01*
X111484110Y-96750500D01*
X111615890Y-96750500D01*
X111615892Y-96750500D01*
X111743186Y-96716392D01*
X111857314Y-96650500D01*
X111950500Y-96557314D01*
X112016392Y-96443186D01*
X112050500Y-96315892D01*
X112050500Y-96184108D01*
X112016392Y-96056814D01*
X111950500Y-95942686D01*
X111857314Y-95849500D01*
X111783806Y-95807060D01*
X111743187Y-95783608D01*
X111679539Y-95766554D01*
X111615892Y-95749500D01*
X111484108Y-95749500D01*
X111356812Y-95783608D01*
X111242686Y-95849500D01*
X111242683Y-95849502D01*
X111149502Y-95942683D01*
X111149500Y-95942686D01*
X111083608Y-96056812D01*
X111075171Y-96088300D01*
X111049500Y-96184108D01*
X110327289Y-96184108D01*
X110424035Y-96119464D01*
X110424038Y-96119461D01*
X110455200Y-96088300D01*
X110549461Y-95994038D01*
X110549464Y-95994035D01*
X110648013Y-95846547D01*
X110715894Y-95682666D01*
X110750500Y-95508691D01*
X110750500Y-95331309D01*
X110750500Y-95331306D01*
X110750499Y-95331304D01*
X110715896Y-95157341D01*
X110715893Y-95157332D01*
X110648016Y-94993459D01*
X110648009Y-94993446D01*
X110549464Y-94845965D01*
X110549461Y-94845961D01*
X110424038Y-94720538D01*
X110424034Y-94720535D01*
X110276553Y-94621990D01*
X110276540Y-94621983D01*
X110112667Y-94554106D01*
X110112658Y-94554103D01*
X109938694Y-94519500D01*
X109938691Y-94519500D01*
X109761309Y-94519500D01*
X109761306Y-94519500D01*
X109587341Y-94554103D01*
X109587332Y-94554106D01*
X109423459Y-94621983D01*
X109423446Y-94621990D01*
X109275965Y-94720535D01*
X109275961Y-94720538D01*
X109150538Y-94845961D01*
X109150535Y-94845965D01*
X109051990Y-94993446D01*
X109051983Y-94993459D01*
X108984106Y-95157332D01*
X108984103Y-95157341D01*
X108949500Y-95331304D01*
X106347805Y-95331304D01*
X106079876Y-95093540D01*
X106077887Y-95091735D01*
X105809753Y-94843201D01*
X105807802Y-94841353D01*
X105545096Y-94587048D01*
X105543186Y-94585159D01*
X105286026Y-94325198D01*
X105284158Y-94323268D01*
X105101913Y-94130875D01*
X105032692Y-94057800D01*
X105030887Y-94055852D01*
X105023046Y-94047207D01*
X104785245Y-93785012D01*
X104783465Y-93783006D01*
X104543732Y-93506888D01*
X104541993Y-93504840D01*
X104308354Y-93223662D01*
X104306659Y-93221578D01*
X104079104Y-92935326D01*
X104077455Y-92933205D01*
X104022003Y-92860259D01*
X103969585Y-92791304D01*
X108949500Y-92791304D01*
X108949500Y-92968695D01*
X108984103Y-93142658D01*
X108984106Y-93142667D01*
X109051983Y-93306540D01*
X109051990Y-93306553D01*
X109150535Y-93454034D01*
X109150538Y-93454038D01*
X109275961Y-93579461D01*
X109275965Y-93579464D01*
X109423446Y-93678009D01*
X109423459Y-93678016D01*
X109546363Y-93728923D01*
X109587334Y-93745894D01*
X109587336Y-93745894D01*
X109587341Y-93745896D01*
X109761304Y-93780499D01*
X109761307Y-93780500D01*
X109761309Y-93780500D01*
X109938693Y-93780500D01*
X109938694Y-93780499D01*
X110013392Y-93765641D01*
X110112658Y-93745896D01*
X110112661Y-93745894D01*
X110112666Y-93745894D01*
X110276547Y-93678013D01*
X110424035Y-93579464D01*
X110549464Y-93454035D01*
X110648013Y-93306547D01*
X110715894Y-93142666D01*
X110719514Y-93124471D01*
X110750499Y-92968695D01*
X110750500Y-92968693D01*
X110750500Y-92791306D01*
X110750499Y-92791304D01*
X110715896Y-92617341D01*
X110715893Y-92617332D01*
X110648016Y-92453459D01*
X110648009Y-92453446D01*
X110549464Y-92305965D01*
X110549461Y-92305961D01*
X110424038Y-92180538D01*
X110424034Y-92180535D01*
X110276553Y-92081990D01*
X110276540Y-92081983D01*
X110112667Y-92014106D01*
X110112658Y-92014103D01*
X109938694Y-91979500D01*
X109938691Y-91979500D01*
X109761309Y-91979500D01*
X109761306Y-91979500D01*
X109587341Y-92014103D01*
X109587332Y-92014106D01*
X109423459Y-92081983D01*
X109423446Y-92081990D01*
X109275965Y-92180535D01*
X109275961Y-92180538D01*
X109150538Y-92305961D01*
X109150535Y-92305965D01*
X109051990Y-92453446D01*
X109051983Y-92453459D01*
X108984106Y-92617332D01*
X108984103Y-92617341D01*
X108949500Y-92791304D01*
X103969585Y-92791304D01*
X103856150Y-92642083D01*
X103854548Y-92639926D01*
X103639673Y-92344176D01*
X103638117Y-92341986D01*
X103429620Y-92041535D01*
X103428113Y-92039311D01*
X103280674Y-91816701D01*
X103226233Y-91734503D01*
X103224778Y-91732253D01*
X103029519Y-91423095D01*
X103028109Y-91420809D01*
X102997024Y-91369146D01*
X102997023Y-91369144D01*
X102962222Y-91311304D01*
X104929500Y-91311304D01*
X104929500Y-91488695D01*
X104964103Y-91662658D01*
X104964106Y-91662667D01*
X105031983Y-91826540D01*
X105031990Y-91826553D01*
X105130535Y-91974034D01*
X105130538Y-91974038D01*
X105255961Y-92099461D01*
X105255965Y-92099464D01*
X105403446Y-92198009D01*
X105403459Y-92198016D01*
X105465675Y-92223786D01*
X105567334Y-92265894D01*
X105567336Y-92265894D01*
X105567341Y-92265896D01*
X105741304Y-92300499D01*
X105741307Y-92300500D01*
X105741309Y-92300500D01*
X105918693Y-92300500D01*
X105918694Y-92300499D01*
X105976682Y-92288964D01*
X106092658Y-92265896D01*
X106092661Y-92265894D01*
X106092666Y-92265894D01*
X106256547Y-92198013D01*
X106404035Y-92099464D01*
X106529464Y-91974035D01*
X106628013Y-91826547D01*
X106695894Y-91662666D01*
X106701526Y-91634356D01*
X106730499Y-91488695D01*
X106730500Y-91488693D01*
X106730500Y-91311306D01*
X106730499Y-91311304D01*
X107469500Y-91311304D01*
X107469500Y-91488695D01*
X107504103Y-91662658D01*
X107504106Y-91662667D01*
X107571983Y-91826540D01*
X107571990Y-91826553D01*
X107670535Y-91974034D01*
X107670538Y-91974038D01*
X107795961Y-92099461D01*
X107795965Y-92099464D01*
X107943446Y-92198009D01*
X107943459Y-92198016D01*
X108005675Y-92223786D01*
X108107334Y-92265894D01*
X108107336Y-92265894D01*
X108107341Y-92265896D01*
X108281304Y-92300499D01*
X108281307Y-92300500D01*
X108281309Y-92300500D01*
X108458693Y-92300500D01*
X108458694Y-92300499D01*
X108516682Y-92288964D01*
X108632658Y-92265896D01*
X108632661Y-92265894D01*
X108632666Y-92265894D01*
X108796547Y-92198013D01*
X108944035Y-92099464D01*
X109069464Y-91974035D01*
X109168013Y-91826547D01*
X109235894Y-91662666D01*
X109241526Y-91634356D01*
X109270499Y-91488695D01*
X109270500Y-91488693D01*
X109270500Y-91311306D01*
X109270499Y-91311304D01*
X110429500Y-91311304D01*
X110429500Y-91488695D01*
X110464103Y-91662658D01*
X110464106Y-91662667D01*
X110531983Y-91826540D01*
X110531990Y-91826553D01*
X110630535Y-91974034D01*
X110630538Y-91974038D01*
X110755961Y-92099461D01*
X110755965Y-92099464D01*
X110903446Y-92198009D01*
X110903459Y-92198016D01*
X110965675Y-92223786D01*
X111067334Y-92265894D01*
X111067336Y-92265894D01*
X111067341Y-92265896D01*
X111241304Y-92300499D01*
X111241307Y-92300500D01*
X111241309Y-92300500D01*
X111418693Y-92300500D01*
X111418694Y-92300499D01*
X111476682Y-92288964D01*
X111592658Y-92265896D01*
X111592661Y-92265894D01*
X111592666Y-92265894D01*
X111756547Y-92198013D01*
X111904035Y-92099464D01*
X112029464Y-91974035D01*
X112128013Y-91826547D01*
X112195894Y-91662666D01*
X112201526Y-91634356D01*
X112230499Y-91488695D01*
X112230500Y-91488693D01*
X112230500Y-91311306D01*
X112230499Y-91311304D01*
X112969500Y-91311304D01*
X112969500Y-91488695D01*
X113004103Y-91662658D01*
X113004106Y-91662667D01*
X113071983Y-91826540D01*
X113071990Y-91826553D01*
X113170535Y-91974034D01*
X113170538Y-91974038D01*
X113295961Y-92099461D01*
X113295965Y-92099464D01*
X113443446Y-92198009D01*
X113443459Y-92198016D01*
X113505675Y-92223786D01*
X113607334Y-92265894D01*
X113607336Y-92265894D01*
X113607341Y-92265896D01*
X113781304Y-92300499D01*
X113781307Y-92300500D01*
X113781309Y-92300500D01*
X113958693Y-92300500D01*
X113958694Y-92300499D01*
X114016682Y-92288964D01*
X114132658Y-92265896D01*
X114132661Y-92265894D01*
X114132666Y-92265894D01*
X114296547Y-92198013D01*
X114444035Y-92099464D01*
X114569464Y-91974035D01*
X114668013Y-91826547D01*
X114735894Y-91662666D01*
X114741526Y-91634356D01*
X114770499Y-91488695D01*
X114770500Y-91488693D01*
X114770500Y-91311306D01*
X114770499Y-91311304D01*
X114735896Y-91137341D01*
X114735893Y-91137332D01*
X114729962Y-91123014D01*
X114699926Y-91050499D01*
X114668016Y-90973459D01*
X114668009Y-90973446D01*
X114569464Y-90825965D01*
X114569461Y-90825961D01*
X114444038Y-90700538D01*
X114444034Y-90700535D01*
X114296553Y-90601990D01*
X114296540Y-90601983D01*
X114132667Y-90534106D01*
X114132658Y-90534103D01*
X113958694Y-90499500D01*
X113958691Y-90499500D01*
X113781309Y-90499500D01*
X113781306Y-90499500D01*
X113607341Y-90534103D01*
X113607332Y-90534106D01*
X113443459Y-90601983D01*
X113443446Y-90601990D01*
X113295965Y-90700535D01*
X113295961Y-90700538D01*
X113170538Y-90825961D01*
X113170535Y-90825965D01*
X113071990Y-90973446D01*
X113071983Y-90973459D01*
X113004106Y-91137332D01*
X113004103Y-91137341D01*
X112969500Y-91311304D01*
X112230499Y-91311304D01*
X112195896Y-91137341D01*
X112195893Y-91137332D01*
X112189962Y-91123014D01*
X112159926Y-91050499D01*
X112128016Y-90973459D01*
X112128009Y-90973446D01*
X112029464Y-90825965D01*
X112029461Y-90825961D01*
X111904038Y-90700538D01*
X111904034Y-90700535D01*
X111756553Y-90601990D01*
X111756540Y-90601983D01*
X111592667Y-90534106D01*
X111592658Y-90534103D01*
X111418694Y-90499500D01*
X111418691Y-90499500D01*
X111241309Y-90499500D01*
X111241306Y-90499500D01*
X111067341Y-90534103D01*
X111067332Y-90534106D01*
X110903459Y-90601983D01*
X110903446Y-90601990D01*
X110755965Y-90700535D01*
X110755961Y-90700538D01*
X110630538Y-90825961D01*
X110630535Y-90825965D01*
X110531990Y-90973446D01*
X110531983Y-90973459D01*
X110464106Y-91137332D01*
X110464103Y-91137341D01*
X110429500Y-91311304D01*
X109270499Y-91311304D01*
X109235896Y-91137341D01*
X109235893Y-91137332D01*
X109229962Y-91123014D01*
X109199926Y-91050499D01*
X109168016Y-90973459D01*
X109168009Y-90973446D01*
X109069464Y-90825965D01*
X109069461Y-90825961D01*
X108944038Y-90700538D01*
X108944034Y-90700535D01*
X108796553Y-90601990D01*
X108796540Y-90601983D01*
X108632667Y-90534106D01*
X108632658Y-90534103D01*
X108458694Y-90499500D01*
X108458691Y-90499500D01*
X108281309Y-90499500D01*
X108281306Y-90499500D01*
X108107341Y-90534103D01*
X108107332Y-90534106D01*
X107943459Y-90601983D01*
X107943446Y-90601990D01*
X107795965Y-90700535D01*
X107795961Y-90700538D01*
X107670538Y-90825961D01*
X107670535Y-90825965D01*
X107571990Y-90973446D01*
X107571983Y-90973459D01*
X107504106Y-91137332D01*
X107504103Y-91137341D01*
X107469500Y-91311304D01*
X106730499Y-91311304D01*
X106695896Y-91137341D01*
X106695893Y-91137332D01*
X106689962Y-91123014D01*
X106659926Y-91050499D01*
X106628016Y-90973459D01*
X106628009Y-90973446D01*
X106529464Y-90825965D01*
X106529461Y-90825961D01*
X106404038Y-90700538D01*
X106404034Y-90700535D01*
X106256553Y-90601990D01*
X106256540Y-90601983D01*
X106092667Y-90534106D01*
X106092658Y-90534103D01*
X105918694Y-90499500D01*
X105918691Y-90499500D01*
X105741309Y-90499500D01*
X105741306Y-90499500D01*
X105567341Y-90534103D01*
X105567332Y-90534106D01*
X105403459Y-90601983D01*
X105403446Y-90601990D01*
X105255965Y-90700535D01*
X105255961Y-90700538D01*
X105130538Y-90825961D01*
X105130535Y-90825965D01*
X105031990Y-90973446D01*
X105031983Y-90973459D01*
X104964106Y-91137332D01*
X104964103Y-91137341D01*
X104929500Y-91311304D01*
X102962222Y-91311304D01*
X102839599Y-91107501D01*
X102838252Y-91105208D01*
X102836814Y-91102697D01*
X102836387Y-91101952D01*
X102820146Y-91033998D01*
X102843222Y-90968050D01*
X102898290Y-90925046D01*
X102967865Y-90918640D01*
X102996654Y-90928898D01*
X102996774Y-90928610D01*
X103048352Y-90949974D01*
X103193580Y-91010130D01*
X103317108Y-91034701D01*
X103396530Y-91050499D01*
X103396534Y-91050500D01*
X103396535Y-91050500D01*
X103603466Y-91050500D01*
X103603467Y-91050499D01*
X103806420Y-91010130D01*
X103997598Y-90930941D01*
X104169655Y-90815977D01*
X104315977Y-90669655D01*
X104430941Y-90497598D01*
X104510130Y-90306420D01*
X104550500Y-90103465D01*
X104550500Y-89896535D01*
X104510130Y-89693580D01*
X104485496Y-89634108D01*
X107299500Y-89634108D01*
X107299500Y-89765892D01*
X107305610Y-89788695D01*
X107333608Y-89893187D01*
X107338961Y-89902458D01*
X107399500Y-90007314D01*
X107492686Y-90100500D01*
X107606814Y-90166392D01*
X107734108Y-90200500D01*
X107734110Y-90200500D01*
X107865890Y-90200500D01*
X107865892Y-90200500D01*
X107993186Y-90166392D01*
X108107314Y-90100500D01*
X108200500Y-90007314D01*
X108266392Y-89893186D01*
X108282973Y-89831304D01*
X108949500Y-89831304D01*
X108949500Y-90008695D01*
X108984103Y-90182658D01*
X108984106Y-90182667D01*
X109051983Y-90346540D01*
X109051990Y-90346553D01*
X109150535Y-90494034D01*
X109150538Y-90494038D01*
X109275961Y-90619461D01*
X109275965Y-90619464D01*
X109423446Y-90718009D01*
X109423459Y-90718016D01*
X109546363Y-90768923D01*
X109587334Y-90785894D01*
X109587336Y-90785894D01*
X109587341Y-90785896D01*
X109761304Y-90820499D01*
X109761307Y-90820500D01*
X109761309Y-90820500D01*
X109938693Y-90820500D01*
X109938694Y-90820499D01*
X109996682Y-90808964D01*
X110112658Y-90785896D01*
X110112661Y-90785894D01*
X110112666Y-90785894D01*
X110276547Y-90718013D01*
X110424035Y-90619464D01*
X110549464Y-90494035D01*
X110648013Y-90346547D01*
X110715894Y-90182666D01*
X110718626Y-90168934D01*
X110750499Y-90008695D01*
X110750500Y-90008693D01*
X110750500Y-89831306D01*
X110750499Y-89831304D01*
X110731511Y-89735842D01*
X110728315Y-89719778D01*
X113979500Y-89719778D01*
X113979500Y-89864728D01*
X114016738Y-90003700D01*
X114017017Y-90004741D01*
X114089488Y-90130264D01*
X114089490Y-90130266D01*
X114089491Y-90130268D01*
X114191985Y-90232762D01*
X114191986Y-90232763D01*
X114191988Y-90232764D01*
X114317511Y-90305235D01*
X114317512Y-90305235D01*
X114317515Y-90305237D01*
X114457525Y-90342753D01*
X114457528Y-90342753D01*
X114602472Y-90342753D01*
X114602475Y-90342753D01*
X114742485Y-90305237D01*
X114868015Y-90232762D01*
X114970509Y-90130268D01*
X115042984Y-90004738D01*
X115080500Y-89864728D01*
X115080500Y-89719778D01*
X115042984Y-89579768D01*
X115025797Y-89550000D01*
X114970511Y-89454241D01*
X114970506Y-89454235D01*
X114868017Y-89351746D01*
X114868011Y-89351741D01*
X114742488Y-89279270D01*
X114742489Y-89279270D01*
X114720802Y-89273459D01*
X114602475Y-89241753D01*
X114457525Y-89241753D01*
X114339198Y-89273459D01*
X114317511Y-89279270D01*
X114191988Y-89351741D01*
X114191982Y-89351746D01*
X114089493Y-89454235D01*
X114089488Y-89454241D01*
X114017017Y-89579764D01*
X114012583Y-89596308D01*
X113979500Y-89719778D01*
X110728315Y-89719778D01*
X110719321Y-89674567D01*
X110715894Y-89657334D01*
X110685563Y-89584108D01*
X110648016Y-89493459D01*
X110648009Y-89493446D01*
X110549464Y-89345965D01*
X110549461Y-89345961D01*
X110424038Y-89220538D01*
X110424034Y-89220535D01*
X110276553Y-89121990D01*
X110276540Y-89121983D01*
X110112667Y-89054106D01*
X110112658Y-89054103D01*
X109938694Y-89019500D01*
X109938691Y-89019500D01*
X109761309Y-89019500D01*
X109761306Y-89019500D01*
X109587341Y-89054103D01*
X109587332Y-89054106D01*
X109423459Y-89121983D01*
X109423446Y-89121990D01*
X109275965Y-89220535D01*
X109275961Y-89220538D01*
X109150538Y-89345961D01*
X109150535Y-89345965D01*
X109051990Y-89493446D01*
X109051983Y-89493459D01*
X108984106Y-89657332D01*
X108984103Y-89657341D01*
X108949500Y-89831304D01*
X108282973Y-89831304D01*
X108300500Y-89765892D01*
X108300500Y-89634108D01*
X108266392Y-89506814D01*
X108200500Y-89392686D01*
X108107314Y-89299500D01*
X108034210Y-89257293D01*
X107993187Y-89233608D01*
X107929539Y-89216554D01*
X107865892Y-89199500D01*
X107734108Y-89199500D01*
X107606812Y-89233608D01*
X107492686Y-89299500D01*
X107492683Y-89299502D01*
X107399502Y-89392683D01*
X107399500Y-89392686D01*
X107333608Y-89506812D01*
X107322036Y-89550000D01*
X107299500Y-89634108D01*
X104485496Y-89634108D01*
X104430941Y-89502402D01*
X104315977Y-89330345D01*
X104315975Y-89330342D01*
X104169657Y-89184024D01*
X104018616Y-89083103D01*
X103997598Y-89069059D01*
X103985447Y-89064026D01*
X103806420Y-88989870D01*
X103806412Y-88989868D01*
X103603469Y-88949500D01*
X103603465Y-88949500D01*
X103396535Y-88949500D01*
X103396530Y-88949500D01*
X103193587Y-88989868D01*
X103193579Y-88989870D01*
X103002403Y-89069058D01*
X102830342Y-89184024D01*
X102684024Y-89330342D01*
X102569058Y-89502403D01*
X102489870Y-89693579D01*
X102489868Y-89693587D01*
X102449499Y-89896537D01*
X102449458Y-89896954D01*
X102449375Y-89897158D01*
X102449106Y-89898508D01*
X102449220Y-89899170D01*
X102448760Y-89900252D01*
X102448311Y-89902510D01*
X102447840Y-89902416D01*
X102435974Y-89930340D01*
X102423294Y-89961740D01*
X102422347Y-89962409D01*
X102421895Y-89963475D01*
X102393905Y-89982532D01*
X102366257Y-90002095D01*
X102365100Y-90002146D01*
X102364142Y-90002799D01*
X102330265Y-90003700D01*
X102296457Y-90005208D01*
X102295456Y-90004626D01*
X102294297Y-90004657D01*
X102265313Y-89987101D01*
X102236054Y-89970090D01*
X102235201Y-89968862D01*
X102234536Y-89968459D01*
X102214671Y-89939286D01*
X102149539Y-89806152D01*
X102148452Y-89803865D01*
X102008980Y-89502403D01*
X101994916Y-89472003D01*
X101993814Y-89469553D01*
X101908193Y-89273446D01*
X101847477Y-89134383D01*
X101846445Y-89131946D01*
X101841532Y-89119994D01*
X101710207Y-88800500D01*
X101707451Y-88793795D01*
X101706456Y-88791299D01*
X101674736Y-88709108D01*
X105299500Y-88709108D01*
X105299500Y-88840892D01*
X105315869Y-88901983D01*
X105333608Y-88968187D01*
X105346126Y-88989868D01*
X105399500Y-89082314D01*
X105492686Y-89175500D01*
X105606814Y-89241392D01*
X105734108Y-89275500D01*
X105734110Y-89275500D01*
X105865890Y-89275500D01*
X105865892Y-89275500D01*
X105993186Y-89241392D01*
X106107314Y-89175500D01*
X106200500Y-89082314D01*
X106266392Y-88968186D01*
X106300500Y-88840892D01*
X106300500Y-88709108D01*
X106266392Y-88581814D01*
X106200500Y-88467686D01*
X106107314Y-88374500D01*
X106019553Y-88323831D01*
X105993187Y-88308608D01*
X105925628Y-88290506D01*
X105865892Y-88274500D01*
X105734108Y-88274500D01*
X105606812Y-88308608D01*
X105492686Y-88374500D01*
X105492683Y-88374502D01*
X105399502Y-88467683D01*
X105399500Y-88467686D01*
X105333608Y-88581812D01*
X105313378Y-88657313D01*
X105299500Y-88709108D01*
X101674736Y-88709108D01*
X101574801Y-88450167D01*
X101573862Y-88447651D01*
X101449621Y-88103732D01*
X101448735Y-88101194D01*
X101436229Y-88064076D01*
X101425627Y-88032611D01*
X104155074Y-88032611D01*
X104155074Y-88164395D01*
X104164480Y-88199500D01*
X104189182Y-88291690D01*
X104218604Y-88342649D01*
X104255074Y-88405817D01*
X104348260Y-88499003D01*
X104462388Y-88564895D01*
X104589682Y-88599003D01*
X104589684Y-88599003D01*
X104721464Y-88599003D01*
X104721466Y-88599003D01*
X104848760Y-88564895D01*
X104962888Y-88499003D01*
X105056074Y-88405817D01*
X105121966Y-88291689D01*
X105156074Y-88164395D01*
X105156074Y-88032611D01*
X105121966Y-87905317D01*
X105056074Y-87791189D01*
X104962888Y-87698003D01*
X104904428Y-87664251D01*
X104848761Y-87632111D01*
X104767005Y-87610205D01*
X104721466Y-87598003D01*
X104589682Y-87598003D01*
X104462386Y-87632111D01*
X104348260Y-87698003D01*
X104348257Y-87698005D01*
X104255076Y-87791186D01*
X104255074Y-87791189D01*
X104189182Y-87905315D01*
X104155074Y-88032611D01*
X101425627Y-88032611D01*
X101374313Y-87880317D01*
X101331978Y-87754670D01*
X101331182Y-87752219D01*
X101221929Y-87403156D01*
X101221193Y-87400711D01*
X101119537Y-87049387D01*
X101118825Y-87046823D01*
X101102239Y-86984475D01*
X101024815Y-86693423D01*
X101024160Y-86690846D01*
X101018569Y-86667833D01*
X100937836Y-86335523D01*
X100937237Y-86332933D01*
X100858622Y-85975778D01*
X100858099Y-85973271D01*
X100807439Y-85716771D01*
X100813761Y-85647188D01*
X100856699Y-85592069D01*
X100922620Y-85568914D01*
X100990595Y-85585074D01*
X101016770Y-85605064D01*
X101605837Y-86194131D01*
X101661786Y-86250080D01*
X101661788Y-86250081D01*
X101661792Y-86250084D01*
X101723865Y-86285921D01*
X101730308Y-86289641D01*
X101806735Y-86310120D01*
X101806737Y-86310120D01*
X106879940Y-86310120D01*
X106879942Y-86310120D01*
X106956369Y-86289641D01*
X106962813Y-86285920D01*
X107030710Y-86269445D01*
X107096738Y-86292294D01*
X107133549Y-86333697D01*
X107140727Y-86346791D01*
X107153146Y-86393139D01*
X107219038Y-86507267D01*
X107240425Y-86528654D01*
X107248945Y-86544195D01*
X107252785Y-86561709D01*
X107261378Y-86577445D01*
X107260113Y-86595125D01*
X107263911Y-86612443D01*
X107257672Y-86629253D01*
X107256394Y-86647137D01*
X107245770Y-86661328D01*
X107239603Y-86677948D01*
X107225266Y-86688717D01*
X107214522Y-86703070D01*
X107202213Y-86711190D01*
X107157521Y-86736993D01*
X107157518Y-86736995D01*
X107055029Y-86839484D01*
X107055024Y-86839490D01*
X106982553Y-86965013D01*
X106982552Y-86965017D01*
X106945036Y-87105027D01*
X106945036Y-87249977D01*
X106981342Y-87385471D01*
X106982553Y-87389990D01*
X107055024Y-87515513D01*
X107055026Y-87515515D01*
X107055027Y-87515517D01*
X107157521Y-87618011D01*
X107157522Y-87618012D01*
X107157524Y-87618013D01*
X107283047Y-87690484D01*
X107283048Y-87690484D01*
X107283051Y-87690486D01*
X107423061Y-87728002D01*
X107423064Y-87728002D01*
X107568008Y-87728002D01*
X107568011Y-87728002D01*
X107708021Y-87690486D01*
X107833551Y-87618011D01*
X107936045Y-87515517D01*
X108008520Y-87389987D01*
X108046036Y-87249977D01*
X108046036Y-87105027D01*
X108008520Y-86965017D01*
X108001839Y-86953446D01*
X107936047Y-86839490D01*
X107936042Y-86839484D01*
X107895406Y-86798848D01*
X107861921Y-86737525D01*
X107866905Y-86667833D01*
X107908777Y-86611900D01*
X107921080Y-86603784D01*
X107926852Y-86600453D01*
X108020038Y-86507267D01*
X108085930Y-86393139D01*
X108120038Y-86265845D01*
X108120038Y-86134061D01*
X108085930Y-86006767D01*
X108020038Y-85892639D01*
X107926852Y-85799453D01*
X107812724Y-85733561D01*
X107806197Y-85731812D01*
X107746537Y-85695445D01*
X107716010Y-85632597D01*
X107724307Y-85563222D01*
X107750610Y-85524360D01*
X107988152Y-85286819D01*
X108049475Y-85253334D01*
X108075833Y-85250500D01*
X108933196Y-85250500D01*
X109000235Y-85270185D01*
X109045990Y-85322989D01*
X109055934Y-85392147D01*
X109033430Y-85445570D01*
X109033564Y-85445648D01*
X109032950Y-85446710D01*
X109031570Y-85449988D01*
X109029503Y-85452681D01*
X108963608Y-85566812D01*
X108938762Y-85659540D01*
X108929500Y-85694108D01*
X108929500Y-85825892D01*
X108937344Y-85855166D01*
X108963608Y-85953187D01*
X108994542Y-86006765D01*
X109029500Y-86067314D01*
X109122686Y-86160500D01*
X109236814Y-86226392D01*
X109364108Y-86260500D01*
X109364110Y-86260500D01*
X109495890Y-86260500D01*
X109495892Y-86260500D01*
X109623186Y-86226392D01*
X109662012Y-86203975D01*
X109670808Y-86201841D01*
X109677925Y-86196245D01*
X109704225Y-86193733D01*
X109729909Y-86187502D01*
X109738466Y-86190463D01*
X109747479Y-86189603D01*
X109770964Y-86201710D01*
X109795937Y-86210353D01*
X109803176Y-86218316D01*
X109809582Y-86221619D01*
X109831399Y-86249362D01*
X109857190Y-86294033D01*
X109873663Y-86361933D01*
X109850811Y-86427960D01*
X109795890Y-86471150D01*
X109767249Y-86478143D01*
X109767283Y-86478311D01*
X109763410Y-86479081D01*
X109761958Y-86479436D01*
X109761302Y-86479500D01*
X109587341Y-86514103D01*
X109587332Y-86514106D01*
X109423459Y-86581983D01*
X109423446Y-86581990D01*
X109275965Y-86680535D01*
X109275961Y-86680538D01*
X109150538Y-86805961D01*
X109150535Y-86805965D01*
X109051990Y-86953446D01*
X109051983Y-86953459D01*
X108984106Y-87117332D01*
X108984103Y-87117341D01*
X108949500Y-87291304D01*
X108949500Y-87468695D01*
X108984103Y-87642658D01*
X108984106Y-87642667D01*
X109051983Y-87806540D01*
X109051990Y-87806553D01*
X109150535Y-87954034D01*
X109150538Y-87954038D01*
X109275961Y-88079461D01*
X109275965Y-88079464D01*
X109423446Y-88178009D01*
X109423459Y-88178016D01*
X109546363Y-88228923D01*
X109587334Y-88245894D01*
X109587336Y-88245894D01*
X109587341Y-88245896D01*
X109761304Y-88280499D01*
X109761307Y-88280500D01*
X109761309Y-88280500D01*
X109938693Y-88280500D01*
X109938694Y-88280499D01*
X110032335Y-88261873D01*
X110112658Y-88245896D01*
X110112661Y-88245894D01*
X110112666Y-88245894D01*
X110276547Y-88178013D01*
X110424035Y-88079464D01*
X110549464Y-87954035D01*
X110648013Y-87806547D01*
X110660034Y-87777525D01*
X114149500Y-87777525D01*
X114149500Y-87922475D01*
X114186929Y-88062161D01*
X114187017Y-88062488D01*
X114259488Y-88188011D01*
X114259490Y-88188013D01*
X114259491Y-88188015D01*
X114361985Y-88290509D01*
X114361986Y-88290510D01*
X114361988Y-88290511D01*
X114487511Y-88362982D01*
X114487512Y-88362982D01*
X114487515Y-88362984D01*
X114627525Y-88400500D01*
X114627528Y-88400500D01*
X114772472Y-88400500D01*
X114772475Y-88400500D01*
X114912485Y-88362984D01*
X115038015Y-88290509D01*
X115140509Y-88188015D01*
X115212984Y-88062485D01*
X115250500Y-87922475D01*
X115250500Y-87791547D01*
X117846048Y-87791547D01*
X117846048Y-87923331D01*
X117857385Y-87965641D01*
X117880156Y-88050626D01*
X117896806Y-88079464D01*
X117946048Y-88164753D01*
X118039234Y-88257939D01*
X118153362Y-88323831D01*
X118280656Y-88357939D01*
X118280658Y-88357939D01*
X118412438Y-88357939D01*
X118412440Y-88357939D01*
X118539734Y-88323831D01*
X118634293Y-88269236D01*
X118661354Y-88262671D01*
X118687445Y-88252940D01*
X118694836Y-88254547D01*
X118702189Y-88252764D01*
X118728509Y-88261873D01*
X118755718Y-88267792D01*
X118764407Y-88274296D01*
X118768216Y-88275615D01*
X118783972Y-88288943D01*
X118814130Y-88319101D01*
X118847615Y-88380424D01*
X118843491Y-88447736D01*
X118802353Y-88565301D01*
X118799500Y-88595730D01*
X118799500Y-91004269D01*
X118802353Y-91034699D01*
X118802353Y-91034701D01*
X118842524Y-91149500D01*
X118847207Y-91162882D01*
X118927850Y-91272150D01*
X119037118Y-91352793D01*
X119074579Y-91365901D01*
X119172423Y-91400139D01*
X119171712Y-91402168D01*
X119223509Y-91430505D01*
X119243146Y-91456116D01*
X119259539Y-91484510D01*
X119446870Y-91671841D01*
X119480355Y-91733164D01*
X119475371Y-91802856D01*
X119433499Y-91858789D01*
X119368035Y-91883206D01*
X119327097Y-91879297D01*
X119215892Y-91849500D01*
X119084108Y-91849500D01*
X118956814Y-91883608D01*
X118956813Y-91883608D01*
X118956811Y-91883609D01*
X118956810Y-91883609D01*
X118948833Y-91888215D01*
X118880933Y-91904685D01*
X118814906Y-91881832D01*
X118779449Y-91842827D01*
X118770053Y-91826553D01*
X118750500Y-91792686D01*
X118657314Y-91699500D01*
X118593502Y-91662658D01*
X118543187Y-91633608D01*
X118477061Y-91615890D01*
X118415892Y-91599500D01*
X118284108Y-91599500D01*
X118156812Y-91633608D01*
X118042686Y-91699500D01*
X118042683Y-91699502D01*
X117949502Y-91792683D01*
X117949500Y-91792686D01*
X117883608Y-91906812D01*
X117864132Y-91979500D01*
X117849500Y-92034108D01*
X117849500Y-92165892D01*
X117858106Y-92198009D01*
X117883608Y-92293187D01*
X117890986Y-92305965D01*
X117949500Y-92407314D01*
X118042686Y-92500500D01*
X118156814Y-92566392D01*
X118284108Y-92600500D01*
X118284110Y-92600500D01*
X118415890Y-92600500D01*
X118415892Y-92600500D01*
X118543186Y-92566392D01*
X118551162Y-92561786D01*
X118619061Y-92545313D01*
X118685088Y-92568164D01*
X118720551Y-92607173D01*
X118749500Y-92657314D01*
X118842686Y-92750500D01*
X118956814Y-92816392D01*
X119084108Y-92850500D01*
X119084118Y-92850500D01*
X119091682Y-92851496D01*
X119155580Y-92879761D01*
X119194052Y-92938085D01*
X119199500Y-92974436D01*
X119199500Y-93902404D01*
X119179815Y-93969443D01*
X119127011Y-94015198D01*
X119116456Y-94019445D01*
X119037117Y-94047207D01*
X118927850Y-94127850D01*
X118847207Y-94237117D01*
X118847206Y-94237119D01*
X118802353Y-94365298D01*
X118802353Y-94365300D01*
X118799500Y-94395730D01*
X118799500Y-96804269D01*
X118802353Y-96834699D01*
X118802353Y-96834701D01*
X118847206Y-96962880D01*
X118847207Y-96962882D01*
X118927850Y-97072150D01*
X119037118Y-97152793D01*
X119079845Y-97167744D01*
X119165299Y-97197646D01*
X119195730Y-97200500D01*
X119195734Y-97200500D01*
X119804270Y-97200500D01*
X119834699Y-97197646D01*
X119834701Y-97197646D01*
X119898790Y-97175219D01*
X119962882Y-97152793D01*
X120072150Y-97072150D01*
X120152793Y-96962882D01*
X120183751Y-96874410D01*
X120197646Y-96834701D01*
X120197646Y-96834699D01*
X120200500Y-96804269D01*
X120200500Y-94400013D01*
X122500000Y-94400013D01*
X122500000Y-95350000D01*
X123250000Y-95350000D01*
X123750000Y-95350000D01*
X124499999Y-95350000D01*
X124499999Y-94400028D01*
X124499998Y-94400013D01*
X124489505Y-94297302D01*
X124434358Y-94130880D01*
X124434356Y-94130875D01*
X124342315Y-93981654D01*
X124218345Y-93857684D01*
X124069124Y-93765643D01*
X124069119Y-93765641D01*
X123902697Y-93710494D01*
X123902690Y-93710493D01*
X123799986Y-93700000D01*
X123750000Y-93700000D01*
X123750000Y-95350000D01*
X123250000Y-95350000D01*
X123250000Y-93700000D01*
X123249999Y-93699999D01*
X123200029Y-93700000D01*
X123200011Y-93700001D01*
X123097302Y-93710494D01*
X122930880Y-93765641D01*
X122930875Y-93765643D01*
X122781654Y-93857684D01*
X122657684Y-93981654D01*
X122565643Y-94130875D01*
X122565641Y-94130880D01*
X122510494Y-94297302D01*
X122510493Y-94297309D01*
X122500000Y-94400013D01*
X120200500Y-94400013D01*
X120200500Y-94395730D01*
X120197646Y-94365300D01*
X120197646Y-94365298D01*
X120152793Y-94237119D01*
X120152792Y-94237117D01*
X120072150Y-94127850D01*
X119962882Y-94047207D01*
X119883544Y-94019445D01*
X119826769Y-93978723D01*
X119801022Y-93913770D01*
X119800500Y-93902404D01*
X119800500Y-93175833D01*
X119820185Y-93108794D01*
X119836819Y-93088152D01*
X119991766Y-92933205D01*
X120189460Y-92735511D01*
X120210251Y-92699500D01*
X120229021Y-92666989D01*
X120249500Y-92590562D01*
X120249500Y-92223786D01*
X120269185Y-92156747D01*
X120321989Y-92110992D01*
X120391147Y-92101048D01*
X120405565Y-92104004D01*
X120480241Y-92124014D01*
X120480245Y-92124014D01*
X120612023Y-92124014D01*
X120612025Y-92124014D01*
X120739319Y-92089906D01*
X120853447Y-92024014D01*
X120946633Y-91930828D01*
X121012525Y-91816700D01*
X121046633Y-91689406D01*
X121046633Y-91557622D01*
X121012525Y-91430328D01*
X120946633Y-91316200D01*
X120853447Y-91223014D01*
X120749296Y-91162882D01*
X120739320Y-91157122D01*
X120675672Y-91140068D01*
X120612025Y-91123014D01*
X120480241Y-91123014D01*
X120354062Y-91156823D01*
X120284212Y-91155160D01*
X120226350Y-91115997D01*
X120198846Y-91051768D01*
X120198511Y-91025474D01*
X120200500Y-91004266D01*
X120200500Y-90999986D01*
X122500001Y-90999986D01*
X122510494Y-91102697D01*
X122565641Y-91269119D01*
X122565643Y-91269124D01*
X122657684Y-91418345D01*
X122781654Y-91542315D01*
X122930875Y-91634356D01*
X122930880Y-91634358D01*
X123097302Y-91689505D01*
X123097309Y-91689506D01*
X123200019Y-91699999D01*
X123249999Y-91699998D01*
X123250000Y-91699998D01*
X123250000Y-90050000D01*
X122500001Y-90050000D01*
X122500001Y-90999986D01*
X120200500Y-90999986D01*
X120200500Y-88595734D01*
X120199194Y-88581812D01*
X120197646Y-88565300D01*
X120197646Y-88565298D01*
X120156508Y-88447736D01*
X120152793Y-88437118D01*
X120072150Y-88327850D01*
X119962882Y-88247207D01*
X119962880Y-88247206D01*
X119949820Y-88242636D01*
X119949812Y-88242633D01*
X119834699Y-88202354D01*
X119804266Y-88199500D01*
X119801554Y-88199500D01*
X119595833Y-88199500D01*
X119528794Y-88179815D01*
X119508152Y-88163181D01*
X118961951Y-87616980D01*
X118961946Y-87616976D01*
X118931150Y-87599197D01*
X118918326Y-87591793D01*
X118893428Y-87577418D01*
X118817001Y-87556939D01*
X118787379Y-87556939D01*
X118770256Y-87551906D01*
X118755274Y-87542271D01*
X118738185Y-87537254D01*
X118717543Y-87520620D01*
X118653864Y-87456941D01*
X118653862Y-87456939D01*
X118594652Y-87422754D01*
X118539735Y-87391047D01*
X118475848Y-87373929D01*
X118412440Y-87356939D01*
X118280656Y-87356939D01*
X118153360Y-87391047D01*
X118039234Y-87456939D01*
X118039231Y-87456941D01*
X117946050Y-87550122D01*
X117946048Y-87550125D01*
X117880156Y-87664251D01*
X117856507Y-87752513D01*
X117846048Y-87791547D01*
X115250500Y-87791547D01*
X115250500Y-87777525D01*
X115212984Y-87637515D01*
X115206906Y-87626988D01*
X115140511Y-87511988D01*
X115140506Y-87511982D01*
X115038017Y-87409493D01*
X115038011Y-87409488D01*
X114912488Y-87337017D01*
X114912489Y-87337017D01*
X114875146Y-87327011D01*
X114772475Y-87299500D01*
X114627525Y-87299500D01*
X114524854Y-87327011D01*
X114487511Y-87337017D01*
X114361988Y-87409488D01*
X114361982Y-87409493D01*
X114259493Y-87511982D01*
X114259488Y-87511988D01*
X114187017Y-87637511D01*
X114182583Y-87654055D01*
X114149500Y-87777525D01*
X110660034Y-87777525D01*
X110715894Y-87642666D01*
X110719047Y-87626810D01*
X110751429Y-87564900D01*
X110812143Y-87530323D01*
X110881913Y-87534059D01*
X110928346Y-87563317D01*
X110949540Y-87584511D01*
X111005489Y-87640460D01*
X111005491Y-87640461D01*
X111005495Y-87640464D01*
X111074004Y-87680017D01*
X111074011Y-87680021D01*
X111150438Y-87700500D01*
X111150440Y-87700500D01*
X112089560Y-87700500D01*
X112089562Y-87700500D01*
X112165989Y-87680021D01*
X112234511Y-87640460D01*
X112290460Y-87584511D01*
X113178152Y-86696819D01*
X113239475Y-86663334D01*
X113265833Y-86660500D01*
X119074167Y-86660500D01*
X119141206Y-86680185D01*
X119161848Y-86696819D01*
X119388181Y-86923152D01*
X119421666Y-86984475D01*
X119424500Y-87010833D01*
X119424500Y-87444562D01*
X119430967Y-87468695D01*
X119444978Y-87520987D01*
X119461802Y-87550127D01*
X119461801Y-87550127D01*
X119484535Y-87589504D01*
X119484539Y-87589509D01*
X119484540Y-87589511D01*
X119779540Y-87884511D01*
X119835489Y-87940460D01*
X119904011Y-87980021D01*
X119980438Y-88000500D01*
X120059562Y-88000500D01*
X120900495Y-88000500D01*
X120967534Y-88020185D01*
X121013289Y-88072989D01*
X121023233Y-88142147D01*
X121020270Y-88156591D01*
X120999500Y-88234108D01*
X120999500Y-88365892D01*
X121010115Y-88405509D01*
X121033608Y-88493187D01*
X121062476Y-88543186D01*
X121099500Y-88607314D01*
X121192686Y-88700500D01*
X121306814Y-88766392D01*
X121434108Y-88800500D01*
X121434110Y-88800500D01*
X121565890Y-88800500D01*
X121565892Y-88800500D01*
X121693186Y-88766392D01*
X121807314Y-88700500D01*
X121900500Y-88607314D01*
X121966392Y-88493186D01*
X121990742Y-88402307D01*
X122027105Y-88342649D01*
X122089952Y-88312119D01*
X122159327Y-88320413D01*
X122198197Y-88346721D01*
X122256985Y-88405509D01*
X122256986Y-88405510D01*
X122256988Y-88405511D01*
X122382511Y-88477982D01*
X122382512Y-88477982D01*
X122382515Y-88477984D01*
X122408095Y-88484838D01*
X122467753Y-88521201D01*
X122498283Y-88584048D01*
X122500000Y-88604612D01*
X122500000Y-89550000D01*
X123250000Y-89550000D01*
X123250000Y-87921763D01*
X123210646Y-87900000D01*
X123750000Y-87900000D01*
X123750000Y-91699999D01*
X123799972Y-91699999D01*
X123799986Y-91699998D01*
X123902697Y-91689505D01*
X124069119Y-91634358D01*
X124069130Y-91634353D01*
X124172217Y-91570768D01*
X124239609Y-91552327D01*
X124306272Y-91573249D01*
X124351042Y-91626891D01*
X124357086Y-91644207D01*
X124371903Y-91699502D01*
X124383608Y-91743187D01*
X124412185Y-91792683D01*
X124449500Y-91857314D01*
X124542686Y-91950500D01*
X124641521Y-92007563D01*
X124652854Y-92014106D01*
X124656814Y-92016392D01*
X124784108Y-92050500D01*
X124784110Y-92050500D01*
X124915890Y-92050500D01*
X124915892Y-92050500D01*
X125043186Y-92016392D01*
X125157314Y-91950500D01*
X125250500Y-91857314D01*
X125316392Y-91743186D01*
X125350500Y-91615892D01*
X125350500Y-91484108D01*
X125316392Y-91356814D01*
X125314070Y-91352793D01*
X125292943Y-91316200D01*
X125250500Y-91242686D01*
X125157314Y-91149500D01*
X125084570Y-91107501D01*
X125043187Y-91083608D01*
X124924356Y-91051768D01*
X124915892Y-91049500D01*
X124784108Y-91049500D01*
X124656092Y-91083801D01*
X124586242Y-91082138D01*
X124528380Y-91042975D01*
X124500876Y-90978746D01*
X124499999Y-90964026D01*
X124499999Y-90235973D01*
X124519684Y-90168934D01*
X124572488Y-90123179D01*
X124641646Y-90113235D01*
X124656092Y-90116198D01*
X124656812Y-90116390D01*
X124656814Y-90116392D01*
X124784108Y-90150500D01*
X124784110Y-90150500D01*
X124915890Y-90150500D01*
X124915892Y-90150500D01*
X125043186Y-90116392D01*
X125157314Y-90050500D01*
X125250500Y-89957314D01*
X125316392Y-89843186D01*
X125350500Y-89715892D01*
X125350500Y-89611304D01*
X125759500Y-89611304D01*
X125759500Y-89788695D01*
X125794103Y-89962658D01*
X125794106Y-89962667D01*
X125861983Y-90126540D01*
X125861990Y-90126553D01*
X125960535Y-90274034D01*
X125960538Y-90274038D01*
X126085961Y-90399461D01*
X126085965Y-90399464D01*
X126233446Y-90498009D01*
X126233459Y-90498016D01*
X126356363Y-90548923D01*
X126397334Y-90565894D01*
X126397336Y-90565894D01*
X126397341Y-90565896D01*
X126571304Y-90600499D01*
X126571307Y-90600500D01*
X126571309Y-90600500D01*
X126748693Y-90600500D01*
X126748694Y-90600499D01*
X126806682Y-90588964D01*
X126922658Y-90565896D01*
X126922661Y-90565894D01*
X126922666Y-90565894D01*
X127086547Y-90498013D01*
X127234035Y-90399464D01*
X127359464Y-90274035D01*
X127458013Y-90126547D01*
X127525894Y-89962666D01*
X127525946Y-89962409D01*
X127560499Y-89788695D01*
X127560500Y-89788693D01*
X127560500Y-89611306D01*
X127560499Y-89611304D01*
X128299500Y-89611304D01*
X128299500Y-89788695D01*
X128334103Y-89962658D01*
X128334106Y-89962667D01*
X128401983Y-90126540D01*
X128401990Y-90126553D01*
X128500535Y-90274034D01*
X128500538Y-90274038D01*
X128625961Y-90399461D01*
X128625965Y-90399464D01*
X128773446Y-90498009D01*
X128773459Y-90498016D01*
X128896363Y-90548923D01*
X128937334Y-90565894D01*
X128937336Y-90565894D01*
X128937341Y-90565896D01*
X129111304Y-90600499D01*
X129111307Y-90600500D01*
X129111309Y-90600500D01*
X129288693Y-90600500D01*
X129288694Y-90600499D01*
X129346682Y-90588964D01*
X129462658Y-90565896D01*
X129462661Y-90565894D01*
X129462666Y-90565894D01*
X129626547Y-90498013D01*
X129774035Y-90399464D01*
X129899464Y-90274035D01*
X129998013Y-90126547D01*
X130065894Y-89962666D01*
X130065946Y-89962409D01*
X130100499Y-89788695D01*
X130100500Y-89788693D01*
X130100500Y-89611306D01*
X130100499Y-89611304D01*
X130065896Y-89437341D01*
X130065893Y-89437332D01*
X129998016Y-89273459D01*
X129998009Y-89273446D01*
X129899464Y-89125965D01*
X129899461Y-89125961D01*
X129774038Y-89000538D01*
X129774034Y-89000535D01*
X129626553Y-88901990D01*
X129626540Y-88901983D01*
X129462667Y-88834106D01*
X129462658Y-88834103D01*
X129288694Y-88799500D01*
X129288691Y-88799500D01*
X129111309Y-88799500D01*
X129111306Y-88799500D01*
X128937341Y-88834103D01*
X128937332Y-88834106D01*
X128773459Y-88901983D01*
X128773446Y-88901990D01*
X128625965Y-89000535D01*
X128625961Y-89000538D01*
X128500538Y-89125961D01*
X128500535Y-89125965D01*
X128401990Y-89273446D01*
X128401983Y-89273459D01*
X128334106Y-89437332D01*
X128334103Y-89437341D01*
X128299500Y-89611304D01*
X127560499Y-89611304D01*
X127525896Y-89437341D01*
X127525893Y-89437332D01*
X127458016Y-89273459D01*
X127458009Y-89273446D01*
X127359464Y-89125965D01*
X127359461Y-89125961D01*
X127234038Y-89000538D01*
X127234034Y-89000535D01*
X127086553Y-88901990D01*
X127086540Y-88901983D01*
X126922667Y-88834106D01*
X126922658Y-88834103D01*
X126748694Y-88799500D01*
X126748691Y-88799500D01*
X126571309Y-88799500D01*
X126571306Y-88799500D01*
X126397341Y-88834103D01*
X126397332Y-88834106D01*
X126233459Y-88901983D01*
X126233446Y-88901990D01*
X126085965Y-89000535D01*
X126085961Y-89000538D01*
X125960538Y-89125961D01*
X125960535Y-89125965D01*
X125861990Y-89273446D01*
X125861983Y-89273459D01*
X125794106Y-89437332D01*
X125794103Y-89437341D01*
X125759500Y-89611304D01*
X125350500Y-89611304D01*
X125350500Y-89584108D01*
X125316392Y-89456814D01*
X125314906Y-89454241D01*
X125305144Y-89437332D01*
X125250500Y-89342686D01*
X125157314Y-89249500D01*
X125070712Y-89199500D01*
X125043187Y-89183608D01*
X124979539Y-89166554D01*
X124915892Y-89149500D01*
X124784108Y-89149500D01*
X124656092Y-89183801D01*
X124631097Y-89183205D01*
X124606352Y-89186764D01*
X124596771Y-89182388D01*
X124586242Y-89182138D01*
X124565538Y-89168125D01*
X124542796Y-89157739D01*
X124537101Y-89148877D01*
X124528380Y-89142975D01*
X124518539Y-89119994D01*
X124505022Y-89098961D01*
X124502742Y-89083103D01*
X124500876Y-89078746D01*
X124499999Y-89064026D01*
X124499999Y-88949370D01*
X124519684Y-88882331D01*
X124572488Y-88836576D01*
X124641646Y-88826632D01*
X124656074Y-88829591D01*
X124734108Y-88850500D01*
X124734111Y-88850500D01*
X124865890Y-88850500D01*
X124865892Y-88850500D01*
X124993186Y-88816392D01*
X125107314Y-88750500D01*
X125200500Y-88657314D01*
X125266392Y-88543186D01*
X125300500Y-88415892D01*
X125300500Y-88284108D01*
X125266392Y-88156814D01*
X125266264Y-88156593D01*
X125234280Y-88101195D01*
X125200500Y-88042686D01*
X125107314Y-87949500D01*
X124994754Y-87884513D01*
X124993187Y-87883608D01*
X124893457Y-87856886D01*
X124865892Y-87849500D01*
X124734108Y-87849500D01*
X124606812Y-87883608D01*
X124492686Y-87949500D01*
X124492683Y-87949502D01*
X124393753Y-88048433D01*
X124392556Y-88047236D01*
X124343971Y-88082706D01*
X124274224Y-88086853D01*
X124225723Y-88059990D01*
X124224007Y-88062161D01*
X124218346Y-88057684D01*
X124069124Y-87965643D01*
X124069119Y-87965641D01*
X123902697Y-87910494D01*
X123902690Y-87910493D01*
X123799986Y-87900000D01*
X123750000Y-87900000D01*
X123210646Y-87900000D01*
X123182641Y-87884513D01*
X123179667Y-87881507D01*
X123175612Y-87880317D01*
X123155309Y-87856886D01*
X123133501Y-87834843D01*
X123132624Y-87830706D01*
X123129857Y-87827513D01*
X123122878Y-87808102D01*
X123107984Y-87752515D01*
X123093831Y-87728002D01*
X123035511Y-87626988D01*
X123035506Y-87626982D01*
X123018729Y-87610205D01*
X122985244Y-87548882D01*
X122990228Y-87479190D01*
X123032100Y-87423257D01*
X123032680Y-87422824D01*
X123098930Y-87373930D01*
X123178455Y-87266179D01*
X123201390Y-87200634D01*
X123222684Y-87139781D01*
X123222684Y-87139778D01*
X123222686Y-87139774D01*
X123224790Y-87117334D01*
X123225500Y-87109768D01*
X123225500Y-87024500D01*
X123245185Y-86957461D01*
X123297989Y-86911706D01*
X123349500Y-86900500D01*
X124191324Y-86900500D01*
X124258363Y-86920185D01*
X124279005Y-86936819D01*
X124342686Y-87000500D01*
X124456814Y-87066392D01*
X124584108Y-87100500D01*
X124584110Y-87100500D01*
X124715890Y-87100500D01*
X124715892Y-87100500D01*
X124843186Y-87066392D01*
X124957314Y-87000500D01*
X125050500Y-86907314D01*
X125116392Y-86793186D01*
X125150500Y-86665892D01*
X125150500Y-86534108D01*
X125116392Y-86406814D01*
X125104663Y-86386500D01*
X125088191Y-86318601D01*
X125111043Y-86252574D01*
X125165964Y-86209383D01*
X125212051Y-86200500D01*
X125924167Y-86200500D01*
X125991206Y-86220185D01*
X126011848Y-86236819D01*
X127075489Y-87300460D01*
X127134829Y-87334720D01*
X127144008Y-87340020D01*
X127144012Y-87340022D01*
X127220438Y-87360500D01*
X127220440Y-87360500D01*
X129079560Y-87360500D01*
X129079562Y-87360500D01*
X129155989Y-87340021D01*
X129224511Y-87300460D01*
X129280460Y-87244511D01*
X131763152Y-84761819D01*
X131824475Y-84728334D01*
X131850833Y-84725500D01*
X132879270Y-84725500D01*
X132909699Y-84722646D01*
X132909701Y-84722646D01*
X132975881Y-84699488D01*
X133037882Y-84677793D01*
X133147150Y-84597150D01*
X133227793Y-84487882D01*
X133259454Y-84397401D01*
X133272646Y-84359701D01*
X133272646Y-84359699D01*
X133275500Y-84329269D01*
X133275500Y-83470730D01*
X133272646Y-83440300D01*
X133272646Y-83440298D01*
X133239006Y-83344163D01*
X133227793Y-83312118D01*
X133147150Y-83202850D01*
X133037882Y-83122207D01*
X133037880Y-83122206D01*
X132909700Y-83077353D01*
X132879270Y-83074500D01*
X132879266Y-83074500D01*
X132653386Y-83074500D01*
X132586347Y-83054815D01*
X132540592Y-83002011D01*
X132530648Y-82932853D01*
X132559673Y-82869297D01*
X132565705Y-82862819D01*
X132600348Y-82828176D01*
X132640509Y-82788015D01*
X132712984Y-82662485D01*
X132750500Y-82522475D01*
X132750500Y-82377525D01*
X132712984Y-82237515D01*
X132702861Y-82219982D01*
X132640229Y-82111500D01*
X132623756Y-82043600D01*
X132646608Y-81977573D01*
X132701529Y-81934383D01*
X132747616Y-81925500D01*
X132879270Y-81925500D01*
X132909699Y-81922646D01*
X132909701Y-81922646D01*
X132981648Y-81897470D01*
X133037882Y-81877793D01*
X133147150Y-81797150D01*
X133227793Y-81687882D01*
X133264345Y-81583423D01*
X133272646Y-81559701D01*
X133272646Y-81559699D01*
X133275500Y-81529269D01*
X133275500Y-80670730D01*
X133272646Y-80640300D01*
X133272646Y-80640298D01*
X133227793Y-80512119D01*
X133227792Y-80512117D01*
X133147150Y-80402850D01*
X133037882Y-80322207D01*
X133037880Y-80322206D01*
X132909700Y-80277353D01*
X132879270Y-80274500D01*
X132879266Y-80274500D01*
X131520734Y-80274500D01*
X131520730Y-80274500D01*
X131490300Y-80277353D01*
X131490298Y-80277353D01*
X131362119Y-80322206D01*
X131362117Y-80322207D01*
X131252850Y-80402850D01*
X131172207Y-80512117D01*
X131172206Y-80512119D01*
X131127353Y-80640298D01*
X131125744Y-80647670D01*
X131123620Y-80647206D01*
X131101802Y-80701982D01*
X131044959Y-80742609D01*
X131004198Y-80749500D01*
X130723052Y-80749500D01*
X130656013Y-80729815D01*
X130610258Y-80677011D01*
X130602372Y-80647480D01*
X130601506Y-80647670D01*
X130599896Y-80640298D01*
X130555043Y-80512119D01*
X130555042Y-80512117D01*
X130474400Y-80402850D01*
X130365132Y-80322207D01*
X130365130Y-80322206D01*
X130236950Y-80277353D01*
X130206520Y-80274500D01*
X130206516Y-80274500D01*
X128847984Y-80274500D01*
X128847980Y-80274500D01*
X128817550Y-80277353D01*
X128817548Y-80277353D01*
X128689369Y-80322206D01*
X128689367Y-80322207D01*
X128580100Y-80402850D01*
X128499457Y-80512117D01*
X128499456Y-80512119D01*
X128454603Y-80640298D01*
X128452994Y-80647670D01*
X128450870Y-80647206D01*
X128429052Y-80701982D01*
X128372209Y-80742609D01*
X128331448Y-80749500D01*
X128050327Y-80749500D01*
X127983288Y-80729815D01*
X127937533Y-80677011D01*
X127929647Y-80647480D01*
X127928781Y-80647670D01*
X127927171Y-80640298D01*
X127882318Y-80512119D01*
X127882317Y-80512117D01*
X127801675Y-80402850D01*
X127692407Y-80322207D01*
X127692405Y-80322206D01*
X127564225Y-80277353D01*
X127533795Y-80274500D01*
X127533791Y-80274500D01*
X126175259Y-80274500D01*
X126175255Y-80274500D01*
X126144825Y-80277353D01*
X126144823Y-80277353D01*
X126016644Y-80322206D01*
X126016642Y-80322207D01*
X125907375Y-80402850D01*
X125826732Y-80512117D01*
X125826731Y-80512119D01*
X125781878Y-80640298D01*
X125780269Y-80647670D01*
X125778145Y-80647206D01*
X125756327Y-80701982D01*
X125699484Y-80742609D01*
X125658723Y-80749500D01*
X125377602Y-80749500D01*
X125310563Y-80729815D01*
X125264808Y-80677011D01*
X125256922Y-80647480D01*
X125256056Y-80647670D01*
X125254446Y-80640298D01*
X125209593Y-80512119D01*
X125209592Y-80512117D01*
X125128950Y-80402850D01*
X125019682Y-80322207D01*
X125019680Y-80322206D01*
X124891500Y-80277353D01*
X124861070Y-80274500D01*
X124861066Y-80274500D01*
X123502534Y-80274500D01*
X123502530Y-80274500D01*
X123472100Y-80277353D01*
X123472098Y-80277353D01*
X123343919Y-80322206D01*
X123343917Y-80322207D01*
X123234650Y-80402850D01*
X123154007Y-80512117D01*
X123154006Y-80512119D01*
X123109153Y-80640298D01*
X123107544Y-80647670D01*
X123105420Y-80647206D01*
X123083602Y-80701982D01*
X123026759Y-80742609D01*
X122985998Y-80749500D01*
X122704877Y-80749500D01*
X122637838Y-80729815D01*
X122592083Y-80677011D01*
X122584197Y-80647480D01*
X122583331Y-80647670D01*
X122581721Y-80640298D01*
X122536868Y-80512119D01*
X122536867Y-80512117D01*
X122456225Y-80402850D01*
X122346957Y-80322207D01*
X122346955Y-80322206D01*
X122218775Y-80277353D01*
X122188345Y-80274500D01*
X122188341Y-80274500D01*
X121983575Y-80274500D01*
X121916536Y-80254815D01*
X121870781Y-80202011D01*
X121859575Y-80150500D01*
X121859575Y-79321457D01*
X127654499Y-79321457D01*
X127682379Y-79461614D01*
X127682381Y-79461620D01*
X127737069Y-79593650D01*
X127737074Y-79593659D01*
X127816467Y-79712478D01*
X127816470Y-79712482D01*
X127917517Y-79813529D01*
X127917521Y-79813532D01*
X128036340Y-79892925D01*
X128036346Y-79892928D01*
X128036347Y-79892929D01*
X128168380Y-79947619D01*
X128168384Y-79947619D01*
X128168385Y-79947620D01*
X128308542Y-79975500D01*
X128308545Y-79975500D01*
X128451457Y-79975500D01*
X128545751Y-79956742D01*
X128591620Y-79947619D01*
X128723653Y-79892929D01*
X128842479Y-79813532D01*
X128943532Y-79712479D01*
X129022929Y-79593653D01*
X129077619Y-79461620D01*
X129092261Y-79388011D01*
X129105500Y-79321457D01*
X129105500Y-79178542D01*
X129077620Y-79038385D01*
X129077619Y-79038384D01*
X129077619Y-79038380D01*
X129022929Y-78906347D01*
X129022928Y-78906346D01*
X129022925Y-78906340D01*
X128943532Y-78787521D01*
X128943529Y-78787517D01*
X128842482Y-78686470D01*
X128842478Y-78686467D01*
X128723659Y-78607074D01*
X128723650Y-78607069D01*
X128591620Y-78552381D01*
X128591614Y-78552379D01*
X128451457Y-78524500D01*
X128451455Y-78524500D01*
X128308545Y-78524500D01*
X128308543Y-78524500D01*
X128168385Y-78552379D01*
X128168379Y-78552381D01*
X128036349Y-78607069D01*
X128036340Y-78607074D01*
X127917521Y-78686467D01*
X127917517Y-78686470D01*
X127816470Y-78787517D01*
X127816467Y-78787521D01*
X127737074Y-78906340D01*
X127737069Y-78906349D01*
X127682381Y-79038379D01*
X127682379Y-79038385D01*
X127654500Y-79178542D01*
X127654500Y-79178545D01*
X127654500Y-79321455D01*
X127654500Y-79321457D01*
X127654499Y-79321457D01*
X121859575Y-79321457D01*
X121859575Y-79212468D01*
X121868219Y-79183027D01*
X121874743Y-79153041D01*
X121878497Y-79148025D01*
X121879260Y-79145429D01*
X121895890Y-79124791D01*
X122436961Y-78583719D01*
X122498282Y-78550236D01*
X122544218Y-78551331D01*
X122544468Y-78549439D01*
X122552524Y-78550499D01*
X122552525Y-78550500D01*
X122552526Y-78550500D01*
X122697472Y-78550500D01*
X122697475Y-78550500D01*
X122837485Y-78512984D01*
X122963015Y-78440509D01*
X123065509Y-78338015D01*
X123137984Y-78212485D01*
X123175500Y-78072475D01*
X123175500Y-77927525D01*
X123137984Y-77787515D01*
X123121809Y-77759500D01*
X123065511Y-77661988D01*
X123065506Y-77661982D01*
X122963017Y-77559493D01*
X122963011Y-77559488D01*
X122837488Y-77487017D01*
X122837489Y-77487017D01*
X122825024Y-77483677D01*
X122697475Y-77449500D01*
X122603855Y-77449500D01*
X122536816Y-77429815D01*
X122491061Y-77377011D01*
X122482608Y-77320602D01*
X122480500Y-77320602D01*
X122480500Y-77167527D01*
X122480500Y-77167525D01*
X122442984Y-77027515D01*
X122436273Y-77015892D01*
X122370511Y-76901988D01*
X122370506Y-76901982D01*
X122268017Y-76799493D01*
X122268011Y-76799488D01*
X122142488Y-76727017D01*
X122142489Y-76727017D01*
X122110692Y-76718497D01*
X122002475Y-76689500D01*
X121857525Y-76689500D01*
X121749308Y-76718497D01*
X121717511Y-76727017D01*
X121653656Y-76763884D01*
X121585755Y-76780357D01*
X121519729Y-76757504D01*
X121484270Y-76718498D01*
X121440500Y-76642686D01*
X121347314Y-76549500D01*
X121281420Y-76511456D01*
X121233187Y-76483608D01*
X121154767Y-76462596D01*
X121105892Y-76449500D01*
X120974108Y-76449500D01*
X120846812Y-76483608D01*
X120732686Y-76549500D01*
X120732683Y-76549502D01*
X120639502Y-76642683D01*
X120639500Y-76642686D01*
X120573608Y-76756812D01*
X120546544Y-76857819D01*
X120539500Y-76884108D01*
X120539500Y-77015892D01*
X120543799Y-77031935D01*
X120573608Y-77143187D01*
X120598584Y-77186445D01*
X120639500Y-77257314D01*
X120732686Y-77350500D01*
X120846814Y-77416392D01*
X120974108Y-77450500D01*
X120974110Y-77450500D01*
X121105890Y-77450500D01*
X121105892Y-77450500D01*
X121233186Y-77416392D01*
X121248040Y-77407815D01*
X121315940Y-77391342D01*
X121381967Y-77414193D01*
X121417429Y-77453201D01*
X121436953Y-77487017D01*
X121489491Y-77578015D01*
X121591985Y-77680509D01*
X121591986Y-77680510D01*
X121591988Y-77680511D01*
X121717511Y-77752982D01*
X121717512Y-77752982D01*
X121717515Y-77752984D01*
X121857525Y-77790500D01*
X121857528Y-77790500D01*
X121939456Y-77790500D01*
X122006495Y-77810185D01*
X122052250Y-77862989D01*
X122062194Y-77932147D01*
X122033169Y-77995703D01*
X122027137Y-78002181D01*
X121228606Y-78800711D01*
X121228602Y-78800716D01*
X121182462Y-78880634D01*
X121182461Y-78880637D01*
X121158575Y-78969781D01*
X121158575Y-80150500D01*
X121138890Y-80217539D01*
X121086086Y-80263294D01*
X121034575Y-80274500D01*
X120829805Y-80274500D01*
X120799375Y-80277353D01*
X120799373Y-80277353D01*
X120671194Y-80322206D01*
X120671192Y-80322207D01*
X120561925Y-80402850D01*
X120481282Y-80512117D01*
X120481281Y-80512119D01*
X120436428Y-80640298D01*
X120434819Y-80647670D01*
X120432695Y-80647206D01*
X120410877Y-80701982D01*
X120354034Y-80742609D01*
X120313273Y-80749500D01*
X120032152Y-80749500D01*
X119965113Y-80729815D01*
X119919358Y-80677011D01*
X119911472Y-80647480D01*
X119910606Y-80647670D01*
X119908996Y-80640298D01*
X119864143Y-80512119D01*
X119864142Y-80512117D01*
X119783500Y-80402850D01*
X119674232Y-80322207D01*
X119674230Y-80322206D01*
X119546050Y-80277353D01*
X119515620Y-80274500D01*
X119515616Y-80274500D01*
X118157084Y-80274500D01*
X118157080Y-80274500D01*
X118126650Y-80277353D01*
X118126648Y-80277353D01*
X117998469Y-80322206D01*
X117998467Y-80322207D01*
X117889200Y-80402850D01*
X117808557Y-80512117D01*
X117808556Y-80512119D01*
X117763703Y-80640298D01*
X117762094Y-80647670D01*
X117759970Y-80647206D01*
X117738152Y-80701982D01*
X117681309Y-80742609D01*
X117640548Y-80749500D01*
X117359427Y-80749500D01*
X117292388Y-80729815D01*
X117246633Y-80677011D01*
X117238747Y-80647480D01*
X117237881Y-80647670D01*
X117236271Y-80640298D01*
X117191418Y-80512119D01*
X117191417Y-80512117D01*
X117110775Y-80402850D01*
X117001507Y-80322207D01*
X117001505Y-80322206D01*
X116873325Y-80277353D01*
X116842895Y-80274500D01*
X116842891Y-80274500D01*
X115484359Y-80274500D01*
X115484355Y-80274500D01*
X115453925Y-80277353D01*
X115453923Y-80277353D01*
X115325744Y-80322206D01*
X115325742Y-80322207D01*
X115216475Y-80402850D01*
X115135832Y-80512117D01*
X115135831Y-80512119D01*
X115090978Y-80640298D01*
X115089369Y-80647670D01*
X115087245Y-80647206D01*
X115065427Y-80701982D01*
X115008584Y-80742609D01*
X114967823Y-80749500D01*
X114686702Y-80749500D01*
X114619663Y-80729815D01*
X114573908Y-80677011D01*
X114566022Y-80647480D01*
X114565156Y-80647670D01*
X114563546Y-80640298D01*
X114518693Y-80512119D01*
X114518692Y-80512117D01*
X114438050Y-80402850D01*
X114328782Y-80322207D01*
X114328780Y-80322206D01*
X114200600Y-80277353D01*
X114170170Y-80274500D01*
X114170166Y-80274500D01*
X112811634Y-80274500D01*
X112811630Y-80274500D01*
X112781200Y-80277353D01*
X112781198Y-80277353D01*
X112653019Y-80322206D01*
X112653017Y-80322207D01*
X112543750Y-80402850D01*
X112463107Y-80512117D01*
X112463106Y-80512119D01*
X112418253Y-80640298D01*
X112416644Y-80647670D01*
X112414520Y-80647206D01*
X112392702Y-80701982D01*
X112335859Y-80742609D01*
X112295098Y-80749500D01*
X112013977Y-80749500D01*
X111946938Y-80729815D01*
X111901183Y-80677011D01*
X111893297Y-80647480D01*
X111892431Y-80647670D01*
X111890821Y-80640298D01*
X111845968Y-80512119D01*
X111845967Y-80512117D01*
X111765325Y-80402850D01*
X111656057Y-80322207D01*
X111656055Y-80322206D01*
X111527875Y-80277353D01*
X111497445Y-80274500D01*
X111497441Y-80274500D01*
X110138909Y-80274500D01*
X110138905Y-80274500D01*
X110108475Y-80277353D01*
X110108473Y-80277353D01*
X109980294Y-80322206D01*
X109980292Y-80322207D01*
X109871025Y-80402850D01*
X109790382Y-80512117D01*
X109790381Y-80512119D01*
X109745528Y-80640298D01*
X109743919Y-80647670D01*
X109741795Y-80647206D01*
X109719977Y-80701982D01*
X109663134Y-80742609D01*
X109622373Y-80749500D01*
X109341252Y-80749500D01*
X109274213Y-80729815D01*
X109228458Y-80677011D01*
X109220572Y-80647480D01*
X109219706Y-80647670D01*
X109218096Y-80640298D01*
X109173243Y-80512119D01*
X109173242Y-80512117D01*
X109173241Y-80512116D01*
X109092600Y-80402850D01*
X109083145Y-80395872D01*
X109040897Y-80340224D01*
X109035440Y-80270568D01*
X109061921Y-80221278D01*
X109059560Y-80219466D01*
X109064506Y-80213019D01*
X109064507Y-80213016D01*
X109064509Y-80213015D01*
X109136984Y-80087485D01*
X109174500Y-79947475D01*
X109174500Y-79802525D01*
X109136984Y-79662515D01*
X109131212Y-79652518D01*
X109064511Y-79536988D01*
X109064506Y-79536982D01*
X108962017Y-79434493D01*
X108962011Y-79434488D01*
X108836488Y-79362017D01*
X108836489Y-79362017D01*
X108825006Y-79358940D01*
X108696475Y-79324500D01*
X108551525Y-79324500D01*
X108422993Y-79358940D01*
X108411511Y-79362017D01*
X108285988Y-79434488D01*
X108285982Y-79434493D01*
X108183493Y-79536982D01*
X108183488Y-79536988D01*
X108111017Y-79662511D01*
X108111016Y-79662515D01*
X108073500Y-79802525D01*
X108073500Y-79947475D01*
X108103601Y-80059811D01*
X108111017Y-80087489D01*
X108111018Y-80087492D01*
X108111603Y-80088504D01*
X108111836Y-80089465D01*
X108114128Y-80094999D01*
X108113265Y-80095356D01*
X108128073Y-80156405D01*
X108105219Y-80222431D01*
X108050296Y-80265619D01*
X108004214Y-80274500D01*
X107616006Y-80274500D01*
X107548967Y-80254815D01*
X107503212Y-80202011D01*
X107493268Y-80132853D01*
X107496231Y-80118408D01*
X107497840Y-80112402D01*
X107500500Y-80102475D01*
X107500500Y-79957525D01*
X107462984Y-79817515D01*
X107460684Y-79813532D01*
X107390511Y-79691988D01*
X107390506Y-79691982D01*
X107288017Y-79589493D01*
X107288011Y-79589488D01*
X107162488Y-79517017D01*
X107162489Y-79517017D01*
X107151006Y-79513940D01*
X107022475Y-79479500D01*
X106877525Y-79479500D01*
X106748993Y-79513940D01*
X106737511Y-79517017D01*
X106611988Y-79589488D01*
X106611982Y-79589493D01*
X106509493Y-79691982D01*
X106509488Y-79691988D01*
X106437017Y-79817511D01*
X106437016Y-79817515D01*
X106399500Y-79957525D01*
X106399500Y-80102475D01*
X106412941Y-80152640D01*
X106411279Y-80222488D01*
X106372117Y-80280351D01*
X106307889Y-80307855D01*
X106252212Y-80301774D01*
X106182424Y-80277354D01*
X106182423Y-80277353D01*
X106182421Y-80277353D01*
X106151995Y-80274500D01*
X106151991Y-80274500D01*
X104793459Y-80274500D01*
X104793455Y-80274500D01*
X104763025Y-80277353D01*
X104763023Y-80277354D01*
X104712486Y-80295038D01*
X104642707Y-80298600D01*
X104582080Y-80263872D01*
X104549852Y-80201878D01*
X104547531Y-80177997D01*
X104547531Y-80151271D01*
X104547531Y-80151269D01*
X104513423Y-80023975D01*
X104447531Y-79909847D01*
X104354345Y-79816661D01*
X104297281Y-79783715D01*
X104240218Y-79750769D01*
X104176570Y-79733715D01*
X104112923Y-79716661D01*
X103981139Y-79716661D01*
X103853843Y-79750769D01*
X103739717Y-79816661D01*
X103739714Y-79816663D01*
X103646533Y-79909844D01*
X103646531Y-79909847D01*
X103580639Y-80023973D01*
X103546531Y-80151269D01*
X103545470Y-80159329D01*
X103543995Y-80159134D01*
X103526846Y-80217539D01*
X103474042Y-80263294D01*
X103422531Y-80274500D01*
X102120734Y-80274500D01*
X102090301Y-80277354D01*
X102023525Y-80300719D01*
X102023509Y-80300724D01*
X101972692Y-80318506D01*
X101962118Y-80322207D01*
X101962117Y-80322207D01*
X101962116Y-80322208D01*
X101852850Y-80402850D01*
X101772208Y-80512116D01*
X101751812Y-80570402D01*
X101711089Y-80627177D01*
X101646136Y-80652923D01*
X101606577Y-80650197D01*
X101588682Y-80646018D01*
X101567186Y-80633608D01*
X101439892Y-80599500D01*
X101389446Y-80599500D01*
X101375535Y-80596252D01*
X101357058Y-80585795D01*
X101336690Y-80579815D01*
X101327260Y-80568932D01*
X101314727Y-80561840D01*
X101304836Y-80543053D01*
X101290935Y-80527011D01*
X101288885Y-80512758D01*
X101282177Y-80500016D01*
X101284012Y-80478866D01*
X101280991Y-80457853D01*
X101288077Y-80432021D01*
X101288218Y-80430408D01*
X101288687Y-80429800D01*
X101289169Y-80428045D01*
X101290020Y-80425990D01*
X101290021Y-80425989D01*
X101310500Y-80349562D01*
X101310500Y-79976987D01*
X101330185Y-79909948D01*
X101382989Y-79864193D01*
X101452147Y-79854249D01*
X101515703Y-79883274D01*
X101522181Y-79889306D01*
X101592686Y-79959811D01*
X101678178Y-80009170D01*
X101706810Y-80025701D01*
X101706814Y-80025703D01*
X101834108Y-80059811D01*
X101834110Y-80059811D01*
X101964480Y-80059811D01*
X101965892Y-80059811D01*
X102093186Y-80025703D01*
X102207314Y-79959811D01*
X102300500Y-79866625D01*
X102366392Y-79752497D01*
X102400500Y-79625203D01*
X102400500Y-79493419D01*
X102366392Y-79366125D01*
X102300500Y-79251997D01*
X102207314Y-79158811D01*
X102144373Y-79122472D01*
X102093187Y-79092919D01*
X102087818Y-79091480D01*
X101965892Y-79058811D01*
X101834108Y-79058811D01*
X101778485Y-79073715D01*
X101708635Y-79072052D01*
X101650773Y-79032889D01*
X101627065Y-78977525D01*
X109549500Y-78977525D01*
X109549500Y-79122475D01*
X109583805Y-79250500D01*
X109587017Y-79262488D01*
X109659488Y-79388011D01*
X109659490Y-79388013D01*
X109659491Y-79388015D01*
X109761985Y-79490509D01*
X109761986Y-79490510D01*
X109761988Y-79490511D01*
X109887511Y-79562982D01*
X109887512Y-79562982D01*
X109887515Y-79562984D01*
X110027525Y-79600500D01*
X110027528Y-79600500D01*
X110172472Y-79600500D01*
X110172475Y-79600500D01*
X110312485Y-79562984D01*
X110438015Y-79490509D01*
X110469416Y-79459108D01*
X114944500Y-79459108D01*
X114944500Y-79590892D01*
X114953693Y-79625201D01*
X114978608Y-79718187D01*
X114998418Y-79752498D01*
X115044500Y-79832314D01*
X115137686Y-79925500D01*
X115251814Y-79991392D01*
X115379108Y-80025500D01*
X115379110Y-80025500D01*
X115510890Y-80025500D01*
X115510892Y-80025500D01*
X115638186Y-79991392D01*
X115752314Y-79925500D01*
X115845500Y-79832314D01*
X115911392Y-79718186D01*
X115945500Y-79590892D01*
X115945500Y-79459108D01*
X115911392Y-79331814D01*
X115845500Y-79217686D01*
X115752314Y-79124500D01*
X115683503Y-79084772D01*
X115638187Y-79058608D01*
X115562693Y-79038380D01*
X115510892Y-79024500D01*
X115379108Y-79024500D01*
X115251812Y-79058608D01*
X115137686Y-79124500D01*
X115137683Y-79124502D01*
X115044502Y-79217683D01*
X115044500Y-79217686D01*
X114978608Y-79331812D01*
X114944500Y-79459108D01*
X110469416Y-79459108D01*
X110540509Y-79388015D01*
X110612984Y-79262485D01*
X110650500Y-79122475D01*
X110650500Y-78977525D01*
X110612984Y-78837515D01*
X110604227Y-78822348D01*
X110540511Y-78711988D01*
X110540506Y-78711982D01*
X110438017Y-78609493D01*
X110438011Y-78609488D01*
X110312488Y-78537017D01*
X110312489Y-78537017D01*
X110297863Y-78533098D01*
X110172475Y-78499500D01*
X110027525Y-78499500D01*
X109902137Y-78533098D01*
X109887511Y-78537017D01*
X109761988Y-78609488D01*
X109761982Y-78609493D01*
X109659493Y-78711982D01*
X109659488Y-78711988D01*
X109587017Y-78837511D01*
X109587016Y-78837515D01*
X109549500Y-78977525D01*
X101627065Y-78977525D01*
X101623269Y-78968660D01*
X101634856Y-78899758D01*
X101658708Y-78866262D01*
X102040460Y-78484511D01*
X102080022Y-78415988D01*
X102100500Y-78339562D01*
X102100500Y-78260438D01*
X102100500Y-78255956D01*
X110948896Y-78255956D01*
X110948896Y-78387740D01*
X110963035Y-78440509D01*
X110983004Y-78515035D01*
X111003480Y-78550499D01*
X111048896Y-78629162D01*
X111142082Y-78722348D01*
X111240917Y-78779411D01*
X111254964Y-78787521D01*
X111256210Y-78788240D01*
X111383504Y-78822348D01*
X111383506Y-78822348D01*
X111515286Y-78822348D01*
X111515288Y-78822348D01*
X111642582Y-78788240D01*
X111756710Y-78722348D01*
X111849896Y-78629162D01*
X111915788Y-78515034D01*
X111949896Y-78387740D01*
X111949896Y-78255956D01*
X111915788Y-78128662D01*
X111849896Y-78014534D01*
X111756710Y-77921348D01*
X111699646Y-77888402D01*
X111642583Y-77855456D01*
X111570545Y-77836154D01*
X111515288Y-77821348D01*
X111383504Y-77821348D01*
X111256208Y-77855456D01*
X111142082Y-77921348D01*
X111142079Y-77921350D01*
X111048898Y-78014531D01*
X111048896Y-78014534D01*
X110983004Y-78128660D01*
X110948896Y-78255956D01*
X102100500Y-78255956D01*
X102100500Y-78083676D01*
X102120185Y-78016637D01*
X102136819Y-77995995D01*
X102166002Y-77966812D01*
X102200500Y-77932314D01*
X102266392Y-77818186D01*
X102300500Y-77690892D01*
X102300500Y-77559108D01*
X102266392Y-77431814D01*
X102200500Y-77317686D01*
X102107314Y-77224500D01*
X102050250Y-77191554D01*
X101993187Y-77158608D01*
X101901955Y-77134163D01*
X101865892Y-77124500D01*
X101734108Y-77124500D01*
X101606811Y-77158608D01*
X101586224Y-77170495D01*
X101561022Y-77176608D01*
X101537025Y-77186445D01*
X101527616Y-77184711D01*
X101518323Y-77186966D01*
X101493815Y-77178483D01*
X101468312Y-77173785D01*
X101461336Y-77167242D01*
X101452297Y-77164114D01*
X101436264Y-77143726D01*
X101417351Y-77125987D01*
X101415019Y-77116710D01*
X101409107Y-77109192D01*
X101406642Y-77083375D01*
X101400321Y-77058224D01*
X101402902Y-77044211D01*
X101402466Y-77039638D01*
X101406716Y-77023514D01*
X101424287Y-76971363D01*
X103945612Y-76971363D01*
X103945612Y-77116313D01*
X103980853Y-77247832D01*
X103983129Y-77256326D01*
X104055600Y-77381849D01*
X104055602Y-77381851D01*
X104055603Y-77381853D01*
X104158097Y-77484347D01*
X104158098Y-77484348D01*
X104158100Y-77484349D01*
X104283623Y-77556820D01*
X104283624Y-77556820D01*
X104283627Y-77556822D01*
X104423637Y-77594338D01*
X104423640Y-77594338D01*
X104568584Y-77594338D01*
X104568587Y-77594338D01*
X104708597Y-77556822D01*
X104834127Y-77484347D01*
X104936621Y-77381853D01*
X105009096Y-77256323D01*
X105046612Y-77116313D01*
X105046612Y-76971363D01*
X105009096Y-76831353D01*
X104990700Y-76799491D01*
X104936623Y-76705826D01*
X104936618Y-76705820D01*
X104834129Y-76603331D01*
X104834123Y-76603326D01*
X104708600Y-76530855D01*
X104708601Y-76530855D01*
X104697118Y-76527778D01*
X104568587Y-76493338D01*
X104423637Y-76493338D01*
X104295105Y-76527778D01*
X104283623Y-76530855D01*
X104158100Y-76603326D01*
X104158094Y-76603331D01*
X104055605Y-76705820D01*
X104055600Y-76705826D01*
X103983129Y-76831349D01*
X103983128Y-76831353D01*
X103945612Y-76971363D01*
X101424287Y-76971363D01*
X101448744Y-76898777D01*
X101449621Y-76896267D01*
X101573862Y-76552348D01*
X101574801Y-76549832D01*
X101574929Y-76549502D01*
X101706460Y-76208688D01*
X101707451Y-76206204D01*
X101846475Y-75867980D01*
X101847463Y-75865648D01*
X101993818Y-75530434D01*
X101994916Y-75527996D01*
X102148469Y-75196097D01*
X102149522Y-75193882D01*
X102214672Y-75060710D01*
X102261814Y-75009145D01*
X102329353Y-74991250D01*
X102395846Y-75012710D01*
X102440180Y-75066712D01*
X102448052Y-75097541D01*
X102448311Y-75097490D01*
X102449269Y-75102308D01*
X102449458Y-75103047D01*
X102449498Y-75103461D01*
X102489868Y-75306412D01*
X102489870Y-75306420D01*
X102569058Y-75497596D01*
X102684024Y-75669657D01*
X102830342Y-75815975D01*
X102830345Y-75815977D01*
X103002402Y-75930941D01*
X103193580Y-76010130D01*
X103396530Y-76050499D01*
X103396534Y-76050500D01*
X103396535Y-76050500D01*
X103603466Y-76050500D01*
X103603467Y-76050499D01*
X103806420Y-76010130D01*
X103997598Y-75930941D01*
X104169655Y-75815977D01*
X104315977Y-75669655D01*
X104430941Y-75497598D01*
X104510130Y-75306420D01*
X104550500Y-75103465D01*
X104550500Y-74896535D01*
X104510130Y-74693580D01*
X104430941Y-74502402D01*
X104315977Y-74330345D01*
X104315975Y-74330342D01*
X104169658Y-74184025D01*
X104169654Y-74184022D01*
X104159537Y-74177262D01*
X104018880Y-74083279D01*
X104014342Y-74080247D01*
X105379500Y-74080247D01*
X105379500Y-75919752D01*
X105391131Y-75978229D01*
X105391132Y-75978230D01*
X105435447Y-76044552D01*
X105501769Y-76088867D01*
X105501770Y-76088868D01*
X105560247Y-76100499D01*
X105560250Y-76100500D01*
X105560252Y-76100500D01*
X106073885Y-76100500D01*
X106140924Y-76120185D01*
X106186679Y-76172989D01*
X106193659Y-76192404D01*
X106198026Y-76208700D01*
X106199979Y-76215989D01*
X106231439Y-76270480D01*
X106239540Y-76284511D01*
X106239542Y-76284514D01*
X106587673Y-76632644D01*
X106931017Y-76975988D01*
X106986966Y-77031937D01*
X106986968Y-77031938D01*
X106986972Y-77031941D01*
X107051480Y-77069184D01*
X107055488Y-77071498D01*
X107131915Y-77091977D01*
X107211039Y-77091977D01*
X111818562Y-77091977D01*
X111885601Y-77111662D01*
X111931356Y-77164466D01*
X111941300Y-77233624D01*
X111938337Y-77248071D01*
X111938278Y-77248287D01*
X111938277Y-77248291D01*
X111904169Y-77375585D01*
X111904169Y-77375587D01*
X111904169Y-77507368D01*
X111938277Y-77634664D01*
X111964746Y-77680509D01*
X112004169Y-77748791D01*
X112097355Y-77841977D01*
X112211483Y-77907869D01*
X112338777Y-77941977D01*
X112338779Y-77941977D01*
X112447545Y-77941977D01*
X112514584Y-77961662D01*
X112560339Y-78014466D01*
X112567320Y-78033884D01*
X112568366Y-78037787D01*
X112568366Y-78037790D01*
X112577659Y-78072472D01*
X112602474Y-78165085D01*
X112608504Y-78175529D01*
X112668366Y-78279212D01*
X112761552Y-78372398D01*
X112875680Y-78438290D01*
X113002974Y-78472398D01*
X113002976Y-78472398D01*
X113134756Y-78472398D01*
X113134758Y-78472398D01*
X113262052Y-78438290D01*
X113324513Y-78402227D01*
X113392412Y-78385755D01*
X113458439Y-78408607D01*
X113493899Y-78447614D01*
X113499495Y-78457307D01*
X113499498Y-78457311D01*
X113499500Y-78457314D01*
X113592686Y-78550500D01*
X113706814Y-78616392D01*
X113834108Y-78650500D01*
X113834110Y-78650500D01*
X113965890Y-78650500D01*
X113965892Y-78650500D01*
X114093186Y-78616392D01*
X114093197Y-78616385D01*
X114093545Y-78616242D01*
X114093878Y-78616206D01*
X114101037Y-78614288D01*
X114101335Y-78615403D01*
X114163014Y-78608767D01*
X114225496Y-78640037D01*
X114248395Y-78668798D01*
X114299500Y-78757314D01*
X114392686Y-78850500D01*
X114489416Y-78906347D01*
X114505944Y-78915890D01*
X114506814Y-78916392D01*
X114634108Y-78950500D01*
X114634110Y-78950500D01*
X114765890Y-78950500D01*
X114765892Y-78950500D01*
X114893186Y-78916392D01*
X115007314Y-78850500D01*
X115100500Y-78757314D01*
X115166392Y-78643186D01*
X115200500Y-78515892D01*
X115200500Y-78384108D01*
X115166392Y-78256814D01*
X115100500Y-78142686D01*
X115007314Y-78049500D01*
X114946746Y-78014531D01*
X114893187Y-77983608D01*
X114829539Y-77966554D01*
X114765892Y-77949500D01*
X114634108Y-77949500D01*
X114506804Y-77983610D01*
X114506430Y-77983766D01*
X114506088Y-77983802D01*
X114498963Y-77985712D01*
X114498665Y-77984599D01*
X114436960Y-77991227D01*
X114374484Y-77959946D01*
X114351605Y-77931203D01*
X114300500Y-77842686D01*
X114207314Y-77749500D01*
X114115689Y-77696600D01*
X114093187Y-77683608D01*
X114022187Y-77664584D01*
X113965892Y-77649500D01*
X113834108Y-77649500D01*
X113706811Y-77683608D01*
X113644351Y-77719670D01*
X113576451Y-77736141D01*
X113510424Y-77713289D01*
X113474965Y-77674281D01*
X113469369Y-77664590D01*
X113469366Y-77664584D01*
X113376180Y-77571398D01*
X113319116Y-77538452D01*
X113262053Y-77505506D01*
X113183085Y-77484347D01*
X113134758Y-77471398D01*
X113025990Y-77471398D01*
X112999274Y-77463553D01*
X112971809Y-77458935D01*
X112966209Y-77453844D01*
X112958951Y-77451713D01*
X112940718Y-77430671D01*
X112920109Y-77411936D01*
X112915834Y-77401953D01*
X112913196Y-77398909D01*
X112906215Y-77379491D01*
X112905169Y-77375587D01*
X112905169Y-77375585D01*
X112871061Y-77248291D01*
X112871059Y-77248288D01*
X112871001Y-77248070D01*
X112872664Y-77178221D01*
X112911827Y-77120358D01*
X112976055Y-77092854D01*
X112990776Y-77091977D01*
X113965644Y-77091977D01*
X114032683Y-77111662D01*
X114053325Y-77128296D01*
X114479540Y-77554511D01*
X114535489Y-77610460D01*
X114535491Y-77610461D01*
X114535495Y-77610464D01*
X114603109Y-77649500D01*
X114604011Y-77650021D01*
X114680438Y-77670500D01*
X114759562Y-77670500D01*
X115949911Y-77670500D01*
X116016950Y-77690185D01*
X116062705Y-77742989D01*
X116072649Y-77812147D01*
X116057298Y-77856498D01*
X116054067Y-77862097D01*
X115993608Y-77966812D01*
X115971452Y-78049502D01*
X115959500Y-78094108D01*
X115959500Y-78225892D01*
X115973787Y-78279211D01*
X115993608Y-78353187D01*
X116013557Y-78387739D01*
X116059500Y-78467314D01*
X116152686Y-78560500D01*
X116266814Y-78626392D01*
X116394108Y-78660500D01*
X116394110Y-78660500D01*
X116525890Y-78660500D01*
X116525892Y-78660500D01*
X116653186Y-78626392D01*
X116695495Y-78601964D01*
X116763390Y-78585492D01*
X116829418Y-78608343D01*
X116864879Y-78647351D01*
X116898390Y-78705392D01*
X116899500Y-78707314D01*
X116992686Y-78800500D01*
X117091521Y-78857563D01*
X117106583Y-78866259D01*
X117106814Y-78866392D01*
X117234108Y-78900500D01*
X117234110Y-78900500D01*
X117365890Y-78900500D01*
X117365892Y-78900500D01*
X117493186Y-78866392D01*
X117607314Y-78800500D01*
X117623706Y-78784108D01*
X119099500Y-78784108D01*
X119099500Y-78915891D01*
X119133608Y-79043187D01*
X119142629Y-79058811D01*
X119199500Y-79157314D01*
X119292686Y-79250500D01*
X119406814Y-79316392D01*
X119534108Y-79350500D01*
X119534110Y-79350500D01*
X119665890Y-79350500D01*
X119665892Y-79350500D01*
X119793186Y-79316392D01*
X119907314Y-79250500D01*
X120000500Y-79157314D01*
X120066392Y-79043186D01*
X120100500Y-78915892D01*
X120100500Y-78784108D01*
X120066392Y-78656814D01*
X120000500Y-78542686D01*
X119907314Y-78449500D01*
X119849270Y-78415988D01*
X119793187Y-78383608D01*
X119729539Y-78366554D01*
X119665892Y-78349500D01*
X119534108Y-78349500D01*
X119406812Y-78383608D01*
X119292686Y-78449500D01*
X119292683Y-78449502D01*
X119199502Y-78542683D01*
X119199500Y-78542686D01*
X119133608Y-78656812D01*
X119099500Y-78784108D01*
X117623706Y-78784108D01*
X117700500Y-78707314D01*
X117766392Y-78593186D01*
X117800500Y-78465892D01*
X117800500Y-78334108D01*
X117766392Y-78206814D01*
X117700500Y-78092686D01*
X117636818Y-78029004D01*
X117603334Y-77967680D01*
X117600500Y-77941323D01*
X117600500Y-77290439D01*
X117600500Y-77290438D01*
X117595152Y-77270480D01*
X117589148Y-77248071D01*
X117580023Y-77214015D01*
X117580022Y-77214013D01*
X117580022Y-77214012D01*
X117540460Y-77145489D01*
X117004511Y-76609540D01*
X117004510Y-76609539D01*
X117004507Y-76609537D01*
X116993753Y-76603328D01*
X116993751Y-76603328D01*
X116961457Y-76584683D01*
X116935990Y-76569979D01*
X116910513Y-76563152D01*
X116859562Y-76549500D01*
X116859560Y-76549500D01*
X116105833Y-76549500D01*
X116076392Y-76540855D01*
X116046406Y-76534332D01*
X116041390Y-76530577D01*
X116038794Y-76529815D01*
X116018152Y-76513181D01*
X115864953Y-76359982D01*
X115831468Y-76298659D01*
X115828634Y-76272301D01*
X115828634Y-76224500D01*
X115848319Y-76157461D01*
X115901123Y-76111706D01*
X115952634Y-76100500D01*
X116447884Y-76100500D01*
X116447885Y-76100499D01*
X116462702Y-76097552D01*
X116506363Y-76088868D01*
X116506363Y-76088867D01*
X116506365Y-76088867D01*
X116572686Y-76044552D01*
X116617001Y-75978231D01*
X116617001Y-75978229D01*
X116617002Y-75978229D01*
X116628633Y-75919752D01*
X116628634Y-75919750D01*
X116628634Y-75877525D01*
X116949500Y-75877525D01*
X116949500Y-76022475D01*
X116980874Y-76139562D01*
X116987017Y-76162488D01*
X117059488Y-76288011D01*
X117059490Y-76288013D01*
X117059491Y-76288015D01*
X117161985Y-76390509D01*
X117161986Y-76390510D01*
X117161988Y-76390511D01*
X117287511Y-76462982D01*
X117287512Y-76462982D01*
X117287515Y-76462984D01*
X117427525Y-76500500D01*
X117427528Y-76500500D01*
X117572472Y-76500500D01*
X117572475Y-76500500D01*
X117712485Y-76462984D01*
X117838015Y-76390509D01*
X117940509Y-76288015D01*
X118012984Y-76162485D01*
X118050500Y-76022475D01*
X118050500Y-75877525D01*
X118012984Y-75737515D01*
X118001099Y-75716930D01*
X117940511Y-75611988D01*
X117940506Y-75611982D01*
X117838017Y-75509493D01*
X117838011Y-75509488D01*
X117712488Y-75437017D01*
X117712489Y-75437017D01*
X117701006Y-75433940D01*
X117572475Y-75399500D01*
X117427525Y-75399500D01*
X117298993Y-75433940D01*
X117287511Y-75437017D01*
X117161988Y-75509488D01*
X117161982Y-75509493D01*
X117059493Y-75611982D01*
X117059488Y-75611988D01*
X116987017Y-75737511D01*
X116987016Y-75737515D01*
X116949500Y-75877525D01*
X116628634Y-75877525D01*
X116628634Y-74080249D01*
X116628633Y-74080247D01*
X118371366Y-74080247D01*
X118371366Y-75919752D01*
X118382997Y-75978229D01*
X118382998Y-75978230D01*
X118427313Y-76044552D01*
X118493635Y-76088867D01*
X118493636Y-76088868D01*
X118552113Y-76100499D01*
X118552116Y-76100500D01*
X118552118Y-76100500D01*
X120391616Y-76100500D01*
X120391617Y-76100499D01*
X120406434Y-76097552D01*
X120450095Y-76088868D01*
X120450095Y-76088867D01*
X120450097Y-76088867D01*
X120516418Y-76044552D01*
X120560733Y-75978231D01*
X120560733Y-75978229D01*
X120560734Y-75978229D01*
X120572365Y-75919752D01*
X120572366Y-75919750D01*
X120572366Y-74913389D01*
X120911366Y-74913389D01*
X120911366Y-75086611D01*
X120914036Y-75103466D01*
X120938463Y-75257697D01*
X120938463Y-75257699D01*
X120938464Y-75257701D01*
X120991993Y-75422445D01*
X121070634Y-75576788D01*
X121172452Y-75716928D01*
X121294938Y-75839414D01*
X121435078Y-75941232D01*
X121589421Y-76019873D01*
X121754165Y-76073402D01*
X121925255Y-76100500D01*
X121925256Y-76100500D01*
X122098476Y-76100500D01*
X122098477Y-76100500D01*
X122269567Y-76073402D01*
X122434311Y-76019873D01*
X122588654Y-75941232D01*
X122728794Y-75839414D01*
X122851280Y-75716928D01*
X122953098Y-75576788D01*
X123031739Y-75422445D01*
X123085268Y-75257701D01*
X123112366Y-75086611D01*
X123112366Y-74913389D01*
X124879500Y-74913389D01*
X124879500Y-75086611D01*
X124882170Y-75103466D01*
X124906597Y-75257697D01*
X124906597Y-75257699D01*
X124906598Y-75257701D01*
X124960127Y-75422445D01*
X125038768Y-75576788D01*
X125140586Y-75716928D01*
X125263072Y-75839414D01*
X125403212Y-75941232D01*
X125557555Y-76019873D01*
X125722299Y-76073402D01*
X125893389Y-76100500D01*
X125893390Y-76100500D01*
X126066610Y-76100500D01*
X126066611Y-76100500D01*
X126237701Y-76073402D01*
X126402445Y-76019873D01*
X126556788Y-75941232D01*
X126696928Y-75839414D01*
X126819414Y-75716928D01*
X126921232Y-75576788D01*
X126999873Y-75422445D01*
X127053402Y-75257701D01*
X127080500Y-75086611D01*
X127080500Y-74913389D01*
X127053402Y-74742299D01*
X126999873Y-74577555D01*
X126921232Y-74423212D01*
X126819414Y-74283072D01*
X126696928Y-74160586D01*
X126586351Y-74080247D01*
X127419500Y-74080247D01*
X127419500Y-75919752D01*
X127431131Y-75978229D01*
X127431132Y-75978230D01*
X127475447Y-76044552D01*
X127541769Y-76088867D01*
X127541770Y-76088868D01*
X127600247Y-76100499D01*
X127600250Y-76100500D01*
X127600252Y-76100500D01*
X129439750Y-76100500D01*
X129439751Y-76100499D01*
X129454568Y-76097552D01*
X129498229Y-76088868D01*
X129498229Y-76088867D01*
X129498231Y-76088867D01*
X129564552Y-76044552D01*
X129608867Y-75978231D01*
X129608867Y-75978229D01*
X129608868Y-75978229D01*
X129620499Y-75919752D01*
X129620500Y-75919750D01*
X129620500Y-74080249D01*
X129620499Y-74080247D01*
X129608868Y-74021770D01*
X129608867Y-74021769D01*
X129564552Y-73955447D01*
X129498230Y-73911132D01*
X129498229Y-73911131D01*
X129439752Y-73899500D01*
X129439748Y-73899500D01*
X127600252Y-73899500D01*
X127600247Y-73899500D01*
X127541770Y-73911131D01*
X127541769Y-73911132D01*
X127475447Y-73955447D01*
X127431132Y-74021769D01*
X127431131Y-74021770D01*
X127419500Y-74080247D01*
X126586351Y-74080247D01*
X126556788Y-74058768D01*
X126402445Y-73980127D01*
X126237701Y-73926598D01*
X126237699Y-73926597D01*
X126237698Y-73926597D01*
X126106271Y-73905781D01*
X126066611Y-73899500D01*
X125893389Y-73899500D01*
X125853728Y-73905781D01*
X125722302Y-73926597D01*
X125557552Y-73980128D01*
X125403211Y-74058768D01*
X125323256Y-74116859D01*
X125263072Y-74160586D01*
X125263070Y-74160588D01*
X125263069Y-74160588D01*
X125140588Y-74283069D01*
X125140588Y-74283070D01*
X125140586Y-74283072D01*
X125106242Y-74330342D01*
X125038768Y-74423211D01*
X124960128Y-74577552D01*
X124906597Y-74742302D01*
X124882170Y-74896530D01*
X124879500Y-74913389D01*
X123112366Y-74913389D01*
X123085268Y-74742299D01*
X123031739Y-74577555D01*
X122953098Y-74423212D01*
X122851280Y-74283072D01*
X122728794Y-74160586D01*
X122588654Y-74058768D01*
X122434311Y-73980127D01*
X122269567Y-73926598D01*
X122269565Y-73926597D01*
X122269564Y-73926597D01*
X122138137Y-73905781D01*
X122098477Y-73899500D01*
X121925255Y-73899500D01*
X121885594Y-73905781D01*
X121754168Y-73926597D01*
X121589418Y-73980128D01*
X121435077Y-74058768D01*
X121355122Y-74116859D01*
X121294938Y-74160586D01*
X121294936Y-74160588D01*
X121294935Y-74160588D01*
X121172454Y-74283069D01*
X121172454Y-74283070D01*
X121172452Y-74283072D01*
X121138108Y-74330342D01*
X121070634Y-74423211D01*
X120991994Y-74577552D01*
X120938463Y-74742302D01*
X120914036Y-74896530D01*
X120911366Y-74913389D01*
X120572366Y-74913389D01*
X120572366Y-74080249D01*
X120572365Y-74080247D01*
X120560734Y-74021770D01*
X120560733Y-74021769D01*
X120516418Y-73955447D01*
X120450096Y-73911132D01*
X120450095Y-73911131D01*
X120391618Y-73899500D01*
X120391614Y-73899500D01*
X118552118Y-73899500D01*
X118552113Y-73899500D01*
X118493636Y-73911131D01*
X118493635Y-73911132D01*
X118427313Y-73955447D01*
X118382998Y-74021769D01*
X118382997Y-74021770D01*
X118371366Y-74080247D01*
X116628633Y-74080247D01*
X116617002Y-74021770D01*
X116617001Y-74021769D01*
X116572686Y-73955447D01*
X116506364Y-73911132D01*
X116506363Y-73911131D01*
X116447886Y-73899500D01*
X116447882Y-73899500D01*
X114608386Y-73899500D01*
X114608381Y-73899500D01*
X114549904Y-73911131D01*
X114549903Y-73911132D01*
X114483581Y-73955447D01*
X114439266Y-74021769D01*
X114439265Y-74021770D01*
X114427634Y-74080247D01*
X114427634Y-75919752D01*
X114439265Y-75978229D01*
X114439266Y-75978230D01*
X114483581Y-76044552D01*
X114549903Y-76088867D01*
X114549904Y-76088868D01*
X114608381Y-76100499D01*
X114608384Y-76100500D01*
X114608386Y-76100500D01*
X115103634Y-76100500D01*
X115170673Y-76120185D01*
X115216428Y-76172989D01*
X115227634Y-76224500D01*
X115227634Y-76487696D01*
X115248113Y-76564123D01*
X115285870Y-76629520D01*
X115285874Y-76629527D01*
X115287673Y-76632644D01*
X115512848Y-76857819D01*
X115546333Y-76919142D01*
X115541349Y-76988834D01*
X115499477Y-77044767D01*
X115434013Y-77069184D01*
X115425167Y-77069500D01*
X114895833Y-77069500D01*
X114828794Y-77049815D01*
X114808152Y-77033181D01*
X114325989Y-76551018D01*
X114325988Y-76551017D01*
X114291064Y-76530854D01*
X114291064Y-76530853D01*
X114291060Y-76530852D01*
X114279338Y-76524084D01*
X114257467Y-76511456D01*
X114257468Y-76511456D01*
X114217284Y-76500689D01*
X114181039Y-76490977D01*
X114181037Y-76490977D01*
X112269786Y-76490977D01*
X112202747Y-76471292D01*
X112156992Y-76418488D01*
X112147048Y-76349330D01*
X112160114Y-76311576D01*
X112159872Y-76311476D01*
X112161557Y-76307405D01*
X112162397Y-76304981D01*
X112162981Y-76303969D01*
X112162982Y-76303966D01*
X112162982Y-76303964D01*
X112162984Y-76303962D01*
X112200500Y-76163952D01*
X112200500Y-76031407D01*
X112220185Y-75964368D01*
X112272989Y-75918613D01*
X112342147Y-75908669D01*
X112397387Y-75931090D01*
X112411344Y-75941231D01*
X112411346Y-75941232D01*
X112565689Y-76019873D01*
X112730433Y-76073402D01*
X112901523Y-76100500D01*
X112901524Y-76100500D01*
X113074744Y-76100500D01*
X113074745Y-76100500D01*
X113245835Y-76073402D01*
X113410579Y-76019873D01*
X113564922Y-75941232D01*
X113705062Y-75839414D01*
X113827548Y-75716928D01*
X113929366Y-75576788D01*
X114008007Y-75422445D01*
X114061536Y-75257701D01*
X114088634Y-75086611D01*
X114088634Y-74913389D01*
X114061536Y-74742299D01*
X114008007Y-74577555D01*
X113929366Y-74423212D01*
X113827548Y-74283072D01*
X113705062Y-74160586D01*
X113564922Y-74058768D01*
X113410579Y-73980127D01*
X113245835Y-73926598D01*
X113245833Y-73926597D01*
X113245832Y-73926597D01*
X113114405Y-73905781D01*
X113074745Y-73899500D01*
X112901523Y-73899500D01*
X112861862Y-73905781D01*
X112730436Y-73926597D01*
X112565686Y-73980128D01*
X112411345Y-74058768D01*
X112331390Y-74116859D01*
X112271206Y-74160586D01*
X112271204Y-74160588D01*
X112271203Y-74160588D01*
X112148722Y-74283069D01*
X112148722Y-74283070D01*
X112148720Y-74283072D01*
X112114376Y-74330342D01*
X112046902Y-74423211D01*
X111968262Y-74577552D01*
X111914731Y-74742302D01*
X111890304Y-74896530D01*
X111887634Y-74913389D01*
X111887634Y-75086611D01*
X111890304Y-75103466D01*
X111914731Y-75257698D01*
X111963313Y-75407218D01*
X111965308Y-75477059D01*
X111929227Y-75536892D01*
X111866526Y-75567720D01*
X111813290Y-75565311D01*
X111722475Y-75540977D01*
X111577525Y-75540977D01*
X111448993Y-75575417D01*
X111437511Y-75578494D01*
X111311988Y-75650965D01*
X111311982Y-75650970D01*
X111209493Y-75753459D01*
X111209486Y-75753468D01*
X111164084Y-75832106D01*
X111113517Y-75880321D01*
X111044909Y-75893543D01*
X110980045Y-75867575D01*
X110956191Y-75840041D01*
X110955448Y-75840612D01*
X110950502Y-75834166D01*
X110950500Y-75834163D01*
X110857314Y-75740977D01*
X110800250Y-75708031D01*
X110743187Y-75675085D01*
X110679539Y-75658031D01*
X110615892Y-75640977D01*
X110484108Y-75640977D01*
X110356812Y-75675085D01*
X110242686Y-75740977D01*
X110242683Y-75740979D01*
X110149502Y-75834160D01*
X110149500Y-75834163D01*
X110083608Y-75948289D01*
X110061337Y-76031407D01*
X110049500Y-76075585D01*
X110049500Y-76207369D01*
X110083608Y-76334663D01*
X110083609Y-76334666D01*
X110083668Y-76334883D01*
X110082005Y-76404733D01*
X110042843Y-76462596D01*
X109978614Y-76490100D01*
X109963893Y-76490977D01*
X107347310Y-76490977D01*
X107317869Y-76482332D01*
X107287883Y-76475809D01*
X107282867Y-76472054D01*
X107280271Y-76471292D01*
X107259629Y-76454658D01*
X107117152Y-76312181D01*
X107083667Y-76250858D01*
X107088651Y-76181166D01*
X107130523Y-76125233D01*
X107195987Y-76100816D01*
X107204833Y-76100500D01*
X107399750Y-76100500D01*
X107399751Y-76100499D01*
X107414568Y-76097552D01*
X107458229Y-76088868D01*
X107458229Y-76088867D01*
X107458231Y-76088867D01*
X107524552Y-76044552D01*
X107568867Y-75978231D01*
X107568867Y-75978229D01*
X107568868Y-75978229D01*
X107580499Y-75919752D01*
X107580500Y-75919750D01*
X107580500Y-74913389D01*
X107919500Y-74913389D01*
X107919500Y-75086611D01*
X107922170Y-75103466D01*
X107946597Y-75257697D01*
X107946597Y-75257699D01*
X107946598Y-75257701D01*
X108000127Y-75422445D01*
X108078768Y-75576788D01*
X108180586Y-75716928D01*
X108303072Y-75839414D01*
X108443212Y-75941232D01*
X108597555Y-76019873D01*
X108762299Y-76073402D01*
X108933389Y-76100500D01*
X108933390Y-76100500D01*
X109106610Y-76100500D01*
X109106611Y-76100500D01*
X109277701Y-76073402D01*
X109442445Y-76019873D01*
X109596788Y-75941232D01*
X109736928Y-75839414D01*
X109859414Y-75716928D01*
X109961232Y-75576788D01*
X110039873Y-75422445D01*
X110093402Y-75257701D01*
X110120500Y-75086611D01*
X110120500Y-74913389D01*
X110093402Y-74742299D01*
X110039873Y-74577555D01*
X109961232Y-74423212D01*
X109859414Y-74283072D01*
X109736928Y-74160586D01*
X109596788Y-74058768D01*
X109442445Y-73980127D01*
X109277701Y-73926598D01*
X109277699Y-73926597D01*
X109277698Y-73926597D01*
X109146271Y-73905781D01*
X109106611Y-73899500D01*
X108933389Y-73899500D01*
X108893728Y-73905781D01*
X108762302Y-73926597D01*
X108597552Y-73980128D01*
X108443211Y-74058768D01*
X108363256Y-74116859D01*
X108303072Y-74160586D01*
X108303070Y-74160588D01*
X108303069Y-74160588D01*
X108180588Y-74283069D01*
X108180588Y-74283070D01*
X108180586Y-74283072D01*
X108146242Y-74330342D01*
X108078768Y-74423211D01*
X108000128Y-74577552D01*
X107946597Y-74742302D01*
X107922170Y-74896530D01*
X107919500Y-74913389D01*
X107580500Y-74913389D01*
X107580500Y-74080249D01*
X107580499Y-74080247D01*
X107568868Y-74021770D01*
X107568867Y-74021769D01*
X107524552Y-73955447D01*
X107458230Y-73911132D01*
X107458229Y-73911131D01*
X107399752Y-73899500D01*
X107399748Y-73899500D01*
X105560252Y-73899500D01*
X105560247Y-73899500D01*
X105501770Y-73911131D01*
X105501769Y-73911132D01*
X105435447Y-73955447D01*
X105391132Y-74021769D01*
X105391131Y-74021770D01*
X105379500Y-74080247D01*
X104014342Y-74080247D01*
X103997598Y-74069059D01*
X103972753Y-74058768D01*
X103806420Y-73989870D01*
X103806412Y-73989868D01*
X103603469Y-73949500D01*
X103603465Y-73949500D01*
X103396535Y-73949500D01*
X103396530Y-73949500D01*
X103193587Y-73989868D01*
X103193579Y-73989870D01*
X103001429Y-74069461D01*
X103001179Y-74069702D01*
X103000552Y-74069825D01*
X102996774Y-74071390D01*
X102996458Y-74070628D01*
X102967577Y-74076296D01*
X102934015Y-74083279D01*
X102933332Y-74083017D01*
X102932617Y-74083158D01*
X102900773Y-74070534D01*
X102868775Y-74058267D01*
X102868342Y-74057678D01*
X102867665Y-74057410D01*
X102847693Y-74029564D01*
X102827414Y-74001955D01*
X102827368Y-74001227D01*
X102826943Y-74000634D01*
X102825197Y-73966433D01*
X102823063Y-73932221D01*
X102823406Y-73931339D01*
X102823382Y-73930855D01*
X102836385Y-73898051D01*
X102838263Y-73894771D01*
X102839599Y-73892497D01*
X103028109Y-73579190D01*
X103029519Y-73576904D01*
X103224778Y-73267746D01*
X103226206Y-73265537D01*
X103428142Y-72960644D01*
X103429591Y-72958506D01*
X103638143Y-72657975D01*
X103639644Y-72655863D01*
X103854573Y-72360039D01*
X103856126Y-72357947D01*
X104077483Y-72066757D01*
X104079105Y-72064673D01*
X104108635Y-72027525D01*
X105349500Y-72027525D01*
X105349500Y-72172475D01*
X105380460Y-72288017D01*
X105387017Y-72312488D01*
X105459488Y-72438011D01*
X105459490Y-72438013D01*
X105459491Y-72438015D01*
X105561985Y-72540509D01*
X105561986Y-72540510D01*
X105561988Y-72540511D01*
X105687511Y-72612982D01*
X105687512Y-72612982D01*
X105687515Y-72612984D01*
X105827525Y-72650500D01*
X105827528Y-72650500D01*
X105972472Y-72650500D01*
X105972475Y-72650500D01*
X106112485Y-72612984D01*
X106238015Y-72540509D01*
X106327886Y-72450637D01*
X106389205Y-72417155D01*
X106458897Y-72422139D01*
X106514831Y-72464010D01*
X106535337Y-72506221D01*
X106537015Y-72512483D01*
X106537017Y-72512488D01*
X106609488Y-72638011D01*
X106609490Y-72638013D01*
X106609491Y-72638015D01*
X106711985Y-72740509D01*
X106711986Y-72740510D01*
X106711988Y-72740511D01*
X106837511Y-72812982D01*
X106837512Y-72812982D01*
X106837515Y-72812984D01*
X106977525Y-72850500D01*
X106977528Y-72850500D01*
X107122472Y-72850500D01*
X107122475Y-72850500D01*
X107262485Y-72812984D01*
X107388015Y-72740509D01*
X107400999Y-72727525D01*
X119889500Y-72727525D01*
X119889500Y-72872475D01*
X119913137Y-72960688D01*
X119927017Y-73012488D01*
X119999488Y-73138011D01*
X119999490Y-73138013D01*
X119999491Y-73138015D01*
X120101985Y-73240509D01*
X120101986Y-73240510D01*
X120101988Y-73240511D01*
X120227511Y-73312982D01*
X120227512Y-73312982D01*
X120227515Y-73312984D01*
X120367525Y-73350500D01*
X120367528Y-73350500D01*
X120512472Y-73350500D01*
X120512475Y-73350500D01*
X120652485Y-73312984D01*
X120778015Y-73240509D01*
X120880509Y-73138015D01*
X120952984Y-73012485D01*
X120990500Y-72872475D01*
X120990500Y-72727525D01*
X120952984Y-72587515D01*
X120925843Y-72540506D01*
X120880511Y-72461988D01*
X120880506Y-72461982D01*
X120778017Y-72359493D01*
X120778011Y-72359488D01*
X120652488Y-72287017D01*
X120652489Y-72287017D01*
X120641006Y-72283940D01*
X120512475Y-72249500D01*
X120367525Y-72249500D01*
X120238993Y-72283940D01*
X120227511Y-72287017D01*
X120101988Y-72359488D01*
X120101982Y-72359493D01*
X119999493Y-72461982D01*
X119999488Y-72461988D01*
X119927017Y-72587511D01*
X119927016Y-72587515D01*
X119889500Y-72727525D01*
X107400999Y-72727525D01*
X107490509Y-72638015D01*
X107562984Y-72512485D01*
X107600500Y-72372475D01*
X107600500Y-72227525D01*
X107562984Y-72087515D01*
X107550999Y-72066757D01*
X107490511Y-71961988D01*
X107490506Y-71961982D01*
X107406049Y-71877525D01*
X123499500Y-71877525D01*
X123499500Y-72022475D01*
X123516927Y-72087511D01*
X123537017Y-72162488D01*
X123609488Y-72288011D01*
X123609490Y-72288013D01*
X123609491Y-72288015D01*
X123711985Y-72390509D01*
X123711986Y-72390510D01*
X123711988Y-72390511D01*
X123837511Y-72462982D01*
X123837512Y-72462982D01*
X123837515Y-72462984D01*
X123977525Y-72500500D01*
X123977528Y-72500500D01*
X124122472Y-72500500D01*
X124122475Y-72500500D01*
X124262485Y-72462984D01*
X124388015Y-72390509D01*
X124490509Y-72288015D01*
X124562984Y-72162485D01*
X124600500Y-72022475D01*
X124600500Y-71877525D01*
X124562984Y-71737515D01*
X124502237Y-71632299D01*
X124490511Y-71611988D01*
X124490506Y-71611982D01*
X124388017Y-71509493D01*
X124388011Y-71509488D01*
X124262488Y-71437017D01*
X124262489Y-71437017D01*
X124251006Y-71433940D01*
X124122475Y-71399500D01*
X123977525Y-71399500D01*
X123848993Y-71433940D01*
X123837511Y-71437017D01*
X123711988Y-71509488D01*
X123711982Y-71509493D01*
X123609493Y-71611982D01*
X123609488Y-71611988D01*
X123537017Y-71737511D01*
X123537016Y-71737515D01*
X123499500Y-71877525D01*
X107406049Y-71877525D01*
X107388017Y-71859493D01*
X107388011Y-71859488D01*
X107262488Y-71787017D01*
X107262489Y-71787017D01*
X107222791Y-71776380D01*
X107122475Y-71749500D01*
X106977525Y-71749500D01*
X106877209Y-71776380D01*
X106837511Y-71787017D01*
X106711988Y-71859488D01*
X106622116Y-71949360D01*
X106560792Y-71982844D01*
X106491101Y-71977860D01*
X106435167Y-71935988D01*
X106414661Y-71893774D01*
X106412984Y-71887515D01*
X106407217Y-71877527D01*
X106340511Y-71761988D01*
X106340506Y-71761982D01*
X106238017Y-71659493D01*
X106238011Y-71659488D01*
X106112488Y-71587017D01*
X106112489Y-71587017D01*
X106081987Y-71578844D01*
X105972475Y-71549500D01*
X105827525Y-71549500D01*
X105718013Y-71578844D01*
X105687511Y-71587017D01*
X105561988Y-71659488D01*
X105561982Y-71659493D01*
X105459493Y-71761982D01*
X105459488Y-71761988D01*
X105387017Y-71887511D01*
X105387016Y-71887515D01*
X105349500Y-72027525D01*
X104108635Y-72027525D01*
X104148116Y-71977860D01*
X104306691Y-71778380D01*
X104308318Y-71776380D01*
X104542009Y-71495139D01*
X104543732Y-71493111D01*
X104580728Y-71450500D01*
X104783509Y-71216943D01*
X104785204Y-71215033D01*
X105030951Y-70944077D01*
X105032649Y-70942245D01*
X105141317Y-70827525D01*
X127299500Y-70827525D01*
X127299500Y-70972475D01*
X127337016Y-71112485D01*
X127337017Y-71112488D01*
X127409488Y-71238011D01*
X127409490Y-71238013D01*
X127409491Y-71238015D01*
X127511985Y-71340509D01*
X127511986Y-71340510D01*
X127511988Y-71340511D01*
X127637511Y-71412982D01*
X127637512Y-71412982D01*
X127637515Y-71412984D01*
X127777525Y-71450500D01*
X127777528Y-71450500D01*
X127922472Y-71450500D01*
X127922475Y-71450500D01*
X128062485Y-71412984D01*
X128188015Y-71340509D01*
X128290509Y-71238015D01*
X128362984Y-71112485D01*
X128400500Y-70972475D01*
X128400500Y-70827525D01*
X128362984Y-70687515D01*
X128356736Y-70676694D01*
X128290511Y-70561988D01*
X128290506Y-70561982D01*
X128188017Y-70459493D01*
X128188011Y-70459488D01*
X128062488Y-70387017D01*
X128062489Y-70387017D01*
X128051006Y-70383940D01*
X127922475Y-70349500D01*
X127777525Y-70349500D01*
X127648993Y-70383940D01*
X127637511Y-70387017D01*
X127511988Y-70459488D01*
X127511982Y-70459493D01*
X127409493Y-70561982D01*
X127409488Y-70561988D01*
X127337017Y-70687511D01*
X127337016Y-70687515D01*
X127299500Y-70827525D01*
X105141317Y-70827525D01*
X105284192Y-70676694D01*
X105285990Y-70674837D01*
X105543194Y-70414831D01*
X105545096Y-70412951D01*
X105807858Y-70158592D01*
X105809696Y-70156851D01*
X106077939Y-69908216D01*
X106079826Y-69906504D01*
X106353488Y-69663652D01*
X106355345Y-69662040D01*
X106564824Y-69484108D01*
X112949500Y-69484108D01*
X112949500Y-69615892D01*
X112956895Y-69643490D01*
X112983608Y-69743187D01*
X112985581Y-69746604D01*
X113049500Y-69857314D01*
X113142686Y-69950500D01*
X113212647Y-69990892D01*
X113255944Y-70015890D01*
X113256814Y-70016392D01*
X113384108Y-70050500D01*
X113384110Y-70050500D01*
X113515890Y-70050500D01*
X113515892Y-70050500D01*
X113643186Y-70016392D01*
X113757314Y-69950500D01*
X113817819Y-69889995D01*
X113879142Y-69856510D01*
X113948834Y-69861494D01*
X114004767Y-69903366D01*
X114029184Y-69968830D01*
X114029500Y-69977676D01*
X114029500Y-70015891D01*
X114063608Y-70143187D01*
X114096554Y-70200250D01*
X114129500Y-70257314D01*
X114222686Y-70350500D01*
X114336814Y-70416392D01*
X114464108Y-70450500D01*
X114464110Y-70450500D01*
X114595890Y-70450500D01*
X114595892Y-70450500D01*
X114723186Y-70416392D01*
X114837314Y-70350500D01*
X114930500Y-70257314D01*
X114996392Y-70143186D01*
X115030500Y-70015892D01*
X115030500Y-69884108D01*
X115023801Y-69859108D01*
X125874500Y-69859108D01*
X125874500Y-69990892D01*
X125890472Y-70050500D01*
X125908608Y-70118187D01*
X125941554Y-70175250D01*
X125974500Y-70232314D01*
X126067686Y-70325500D01*
X126153694Y-70375157D01*
X126174234Y-70387016D01*
X126181814Y-70391392D01*
X126309108Y-70425500D01*
X126309110Y-70425500D01*
X126440890Y-70425500D01*
X126440892Y-70425500D01*
X126568186Y-70391392D01*
X126682314Y-70325500D01*
X126775500Y-70232314D01*
X126841392Y-70118186D01*
X126875500Y-69990892D01*
X126875500Y-69859108D01*
X126841392Y-69731814D01*
X126775500Y-69617686D01*
X126682314Y-69524500D01*
X126611487Y-69483608D01*
X126568187Y-69458608D01*
X126504539Y-69441554D01*
X126440892Y-69424500D01*
X126309108Y-69424500D01*
X126181812Y-69458608D01*
X126067686Y-69524500D01*
X126067683Y-69524502D01*
X125974502Y-69617683D01*
X125974500Y-69617686D01*
X125908608Y-69731812D01*
X125901909Y-69756814D01*
X125874500Y-69859108D01*
X115023801Y-69859108D01*
X114996392Y-69756814D01*
X114930500Y-69642686D01*
X114837314Y-69549500D01*
X114780250Y-69516554D01*
X114723187Y-69483608D01*
X114659539Y-69466554D01*
X114595892Y-69449500D01*
X114464108Y-69449500D01*
X114336812Y-69483608D01*
X114222686Y-69549500D01*
X114222683Y-69549502D01*
X114162181Y-69610005D01*
X114100858Y-69643490D01*
X114031166Y-69638506D01*
X113975233Y-69596634D01*
X113950816Y-69531170D01*
X113950500Y-69522324D01*
X113950500Y-69484110D01*
X113950500Y-69484108D01*
X113916392Y-69356814D01*
X113850500Y-69242686D01*
X113757314Y-69149500D01*
X113700250Y-69116554D01*
X113643187Y-69083608D01*
X113579539Y-69066554D01*
X113515892Y-69049500D01*
X113384108Y-69049500D01*
X113256812Y-69083608D01*
X113142686Y-69149500D01*
X113142683Y-69149502D01*
X113049502Y-69242683D01*
X113049500Y-69242686D01*
X112983608Y-69356812D01*
X112965271Y-69425250D01*
X112949500Y-69484108D01*
X106564824Y-69484108D01*
X106634164Y-69425210D01*
X106636075Y-69423622D01*
X106919897Y-69192939D01*
X106921965Y-69191293D01*
X107210737Y-68966797D01*
X107212752Y-68965265D01*
X107506340Y-68747062D01*
X107508419Y-68745552D01*
X107806664Y-68533763D01*
X107808720Y-68532336D01*
X108111497Y-68327049D01*
X108113553Y-68325686D01*
X108420715Y-68127001D01*
X108422917Y-68125611D01*
X108734223Y-67933680D01*
X108736385Y-67932378D01*
X109051874Y-67747180D01*
X109054090Y-67745911D01*
X109373505Y-67567599D01*
X109375638Y-67566438D01*
X109698925Y-67395042D01*
X109701127Y-67393905D01*
X110027977Y-67229590D01*
X110030203Y-67228501D01*
X110360509Y-67071320D01*
X110362849Y-67070237D01*
X110696427Y-66920272D01*
X110698811Y-66919231D01*
X111035608Y-66776509D01*
X111037938Y-66775552D01*
X111377746Y-66640160D01*
X111380115Y-66639246D01*
X111722710Y-66511272D01*
X111725225Y-66510364D01*
X112070525Y-66389838D01*
X112072900Y-66389037D01*
X112420819Y-66275992D01*
X112423259Y-66275229D01*
X112773417Y-66169786D01*
X112775951Y-66169052D01*
X113128344Y-66071210D01*
X113130855Y-66070542D01*
X113485282Y-65980359D01*
X113487845Y-65979736D01*
X113844105Y-65897261D01*
X113846654Y-65896699D01*
X114204740Y-65821937D01*
X114207214Y-65821449D01*
X114566813Y-65754466D01*
X114569312Y-65754028D01*
X114930275Y-65694851D01*
X114932773Y-65694470D01*
X115294865Y-65643136D01*
X115297487Y-65642792D01*
X115660667Y-65599309D01*
X115663214Y-65599032D01*
X116027212Y-65563430D01*
X116029757Y-65563208D01*
X116394460Y-65535499D01*
X116397131Y-65535326D01*
X116762220Y-65515531D01*
X116764844Y-65515417D01*
X117130392Y-65503533D01*
X117133012Y-65503476D01*
X117498708Y-65499515D01*
X117501292Y-65499515D01*
X117866985Y-65503476D01*
G37*
%TD.AperFunction*%
%TA.AperFunction,Conductor*%
G36*
X131071237Y-81470185D02*
G01*
X131116992Y-81522989D01*
X131124877Y-81552519D01*
X131125744Y-81552330D01*
X131127353Y-81559701D01*
X131165027Y-81667364D01*
X131172207Y-81687882D01*
X131252850Y-81797150D01*
X131362118Y-81877793D01*
X131384175Y-81885511D01*
X131490299Y-81922646D01*
X131520730Y-81925500D01*
X131520734Y-81925500D01*
X131652384Y-81925500D01*
X131719423Y-81945185D01*
X131765178Y-81997989D01*
X131775122Y-82067147D01*
X131759771Y-82111500D01*
X131687017Y-82237511D01*
X131687016Y-82237515D01*
X131649500Y-82377525D01*
X131649500Y-82522475D01*
X131687016Y-82662485D01*
X131687017Y-82662488D01*
X131759488Y-82788011D01*
X131759493Y-82788017D01*
X131834295Y-82862819D01*
X131867780Y-82924142D01*
X131862796Y-82993834D01*
X131820924Y-83049767D01*
X131755460Y-83074184D01*
X131746614Y-83074500D01*
X131520730Y-83074500D01*
X131490300Y-83077353D01*
X131490298Y-83077353D01*
X131362119Y-83122206D01*
X131362117Y-83122207D01*
X131252850Y-83202850D01*
X131172207Y-83312117D01*
X131172206Y-83312119D01*
X131127353Y-83440298D01*
X131127353Y-83440300D01*
X131124500Y-83470730D01*
X131124500Y-84329269D01*
X131127353Y-84359696D01*
X131127353Y-84359698D01*
X131127354Y-84359699D01*
X131145251Y-84410847D01*
X131150346Y-84425406D01*
X131153907Y-84495185D01*
X131120985Y-84554042D01*
X128951848Y-86723181D01*
X128890525Y-86756666D01*
X128864167Y-86759500D01*
X127435833Y-86759500D01*
X127368794Y-86739815D01*
X127348152Y-86723181D01*
X126446428Y-85821457D01*
X127654499Y-85821457D01*
X127682379Y-85961614D01*
X127682381Y-85961620D01*
X127737069Y-86093650D01*
X127737074Y-86093659D01*
X127816467Y-86212478D01*
X127816470Y-86212482D01*
X127917517Y-86313529D01*
X127917521Y-86313532D01*
X128036340Y-86392925D01*
X128036346Y-86392928D01*
X128036347Y-86392929D01*
X128168380Y-86447619D01*
X128168384Y-86447619D01*
X128168385Y-86447620D01*
X128308542Y-86475500D01*
X128308545Y-86475500D01*
X128451457Y-86475500D01*
X128545751Y-86456742D01*
X128591620Y-86447619D01*
X128723653Y-86392929D01*
X128842479Y-86313532D01*
X128943532Y-86212479D01*
X129022929Y-86093653D01*
X129077619Y-85961620D01*
X129091341Y-85892636D01*
X129105500Y-85821457D01*
X129105500Y-85678542D01*
X129077620Y-85538385D01*
X129077619Y-85538384D01*
X129077619Y-85538380D01*
X129025499Y-85412551D01*
X129022930Y-85406349D01*
X129022925Y-85406340D01*
X128943532Y-85287521D01*
X128943529Y-85287517D01*
X128842482Y-85186470D01*
X128842478Y-85186467D01*
X128723659Y-85107074D01*
X128723650Y-85107069D01*
X128591620Y-85052381D01*
X128591614Y-85052379D01*
X128451457Y-85024500D01*
X128451455Y-85024500D01*
X128308545Y-85024500D01*
X128308543Y-85024500D01*
X128168385Y-85052379D01*
X128168379Y-85052381D01*
X128036349Y-85107069D01*
X128036340Y-85107074D01*
X127917521Y-85186467D01*
X127917517Y-85186470D01*
X127816470Y-85287517D01*
X127816467Y-85287521D01*
X127737074Y-85406340D01*
X127737069Y-85406349D01*
X127682381Y-85538379D01*
X127682379Y-85538385D01*
X127654500Y-85678542D01*
X127654500Y-85678545D01*
X127654500Y-85821455D01*
X127654500Y-85821457D01*
X127654499Y-85821457D01*
X126446428Y-85821457D01*
X126284513Y-85659542D01*
X126284511Y-85659540D01*
X126284442Y-85659500D01*
X126284349Y-85659446D01*
X126215991Y-85619980D01*
X126215990Y-85619979D01*
X126185700Y-85611863D01*
X126139562Y-85599500D01*
X126139560Y-85599500D01*
X124599505Y-85599500D01*
X124532466Y-85579815D01*
X124486711Y-85527011D01*
X124476767Y-85457853D01*
X124479730Y-85443407D01*
X124482518Y-85433001D01*
X124500500Y-85365892D01*
X124500500Y-85234108D01*
X124466392Y-85106814D01*
X124400500Y-84992686D01*
X124344995Y-84937181D01*
X124311511Y-84875857D01*
X124316496Y-84806165D01*
X124358367Y-84750232D01*
X124423832Y-84725816D01*
X124432677Y-84725500D01*
X124861070Y-84725500D01*
X124891499Y-84722646D01*
X124891501Y-84722646D01*
X124957681Y-84699488D01*
X125019682Y-84677793D01*
X125128950Y-84597150D01*
X125209593Y-84487882D01*
X125241254Y-84397401D01*
X125254446Y-84359701D01*
X125254446Y-84359699D01*
X125257300Y-84329269D01*
X125257300Y-83470730D01*
X125254446Y-83440300D01*
X125254446Y-83440299D01*
X125254150Y-83439453D01*
X125254116Y-83438787D01*
X125252836Y-83432927D01*
X125253806Y-83432715D01*
X125250589Y-83369674D01*
X125285319Y-83309047D01*
X125347313Y-83276821D01*
X125371192Y-83274500D01*
X125665133Y-83274500D01*
X125732172Y-83294185D01*
X125777927Y-83346989D01*
X125787871Y-83416147D01*
X125782175Y-83439453D01*
X125781878Y-83440299D01*
X125781878Y-83440300D01*
X125779025Y-83470730D01*
X125779025Y-84329269D01*
X125781878Y-84359699D01*
X125781878Y-84359701D01*
X125826731Y-84487880D01*
X125826732Y-84487882D01*
X125907375Y-84597150D01*
X126016643Y-84677793D01*
X126059370Y-84692744D01*
X126144824Y-84722646D01*
X126175255Y-84725500D01*
X126175259Y-84725500D01*
X127533795Y-84725500D01*
X127564224Y-84722646D01*
X127564226Y-84722646D01*
X127630406Y-84699488D01*
X127692407Y-84677793D01*
X127801675Y-84597150D01*
X127882318Y-84487882D01*
X127913979Y-84397401D01*
X127927171Y-84359701D01*
X127927171Y-84359699D01*
X127930025Y-84329269D01*
X127930025Y-83762541D01*
X127949710Y-83695502D01*
X128002514Y-83649747D01*
X128071672Y-83639803D01*
X128086098Y-83642761D01*
X128114979Y-83650500D01*
X128114983Y-83650500D01*
X128246759Y-83650500D01*
X128246763Y-83650500D01*
X128295660Y-83637398D01*
X128365505Y-83639061D01*
X128423368Y-83678223D01*
X128450873Y-83742451D01*
X128451750Y-83757173D01*
X128451750Y-84329269D01*
X128454603Y-84359699D01*
X128454603Y-84359701D01*
X128499456Y-84487880D01*
X128499457Y-84487882D01*
X128580100Y-84597150D01*
X128689368Y-84677793D01*
X128732095Y-84692744D01*
X128817549Y-84722646D01*
X128847980Y-84725500D01*
X128847984Y-84725500D01*
X130206520Y-84725500D01*
X130236949Y-84722646D01*
X130236951Y-84722646D01*
X130303131Y-84699488D01*
X130365132Y-84677793D01*
X130474400Y-84597150D01*
X130555043Y-84487882D01*
X130586704Y-84397401D01*
X130599896Y-84359701D01*
X130599896Y-84359699D01*
X130602750Y-84329269D01*
X130602750Y-83470730D01*
X130599896Y-83440300D01*
X130599896Y-83440298D01*
X130566256Y-83344163D01*
X130555043Y-83312118D01*
X130474400Y-83202850D01*
X130365132Y-83122207D01*
X130365130Y-83122206D01*
X130236950Y-83077353D01*
X130206520Y-83074500D01*
X130206516Y-83074500D01*
X129951750Y-83074500D01*
X129884711Y-83054815D01*
X129838956Y-83002011D01*
X129827750Y-82950500D01*
X129827750Y-82937689D01*
X129815108Y-82890509D01*
X129807271Y-82861261D01*
X129796547Y-82842686D01*
X129767714Y-82792745D01*
X129767708Y-82792737D01*
X129234512Y-82259541D01*
X129234504Y-82259535D01*
X129165995Y-82219982D01*
X129165990Y-82219979D01*
X129125426Y-82209110D01*
X129089562Y-82199500D01*
X129089560Y-82199500D01*
X128777850Y-82199500D01*
X128772900Y-82198046D01*
X128767849Y-82199096D01*
X128739713Y-82188301D01*
X128710811Y-82179815D01*
X128707434Y-82175917D01*
X128702615Y-82174069D01*
X128684777Y-82149771D01*
X128665056Y-82127011D01*
X128664321Y-82121906D01*
X128661268Y-82117746D01*
X128659399Y-82087669D01*
X128655112Y-82057853D01*
X128657168Y-82051769D01*
X128656935Y-82048011D01*
X128667865Y-82020126D01*
X128669578Y-82015059D01*
X128670032Y-82014245D01*
X128682121Y-81993307D01*
X128682490Y-81991927D01*
X128686795Y-81984217D01*
X128706776Y-81964605D01*
X128724340Y-81942807D01*
X128731369Y-81940466D01*
X128736659Y-81935275D01*
X128764070Y-81929579D01*
X128790632Y-81920737D01*
X128801797Y-81921741D01*
X128805068Y-81921062D01*
X128808384Y-81922334D01*
X128809987Y-81922478D01*
X128810038Y-81921942D01*
X128847980Y-81925500D01*
X128847984Y-81925500D01*
X130206520Y-81925500D01*
X130236949Y-81922646D01*
X130236951Y-81922646D01*
X130308898Y-81897470D01*
X130365132Y-81877793D01*
X130474400Y-81797150D01*
X130555043Y-81687882D01*
X130591595Y-81583423D01*
X130599896Y-81559701D01*
X130601506Y-81552330D01*
X130603629Y-81552793D01*
X130625448Y-81498018D01*
X130682291Y-81457391D01*
X130723052Y-81450500D01*
X131004198Y-81450500D01*
X131071237Y-81470185D01*
G37*
%TD.AperFunction*%
%TA.AperFunction,Conductor*%
G36*
X117444328Y-83669745D02*
G01*
X117450806Y-83675777D01*
X117724531Y-83949502D01*
X117758016Y-84010825D01*
X117760850Y-84037183D01*
X117760850Y-84329269D01*
X117763703Y-84359699D01*
X117763703Y-84359701D01*
X117808556Y-84487880D01*
X117808557Y-84487882D01*
X117889200Y-84597150D01*
X117998468Y-84677793D01*
X118041195Y-84692744D01*
X118126649Y-84722646D01*
X118157080Y-84725500D01*
X118157084Y-84725500D01*
X119515620Y-84725500D01*
X119546049Y-84722646D01*
X119546051Y-84722646D01*
X119612231Y-84699488D01*
X119674232Y-84677793D01*
X119783500Y-84597150D01*
X119864143Y-84487882D01*
X119895804Y-84397401D01*
X119908996Y-84359701D01*
X119908996Y-84359699D01*
X119911850Y-84329269D01*
X119911850Y-83836183D01*
X119931535Y-83769144D01*
X119984339Y-83723389D01*
X120053497Y-83713445D01*
X120117053Y-83742470D01*
X120123531Y-83748502D01*
X120397256Y-84022227D01*
X120430741Y-84083550D01*
X120433575Y-84109908D01*
X120433575Y-84329269D01*
X120436428Y-84359699D01*
X120436428Y-84359701D01*
X120481281Y-84487880D01*
X120481282Y-84487882D01*
X120561925Y-84597150D01*
X120671193Y-84677793D01*
X120713920Y-84692744D01*
X120799374Y-84722646D01*
X120829805Y-84725500D01*
X120829809Y-84725500D01*
X122188345Y-84725500D01*
X122218774Y-84722646D01*
X122218776Y-84722646D01*
X122284956Y-84699488D01*
X122346957Y-84677793D01*
X122456225Y-84597150D01*
X122536868Y-84487882D01*
X122568529Y-84397401D01*
X122581721Y-84359701D01*
X122581721Y-84359699D01*
X122584575Y-84329269D01*
X122584575Y-83806030D01*
X122604260Y-83738991D01*
X122657064Y-83693236D01*
X122726222Y-83683292D01*
X122740655Y-83686252D01*
X122805899Y-83703734D01*
X122805901Y-83703734D01*
X122937679Y-83703734D01*
X122937683Y-83703734D01*
X122950207Y-83700378D01*
X123020052Y-83702039D01*
X123077916Y-83741199D01*
X123105423Y-83805426D01*
X123106300Y-83820152D01*
X123106300Y-84329269D01*
X123109153Y-84359699D01*
X123109153Y-84359701D01*
X123154006Y-84487880D01*
X123154007Y-84487882D01*
X123234650Y-84597150D01*
X123343918Y-84677793D01*
X123386645Y-84692744D01*
X123472099Y-84722646D01*
X123502530Y-84725500D01*
X123502534Y-84725500D01*
X123567323Y-84725500D01*
X123634362Y-84745185D01*
X123680117Y-84797989D01*
X123690061Y-84867147D01*
X123661036Y-84930703D01*
X123655005Y-84937181D01*
X123599500Y-84992686D01*
X123533608Y-85106812D01*
X123499500Y-85234108D01*
X123499500Y-85289813D01*
X123479815Y-85356852D01*
X123427011Y-85402607D01*
X123357853Y-85412551D01*
X123294297Y-85383526D01*
X123287819Y-85377494D01*
X123069864Y-85159539D01*
X123061708Y-85154831D01*
X123045396Y-85145413D01*
X123045395Y-85145412D01*
X123011583Y-85125891D01*
X123001344Y-85119979D01*
X122975867Y-85113152D01*
X122924916Y-85099500D01*
X122924914Y-85099500D01*
X117328529Y-85099500D01*
X117261490Y-85079815D01*
X117215735Y-85027011D01*
X117208754Y-85007593D01*
X117176392Y-84886814D01*
X117110500Y-84772686D01*
X117110495Y-84772681D01*
X117105553Y-84766240D01*
X117106574Y-84765455D01*
X117077065Y-84711413D01*
X117082049Y-84641721D01*
X117105686Y-84604943D01*
X117105257Y-84604626D01*
X117110162Y-84597979D01*
X117110556Y-84597367D01*
X117110763Y-84597158D01*
X117110775Y-84597150D01*
X117191418Y-84487882D01*
X117223079Y-84397401D01*
X117236271Y-84359701D01*
X117236271Y-84359699D01*
X117239125Y-84329269D01*
X117239125Y-83763458D01*
X117258810Y-83696419D01*
X117311614Y-83650664D01*
X117380772Y-83640720D01*
X117444328Y-83669745D01*
G37*
%TD.AperFunction*%
%TA.AperFunction,Conductor*%
G36*
X117707587Y-81470185D02*
G01*
X117753342Y-81522989D01*
X117761227Y-81552519D01*
X117762094Y-81552330D01*
X117763703Y-81559701D01*
X117801377Y-81667364D01*
X117808557Y-81687882D01*
X117889200Y-81797150D01*
X117998468Y-81877793D01*
X118020525Y-81885511D01*
X118126649Y-81922646D01*
X118157080Y-81925500D01*
X119453939Y-81925500D01*
X119520978Y-81945185D01*
X119566733Y-81997989D01*
X119577731Y-82056684D01*
X119576996Y-82069341D01*
X119561565Y-82126933D01*
X119561565Y-82258717D01*
X119565216Y-82272343D01*
X119564058Y-82292304D01*
X119558755Y-82307126D01*
X119558382Y-82322865D01*
X119547226Y-82339351D01*
X119540522Y-82358090D01*
X119528048Y-82367691D01*
X119519225Y-82380731D01*
X119500927Y-82388568D01*
X119485156Y-82400709D01*
X119469471Y-82402042D01*
X119454999Y-82408242D01*
X119440266Y-82409120D01*
X118137320Y-82409120D01*
X118070281Y-82389435D01*
X118049639Y-82372801D01*
X118030691Y-82353853D01*
X118030689Y-82353851D01*
X117962526Y-82314497D01*
X117916562Y-82287959D01*
X117852914Y-82270905D01*
X117789267Y-82253851D01*
X117657483Y-82253851D01*
X117530187Y-82287959D01*
X117416061Y-82353851D01*
X117416058Y-82353853D01*
X117322877Y-82447034D01*
X117322875Y-82447037D01*
X117264267Y-82548548D01*
X117213699Y-82596763D01*
X117145092Y-82609985D01*
X117080227Y-82584017D01*
X117069199Y-82574228D01*
X116632152Y-82137181D01*
X116598667Y-82075858D01*
X116603651Y-82006166D01*
X116645523Y-81950233D01*
X116710987Y-81925816D01*
X116719833Y-81925500D01*
X116842895Y-81925500D01*
X116873324Y-81922646D01*
X116873326Y-81922646D01*
X116945273Y-81897470D01*
X117001507Y-81877793D01*
X117110775Y-81797150D01*
X117191418Y-81687882D01*
X117227970Y-81583423D01*
X117236271Y-81559701D01*
X117237881Y-81552330D01*
X117240004Y-81552793D01*
X117261823Y-81498018D01*
X117318666Y-81457391D01*
X117359427Y-81450500D01*
X117640548Y-81450500D01*
X117707587Y-81470185D01*
G37*
%TD.AperFunction*%
%TD*%
M02*
