%TF.GenerationSoftware,KiCad,Pcbnew,9.0.6*%
%TF.CreationDate,2026-03-12T20:57:09+01:00*%
%TF.ProjectId,sw63_mk4_v2,73773633-5f6d-46b3-945f-76322e6b6963,v2*%
%TF.SameCoordinates,Original*%
%TF.FileFunction,Legend,Top*%
%TF.FilePolarity,Positive*%
%FSLAX46Y46*%
G04 Gerber Fmt 4.6, Leading zero omitted, Abs format (unit mm)*
G04 Created by KiCad (PCBNEW 9.0.6) date 2026-03-12 20:57:09*
%MOMM*%
%LPD*%
G01*
G04 APERTURE LIST*
G04 Aperture macros list*
%AMRoundRect*
0 Rectangle with rounded corners*
0 $1 Rounding radius*
0 $2 $3 $4 $5 $6 $7 $8 $9 X,Y pos of 4 corners*
0 Add a 4 corners polygon primitive as box body*
4,1,4,$2,$3,$4,$5,$6,$7,$8,$9,$2,$3,0*
0 Add four circle primitives for the rounded corners*
1,1,$1+$1,$2,$3*
1,1,$1+$1,$4,$5*
1,1,$1+$1,$6,$7*
1,1,$1+$1,$8,$9*
0 Add four rect primitives between the rounded corners*
20,1,$1+$1,$2,$3,$4,$5,0*
20,1,$1+$1,$4,$5,$6,$7,0*
20,1,$1+$1,$6,$7,$8,$9,0*
20,1,$1+$1,$8,$9,$2,$3,0*%
G04 Aperture macros list end*
%ADD10C,0.350000*%
%ADD11C,0.000000*%
%ADD12C,0.550000*%
%ADD13C,0.300000*%
%ADD14C,0.150000*%
%ADD15C,0.120000*%
%ADD16C,0.100000*%
%ADD17RoundRect,0.250000X0.625000X-0.375000X0.625000X0.375000X-0.625000X0.375000X-0.625000X-0.375000X0*%
%ADD18R,1.800000X1.800000*%
%ADD19C,1.800000*%
%ADD20C,1.400000*%
%ADD21RoundRect,0.250000X-0.250000X1.150000X-0.250000X-1.150000X0.250000X-1.150000X0.250000X1.150000X0*%
%ADD22C,1.600000*%
%ADD23RoundRect,0.243750X-0.243750X-0.456250X0.243750X-0.456250X0.243750X0.456250X-0.243750X0.456250X0*%
%ADD24C,0.950000*%
G04 APERTURE END LIST*
D10*
X115750000Y-69700000D02*
X115750000Y-70850000D01*
X127200000Y-70850000D02*
X127200000Y-72050000D01*
X122625000Y-70850000D02*
X127200000Y-70850000D01*
D11*
G36*
X105603756Y-85727256D02*
G01*
X105605325Y-85728231D01*
X105610494Y-85732233D01*
X105628447Y-85747962D01*
X105655581Y-85773057D01*
X105690725Y-85806397D01*
X105732713Y-85846865D01*
X105780375Y-85893340D01*
X105832542Y-85944704D01*
X105888047Y-85999838D01*
X106163185Y-86274480D01*
X106454034Y-86162582D01*
X106661376Y-86083553D01*
X106725950Y-86059513D01*
X106751439Y-86050684D01*
X106753606Y-86052961D01*
X106758660Y-86059644D01*
X106776822Y-86085325D01*
X106841115Y-86179639D01*
X106934613Y-86319208D01*
X107047608Y-86489617D01*
X107107912Y-86581869D01*
X107162361Y-86666883D01*
X107210121Y-86743257D01*
X107250357Y-86809592D01*
X107282238Y-86864489D01*
X107304928Y-86906547D01*
X107317595Y-86934367D01*
X107319909Y-86942501D01*
X107319405Y-86946550D01*
X107316414Y-86948818D01*
X107311237Y-86951876D01*
X107303996Y-86955672D01*
X107294815Y-86960153D01*
X107271130Y-86970960D01*
X107241172Y-86983880D01*
X107205931Y-86998494D01*
X107166397Y-87014381D01*
X107123561Y-87031124D01*
X107078412Y-87048304D01*
X106990731Y-87081526D01*
X106916781Y-87110052D01*
X106864358Y-87130853D01*
X106848654Y-87137411D01*
X106841255Y-87140903D01*
X106840835Y-87141824D01*
X106841050Y-87143666D01*
X106843325Y-87150019D01*
X106847964Y-87159773D01*
X106854850Y-87172740D01*
X106874890Y-87207551D01*
X106902508Y-87252940D01*
X106936766Y-87307393D01*
X106976726Y-87369397D01*
X107021450Y-87437437D01*
X107070000Y-87510000D01*
X107312971Y-87870314D01*
X106858203Y-88325144D01*
X106403435Y-88779974D01*
X106018564Y-88564837D01*
X105633694Y-88349701D01*
X105572703Y-88416073D01*
X105501955Y-88494004D01*
X105417568Y-88588219D01*
X105323546Y-88693932D01*
X104934469Y-88288525D01*
X104783385Y-88129643D01*
X104659672Y-87996764D01*
X104576088Y-87903805D01*
X104553332Y-87876645D01*
X104547410Y-87868656D01*
X104545392Y-87864685D01*
X104546594Y-87861133D01*
X104550122Y-87854398D01*
X104563524Y-87832334D01*
X104923706Y-87832334D01*
X104923859Y-87833749D01*
X104924518Y-87835677D01*
X104927307Y-87841013D01*
X104931972Y-87848226D01*
X104938414Y-87857199D01*
X104946532Y-87867816D01*
X104956228Y-87879960D01*
X104979949Y-87908363D01*
X105008779Y-87941478D01*
X105041919Y-87978374D01*
X105078571Y-88018118D01*
X105117935Y-88059780D01*
X105314267Y-88264834D01*
X105443547Y-88124234D01*
X105572703Y-87983635D01*
X105949038Y-88196297D01*
X106096784Y-88278901D01*
X106220881Y-88346678D01*
X106308306Y-88392615D01*
X106334195Y-88405202D01*
X106346032Y-88409701D01*
X106347458Y-88409363D01*
X106349613Y-88408278D01*
X106356027Y-88403943D01*
X106365117Y-88396847D01*
X106376725Y-88387135D01*
X106406857Y-88360463D01*
X106445157Y-88325113D01*
X106490358Y-88282270D01*
X106541193Y-88233121D01*
X106596394Y-88178851D01*
X106654696Y-88120646D01*
X106942947Y-87830725D01*
X106660386Y-87417958D01*
X106571820Y-87288212D01*
X106504711Y-87188591D01*
X106456742Y-87114899D01*
X106439211Y-87086465D01*
X106425595Y-87062940D01*
X106415605Y-87043801D01*
X106408951Y-87028521D01*
X106405343Y-87016578D01*
X106404492Y-87007447D01*
X106406108Y-87000602D01*
X106409901Y-86995521D01*
X106415581Y-86991679D01*
X106422858Y-86988550D01*
X106652502Y-86903015D01*
X106792342Y-86849791D01*
X106864101Y-86820390D01*
X106881239Y-86811970D01*
X106889503Y-86806321D01*
X106890103Y-86805327D01*
X106890355Y-86803836D01*
X106890266Y-86801862D01*
X106889844Y-86799420D01*
X106888029Y-86793182D01*
X106884972Y-86785230D01*
X106880731Y-86775673D01*
X106875368Y-86764618D01*
X106868941Y-86752174D01*
X106861513Y-86738450D01*
X106853142Y-86723552D01*
X106843888Y-86707589D01*
X106833813Y-86690670D01*
X106822976Y-86672903D01*
X106811437Y-86654396D01*
X106799257Y-86635256D01*
X106786495Y-86615593D01*
X106773213Y-86595515D01*
X106641830Y-86399183D01*
X106442899Y-86476874D01*
X106281516Y-86540463D01*
X106172834Y-86584195D01*
X106101576Y-86613762D01*
X105850439Y-86372894D01*
X105799490Y-86324551D01*
X105751037Y-86279504D01*
X105706206Y-86238734D01*
X105666122Y-86203221D01*
X105631913Y-86173949D01*
X105604704Y-86151898D01*
X105585623Y-86138050D01*
X105579483Y-86134508D01*
X105575796Y-86133386D01*
X105565744Y-86137886D01*
X105546844Y-86150105D01*
X105487670Y-86193472D01*
X105408623Y-86255038D01*
X105320051Y-86326354D01*
X105232302Y-86398973D01*
X105155725Y-86464444D01*
X105100669Y-86514320D01*
X105084444Y-86530770D01*
X105077481Y-86540153D01*
X105077284Y-86541603D01*
X105077409Y-86543863D01*
X105078590Y-86550725D01*
X105080966Y-86560564D01*
X105084476Y-86573206D01*
X105094663Y-86606204D01*
X105108672Y-86648325D01*
X105126027Y-86698176D01*
X105146252Y-86754364D01*
X105168868Y-86815496D01*
X105193400Y-86880178D01*
X105281932Y-87112797D01*
X105310256Y-87188742D01*
X105322309Y-87222801D01*
X105322368Y-87224334D01*
X105321905Y-87226580D01*
X105319461Y-87233126D01*
X105315078Y-87242284D01*
X105308855Y-87253896D01*
X105300892Y-87267807D01*
X105291289Y-87283859D01*
X105267566Y-87321763D01*
X105238483Y-87366357D01*
X105204843Y-87416387D01*
X105167445Y-87470603D01*
X105127090Y-87527753D01*
X105048756Y-87639113D01*
X104984294Y-87733650D01*
X104959353Y-87771491D01*
X104940384Y-87801383D01*
X104928223Y-87822080D01*
X104924957Y-87828590D01*
X104923706Y-87832334D01*
X104563524Y-87832334D01*
X104563678Y-87832080D01*
X104585110Y-87799127D01*
X104613465Y-87756939D01*
X104647793Y-87706913D01*
X104687144Y-87650448D01*
X104730565Y-87588942D01*
X104777106Y-87523794D01*
X104840320Y-87435199D01*
X104891102Y-87362406D01*
X104930486Y-87303674D01*
X104959505Y-87257263D01*
X104970451Y-87238133D01*
X104979194Y-87221432D01*
X104985863Y-87206940D01*
X104990586Y-87194441D01*
X104993494Y-87183716D01*
X104994715Y-87174549D01*
X104994378Y-87166722D01*
X104992614Y-87160017D01*
X104887257Y-86888454D01*
X104804076Y-86667060D01*
X104750307Y-86515497D01*
X104736714Y-86472048D01*
X104733188Y-86453431D01*
X104736022Y-86449753D01*
X104743122Y-86442582D01*
X104769233Y-86418522D01*
X104809746Y-86382775D01*
X104862885Y-86336862D01*
X104926875Y-86282310D01*
X104999938Y-86220640D01*
X105080299Y-86153377D01*
X105166183Y-86082045D01*
X105470501Y-85832029D01*
X105565360Y-85755562D01*
X105592187Y-85734560D01*
X105602889Y-85726989D01*
X105603756Y-85727256D01*
G37*
D10*
X112375000Y-70850000D02*
X107800000Y-70850000D01*
X119250000Y-69700000D02*
X119250000Y-70850000D01*
X114200000Y-70850000D02*
X114200000Y-72050000D01*
X101464000Y-78600000D02*
X112154538Y-78600000D01*
X122845438Y-79500000D02*
X122845438Y-78600000D01*
X119262500Y-70850000D02*
X120800000Y-70850000D01*
X122625000Y-69700000D02*
X122625000Y-70850000D01*
X112375000Y-69700000D02*
X112375000Y-70850000D01*
X101464000Y-79500000D02*
X101464000Y-78600000D01*
D11*
G36*
X116937284Y-94078505D02*
G01*
X116947330Y-94079031D01*
X116957272Y-94080068D01*
X116967095Y-94081603D01*
X116976784Y-94083625D01*
X116986324Y-94086121D01*
X116995700Y-94089081D01*
X117004898Y-94092493D01*
X117013902Y-94096343D01*
X117022697Y-94100622D01*
X117031268Y-94105316D01*
X117039601Y-94110414D01*
X117047680Y-94115904D01*
X117055491Y-94121775D01*
X117063019Y-94128014D01*
X117070248Y-94134610D01*
X117077164Y-94141550D01*
X117083751Y-94148824D01*
X117089996Y-94156419D01*
X117095882Y-94164323D01*
X117101395Y-94172524D01*
X117106520Y-94181011D01*
X117111243Y-94189772D01*
X117115547Y-94198795D01*
X117119418Y-94208069D01*
X117122842Y-94217580D01*
X117125803Y-94227318D01*
X117128286Y-94237271D01*
X117130277Y-94247427D01*
X117131760Y-94257774D01*
X117132631Y-94267284D01*
X117133059Y-94276735D01*
X117133053Y-94286115D01*
X117132621Y-94295414D01*
X117131772Y-94304620D01*
X117130512Y-94313723D01*
X117128852Y-94322710D01*
X117126798Y-94331572D01*
X117124360Y-94340297D01*
X117121546Y-94348874D01*
X117118364Y-94357292D01*
X117114822Y-94365540D01*
X117110928Y-94373606D01*
X117106692Y-94381480D01*
X117102121Y-94389151D01*
X117097223Y-94396608D01*
X117095789Y-94400784D01*
X117094259Y-94404934D01*
X117092631Y-94409059D01*
X117090906Y-94413156D01*
X117089083Y-94417226D01*
X117087162Y-94421266D01*
X117085143Y-94425276D01*
X117083026Y-94429254D01*
X117080810Y-94433201D01*
X117078495Y-94437114D01*
X117076081Y-94440993D01*
X117073568Y-94444837D01*
X117070955Y-94448644D01*
X117068241Y-94452414D01*
X117065428Y-94456146D01*
X117062515Y-94459839D01*
X114376903Y-97778794D01*
X114369307Y-97787681D01*
X114361289Y-97796038D01*
X114352875Y-97803860D01*
X114344093Y-97811140D01*
X114334967Y-97817872D01*
X114325524Y-97824051D01*
X114315790Y-97829670D01*
X114305790Y-97834723D01*
X114295550Y-97839204D01*
X114285097Y-97843107D01*
X114274456Y-97846426D01*
X114263653Y-97849156D01*
X114252714Y-97851289D01*
X114241665Y-97852820D01*
X114230532Y-97853744D01*
X114219341Y-97854053D01*
X114214537Y-97853996D01*
X114209727Y-97853826D01*
X114204914Y-97853543D01*
X114200099Y-97853145D01*
X114195285Y-97852633D01*
X114190475Y-97852005D01*
X114185670Y-97851261D01*
X114180874Y-97850401D01*
X114176087Y-97849425D01*
X114171312Y-97848331D01*
X114166552Y-97847119D01*
X114161809Y-97845789D01*
X114157085Y-97844340D01*
X114152383Y-97842772D01*
X114147704Y-97841084D01*
X114143051Y-97839276D01*
X114135396Y-97835973D01*
X114127932Y-97832385D01*
X114120662Y-97828519D01*
X114113594Y-97824384D01*
X114106730Y-97819988D01*
X114100077Y-97815340D01*
X114093640Y-97810447D01*
X114087423Y-97805319D01*
X114081431Y-97799963D01*
X114075670Y-97794389D01*
X114070145Y-97788603D01*
X114064860Y-97782614D01*
X114059821Y-97776431D01*
X114055032Y-97770063D01*
X114050500Y-97763516D01*
X114046228Y-97756800D01*
X114042222Y-97749923D01*
X114038486Y-97742894D01*
X114035027Y-97735719D01*
X114031848Y-97728409D01*
X114028956Y-97720971D01*
X114026354Y-97713413D01*
X114024048Y-97705744D01*
X114022044Y-97697972D01*
X114020345Y-97690105D01*
X114018957Y-97682152D01*
X114017886Y-97674122D01*
X114017136Y-97666021D01*
X114016712Y-97657859D01*
X114016619Y-97649644D01*
X114016862Y-97641384D01*
X114017447Y-97633087D01*
X114184460Y-95797662D01*
X112935814Y-94902458D01*
X112929544Y-94897808D01*
X112923493Y-94892948D01*
X112917664Y-94887886D01*
X112912060Y-94882629D01*
X112907546Y-94878059D01*
X113597337Y-94878059D01*
X114514878Y-95535802D01*
X114520277Y-95539782D01*
X114525519Y-95543922D01*
X114535522Y-95552664D01*
X114544869Y-95561989D01*
X114553544Y-95571858D01*
X114561528Y-95582232D01*
X114568803Y-95593073D01*
X114575353Y-95604342D01*
X114581159Y-95616001D01*
X114586204Y-95628009D01*
X114590471Y-95640329D01*
X114593941Y-95652922D01*
X114596597Y-95665749D01*
X114598421Y-95678771D01*
X114599396Y-95691950D01*
X114599505Y-95705247D01*
X114598728Y-95718622D01*
X114481716Y-97004898D01*
X116477110Y-94538878D01*
X113597337Y-94878059D01*
X112907546Y-94878059D01*
X112906683Y-94877185D01*
X112901536Y-94871562D01*
X112896623Y-94865767D01*
X112891946Y-94859808D01*
X112887507Y-94853692D01*
X112883309Y-94847428D01*
X112879356Y-94841022D01*
X112875649Y-94834482D01*
X112872192Y-94827816D01*
X112868988Y-94821032D01*
X112866039Y-94814137D01*
X112863348Y-94807138D01*
X112860917Y-94800044D01*
X112858750Y-94792862D01*
X112856850Y-94785600D01*
X112855218Y-94778265D01*
X112853858Y-94770864D01*
X112852773Y-94763406D01*
X112851966Y-94755898D01*
X112851438Y-94748348D01*
X112851193Y-94740763D01*
X112851234Y-94733150D01*
X112851564Y-94725519D01*
X112852184Y-94717875D01*
X112853099Y-94710227D01*
X112854310Y-94702583D01*
X112855821Y-94694949D01*
X112857634Y-94687334D01*
X112859722Y-94679794D01*
X112862084Y-94672384D01*
X112864714Y-94665110D01*
X112867605Y-94657976D01*
X112870752Y-94650987D01*
X112874149Y-94644150D01*
X112877788Y-94637469D01*
X112881666Y-94630949D01*
X112885774Y-94624596D01*
X112890108Y-94618414D01*
X112899427Y-94606588D01*
X112909574Y-94595512D01*
X112920501Y-94585228D01*
X112932158Y-94575777D01*
X112944498Y-94567202D01*
X112957471Y-94559543D01*
X112971030Y-94552844D01*
X112978014Y-94549867D01*
X112985126Y-94547146D01*
X112992359Y-94544685D01*
X112999709Y-94542490D01*
X113007169Y-94540566D01*
X113014732Y-94538918D01*
X113022393Y-94537552D01*
X113030146Y-94536472D01*
X116906670Y-94080108D01*
X116916939Y-94079031D01*
X116927148Y-94078501D01*
X116937284Y-94078505D01*
G37*
D10*
X112154538Y-86600000D02*
X112154538Y-85700000D01*
X120800000Y-70850000D02*
X120800000Y-72050000D01*
X112154538Y-86600000D02*
X119272731Y-86600000D01*
X107800000Y-70850000D02*
X107800000Y-72050000D01*
X112154538Y-79500000D02*
X112154538Y-78600000D01*
X115737500Y-70850000D02*
X114200000Y-70850000D01*
X122845438Y-78600000D02*
X131000000Y-78600000D01*
D12*
X132475000Y-78600000D02*
G75*
G02*
X131925000Y-78600000I-275000J0D01*
G01*
X131925000Y-78600000D02*
G75*
G02*
X132475000Y-78600000I275000J0D01*
G01*
D13*
X122025000Y-68924590D02*
X122025000Y-67324590D01*
X122025000Y-67324590D02*
X122625000Y-68467447D01*
X122625000Y-68467447D02*
X123225000Y-67324590D01*
X123225000Y-67324590D02*
X123225000Y-68924590D01*
X127578571Y-93874590D02*
X127578571Y-92274590D01*
X127578571Y-92274590D02*
X128264285Y-92274590D01*
X128264285Y-92274590D02*
X128435714Y-92350780D01*
X128435714Y-92350780D02*
X128521428Y-92426971D01*
X128521428Y-92426971D02*
X128607142Y-92579352D01*
X128607142Y-92579352D02*
X128607142Y-92807923D01*
X128607142Y-92807923D02*
X128521428Y-92960304D01*
X128521428Y-92960304D02*
X128435714Y-93036495D01*
X128435714Y-93036495D02*
X128264285Y-93112685D01*
X128264285Y-93112685D02*
X127578571Y-93112685D01*
X118735714Y-68924590D02*
X118735714Y-67324590D01*
X118735714Y-68086495D02*
X119764285Y-68086495D01*
X119764285Y-68924590D02*
X119764285Y-67324590D01*
X115102380Y-68223234D02*
X116397619Y-68223234D01*
X115749999Y-68870853D02*
X115749999Y-67575615D01*
X111727380Y-68223234D02*
X113022619Y-68223234D01*
D14*
X120790856Y-76571428D02*
X120743237Y-76714285D01*
X120743237Y-76714285D02*
X120695618Y-76761904D01*
X120695618Y-76761904D02*
X120600380Y-76809523D01*
X120600380Y-76809523D02*
X120457523Y-76809523D01*
X120457523Y-76809523D02*
X120362285Y-76761904D01*
X120362285Y-76761904D02*
X120314666Y-76714285D01*
X120314666Y-76714285D02*
X120267046Y-76619047D01*
X120267046Y-76619047D02*
X120267046Y-76238095D01*
X120267046Y-76238095D02*
X121267046Y-76238095D01*
X121267046Y-76238095D02*
X121267046Y-76571428D01*
X121267046Y-76571428D02*
X121219427Y-76666666D01*
X121219427Y-76666666D02*
X121171808Y-76714285D01*
X121171808Y-76714285D02*
X121076570Y-76761904D01*
X121076570Y-76761904D02*
X120981332Y-76761904D01*
X120981332Y-76761904D02*
X120886094Y-76714285D01*
X120886094Y-76714285D02*
X120838475Y-76666666D01*
X120838475Y-76666666D02*
X120790856Y-76571428D01*
X120790856Y-76571428D02*
X120790856Y-76238095D01*
X107275180Y-76759523D02*
X107751371Y-76426190D01*
X107275180Y-76188095D02*
X108275180Y-76188095D01*
X108275180Y-76188095D02*
X108275180Y-76569047D01*
X108275180Y-76569047D02*
X108227561Y-76664285D01*
X108227561Y-76664285D02*
X108179942Y-76711904D01*
X108179942Y-76711904D02*
X108084704Y-76759523D01*
X108084704Y-76759523D02*
X107941847Y-76759523D01*
X107941847Y-76759523D02*
X107846609Y-76711904D01*
X107846609Y-76711904D02*
X107798990Y-76664285D01*
X107798990Y-76664285D02*
X107751371Y-76569047D01*
X107751371Y-76569047D02*
X107751371Y-76188095D01*
X127248628Y-73599999D02*
X127724819Y-73599999D01*
X126724819Y-73933332D02*
X127248628Y-73599999D01*
X127248628Y-73599999D02*
X126724819Y-73266666D01*
X113780572Y-73288095D02*
X113732953Y-73383333D01*
X113732953Y-73383333D02*
X113732953Y-73526190D01*
X113732953Y-73526190D02*
X113780572Y-73669047D01*
X113780572Y-73669047D02*
X113875810Y-73764285D01*
X113875810Y-73764285D02*
X113971048Y-73811904D01*
X113971048Y-73811904D02*
X114161524Y-73859523D01*
X114161524Y-73859523D02*
X114304381Y-73859523D01*
X114304381Y-73859523D02*
X114494857Y-73811904D01*
X114494857Y-73811904D02*
X114590095Y-73764285D01*
X114590095Y-73764285D02*
X114685334Y-73669047D01*
X114685334Y-73669047D02*
X114732953Y-73526190D01*
X114732953Y-73526190D02*
X114732953Y-73430952D01*
X114732953Y-73430952D02*
X114685334Y-73288095D01*
X114685334Y-73288095D02*
X114637714Y-73240476D01*
X114637714Y-73240476D02*
X114304381Y-73240476D01*
X114304381Y-73240476D02*
X114304381Y-73430952D01*
%TO.C,D10*%
X126254525Y-82100000D02*
X127454525Y-82100000D01*
X126854525Y-82900000D02*
X126254525Y-82100000D01*
X127454525Y-82100000D02*
X126854525Y-82900000D01*
X127454525Y-82900000D02*
X126254525Y-82900000D01*
%TO.C,D14*%
X118621866Y-73500000D02*
X118621866Y-76499999D01*
X120471866Y-74500000D02*
X120471866Y-75500000D01*
X120521866Y-75000000D02*
X121021866Y-74500000D01*
X121021866Y-74500000D02*
X121021866Y-75500000D01*
X121021866Y-75500000D02*
X120521866Y-75050000D01*
X118621866Y-73500000D02*
G75*
G02*
X123338864Y-75000000I2120000J-1500000D01*
G01*
X123338864Y-75000000D02*
G75*
G02*
X118621866Y-76500000I-2596998J0D01*
G01*
%TO.C,D16*%
X105630000Y-73500000D02*
X105630000Y-76500000D01*
X107480000Y-74450000D02*
X107480000Y-75450000D01*
X107530000Y-74950000D02*
X108030000Y-74450000D01*
X108030000Y-74450000D02*
X108030000Y-75450000D01*
X108030000Y-75450000D02*
X107530000Y-75000000D01*
X105630000Y-73500000D02*
G75*
G02*
X110346998Y-75000000I2120000J-1500000D01*
G01*
X110346998Y-75000000D02*
G75*
G02*
X105630000Y-76499999I-2596998J0D01*
G01*
%TO.C,D21*%
X127650000Y-89200000D02*
X128150000Y-89650000D01*
X127650000Y-90200000D02*
X127650000Y-89200000D01*
X128150000Y-89700000D02*
X127650000Y-90200000D01*
X128200000Y-90200000D02*
X128200000Y-89200000D01*
X128949999Y-90800000D02*
X128950000Y-88640001D01*
X128950000Y-90800000D02*
G75*
G02*
X128950001Y-88640001I-1040960J1080000D01*
G01*
%TO.C,D8*%
X120909075Y-82100000D02*
X122109075Y-82100000D01*
X121509075Y-82900000D02*
X120909075Y-82100000D01*
X122109075Y-82100000D02*
X121509075Y-82900000D01*
X122109075Y-82900000D02*
X120909075Y-82900000D01*
%TO.C,D12*%
X131600000Y-82100000D02*
X132800000Y-82100000D01*
X132200000Y-82900000D02*
X131600000Y-82100000D01*
X132800000Y-82100000D02*
X132200000Y-82900000D01*
X132800000Y-82900000D02*
X131600000Y-82900000D01*
D15*
%TO.C,SW1*%
X118265000Y-89490000D02*
X118265000Y-95910000D01*
X118265000Y-95910000D02*
X118570000Y-95910000D01*
X118700000Y-89490000D02*
X118265000Y-89490000D01*
X120300000Y-95910000D02*
X122700000Y-95910000D01*
X122700000Y-89490000D02*
X120300000Y-89490000D01*
X124300000Y-95910000D02*
X124735000Y-95910000D01*
X124735000Y-89490000D02*
X124300000Y-89490000D01*
X124735000Y-95910000D02*
X124735000Y-89490000D01*
D14*
%TO.C,D9*%
X123581800Y-82100000D02*
X124781800Y-82100000D01*
X124181800Y-82900000D02*
X123581800Y-82100000D01*
X124781800Y-82100000D02*
X124181800Y-82900000D01*
X124781800Y-82900000D02*
X123581800Y-82900000D01*
%TO.C,D20*%
X106830000Y-90900000D02*
X106830000Y-91900000D01*
X106880000Y-91400000D02*
X107380000Y-90900000D01*
X107380000Y-90900000D02*
X107380000Y-91900000D01*
X107380000Y-91900000D02*
X106880000Y-91450000D01*
%TO.C,D11*%
X128927250Y-82100000D02*
X130127250Y-82100000D01*
X129527250Y-82900000D02*
X128927250Y-82100000D01*
X130127250Y-82100000D02*
X129527250Y-82900000D01*
X130127250Y-82900000D02*
X128927250Y-82900000D01*
%TO.C,D18*%
X112320000Y-90900000D02*
X112820000Y-91350000D01*
X112320000Y-91900000D02*
X112320000Y-90900000D01*
X112820000Y-91400000D02*
X112320000Y-91900000D01*
X112870000Y-91900000D02*
X112870000Y-90900000D01*
%TO.C,D6*%
X115563625Y-82100000D02*
X116763625Y-82100000D01*
X116163625Y-82900000D02*
X115563625Y-82100000D01*
X116763625Y-82100000D02*
X116163625Y-82900000D01*
X116763625Y-82900000D02*
X115563625Y-82900000D01*
%TO.C,D4*%
X102200000Y-82100000D02*
X103400000Y-82100000D01*
X102800000Y-82900000D02*
X102200000Y-82100000D01*
X103400000Y-82100000D02*
X102800000Y-82900000D01*
X103400000Y-82900000D02*
X102200000Y-82900000D01*
%TO.C,D2*%
X107545450Y-82100000D02*
X108745450Y-82100000D01*
X108145450Y-82900000D02*
X107545450Y-82100000D01*
X108745450Y-82100000D02*
X108145450Y-82900000D01*
X108745450Y-82900000D02*
X107545450Y-82900000D01*
%TO.C,D7*%
X118236350Y-82100000D02*
X119436350Y-82100000D01*
X118836350Y-82900000D02*
X118236350Y-82100000D01*
X119436350Y-82100000D02*
X118836350Y-82900000D01*
X119436350Y-82900000D02*
X118236350Y-82900000D01*
%TO.C,D13*%
X126970000Y-74500000D02*
X127470000Y-74950000D01*
X126970000Y-75500000D02*
X126970000Y-74500000D01*
X127470000Y-75000000D02*
X126970000Y-75500000D01*
X127520000Y-75500000D02*
X127520000Y-74500000D01*
X129370000Y-76500000D02*
X129370000Y-73500001D01*
X124653002Y-75000000D02*
G75*
G02*
X129370000Y-73500001I2596998J0D01*
G01*
X129370000Y-76500000D02*
G75*
G02*
X124653002Y-75000000I-2120000J1500000D01*
G01*
%TO.C,D15*%
X113978134Y-74500000D02*
X114478134Y-74950000D01*
X113978134Y-75500000D02*
X113978134Y-74500000D01*
X114478134Y-75000000D02*
X113978134Y-75500000D01*
X114528134Y-75500000D02*
X114528134Y-74500000D01*
X116378134Y-76524877D02*
X116378134Y-73524878D01*
X111661136Y-75024877D02*
G75*
G02*
X116378134Y-73524877I2596998J0D01*
G01*
X116378134Y-76524877D02*
G75*
G02*
X111661136Y-75024877I-2120000J1500000D01*
G01*
%TO.C,D19*%
X109350000Y-93870000D02*
X110350000Y-93870000D01*
X109350000Y-94420000D02*
X110350000Y-94420000D01*
X109850000Y-94370000D02*
X109350000Y-93870000D01*
X110350000Y-93870000D02*
X109900000Y-94370000D01*
%TO.C,D3*%
X104872725Y-82100000D02*
X106072725Y-82100000D01*
X105472725Y-82900000D02*
X104872725Y-82100000D01*
X106072725Y-82100000D02*
X105472725Y-82900000D01*
X106072725Y-82900000D02*
X104872725Y-82900000D01*
D16*
%TO.C,Q3*%
X121200000Y-86600000D02*
X121400000Y-86600000D01*
X121400000Y-86600000D02*
X121400000Y-86800000D01*
X121600000Y-86800000D02*
X121600000Y-86600000D01*
X121800000Y-86400000D02*
X121800000Y-86800000D01*
X121800000Y-86400000D02*
X122000000Y-86600000D01*
X121800000Y-86800000D02*
X122000000Y-86600000D01*
X121850000Y-86450000D02*
X121850000Y-86700000D01*
X122000000Y-86600000D02*
X121600000Y-86600000D01*
X121350000Y-86800000D02*
X121650000Y-86800000D01*
X121650000Y-86875000D01*
X121350000Y-86875000D01*
X121350000Y-86800000D01*
D14*
%TO.C,D1*%
X110218175Y-82100000D02*
X111418175Y-82100000D01*
X110818175Y-82900000D02*
X110218175Y-82100000D01*
X111418175Y-82100000D02*
X110818175Y-82900000D01*
X111418175Y-82900000D02*
X110218175Y-82900000D01*
%TO.C,D5*%
X112890900Y-82100000D02*
X114090900Y-82100000D01*
X113490900Y-82900000D02*
X112890900Y-82100000D01*
X114090900Y-82100000D02*
X113490900Y-82900000D01*
X114090900Y-82900000D02*
X112890900Y-82900000D01*
%TO.C,D17*%
X109350000Y-88930000D02*
X109800000Y-88430000D01*
X109850000Y-88430000D02*
X110350000Y-88930000D01*
X110350000Y-88380000D02*
X109350000Y-88380000D01*
X110350000Y-88930000D02*
X109350000Y-88930000D01*
%TD*%
%LPC*%
D17*
%TO.C,D10*%
X126854525Y-83900000D03*
X126854525Y-81100000D03*
%TD*%
D18*
%TO.C,D14*%
X119471866Y-75000000D03*
D19*
X122011866Y-75000000D03*
%TD*%
D18*
%TO.C,D16*%
X106480000Y-75000000D03*
D19*
X109020000Y-75000000D03*
%TD*%
D20*
%TO.C,D21*%
X129200000Y-89700000D03*
X126660000Y-89700000D03*
%TD*%
D17*
%TO.C,D8*%
X121509075Y-83900000D03*
X121509075Y-81100000D03*
%TD*%
%TO.C,D12*%
X132200000Y-83900000D03*
X132200000Y-81100000D03*
%TD*%
D21*
%TO.C,SW1*%
X123500000Y-89800000D03*
X123500000Y-95600000D03*
X119500000Y-89800000D03*
X119500000Y-95600000D03*
%TD*%
D22*
%TO.C,H4*%
X103500000Y-90000000D03*
%TD*%
%TO.C,H3*%
X131500000Y-75000000D03*
%TD*%
D17*
%TO.C,D9*%
X124181800Y-83900000D03*
X124181800Y-81100000D03*
%TD*%
D20*
%TO.C,D20*%
X105830000Y-91400000D03*
X108370000Y-91400000D03*
%TD*%
D22*
%TO.C,H1*%
X103500000Y-75000000D03*
%TD*%
D17*
%TO.C,D11*%
X129527250Y-83900000D03*
X129527250Y-81100000D03*
%TD*%
D20*
%TO.C,D18*%
X113870000Y-91400000D03*
X111330000Y-91400000D03*
%TD*%
D17*
%TO.C,D6*%
X116163625Y-83900000D03*
X116163625Y-81100000D03*
%TD*%
%TO.C,D4*%
X102800000Y-83900000D03*
X102800000Y-81100000D03*
%TD*%
D22*
%TO.C,H2*%
X131500000Y-90000000D03*
%TD*%
D17*
%TO.C,D2*%
X108145450Y-83900000D03*
X108145450Y-81100000D03*
%TD*%
%TO.C,D7*%
X118836350Y-83900000D03*
X118836350Y-81100000D03*
%TD*%
D18*
%TO.C,D13*%
X128520000Y-75000000D03*
D19*
X125980000Y-75000000D03*
%TD*%
D18*
%TO.C,D15*%
X115528134Y-75000000D03*
D19*
X112988134Y-75000000D03*
%TD*%
D20*
%TO.C,D19*%
X109850000Y-95420000D03*
X109850000Y-92880000D03*
%TD*%
D17*
%TO.C,D3*%
X105472725Y-83900000D03*
X105472725Y-81100000D03*
%TD*%
D23*
%TO.C,Q3*%
X120662500Y-86600000D03*
X122537500Y-86600000D03*
%TD*%
D17*
%TO.C,D1*%
X110818175Y-83900000D03*
X110818175Y-81100000D03*
%TD*%
%TO.C,D5*%
X113490900Y-83900000D03*
X113490900Y-81100000D03*
%TD*%
D20*
%TO.C,D17*%
X109850000Y-87380000D03*
X109850000Y-89920000D03*
%TD*%
D24*
%TO.C,J1*%
X128380000Y-79250000D03*
X128380000Y-85750000D03*
%TD*%
%LPD*%
M02*
