%TF.GenerationSoftware,KiCad,Pcbnew,9.0.6*%
%TF.CreationDate,2026-03-12T20:57:09+01:00*%
%TF.ProjectId,sw63_mk4_v2,73773633-5f6d-46b3-945f-76322e6b6963,v2*%
%TF.SameCoordinates,Original*%
%TF.FileFunction,Soldermask,Top*%
%TF.FilePolarity,Negative*%
%FSLAX46Y46*%
G04 Gerber Fmt 4.6, Leading zero omitted, Abs format (unit mm)*
G04 Created by KiCad (PCBNEW 9.0.6) date 2026-03-12 20:57:09*
%MOMM*%
%LPD*%
G01*
G04 APERTURE LIST*
G04 Aperture macros list*
%AMRoundRect*
0 Rectangle with rounded corners*
0 $1 Rounding radius*
0 $2 $3 $4 $5 $6 $7 $8 $9 X,Y pos of 4 corners*
0 Add a 4 corners polygon primitive as box body*
4,1,4,$2,$3,$4,$5,$6,$7,$8,$9,$2,$3,0*
0 Add four circle primitives for the rounded corners*
1,1,$1+$1,$2,$3*
1,1,$1+$1,$4,$5*
1,1,$1+$1,$6,$7*
1,1,$1+$1,$8,$9*
0 Add four rect primitives between the rounded corners*
20,1,$1+$1,$2,$3,$4,$5,0*
20,1,$1+$1,$4,$5,$6,$7,0*
20,1,$1+$1,$6,$7,$8,$9,0*
20,1,$1+$1,$8,$9,$2,$3,0*%
G04 Aperture macros list end*
%ADD10RoundRect,0.250000X0.625000X-0.375000X0.625000X0.375000X-0.625000X0.375000X-0.625000X-0.375000X0*%
%ADD11R,1.800000X1.800000*%
%ADD12C,1.800000*%
%ADD13C,1.400000*%
%ADD14RoundRect,0.250000X-0.250000X1.150000X-0.250000X-1.150000X0.250000X-1.150000X0.250000X1.150000X0*%
%ADD15RoundRect,0.243750X-0.243750X-0.456250X0.243750X-0.456250X0.243750X0.456250X-0.243750X0.456250X0*%
G04 APERTURE END LIST*
D10*
%TO.C,D10*%
X126854525Y-83900000D03*
X126854525Y-81100000D03*
%TD*%
D11*
%TO.C,D14*%
X119471866Y-75000000D03*
D12*
X122011866Y-75000000D03*
%TD*%
D11*
%TO.C,D16*%
X106480000Y-75000000D03*
D12*
X109020000Y-75000000D03*
%TD*%
D13*
%TO.C,D21*%
X129200000Y-89700000D03*
X126660000Y-89700000D03*
%TD*%
D10*
%TO.C,D8*%
X121509075Y-83900000D03*
X121509075Y-81100000D03*
%TD*%
%TO.C,D12*%
X132200000Y-83900000D03*
X132200000Y-81100000D03*
%TD*%
D14*
%TO.C,SW1*%
X123500000Y-89800000D03*
X123500000Y-95600000D03*
X119500000Y-89800000D03*
X119500000Y-95600000D03*
%TD*%
D10*
%TO.C,D9*%
X124181800Y-83900000D03*
X124181800Y-81100000D03*
%TD*%
D13*
%TO.C,D20*%
X105830000Y-91400000D03*
X108370000Y-91400000D03*
%TD*%
D10*
%TO.C,D11*%
X129527250Y-83900000D03*
X129527250Y-81100000D03*
%TD*%
D13*
%TO.C,D18*%
X113870000Y-91400000D03*
X111330000Y-91400000D03*
%TD*%
D10*
%TO.C,D6*%
X116163625Y-83900000D03*
X116163625Y-81100000D03*
%TD*%
%TO.C,D4*%
X102800000Y-83900000D03*
X102800000Y-81100000D03*
%TD*%
%TO.C,D2*%
X108145450Y-83900000D03*
X108145450Y-81100000D03*
%TD*%
%TO.C,D7*%
X118836350Y-83900000D03*
X118836350Y-81100000D03*
%TD*%
D11*
%TO.C,D13*%
X128520000Y-75000000D03*
D12*
X125980000Y-75000000D03*
%TD*%
D11*
%TO.C,D15*%
X115528134Y-75000000D03*
D12*
X112988134Y-75000000D03*
%TD*%
D13*
%TO.C,D19*%
X109850000Y-95420000D03*
X109850000Y-92880000D03*
%TD*%
D10*
%TO.C,D3*%
X105472725Y-83900000D03*
X105472725Y-81100000D03*
%TD*%
D15*
%TO.C,Q3*%
X120662500Y-86600000D03*
X122537500Y-86600000D03*
%TD*%
D10*
%TO.C,D1*%
X110818175Y-83900000D03*
X110818175Y-81100000D03*
%TD*%
%TO.C,D5*%
X113490900Y-83900000D03*
X113490900Y-81100000D03*
%TD*%
D13*
%TO.C,D17*%
X109850000Y-87380000D03*
X109850000Y-89920000D03*
%TD*%
M02*
